<mxfile host="Electron" modified="2024-10-31T10:55:16.769Z" agent="Mozilla/5.0 (Windows NT 10.0; Win64; x64) AppleWebKit/537.36 (KHTML, like Gecko) draw.io/24.6.4 Chrome/124.0.6367.207 Electron/30.0.6 Safari/537.36" etag="3euPVg3DbMPj0DDca0nu" version="24.6.4" type="device">
  <diagram name="PÃ¡gina-1" id="amBWIchxkiCv5j-Gxpr-">
    <mxGraphModel dx="1318" dy="626" grid="1" gridSize="10" guides="1" tooltips="1" connect="1" arrows="1" fold="1" page="1" pageScale="1" pageWidth="827" pageHeight="1169" math="0" shadow="0">
      <root>
        <mxCell id="0" />
        <mxCell id="1" parent="0" />
        <mxCell id="q41vTv1glD9lVKqyJohb-11" style="edgeStyle=orthogonalEdgeStyle;rounded=0;orthogonalLoop=1;jettySize=auto;html=1;exitX=0.5;exitY=0;exitDx=0;exitDy=0;exitPerimeter=0;entryX=0;entryY=0.5;entryDx=0;entryDy=0;" edge="1" parent="1" source="q41vTv1glD9lVKqyJohb-6" target="q41vTv1glD9lVKqyJohb-10">
          <mxGeometry relative="1" as="geometry" />
        </mxCell>
        <mxCell id="q41vTv1glD9lVKqyJohb-31" value="&amp;nbsp; &amp;nbsp;RUC&amp;nbsp; &amp;nbsp;" style="edgeLabel;html=1;align=center;verticalAlign=middle;resizable=0;points=[];" vertex="1" connectable="0" parent="q41vTv1glD9lVKqyJohb-11">
          <mxGeometry x="0.2578" y="-3" relative="1" as="geometry">
            <mxPoint as="offset" />
          </mxGeometry>
        </mxCell>
        <mxCell id="q41vTv1glD9lVKqyJohb-6" value="Actor" style="shape=umlActor;verticalLabelPosition=bottom;verticalAlign=top;html=1;outlineConnect=0;" vertex="1" parent="1">
          <mxGeometry x="710" y="240" width="30" height="60" as="geometry" />
        </mxCell>
        <mxCell id="q41vTv1glD9lVKqyJohb-47" style="edgeStyle=orthogonalEdgeStyle;rounded=0;orthogonalLoop=1;jettySize=auto;html=1;exitX=0.5;exitY=1;exitDx=0;exitDy=0;entryX=0.5;entryY=0;entryDx=0;entryDy=0;" edge="1" parent="1" source="q41vTv1glD9lVKqyJohb-10" target="q41vTv1glD9lVKqyJohb-46">
          <mxGeometry relative="1" as="geometry" />
        </mxCell>
        <mxCell id="q41vTv1glD9lVKqyJohb-56" value="&amp;nbsp;DNI&amp;nbsp;" style="edgeLabel;html=1;align=center;verticalAlign=middle;resizable=0;points=[];" vertex="1" connectable="0" parent="q41vTv1glD9lVKqyJohb-47">
          <mxGeometry x="-0.1776" y="1" relative="1" as="geometry">
            <mxPoint as="offset" />
          </mxGeometry>
        </mxCell>
        <mxCell id="q41vTv1glD9lVKqyJohb-10" value="&lt;font style=&quot;font-size: 16px;&quot;&gt;&lt;font style=&quot;&quot;&gt;API&lt;/font&gt;&amp;nbsp; &amp;nbsp; &amp;nbsp; &amp;nbsp; &amp;nbsp; &amp;nbsp; &amp;nbsp; &amp;nbsp; &amp;nbsp;&lt;/font&gt;" style="rounded=0;whiteSpace=wrap;html=1;" vertex="1" parent="1">
          <mxGeometry x="940" y="130" width="140" height="50" as="geometry" />
        </mxCell>
        <mxCell id="q41vTv1glD9lVKqyJohb-158" style="edgeStyle=orthogonalEdgeStyle;rounded=0;orthogonalLoop=1;jettySize=auto;html=1;entryX=0.5;entryY=0;entryDx=0;entryDy=0;" edge="1" parent="1" source="q41vTv1glD9lVKqyJohb-13" target="q41vTv1glD9lVKqyJohb-152">
          <mxGeometry relative="1" as="geometry" />
        </mxCell>
        <mxCell id="q41vTv1glD9lVKqyJohb-13" value="" style="shape=image;verticalLabelPosition=bottom;labelBackgroundColor=default;verticalAlign=top;aspect=fixed;imageAspect=0;image=data:image/jpeg,/9j/4AAQSkZJRgABAQEAYABgAAD/2wBDAAMCAgMCAgMDAwMEAwMEBQgFBQQEBQoHBwYIDAoMDAsKCwsNDhIQDQ4RDgsLEBYQERMUFRUVDA8XGBYUGBIUFRT/2wBDAQMEBAUEBQkFBQkUDQsNFBQUFBQUFBQUFBQUFBQUFBQUFBQUFBQUFBQUFBQUFBQUFBQUFBQUFBQUFBQUFBQUFBT/wAARCAFPA4cDASIAAhEBAxEB/8QAHwAAAQUBAQEBAQEAAAAAAAAAAAECAwQFBgcICQoL/8QAtRAAAgEDAwIEAwUFBAQAAAF9AQIDAAQRBRIhMUEGE1FhByJxFDKBkaEII0KxwRVS0fAkM2JyggkKFhcYGRolJicoKSo0NTY3ODk6Q0RFRkdISUpTVFVWV1hZWmNkZWZnaGlqc3R1dnd4eXqDhIWGh4iJipKTlJWWl5iZmqKjpKWmp6ipqrKztLW2t7i5usLDxMXGx8jJytLT1NXW19jZ2uHi4+Tl5ufo6erx8vP09fb3+Pn6/8QAHwEAAwEBAQEBAQEBAQAAAAAAAAECAwQFBgcICQoL/8QAtREAAgECBAQDBAcFBAQAAQJ3AAECAxEEBSExBhJBUQdhcRMiMoEIFEKRobHBCSMzUvAVYnLRChYkNOEl8RcYGRomJygpKjU2Nzg5OkNERUZHSElKU1RVVldYWVpjZGVmZ2hpanN0dXZ3eHl6goOEhYaHiImKkpOUlZaXmJmaoqOkpaanqKmqsrO0tba3uLm6wsPExcbHyMnK0tPU1dbX2Nna4uPk5ebn6Onq8vP09fb3+Pn6/9oADAMBAAIRAxEAPwD9OPDKlvD+nbuT9njzjgZ29a2PLH90VleGuPD+n/8AXun/AKCK1+a0qfHL1MaavBXGGP5eFGaNueoFP5pAvtWRpyoZ5fy4wKPLHsKkx7UbaeocqI/K5HHApfLGfuqPwp+KKWocqI9p9qd5f+yKXFHNA+VDfL9h+VNEeM8cVJzS4oCyGbfYflRtyOODTtvtRtphZDNp47/WnbeegpdtG2kKyGeX7AH1p3lj0H5U7bSc0Dshoj46DNJtPpT+aXbTCyGeX7UmzjgY+lSUYo1CyIyvU4596Xb7Cn4oxS1CyI1jI9B7U7yx6CnbaTmmFkM2f7Io2H0H40/n0ox7UBZDfL/zx/hRs74x9KfijFGoWRH5fYgH8KPLH90flUmKNtLUXKiPZ1xj8qdsHoPyp2KOaYcqGeX7A/hRtwOmfrT+aNtIdkR7D/dWjy/p+FSbaMUxcqIzH7Z+tLt/2RT8UYpDsiMp6AU7yx6D8qdtFHNAWQ3yx/dFM8v6VLRtphZDPLH90Unl8en0qSjFGoWRH5ft+dO8selOo59aNRcqIvLx6U7yx/dFP20c0ahyoZ5fXgH8KbtPGeal5pNvtQOyG+WP7tIE9gPoKk6UnNGoWQwr6qD9aPL/ANhafzijFF30Cy7DPLOMY/Kl8segp3NLigLIYE9Qv5UnlcYxgelSfhRtpBZDNnsPyo2bvb6U/bRtphZDPL6570hjPov5VJijB9aNQ5UM2e35Cjy/ZafzSc0BZDfL4+6Kb5Z7/N+FSc0YNAcqGeUP7o/Kho9q8DB+lP5o5pC5V2GeWDxgGl8sf3RTttLj2p3Hyoj2n2pfL+b7op232peaQWQzyzt6AGjZ+P1p/NGKYWQzyx/dGKTy+OBt+lSbaMUvmFkM8vPb86PLH90U/FJg09Rcq6kZQ54wPwp+wf3RTuaOaQ7IZsPYCmqh7gfSpMUY9qAshnl+woMftj6VJikxTuwshnljb0yfelC/7Ip+Pejmi7Cy7DPLPbFHlj+6CadijmkFkJt9hSBD9frTuaMUwsM2f7Io8v0GPpUm2gUCshnl+ozR5Y/u080Y9aNQ5UR7T7D6AUvlnP3VxTto9KOaA5UN8v8A2V/Ok8s9P6U/FG2gdkM8v2H5Cl8sdhj6U/H4UYo1CyGFOOmfrSbR/dX8qkxRRqFkRhenAx9KXy/YflTse1LzSFyoZ5fsp/Cjyx2FP5ox+NMdkR+X/s/pS7Pl6U/8KMUai5URtH04H407aP7v6CnYoxSHyogaPpzj6UU/buNFMXKjN8N/8gHTfe2jx/3zWvWP4bGPD+mbeR9mj4/4CK2Kup8cr9yafwIKKKKg0CiiigAooooAKKKKACiiigAooooAKKKKACiiigAooooAKKKKACiiigAooooAKKKKACiiigAooooAKKKKACiiigAooooAKKKKACiiigAooooAKKKKACiiigAooooAKKKKACiiigAooooAKKKKACiiigAooooAKKKKACiiigAooooAKKKKACiiigAooooAKKKKACiiigAooooAKKKKACiiigAooooAKKKKACiiigAooooAKKKKACiiigAooooAKKKKACiiigAooooAKKKKACiiigAooooAKKKKAI1ODz6mikNFLUkzfDPPh/TP+vZP/QRWvWN4Xbd4d0wnjNtH/wCg1s1pUfvy9SKWlOKCiiioNQooooAKKKKACiiigAooooAKKKKACiiigAoopCcdaAFopu4UeYvrQA6ikzS0AFFFFABRRRQAUUUUAFFFFABRRRQAUUUUAFFFFABRRRQAUUUUAFFFFABRRRQAUUUUAFFFFABRRRQAUUUUAFFFFABRRRQAUUUUAFFFFABRRRQAUUUUAFFFFABRRRQAUUUUAFFFFABRRRQAUUUUAFFFFABRRRQAUUUUAFFFFABRRRQAUUUUAFFFFABRRRQAUUUUAFFFFABRRRQAUUUUAFFFFABRRRQAUUUUAFFFFABRRRQAUUUUARt0oob5sgdaKCTM8OYOg6YQMf6NHx/wEVr1k+HBjQdNH/TvH/6DWtVT+OXqTT+BBRRRUmgUUUUAFFFFABRRRQAUUUUAFFFFABRRSUAFN7UkjYxWdqmsWmjWFxeXlzFZ2sCGSWaZwqRqOpJPQUeY0m2kupoFxxzj61BFeQySOEljcjrtYHH1r8zv2oP23tc+IGr3Gh+AtRm0jwxbuYn1G3+W4vmHdSMFUHY9a+eND+KXjTw3qUWoaV4v1i2vEbf5jXcjqxHQMpbBFcrxHvWSufrGX+HWPxmFVerNU5PVRf6n7gK3ykg5+lSV8pfsi/tfW/xosV8PeJZLez8Z2qfNj5EvlHHmRj1z2619So+W5PFdEZKWzPzfMMvxGV4iWGxUeWSLFFJmlqjzgooooAKKKKACiiigAooooAKKKKACiiigAooooAKKKKACiiigAooooAKKKKACiiigAooooAKKKKACiiigAooooAKKKKACiiigAooooAKKKKACiiigAooooAKKKKACiiigAooooAKKKKACiiigAooooAKKKKACiiigAooooAKKKKACiiigAooooAKKKKACiiigAooooAKKKKACiiigAooooAKKKKACiiigAooooAKKKKAI1+/+dFKv3s0UCMnwx/yL2mZPP2aPP/fNbNZHhkbdB07/AK94/wD0GterqfGyaesVcKKKKgsKKKKACiiigAooooAKKKKACiik3CgBaiZyOgzT9w55rP1K+t9Mtbi5up0t7eNDJJNI21UUdSSegoCzbshdT1S102znu7ueO2toUMkksrbVRR1JJ6AV+Yn7Xn7XVx8Yr+58KeFrhoPBdu22a4XKvqbj16ERj0PWpP2vv2vLn4tX934Q8K3D2/g63fbc3KMQ+pMDyB6Rj0PWvl1mUqAOMDbjHAX0X6VyVKnN7sT+huC+Dfq6jmOZR9/7Me3m/MarBVAAx1GFAUYP8vwpPf7reopKKhRSR+2WLen6leaTqVrf6dcyWOoWr+bBdQna8TZzkH+Yr9Ov2Rf2urX4zWEfh7xC8Vl4zs0XeCSqXqAf6yMevqK/LxWGMfw/561a0vVLvRdStdR067ksb60dZLe6jJEkbDvkfqOmKmLdN3R8jxHw5hs/w3JNWqL4Zdn5+R+7Ym4HI64qevlr9kj9riy+NGmpoOvvHZ+M7OIGRQQEvVHWSP39R1HpX1CJ0P8AF2zzxx613RkpK5/JuY5fiMrxEsNio8sl+PmiSikDBhkdKWqPNCiiigAooooAKKKKACiiigAooooAKKKKACiiigAooooAKKKKACiiigAooooAKKKKACiiigAooooAKKKKACiiigAooooAKKKKACiiigAooooAKKKKACiiigAooooAKKKKACiiigAooooAKKKKACiiigAooooAKKKKACiiigAooooAKKKKACiiigAooooAKKKKACiiigAooooAKKKKACiiigAooooAKKKKACiiigCP0/Gij+IDviiqRmzM8NNu8P6aRz/o8f8A6DWtWT4ZAXw/poAwPs0f/oNa9Op8bCmrQSCiiioNAooooAKKKKACiiigAooooASmnpSN/DzzUctxHHC8jOFQDcWPQD1oDV6Iq32oQ6fay3NxKlvBGpeSRzhVUdSTX5o/thftfT/FS+uvCHhG6kh8I28hF1eRPh9QYfwr/wBMx+tS/tkftcXPxK1C68F+D7qaHwxazmO9v422tfuDgoCOiD9a+S1VU4ACgDGFH8vSuOpU9ppE/oTgvg32KjmmYx97eMX0835jlCqgRBtUdFAAA9qSl/l6UlSlZH7dsgooopjClVtpzjPtSUUAXNL1S90LVLTUtMuX0/UbV/Ohu7dirxn1H+HfvX6g/skftaWXxq0qPQddmjsvGdnH+9iyAl6v/PWP/wCJr8ssn9c//Wq5pWr3vh/VbXUdLvJrHU7VxLb3Vvw6MPQ/zB4pKTg7o+O4k4bw+f4fllpUXwy7eT8j93I2G3Gfapc18u/sk/tZ2Pxq0v8AsLW5IbDxraR7pY84jvFx/rYvX3HavpuGQfxH6V2xkpK6P5OzDL8RleIlhsTHllH8fTyLFFJmlpnnBRRRQAUUUUAFFFFABRRRQAUUUUAFFFFABRRRQAUUUmRQAtFJkUtABRRRQAUUUUAFFFFABRRRQAUUUUAFFFFABRRRQAUUUUAFFFFABRRRQAUUUUAFFFFABRRRQAUUUUAFFFFABRRRQAUUUUAFFFFABRRRQAUUUUAFFFJQAtFJS0AFFFFABRRRQAUUUUAFFFFABRRRQAUUUUAFFFFABRRRQAUUUUAFFFFABRRRQBH3B+tFHp+P86KpEmZ4b/5AWmj0t4//AEGtesbwu3meH9MPQm2jz/3zWzVVPjl6k0/gQUUUVmaBRRRQAUUUUAFFFFABRRRQBG33cetfKn7fnxqk+G3wvj8PaZM0Ws+JGaANGeY4AuJGPpkfKMd6+q5Pu1+TX7eHjCfxR+0drFlI7G30W3jso1zwpwJGb6ndj8Kxqy5Yn3vBOVwzTN4e0V40/efy/wCCfPcarEu0DcoJwrc9TnNJRRXMlyn9a25dEFFFFUMKKKKACiiigApdx4wduO4/nSUUAXtH1i+8O6tZ6tpd3NYapZOJbe8hOHRh3H/xPQ96/UL9kv8AaysfjZpUWja3LDZeNbSPE9vwq3a/89Iv6ivyx3Db/nr6ir2i65feGdYs9X0i8k0zVbSUSw3cH3kcdx7HuOlJSdN3R8ZxLw1huIMO4vSqvhl/n5H7q/aNv3iBzt69/T61Zr5l/ZP/AGsNO+OWippOrvBYeNrNP9JtQNq3SdpovY+navpb7RHgHeMHgV2RkpK6P5Ox2Br5biJYbEx5ZL+rryJKKbuFOqjgCiiigAoopM0ALRSFgOtIGDdOaAHUUxZFbkHI9e1QXOp2tmpaeeOFVGSZHAwPxppOWiJlJR1k7FqiuB1j49fDvw/MYtR8Y6RaSDqsl0oP86wZ/wBrT4P27bZPiBowP+zNu/kK7I4LFS+GlJ/JnK8Zho6OovvR65RXksH7WXwguG2p8QNFz/tT7f5itrS/2gPhzrUmyx8Z6PctnHyXaf40SwWKj8VKS+TBYzDPRVF96PQKKz7PxBpuoIr219b3Ct0MUgbP5Grnnrxz16VySi4/ErHTGcZfC7klFReevrTvMHJxUlj6KTcKM0ALRUfnLz7cVnax4o0jw/bmbUtRtrGIDJa4lCfzqoxc3yxV2TKUYrmk7I1aK8xuP2mvhXayMkvjzRFZeo+1qasaf+0V8M9WkVLTxvos7McALdp/jXU8Filq6UvuZy/XMNe3tF96PRqKqWeqWuo26z2s8dxCw3K8TBgR+FWq5GnF2Z1qSkroWiiikMKKKTcKAFoqFrqONSzHao5JPQf5xXJa/wDGbwN4Wk8vVvFelWEnTbNdID/OtYUqlR2hFv0MqlWnS+OSXqdnRXlq/tRfCdn2jx9oZb/r7Wuq8O/FDwn4ux/YviHT9Sz0+z3Ctn8jWs8JiKavOm0vRmUcXh6jtGon80dRRUfnKaduHHNcp1DqKbvFZus+KNJ8PQ+dqeo29jFjO+4kCD9aqMXN8sVdkylGCvJ2NSivL7r9p74VWUjpN480VGXgj7SD/Kktf2oPhPfSrHD4+0N3bov2tR/Ouv6liv8An1L7mcv1zDXt7Rfej1GisjRfFmj+IoPO0vUbbUI+u62lD/yrU8xfWuSUZQdpKzOqMozV4u6H0Um7pS1JQUUUm6gBaKi+0ICRnkdaydc8baD4ZhM2ravZ6dGOS1zMqfzNVGMpvlirsiU401ebsbdFeXyftQfCeFtr+P8AQVP/AF+J/jWvoPxx8AeJ5AmleLtJvnPaG6Q/1rqeDxMVzOnK3oznWLw70VRfejuaKhjuo5EDowdDyGXkfWpa4zqvfYWikzS0DCiiigAooqPzgOvFAElN3Bhwc1xvjT4zeCfh0wXxL4m07RpCNwjupwrn/gPX9K8q1H9vX4M2Dsn/AAk5uiv/ADwtnb+ld9LAYuuualSk15JnFUxuGou1Sok/U+hw1Lur5wt/2/vg1MwVvEE0JPRntH/oK9A8IftLfDHx1NHBovjPS724kOFg8/a5P0bBqqmW42kr1KMkvRkQx+FqfDUX3nqFFRLcK6gryD0PrUlecegLRRTGlVVJJwB3oAfRWHrPjfQPDrKup6xZWDN0FxOqE/TJrN/4W54L/wCho0v/AMCk/wAa2jQqyV4xb+Rg8RSi7Oa+866iuS/4W14M/wChn0v/AMCk/wAaT/hbfgz/AKGfS/8AwJT/ABqvq1f+R/cyfrND+dfejrqK5H/hbfgz/oZ9L/8AAlP8aP8Ahbfgz/oZ9L/8CU/xp/Vq/wDI/uYfWaH86+9HXUVyP/C2/Bn/AEM+l/8AgSn+NH/C2/Bn/Qz6X/4Ep/jR9Wr/AMj+5h9Zofzr70ddRXI/8Lb8Gf8AQz6X/wCBKf40f8Lb8Gf9DPpf/gSn+NH1av8AyP7mH1mh/OvvR11Fcj/wtvwZ/wBDPpf/AIEp/jTo/ix4NkKhfE2lksdo/wBKTr+dL6vW/kf3MPrNH+dfedZRVeC+guo0khlWaOQbleNgwYeoIqxXP1sdCaaugooooGFFFFAEf8Q/GijPOMUU0SZnhn/kX9N7f6PH/wCg1r1keG/+QDp3/XvH/wCg1r1dT45epFH+HH0CiiiszUKKKKACiiigAooooAKTIozTNw3ZzQASsNme1fkP+2xpDaT+0x4tYq2y9WK7XI6goq8fipr9ZdY16w0G3We/vIrKJ3WJTMwXczEBVHqSSK+GP+Clfwsdo/D/AMQLO3eQQD+ztQaMcIhyY2P/AAJiKwrRbhex+keH+ZU8HnKpTf8AEi4/PdfkfB/Wil9Mc56e/wBKMGudO+p/VYlFL7UlUAUUUUAFFFFABRRRQAUvHU9FGQvqaSiluI0NB8Qal4X1ez1fSb6XTtUs5BJbXMAG5G9/VfVelfqR+yj+1dp/x30M6Vq8kOn+M7OMC4s84W6X/ntF6j1HUV+VO6tHQde1DwprVjq+jXc1hqVnJ51vcRNh0cds/wB31B4NTGTps+K4l4aw+f4ez0qx+GX6PyZ+6kZG0EHj25zU1fN37Kn7Ven/AB20P+zr+SKw8Z2katdWO7alwo/5aw56qfTqO4r6MikDYOevT3rvUlJXR/KGOwNfLsRLDYmPLKP9aE1FJkUtM4Qpv1p1V5m3bcE+9AD5HG0814/8av2nvAvwNtwut6ks+rumYtHtAHuH+o/h/HFeT/tjftdH4Txjwj4RmSXxhdRhprj70enxsSNxHdzjgdu9fnJfX9xq2o3Op6hcz6jqVy2+a7upC00h9CT0H0r7/IuF6mPisTiny03surPi824ghhW6NBXl37H0v8S/+Cg/xF8YSSW/heG18H6aw2iQr59yffceFP0zXz74m8ceJvHFy0/iDxJq2rOwwftV0zr/AN854FYgyRzyfelr9WwuV4PBRtRpJfLX7z83xOZYrEu9SZClnAmdsSgjo2SCfxqQQovAUY/3jThyM9qQkL1OK9TlS1R57k29xphRusa5+h/xqNrG25/0eNj6kVNnNIMtwOtManJbMs6ZfX+hyiXTL+706VfuyWsxjYflXqngv9rX4t+CZIvsfjG51SBRj7PrA+0Lj0yea8jorjrYPDYhWqwUvVHRSxdai7wk16H3R8Nf+ClUSvFa+PfDcluvQ6jpB8xc/wB5ozjH4E19d/Dn4veEvitpa33hfW7bU4v4kjfEifVDyOvpX4u7h6da634ReONU+GvxN0DxDo87W1wt7DDPCgO25jd1VlcDqfmP5V8Pm3COFqwlVwnuSWtuh9fl3EeIjNUq+q/E/axT8xoPYVFbsJFV+m4Zqevxg/U0+ZXRxPxc8dL8Nfhr4g8UNF5j6ZaSTpH2Zwvyg/U4r8c/GXjTXPifrk+t+KtUm1O8mcyiKRiYos9Ai9FAH1r9WP2xP+TcfG//AF4tmvyLh/1Keuxf/Qa/XuCsNSdGpWlG8r2/A/NOKsRUhWjTi7Kw1beJekSj3ycmk+xwFlzEuM5PXj8M1NSHO6v0zfRs+A55X3PVP2cfjdr3wV+IWiyWWoXMvhy8u0tr/SpHLRMjnAZFPCsP736V+xCfcFfhfpRH/CQaUD0+1RD6fMOa/c+H/Vp9K/H+NcPSp1qNWCs5J387W/zP0/hXETq06kJu9rfjcfRRRX5sfeBUf04qSo6Tv0A+Bf8Agoh8cPEOl+ItO8AaJfS6XYvbLe6lNbOUlnViwEYI6D5ecetfDf2WHzA5gUnudxzX0z/wUM/5OL9f+JPBx/wN6+af4a/obh3D0qOW0ZQjZyV2z8SzvEVKmNqRlJ2TIxaxdo1U/j/jUkObSRJrWSSxuozlJrZyrK3qD2owfWl/ir6SSUtJK6PCVSSd0z9Lf2BfjbrXxT8A6tpHiG5a/wBX0CdIxeSDmaGQEpu9xg/lX1UG6+1fB/8AwTBUeb8Q+/zWf/oMtfeX96v544hoU8PmdWFJWWj+9Jn7XkdaeIwNOU/61OW+J3jBfAHw/wBe8ROhk/syyluVT+8yocD8Tivxs8bePtd+KuuT674q1O51O5uWaRIWkPlQA8qsaHhR+dfrR+1D/wAm/wDjn/sFzf8AoNfjra/8elv/ALi/yr7fgnD03Rq12ryvb8D5PirEVY1YU4vSwLawxrgRAjvz1P5UvkRngx5HpuPFS5xxRX6jY/Pudmt4P8Za58OdcttX8L6pNpOoQOHRYmPlyY/hdOhWv1Z/Zq/aL0r9oHwal7FssvEFmBHqWmbvmgfuyjujdmr8j9o5HY/xd66L4dfEPXfhH40sPFXhqfytRtiBLCzYjuY/4o39j+navlM+yKlmtFzpq1RbPv5M+lyfN54Gqozd4vc/bgMBjn8KeGB6V5j8C/jdoPxz8C2niHSJlSQ4ju7Jm/eWs3Qow/keh7Zr0qORfWvwStSqUKjpVFaS0Z+xUqsa0FUg7pktNI5FLuFFZGp5B+098VLn4N/BrXfEllGsmoxqtva7vurLIdqt+BOfwr8i9b1bUvFepT6pr2pXGs6nO26a4uXJYn0HYCv03/4KF/8AJtuqf9f1r/6NFfl6v3QfWv2bgvD0/qcq/L7zla5+V8UV6kcTGlfRIRLeNeAgI9DTPssLSkiNQ3Z+9TUlfoll1PiOeSd0z7K/4J9/HPxD/wAJw/w71bULjU9IubV7mwe7cvJbOuN0YbqVO7vX6IRZC8jFflJ+wkd37TGhA97G5P8A46tfq8vSvwri3D06GY3pq3Mk3bufsHDdedfB3qO7TEIp1FFfFn1YUUUm4UANfPavIv2mPjDH8E/hJq2vxSR/2oV+zadG5zvuH4Xjvg8164zDBNfmB+3x8YB8Q/ixF4WsZg2jeGMh9pyJLpwN312jA/E19DkWXPMsbCm17q1l6I8LOMcsFhZTXxPY+Z9S1C917U7nVNXuJNT1a8kaWe8un3vIx+vTHYcUcFui/XaKZ/EOKWv6GhFRilFWSPxGdSdR8zeobnVhtbavcDv+lMmgilcNJlj/AAspIZfoetOo56HpWju9O4ozcdUfpD+wJ8eLv4ieEL/wjr9813r+hMPJmlP7y4tDwjH1Kn5T3r67VhtHNfi38D/ilcfBn4qaF4qgJa2ilEF9Fzh7Z+GH4Z3fUV+yul6pa6vYWt9ZyrNa3ESzRSr0ZGGQR+Br8H4pyxYDGurTXuVNfn1R+w8P4/63h+SXxRNCvPfjp8SF+Efwq8Q+KdokmsbZnt42BIaUjCKcdskV6Cpr5w/b+Dn9mbX9ucC4tS5H93zVzXzuXUY4jGUqU1o5JP7z3cdVlRw1SpDdJn5f+Itc1PxxrlxrniO7fVtWu3aaWady2C3O1P7oHbFZv2OD/niv5mptgCRspxle9NyfWv6VhTjTXLFWS6H4NUr1KknJyZF9ig/54rR9jg/54rUufejn1q7Iy9pPuRfY4P8AnitH2OD/AJ4rUvNHNHKg9pPuRfY4P+eK0fY4P+eK1LzRzRyoftJ9yL7HB/zxWj7HB/zxWpefWkyaOVB7Sfcj+xwf88VoksYduTErc46nj3qTJpzMcEe1HKnuNVJ9z7E/4J6fGrWNP8dS/DzVr6a90a9t2udNFy5dreRCMxqT0Ujcfwr9Gq/IT9jhW/4ac8EKpYt5kxcD+75T5/pX69V+H8X4eGHzBSgrc0U3bufrvDVepXwb9o72YtFFFfDH1oUUUUARj74/Gig/eB+tFNE3MrwsD/wjuljqfs0ef++a2ayPDQ26Dpo/6do//Qa16qp8ciKV+RXCiiioNQooooAKKKSgBaT8aTJpu8bcjpQA3ceu7npXNeOvH2i/Djw3e6/4gv49O020QtJJKeSeyqOrE+g5qH4k/EvQfhT4TvPEXiHUIrDTrVc/O3zO2OI0HVmJ7AZr8pv2hP2h9c/aE8Trd3waw8OWrN/Z2jK2VC9pJfVz+navpskyOtm1VPamnq/0XmfPZpm1LLoNLWb2R7Z4P+M+sftfftVeE7W5iay8FaPPLqNppLHDExqSksv95twGB0Ffe3jrwPpnxC8KapoGsW4uNO1CBoJYz1wR1HoR2r4H/wCCaOhx6h8TvFusOu57Kwjt4yR90u5J/QV+jhjytdHE0KeHxiwtFWjTil9+rJ4erVnS+uOXvt3v2tsfi/8AHn4E618A/Glxo+pxySaXIzNpupbf3dxEei57Mvp1rzllPp16r6fjX7bfEj4V6D8WPC9xoPiOxS9spQcEgb42/vof4T9K/OP46fsHeMfhm9xf+Fo5PFnh0NkRxY+2Qj3GPm/DNfAypSpu61R/XnC/HGGx9KOGx8lCr3eifn69z5j7Y6e9Nqa8jmsbuS1vI5LO6jOGguo2jkH1UgGomyvBDA/Q01JM/WIyU1eLuJRQPmGRz9KOOmR+dFygoo7E07b1H8P96ndBYbS7TQOc8gY9SBRz70XHYSilpKYgp27p7Zx+PrTaKQGj4f8AEGpeE9YstZ0e8ew1SxcSW9xEcMrA9D6qe46V+p/7Kf7VGn/HrR2sb5otP8X2Sf6ZYg4WcYx5sWf4c/jX5Qe/tjH9a0/DviPVPCOvWWtaLey6dq1nIJLe6hOChB6H+8p7qaUZODPiOJ+GaHEFB30qx+F/p6H7oi43cjn2FWK+df2Vf2qNM+PWgmzuxFp/i+xQfbrHOBKMf62PPVT+Y719DiZcZHI6V3RkpK6P5QxuCr5diJYXEx5Zx/rQkriviz4+tvhn8Odf8U3I3xaZaSTiPON7AYCj3zXaZr5V/wCCjWrNp/7PbWqllF9qttC2D1XLMR+O2vSy7DrF4ylRe0mkeFmFf6vhp1eyPza1vxBfeKtev9d1Wb7RqmpTNdXErdSxJ4PsPSqO3nd/FQuMnHPfPqKK/peEI04qMVax+C1KkpycpbsKXPzcjcTSU24keK3cxjLqrY+oqzOK5tC7pOian4k1Mafoum3Wr33/AD72cLSEfUgYH416jp/7I3xj1KFZo/At2sbDI82aJT+RfNfd/wCxD4N8O+H/AIG6Df6NFDJealGZ726VQZDKTgoT2x6V9F4G3OOMYyetflGZcY1qGInRoU1aLtd7n6NgeGaWIoRq1JvXsfj3q37K/wAX9FjMk/gHUmjXq1u0ch/JWJrz7W/Det+G8/2zomqaTjqbuzkVfz21+4m0L2P0NVr3SLTVrZob60hu4W6xXCCRT+BrlpccV/8Al9RT9G1/mdVThOjtTqM/DGORZwSjB/YHn8qf91Se3+z0r9XviN+xN8LviH5sz6AmiX7j5bvSD9nKn/cXCn8q+Sfil/wTz8c+E2kufCN/H4xsN3yW8ziC6QfXhT+dfXYHirL8VaM3yS89vvPmcXw7i8MuZLmXkfKyjcqsMY9ScD2r6D/Ys+Adz8XviVBrmoW7r4U8PyiaWRlO26uQQUiU9wpySfatX4TfsD/EHxtq0J8Yw/8ACJaBG+6cmVXupV7qgUkDPq2K/R7wH4A0b4c+F7HQNAslsdLs02xQp1z3Ynux9a8riHiWlToSw2EkpTlo2tkvU9LJMiq1Kir4iNorZHQRfe6c4/Kpu9MVNrEgU/vX42fqXoeK/tif8m4+OP8ArxavyLh/1Sf7i/8AoNfrp+2J/wAm4+N/+vFq/IuH/VJ/uL/6DX7RwT/udT/F+iPyviz/AHiPoOooor9EPhUWtL/5GDS/+vyL/wBCWv3Rh/1SfSvwu0v/AJGDS/8Ar8j/APQhX7ow/wCqT6V+Scb/ABYf/t79D9I4Q2q/9u/qPooor8vP0YKi/wAKlqL/AApPYD8uv+Chf/Jxg/7A8H/ob181fw19K/8ABQv/AJOMH/YHg/8AQ3r5q/hr+j8j/wCRbQ/wo/Cc4/36r6sWkP3jS0h+8a9w8U+6P+CYP+s+In+/Z/8AoMtfeP8Aer4O/wCCYH+s+In+/Z/+gy194/3q/n/ij/ka1fl+SP2rh7/kXU/66nlv7UX/ACb945/7Bk3/AKDX452n/Hnb/wC4P5V+xn7UX/Jv3jn/ALBk3/oNfjnaf8edv/uD+VfccEf7nV/xfoj5Piv/AHiHp/mTN96ihvvUV+k9D4EKTaO4zS0tIZ3XwX+MeufAnxpD4g0NjNbNhNR00nEV3D3z/tjsa/Wz4XfFDQvi14LsPEvh+8F3p90nTI3xNj5o5B2YHqK/FgEjABwO3tXq37O37Qmqfs8+LBeW4ku/DN9Iq6ppoP3h081B2cfrXw/EfD8cxh7fDr94v/JvI+xyPOngpqlWd4P8D9g92eakrnfCHi3SvHPh2w1zRbyPUNMu4/NhnibII9Pb8eldB5lfh04yptxmrNH63GSmlKOzPmb/AIKFf8m26t/1/Wn/AKNFfl4v3Vr9Qv8AgoV/ybZqv/X9a/8Ao0V+Xq/dWv23gv8A5F0v8T/JH5RxV/vq9BaKKK+9e58Se/fsI/8AJzWg/wDYPuf/AEFa/V+vyg/YR/5Oa0H/ALB9z/6Ctfq/X4fxl/yMI/4V+p+vcLf7k/Vi0UUV8IfZBURJ3c1LUDNuJxzilewHmP7RXxag+DPwo1nxGzoL2KIxWKOobzLhuIxjPPPWvx5mup7y4kurpzJd3EjTzSMclpGJJJ/PH4V9R/8ABQP4vv42+KFr4NsZd+keGzvucEESXbDP/jqkfiTXy1uyzFhnd+lfuvCmW/UsEq1Re/U1+XQ/HuIsweKxDpxfux0Ciikr7fV6nyIUUKQ3Qg/TpRQHqNaJXjaNuUbgj1r9IP8Agnv8ZD4w+HFz4N1Cbdq3htgkIcktJat9w5/2c7PwFfnDXoPwD+K03wV+Leh+JlZvsPmi11GNc4a2c4Yn12k7vqK+bz/LlmWBnTS9+Oq9V/me/k2OeCxSk3o9GfszGwrifjL8Pbf4q/DXX/C1w3lLqFq0Ucp/5ZyY+VvwOK6zTr6C+sYbm3dZIJUWRHU8MpGQR+FTyKWUAL+dfz5TnOjUUlo4v8j9plGFam4y2a/M/Ebxl4A8R/DHWrjRPEuk3dhe2rGPzDAzQzKOhVgCDn61z28/885/+/L/AOFfufd6Lbagqi7toLracr58YfH0zUH/AAimkf8AQIsf/AdP8K/TafHElBKpRu/U+DqcJRlJuNTT0Pw33n/nnP8A9+X/AMKGk2qT5U5A6nyXH9K/cj/hFNI/6BFj/wCA6f4UyTwjo7IQdIsSD1Bt0wf0rVccr/nx+P8AwDH/AFR/6en4epIskYdR5gPG4fXH4UV6Z+03odj4X+P3jfTNLt0tbKO6RkhQYVd6BjgfU15nX6ZhqyxFGFZKykk7HwOIo+wqSpPowpN3QFd1LSqx8xccGuk5yLzB5rRqHdxywjQtt/IUu8/885/+/L/4V+lP/BP3wPolx8A7LVZNLtZ769u52mnmiV3ba5UDJHtX0/8A8IppH/QIsf8AwHT/AAr82xvGEcJiZ4dUb8rtufe4Xhh4mjGq6lro/Dfef+ec/wD35f8AwpyszZVIriRycBVgcn8sV+43/CKaR/0CLH/wHT/CgeE9JVgy6XZq4OdywID/ACri/wBef+nH4nV/qj/09/A+Ev8Agn/8Adbg8XXHxE1/TpdMsorc2ulwXSbZJd33pSp5HA7gda/QaqyW/lrtVQAOmO3tVmvz/M8xq5piZYiqrX2XZH22X4GGX0VRgFFFFeUekFFFJQAxu30oo/iH0oprYhrUzPDbD+wdK97ZP/QRWvWN4ZXb4e0tc5xbR/8AoNbNVO/PL1Jp/CgoooqDUKKKKACmnrTqiLDPWkArSKB1rhviz8W/Dvwb8H3fiDxFfJb2kQIjiJzJcPjiONepOaqfGj41eHfgf4Nudf8AEFxgINsFnGd01zJ2RB3OfwFflH8ZvjL4i+O3i2TX/EVw0VvG2LHS43zDaR9gB3b1brX1uQ5DVzaaqVNKa3ffyR8zm+cU8BBwi7zLnxy+O3iH9oDxV/a2usbXTIWxpukRyZitl/vH+9If7x6dq85XlskYOeM0ncUrfNtPTNfu2Hw9PDUo0aMbRWx+QV69TETc6ju2fdH/AAS/ij2eP5cfvftMKn/d2n/69fegdexr83f+CbnjCHRvif4m8Pzy7G1SzWe3BP33jPzD8BX6OxuvykDAIzX4VxVGUM0qOXW35H6/w7UjLARS6XJ6qsh7Jg+v+TVmkr5K59Med/EL4DeBvijC6eI/DNjfu45m8sJL/wB9rg/rXzp4r/4Jm+Cr6V5fDutapoTH7sJZZYx+LZb9a+zxRzUOEJbo97A59meW2+q13Fdt19zPzg1r/gmP4vtZmfS/GOm3cfZbqB0b/wAd4rkbr/gnX8WoGPky6Rc46bZ2XP51+p22k5rH2EOmh9VT4/zuHxTUvVI/KKT/AIJ/fGhcEabpkuO325RmsPU/2I/jRpIYt4SWcetvfQkfq1frzim7eOnFH1ePdndDxHzaL9+EH8n/AJn4m678DfiR4dY/2l4J1qFV6tDbNMPzQGuJulks7k29zHNa3A6xXKFG/I1+8bQpJkMoIPUEAiuO8XfB3wd49s3t9f8ADenX6Sfe3W6hv++hzSdD+VnvYXxPnFpYrDq3k/0PxNZdoztKik2n61+gPxl/4Jv6Xd+dqXw51BtLu1+f+yr9t8D47I3VCfc18J+JvDeqeC9evNF16xm0zVrU7Jbe4XH0ZfUHsRwaytKPxH6xk3EeX57G+Fn7y3i9GjJopfSkpn04U9WI4Bx/tU337UZ+T/ZzjFJuyA1PDPijVvBuvWOvaHePp+rWb+Zb3EZAO7uD/eU91Nfsh8BviSvxa+Fnh7xUIxFJf24aaNDkLICVb9Qfyr8XI1eSVIY4vOuZnEcMEQy7uTgADqcniv2M/Zj+Ht38Lfgj4W0DUFxew2wkuR1AdmLEfmaqinzWWx+HeJtLCqhRqO3tr/O3+R66D8oNfM3/AAUI8Py65+zrfzQJ5j6dewXpOM4Ckgn9a+mF5TNY3i3wzY+MPDmo6JqcPnWF9C8EqeqsMGvbwOJWExVOu/stM/m/G0PrWHnSW7R+H64UqBxuHHvSV3Hxm+EerfA34hXvhjWEdogWk0++K/LdW/ZgfX+8O1cQfl/PFf0rh69PEUo1KTumrn4LiKM6FR05qzQlKpKkY2gc9s9aSiujzMD0P4R/H7xx8EbiQ+FdTH2CVt82lX2Zbdz6jup/3cV9WeCv+CmtmYxF4v8AB1xayfxXOlzLIh/4CxDV8Ic9uKPwrwcdkeAx7569P3u60Z7WFzjGYRctOeh+rfhf9uD4QeKNiJ4kGnSN/BqEDw/qwA/WvXPD/wAR/CvidU/snxFpepbugtbuOQ/kDX4jNBHJ8rIpX/aAOKWGP7JIHgkmhcdHhlaM/wDjuK+TxHBOGm70KrXqr/5H0dHiutFWqwTP3a3qwGDkVH90kkjn14NfjP4R+P3xM8DyI2keNtUiRf8AlncSC4U+2JA1e8+Bf+CkXjXQ3jg8UeHrDXrZT881i7QS4/4EStfNYrgzH0VzUmp/g/6+Z7+H4owlV2qJxP0f+VhknP0NSxr8vWvnv4T/ALbHw1+KciWY1RvD+qv/AMuWrYiz9HPyn8DXv8NwkkQdXDIRkMpyCPXNfGV8JXwk3CvBxfmfT0MRRxK5qMkyxmk70xSFGCfxNP71zHYeK/tif8m4+N/+vFq/IuH/AFSf7i/+g1+un7Yn/JuPjf8A68Wr8i4f9Un+4v8A6DX7PwT/ALnU/wAX6I/K+LP94j6DqKKK/RD4VblrS/8AkYNL/wCvyP8A9CFfujD/AKpPpX4XaX/yH9K/6/I//QhX7ow/6pPpX5Jxv8WH9JfofpHCG1X/ALd/UfRRRX5efowVF/hUtRf4UnsB+XX/AAUL/wCTjB/2B4P/AEN6+av4a+lf+Chn/Jxg/wCwPB/6G9fNX8Nf0fkf/Itof4UfhOcf79V9WLSH7xpaQ/eNe4eKfdH/AATB/wBZ8RP9+z/9Blr7x/vV8Hf8Ewf9Z8Q/9+z/APQZa+8sfer+f+KP+RrV+X5I/a+Hv+RdT+f5nln7UX/Jv3jn/sGTf+g1+Odp/wAedv8A7g/lX7GftRf8m/eOf+wZN/6DX452n/Hnb/7g/lX3HBH+51f8X6I+S4r/AN4h6f5kzfeoob71FfpJ8EFFH1GPrxQOc0eYahRgbhkbh3FFFGvQEe9fso/tO3XwA8RLpmqNJc+BNSkHnwj5jZStwJox/dzwVH1r9UtJ1a11jTra+s547m0uEEkU0TblZT0IPpX4ZlAysnylWGOeR719Rfsa/tWP8JNUi8GeKrt/+EPvJVW0uncsdPmY/dJP/LJj/wB81+a8TcPLExljcIvfW67+fqff5DnXspLDYh+70Z9P/wDBQrH/AAzbqfr9utP/AEaK/L1eFUHiv00/4KEavYt+zjdRfa4jNd31qbcK2TJiQElcdRgV+ZYYNnBJ5wd3au7g1OOXO/8AM/0OHiiSljE076C0UUV94fGnv37CP/JzWg/9g+5/9BWv1fr8oP2Ef+TmtB/7B9z/AOgrX6v1+H8Zf8jCP+Ffqfr3C3+5P1YtFFJur4Q+yAsPWvNPj58V7T4N/DHW/E85DS20Wy2hJ5knYhY1Hr8xGfavRZGXuCa/Nv8A4KH/ABh/4S3x9p/gSwm/4l2hf6RfMvR7lh8q/wDAVIP1J7172SZf/aWNhSfwrV+iPFzfGLBYWU76vRHyjdX9zql3c31/IZ9QvJ3uLmUnJkkclif1x+FRUvHXvSV/RcUopKKsj8NnJ1JOT3Ct/wAA+Bda+JXjCy8MeHrZbvVbwllDHasaDrIx7D3rn2IVTnhQM5r78/4Jw/CNbPQtX+It7bsLrU5DZ2HmDlIFPzMPZiR/3zXiZ1mKyzByrrfp5s9XKsC8fiFSe3U+PPi58GfFHwP8Q22jeKLaFZbmIS291ayFoplHVR7iuG559utfqL+3T8H2+JPwXu9Ts7ffrnh5jqFrgZZ0H+sj/FTn/gIr8uoZFljEkf3ZOn0xmubIM2/tbCe1qfGnZnRnWX/2fiOSPwvYWkaNZo2iflWByT+VLS19K9tTwE3F3P0u/wCCf/xkfx58K28NalPv1nw2RbZY5aW3xmNvoAdv4V9WL9481+OP7Nfxaf4LfGLQ9cdyNLuG+wakoPBgkPDH/cY7vwr9hrG6gvIo5oGDxyKGVh0IIyCPwr8E4oy14DGucV7s9V69Ufs3D+OWKwqg370S3RSZpa+QPqAprU6mtQB+P37XP/Jyvjz/AK+If/Ra15JXrf7XP/Jyvjz/AK+If/Ra15JX9M5b/uVH/CvyR+A5l/vVT1YUq/fWkpV++teiectz9Q/+Cev/ACbTon/Xzcf+jWr6ar5l/wCCev8AybTon/Xzcf8Ao1q+mq/m3OP+RjX/AMTP3zLP9zp+iCiiivHPTCiiigAooooAKSlpDQA3HzD8aKB2opoRl+G/+QDpv/XtHj/vmtesbwzJu8P6Wx4LW0fH/ARWzV1PjbM6XwIKKKKzNQooooAK8x+Onxu8P/AjwTceINckLHPlWtlFzJcynooH4dTwPWvTq/Mz/go9q99efGzR9PkZnsLHTFnt4m5QSOzBmx34Ar3sjy+GZ42NCo7R3foeLm2NeAwsqsVrt954J8Wvi14k+NnjOXxD4jnO9SRaWCNmG0jzkIo6Z9W61xzKH5brSgn5ieuf0or+h6NGnh4KlSjZLQ/Eq1epWm5zd2FBzx7UUvettjnNXwn4s1XwD4p0vxJocvkatps3nQsTww/iRvUMOK/Wr4B/tBeHfjx4Vi1LSblYdShUC+0uRh5tu+Pm47rnoRxX5Ad60vDPibWPBOuQa14f1S50fVoRhbm0bbkf3WHQj618pnmQ083pqSfLUWz/AMz6XJ84nlsuWWsWfuEJiehz9KlVsr15r87fhf8A8FI9Z0iOKy8e+H/7YiAx/aWl4ST/AIFGeD+dfSHg39uj4Q+Ko0V/EY0WYjPlavEbfafTJ4/Wvx/FcP5jg5WlSbXda/kfpuHznBYhJqdn56H0LS1x+h/F3wX4ijD6X4o0q+Vuhgu0b+RrpYdUtbn/AFVzDL/uODXiSo1IfFFr5Hrxr0pfDJP5luiovtCHo6n6Gl89fUH8azszTmj3H7hQ1MWQHrS+aP60ihdtG2kEgYZHIp26gCPywTytfNf7aH7O1j8Xvh5d6xYWUa+LtHjM9pcKuGmUAlomPcH9O1fSx71Xurfz4ZI2G5WUg89iCKUkpqx6OXY6tl+Kp4mi7OLT/wCAz8HI5PMQdlbt/n6UvpXWfFzQIfCvxY8Y6Nbqq21lqc0USdkUO2BXJ/4ZFefHTRn9s4essTRhWW0kn96uH8SjB3dzj5altbOW9vILSCCW6uLiQRQQwIS8sh4VVA5JJ4qbTNLvNa1C3sNOtptQvrlhFDbQjc8rHsBX6X/sj/sb2nwihi8U+KootR8a3Ee5Ff547BcfdQdC3q3boPWqjFzdkfMcRcSYbIMO6lT3pv4Y9/P0Mf8AZA/Yxi+Hcdv4w8bW8d34qdd9rZEBo9NU+nq5Hft0HrX2KIfUZ/GmLCd2W5A5x71YruUVFWR/KOZZpis3xEsTipXb/BdkGOMU39acKbTPKPPvjH8EvDfxt8Ky6N4hsllGM293H8s9s/Z427H26HvX5wfGb9i/x/8ACOaW5s7RvF/h4creafGTOi+kkfJJ9wDX6wt92q7Rpt2nkYxtxnj6V9FlOfYvKXam+aPVP+tDwsxyfDZgm5q0u5+FKyYkaNwY3U4MTjaw/A809lPYZ/3q/Yb4jfszfDr4qB31/wAMWc92wx9shQRTD33Ljmvnbxt/wTN0W6kL+FfF2oaSCOLe/QXCA+gK7CBX6VhOMMDWSVVOD89V+B8DieF8VSd6XvI+AeeBj607AHXivo3xR+wD8WvD2+Sxg0vxDAn8VrciBz/wFuK8j8R/Bb4h+D2P9s+B9bs1zjzI7VpI/wDvpeK+poZpgsR/CrRd/M+drZdi6P8AEg18jiuaXbUclwLeUxTA28i9Y5lKsPwNSqRJjac5r1U09UcDhKO6Cg/dI7HtS0UbkDWhjkXDfOOxPUH1Hp+Fe6/Af9sDxl8EbqCzu7iXxP4UVgJdPuHJlt1zyYXPP4GvC/4aVNqsDkgjpiuPFYOjjqbp14qSZ3YXG1sLPnpSsftb8OPiNofxS8L2XiLw/fJe6ddJlWHDRt3RgehHoa6zNflp+wn8ZZvhr8W4vDVzORoHiVjEYi2EguuqyAdsgbT9RX6khuBxxX4BnWWPKsU6N7xeqfkfs+VZgswoKfVbnjX7YgP/AAzj43/68Gr8iof9Un+4v/oNfr5+1tA91+zt45RF5XTpGP0AyT+VfkHF/qY/9xf/AEGv0jgn/c6i/vfoj4Xiz/eY+g6kbpTqTqOa/ROqPhCzpeV8RaUTyftcZx/wIV+6MTfu19MV+FENwLe8trvOPJmRv/HhX7kaPqkeqaVa3cR3xzxLIjL0IIzkV+UccRfNh3/i/Q/SOEZW9qn5fqaVLTFb0p2a/Kz9HFqKpah3H0qXsB+XP/BQr5v2jBj/AKBEP/ob18219D/t96rHqX7SV+kWM2umwwPj+8Cx/kRXzxX9I5JFxy2gn/Kj8Izh3xtT1YUh+8aWjBAJr2zxz7n/AOCYP+s+IX+9Z/8AoMlfef8Aer4T/wCCX9q7WPxAvDxG09pEPqFkJ/mK+69xy3Ffz9xO75rVt5fkj9s4e/5F1L5/mzyz9qL/AJN+8c/9gyb/ANBr8c7T/jzt/wDcH8q/Yz9qL/k33xz/ANgyb/0GvxztP+PO3/3B/KvueCP9zq/4v0R8hxX/ALzD0/zJm+9S9qRvvUV+knwXU3PAvhV/HPjrw54ajufsjaxfR2XnkZ8ve2Cf1r6m/aH/AGDG+HXgv/hI/Alzfa19iXdqGm3e1pZE7yRbAOR/dr55/Z+x/wAL6+HRPONctv8A0Na/Zb7OGjwVBB4xjqD1FfmnE2b4rLMbRdB+7a7XfU+7yHLaGPw9T2sfe6PsfhZGyyRxunzI3of0+tLX17+2x+ybL4N1G++Ing+y8zRJm8zVdPtxg2zHrMijjYe/pXyCGEmGQ7kIzkenrX2+XZlRzOgsRRe+67M+Wx+Bq4Gq6c0LSNGDHsYBl24Ix6nNLjr6il4r0zzU7Fi61G9v47eO7vri7hthiCKeVnWMHsoJ4xVZuWJIzkdfekwPSlpRjGCtFWRcpOTu2FFFFUZnv37CP/JzWg/9g+5/9BWv1fr8oP2Ef+TmtB/7B9z/AOgrX6v1+H8Zf8jCP+Ffqfr3C3+5P1YtM5p1N3fKeK+DPsjgfjR8TLL4SfDXXPFF84H2OBvIiJ/1sxG1EHuWwP16V+NWoapeeINSvtV1GUy6hfzvc3EjHJ3uxY/gM4/Cvrn/AIKLfGH/AISHxrpfgCwm3Wejr9s1DH3WncYjQ/7oO78fWvj9uOOpr9w4Sy36rg3iJr3qn4JH5JxLj/rGI9jD4Y/mJS55oozX3fW58Wa/hHwfffEHxlovhjTRi91S6SCNu0YLfM30Ar9pPA/hHT/AvhPSdA0yIQ2On26W8SA/wqMc+9fkz+zD8U9H+C/xes/EniK2lu9LaCS2M0KeY9uWxhwvfHtX3cP+ChHwd24/tXUAfewcV+V8XUMdjK8KNCnKVOK6Lqz9H4brYTDUpTqzSk+59H3lrHeW8sEyB4pFKMp7gjBFfjp+0V8Kpfg38ZNb8NrF5enySG909lBwYHOQo/3fu199n/goN8HWxnV9Q49NPc/0r5B/bK+PXhr47eLNBl8MQTPbaVBIkl9dQ+W0xcqdoXrgbf1rk4Vw+YYHGuM6Uowktbqy02OjiGvgsVhlKE05rax890lLRX6/r1PzBjJIUmheNgBuBXnptPav07/YJ+MR+I3woTRdQnaXXPDhFlMZGy8kPWN/yO38K/MXb68j0r1v9l34wH4L/GjSdXuJiuj6ht07U1U4UxucJIf9xvmr5fiPLv7QwMlFe9HVf15n0mR454PFRbfuvc/YH3zT6qQ3CSRJLHzE4DKw6EHpVuv592dj9r06BTWp1NagD8fv2uf+TlfHn/XxD/6LWvJK9b/a5/5OV8ef9fEP/ota8kr+mct/3Kj/AIV+SPwHMv8AeqnqwpV++tJSr99a9E85bn6h/wDBPX/k2nRP+vm4/wDRrV9NV8y/8E9f+TadE/6+bj/0a1fTVfzbnH/Ixr/4mfvmWf7nT9EFFFFeOemFFFFABRRRQAUUUUAR9Wz7dKKPT6UU1sSzL8NfLoOmZHH2aP8A9BrYrH8O/wDIB03/AK90/wDQRWxV1Pjl6kUvgQUUUVmahRRRQAV8t/tsfs13Pxm8NWmveHYlbxbooZoY+13CeWiPvxx9a+pKryA//XrtweMq4CvHEUXaUTkxWGhi6TpVFoz8LJoJ7W4uIbq3ks7qCQxz28ylXicdVYHoaaeCQetfo7+2J+x/H8Rra58a+DbWODxhAhNxZj5Y9RT/AGv+mg7N371+cjRyRTS280UttcwOYZoZlKvE46qwPcV/QGUZvRzaip03aS3XZ/5H4tmeWVcvq8slddGMoo9qK948MKKKKAAbs5G1W+lIyq4w0YY+p5paXNBV2RfZYN2fLIPqHII/WrMN5eWq4gvLmH/cmYVFS1DjGW6L9pLa5fi8Ua/b/wCp17VI/wDcvWH9K2NP+K3jrS2DWXjfxBbN3/05itctzTqylh6Mvign8jWOIqw+FnsPh/8AbB+Mfh2RWj8azaio/g1KFZh/SvYfBf8AwUs8U6a0aeLfC1lqsX8U+muYH/75O4V8e0n4kfSvJr5HluJVp0V8lb8j0aOcY2i/dqM/Wb4T/tifDX4tSR2lnrH9lapIP+Qbqy+TKW9Bk4P4Gvc1mSRAytuU8gjoa/CKZUuFUOpDKchlXB/MV9Ifs9/tqeJ/g7c2+m+JLi48TeDuI2Ezb7q0HrGx+8o/unmvgM04NdKLq4CV/J7/ACZ9pl/EynJU8UreZ+p+8EHB4pkkirG5zwBWB4J8caL8Q/Dtlr+gX8OpaXdrvimiOfqCOxHcHkVd8SahHpWg6heSOI4oIHkZj0ACk5r8zlGVOTjNWa6H6DRarOPI73t+J+M/7QF2mpfHTx9dqQEbWJgpB4OGNchoui6h4h1e10vR7GW/1S8ZY7e1hGTI5749PrWjZafq/wAUvHEkOi2Empaxrl681tawjklmySx/hAHc1+nf7LP7Jul/AfR01LUxHqnjO5j/ANJvgMpbqeTDD3C56nqevHSvNhCVR6bH9YZtxDhuGcvp0n71XlSjH5bvsij+yX+yFp/wX02PxBr0cOpeNLhRvnI3LaL/AM84h246mvpqNdv973zzSw5285J681NXdGPKrI/mDMMwxGaYiWJxUryf4eSGkU6iiqPOCo2kVcZ71JWH4s8TaZ4Q0G81fWLuOx02yiaeeeY4VVAyfx9hyacYuTUY7smUlFOTdki9qeq2mk2M95e3MVpaQqXlmmYKiKOpJPSvE2/bU+Dkev8A9kf8JlaeZnZ9o2nyM/7+MfrXwT+0p+1Nrv7QOrT2NrLNpHgW3k/0XTkG17vb92SbB5z2XoPevD/Lh8vYIl8vOMbRnP0r9Sy3gxVKPPjZ8rfRdPU/PsdxR7Ory4aN0urP3Q0nWrDW9PhvbC7hvLSYBo5oXDK4PoR1qyzfMOcmvxa+GXxo8afCG8EvhHXrjT4d259Pn/e2sns0ZPP4Yr60+HP/AAUvjjihtvHPheWN1wr32kNvDep8psY/BjXi5hwjjcK3LD+/Hy3+49PB8SYWskq3uy/A+8G+ZemPocGkaFJI9rIGX0YAivGvBv7YHwl8bxRGy8YWdvM/H2a8JhkX8CBXqNh4x0PVIRLaaxY3MbdGjuEYfzr4+phMTQdqkGvVH00MVQrK8Jpoy/FHwt8I+M7do9c8N6bqat1E9urZ/HGa+fviL/wTx+HXiiOeTw6134QvX5U2b74M+8bdR+NfUX9q2PX7VDj/AK6D/GsHxT8RvC3g2xe+1vxBp+lWq9ZLi4UD+dduExmYYaa+rTl6K/5HFiMNga0f3qjbvoj8hfi98H/EPwQ8ZTeHfEYjlbb5lpeQ8R3Eecbh/dPt2ria91/a/wDjppnx1+I1nNoG59A0WBra3upE2tcux+dhn+Hgda8Kr+gstq4ithKc8UrTa1PxbMIUqeJnGg7xTClpKXtntXpnnml4Xvn0/wAVaBdRfLLBqdq6sOuRMp/UcV+4FrMZrW3lxw6BvzGa/FL4YeH5vFnxN8JaPBE0sl3qlv8AKvXasiu3/joNftfGojjCqOAAAPQCvyHjiUfbUY9bP9D9Q4TUvZVG+6OW+K2gjxZ8NvE+jBfM+3abPAFHqyFf5kV+J8MLxRmJwQ8TtGQexBIx+lfuw0YAwfcfUGvx9/ae+HMnwp+OXibSBC0Wn3kp1GxY/dMMnJUfRtw/CnwTioxnVwsnq7NfIjivDucadddNGeXbgaShVIXaeB60V+un5m7IbJGJImjY8EV+o/7D3xotfiZ8I9P0i5uYzr/h9BYXFuW+cxoNscmPQrxX5dVt+DfHGt/DvxJbeIvDmoNpmsW7cOuTHKv911/iH1r5zPspWb4b2adpR1R72T5k8ur872ejP29jYBTzT9wHU4r4d+Gf/BSfRZ7OG18eaFdaZfr8rXmmgTQN/tYOCufQZr163/bp+DFzB5p8VrB/syW0in/0GvxSvkeY0JuEqLforn6xRzjBVo3VRL1PoUMNvHIrnfGXjLSfBHhu+1zWbyOy0+1jZ5JpGwOOgHqT6Cvm7xh/wUY+Gmi28g0OLU/Ed5/CtvbeWh+rMQf0r4u+Ov7THjH9oC6EOszLpvh6KQtDo9m52E9jI2P3mPfFeplvDGOxlROtDkh1vvbyR5+Oz/C4em/Zy5peRxHxE8bT/E7x94g8WXnEuq3TSqjZGyIfKi/98gfnXO85zTg3mY3Lt5/Skr91p040acacVZJWPx+tUlVm5y3YUucIT1CjNJT7WxutWuLfT7GF7i/vZVgt4UHzMzHGBVykoq8iKcHOSij9IP8Agm54ZbR/grqOqyAg6rqsrqT/AHI/lB/PdX1vg5Y9q4j4N/D+H4X/AAx8PeGYAD/Z9okUjjHzvj52/E5ruG+7X805piVi8bVrLZt/8A/estofVsLTp9l/wTyr9qH/AJN+8df9gyX/ANBr8c7T/jzt/wDcH8q/Yz9qL/k33xz/ANgyX/0GvxztP+PO3/3B/Kv0/gj/AHOr/i/RH5/xX/vEPT/Mmb71FDfeor9IPgju/wBn3/kvHw8/7Ddr/wCjFr9n1+4n0r8YP2ff+S8fDz/sN2v/AKMWv2eXOxfpX45xv/vVK38v6n6hwl/Dq+qK13YJewTQXESTwSqVaKRQysD1BB6g+lfmH+2F+yrcfBfWpvFPhmzeTwReOXnhUZOmyHqPXyz2z071+pH05rJ8R6DYeI9Hu9L1S0jvrC6QxT20q5SRT1BFfJ5RmtXKcQqkNYvdH0+ZZbTzCk4SWvQ/Dpsthicjbnj9KTNe3ftS/s0337Pviz7Rp6TX3gnUZSbC6Iy9m5/5YSn0HRSeo4614iMjHHXpX9BYPGUsdRjXou6Z+K4vC1MHVdKotUFFFFdpwhRRRTA9+/YR/wCTmtB/7B9z/wCgrX6v1+UH7CP/ACc1oP8A2D7n/wBBWv1fBr8P4y/5GEf8K/U/XuFv9yfqxGriviz8Q7H4XfDvXfE99IEh0+3aVV/56SYwij6sQK7GaQbeDzX55/8ABRj4xf2v4g0z4cafOTa2WL7Uyp+9IV/dxH6K276187kuXyzPGwodN36I9vNMYsFhpVOvQ+QtY12+8Ua3qOuapL5+p6lcNdTs3PzMT8v0APH0rP29qUjr2or+joxVNKK0SPwqpN1JOct2FFLg0g+Y4HXOK062MwyVAPU45B70MgY9FP1QZpdp9KNp9KCrsb5IHOyM49qVWC8BMDtz0ow3pS0Br1EopfT36UY/zmgkSiRUmjdH6SDaePXuPpS0iqO9Jq6Ki7O5+on7DPxkPxP+D9tp1/dGbxBoH+gXQdsu6D/Vyfipx9RX01X5C/sj/F7/AIU78aNKury48rQ9Yxp+oKfurk/u5CP9k81+usUySIrK25SMjFfgPE2W/wBn46Tgvcnqv1X3n7TkON+t4VRk/ejoS01qWkavkz6U/H79rn/k5Xx5/wBfEP8A6LWvJK9b/a5/5OV8d/8AXxD/AOi1rySv6Zy3/cqP+Ffkj8BzL/eqnqwpV++tJSr99a9E85bn6h/8E9f+TadE/wCvm4/9GtX01XzL/wAE9f8Ak2jRP+vm4/8ARrV9NV/Nucf8jGv/AImfvmWf7nT9EFFFFeOemFFFFABRRRQAUUUUARt2Heij+IGimtjN7mV4XyfDul7uv2aPP/fNbNZHhkY8P6ZnvbR/+g1r1VT42Kl8C9AoooqDUKKKKACm7c9adRQBCY+hxg+1fIH7Yv7HqfEaG58a+DLeODxdbxE3FmuFTUFHOSOnme/fvX2E67lxTPLPPGB7Cu/A46vl9dV6Ds1+Jw4zB0sbSdKov+AfhSqus08E8L29zC5jlhlUq6MOqkdiKSv0U/bH/Y5h+IkNz438FwRw+K4I913YqNqago6nA6Se/fvX52HzI5pIJYpILiN2jmgkG2SNlOCGB5BHvX7/AJTnFHNqKnDSS3R+M5nllTL6rjLboxvpRSdf6Ute71seGFFFFABRRRQAUUUUAFFFFABzR7HoetFI1IpM+gv2Ov2hLj4K/EC10XULj/ijdbnSCeNjxaTscLMo7A/xfRfTn9Af2k5tYvPgz4gsPDVjNqms6pD9gtIbfGd8n8RJIAUD3r8eplR4yhGQcdPTOfzr9bf2PvH8/wATPgH4c1G8fzL63Q2NxJuJZniO3cT6kYJ+tfkfGeV04cuMp6Xdn+jP1Tg/NpUqsaclzcnvK/l0KP7L/wCyzon7P/h7zJVXUfFV3Gv23UyM4wMCOPPRB+Z717+IwuMDFN8odKlr8wjFQVon6Ni8ZiMfWliMTLmk/wCrCBdtLRRTOMKKKKACviH/AIKaeJ9QtvB/hDw5DL5em6pdSzXYUkb/ACtm1D7ZcnHtX29Xkv7RfwE0v9oLwG/h+/mawuopPtFlqEYDPbzDocdwe4r2MoxNLCY6lWrr3U9Ty8zoVMThJ06TtJ/5n4+/dcISSF+7zj6flTc/Nn+LOc16z8Wv2X/iJ8HZ55tV0d9V0hGyuraWrSxkerLjcp9civIopkmYhT84ODGRhh9Qa/onD4qhjIKpQmpI/D6+HrYeVqkWiTA6nmj8PyNBUjt82cYpQ2e4/Ouq5ykcsMdx/rED/wC8On49aWIfZWzC8kH/AFyOKcD1yKOvQ1MoqXxFc8lpcsDUL/GP7Uvcf9fJqtJEJpN0zNOc/em+cil2+wpdtRyQTvyoftJPS4ewIAGAKSl5XNJnjOCR64rQjVhS7T5efuD+8Tx+dNmcQKC5xk4C9SfoOpr6V/Zu/Yr1/wCLt5b6z4rtJ9B8IrIrNBOpS6vQOdoX+BD3Jwa4MbjsPl9J1cRKy/H5Hdg8FWxk1ClG9zuP+CeHwPn1vxBcfErVbYx6bZq1to6yDBmkIw86+23K/jxX6GFSrZHOe1UND0Gy8O6Xa6ZptrHZWFrGIoYIQFVFHAAFaRU8V/PebZjPNcVLES0XRdkfteW4GGAoKlHfqLtBHIr5h/be/Z5k+MHgJda0K3WTxXoAaa3jXAa5hwN8P1IGVz3r6gqFoS3IwD9M1yYPFVMDXjiKLtKJ1YrDQxVKVKotGfhMhyuNpVo8o8bjDRsOqkdjS+tfoH+1n+w+fFt5feNPh9EkPiCY+bfaSSFjvD3dT0V/0NfAmradd6Fqtxpup2k2m6jbsVls7uMpImPqOR7iv6DyrNsNmtJTpO0uq63PxXMcrrYGo1JadyvQwz15pR83FDfK2D1r3DxkIfm4IyvvzSbB6Kv4CnUY5x3pBd7CH5vvAE+popMN6UFgOppg9RaM9aNpVTxjHIVu9MeRI22sf3mcFACW+mBRzW1uUou+g7mNWLNgL1PpX2J+wJ+zzJ4n15PiZrtoy6Vp7FdGSUY+0S958dcAcD17Vz/7Nv7DmufFG6tfEHjm2n0LwojCSPT3G25vh6OM/Iv6+1fpVpeh2miabbafYW0dpZWyLFDbwqFSNR0CjtX5fxNxHBQlgsJK7fxPy7I/QchySUpLFYlWtsi7EAqgAYpzdDQFxQxG01+Rn6Wjyj9qL/k33xz/ANgyb/0Gvx1tP+PO3P8AsL/Kv2K/ai3H9n7x0EUsf7LmPHsvNfjrZkGxhYdkX5vw6V+x8D/7pVX979D8t4r/AN4g/JfqSt96jIxRuDdP5Um5cV+ko+D7Hd/s+/8AJevh3/2G7X/0YtftAv8Aq0+lfjF+z7Gz/Hz4dKo3P/bdqdq8nHmA5/IV+zq/c+gr8a42a+t0rfy/qfqHCS/c1H5oeOKYcN1qSm49q/OD745nx54F0j4jeFdQ0DXrNb3TL2MxyxP2z/Ep7MDyD61+S/7QXwF1j9n7xodKvDJdaHdZk0vVmXiZO8T+ki/r2r9jiu4Vw3xa+EWh/GTwXfeHNft/NtrhT5coA8y3kx8siHswr6jIc6nlNa0nenLdfqj57OMphmFNuKtNbH4tng56ilrs/i58Ite+B/ji48Ma5E7qAXsr7GEu4s4Dg+vqK4ztmv32jWhiKcatKV4vY/Ga1GeHm6dRWaCijNG5cgc5NbHOe/fsI/8AJzWgH/pwuf8A0Fa/VzJzxX5SfsKK3/DS+hEIXK2FyWC9hhOa/VhGZssRg9MV+I8Zf8jCP+FfqfrvC2mCb82cr8UPHlj8M/AeteJdRkCWunWzTHI+8wGFUe5JFfjBr/iS/wDGXiTVfEerSedqOqXDXU7HszEkKPYZwPYV90/8FMvGV9b+H/CPhWIFdP1G4a8uXBI3+UMBD7fNn/gNfBLMN5JOe/HvX1fBuBVLCPFv4p/gkfN8UYx1MQsOtoiZFLTcr6j86XdxtXlu9foi/A+HsxJpGhRpApc9lA5J9PrX2v8ADz/gm+PEng/TNR8R+LLzTNUu4hNLZ2sCtHHuGQuS3avFf2P/AIUj4t/HDTI7hPM0XQ2XU7w8FWKnMSEH1brX60xxeX8uAV/hA6AelfmPFWfV8HVjhcLPle7Z9/w9lFLE03WxKuuh8T/8OvfD/wD0PWq/+Ayf/FUv/Dr3w/8A9D3qn/gMn/xVfbu3Pal2j0r4f/WTNf8An8/uX+R9d/YOX/8APv8AF/5nxD/w698P/wDQ96p/4DJ/8VQP+CX3h9eT461T/wABk/8Aiq+3to9KQxhhR/rJm3/P5/cv8g/sHL/+ff4v/M+Edc/4JjWNtpl1JpPja+nvhGWihubdfLdscAkNkV8N3+m3ek6pfaffxfZ76wme2uISOVdDhv1Ffuf5IFfmf/wUG+EP/CFfE228ZWUXl6V4jURXDADal0i9f+BKB+NfY8M8QYjE4r6tjJ83NttufMZ9ktGhQ9vh42tvuz5YopSu0c8d6T096/VOh+ceQ2SMSRlW9cgj65r9Vf2KfjO3xc+D1nHqFyZPEGit/Z98GbLPt+5IfZh/I1+VXOSO69K+jf2B/GN94c/aDtdKtmc2WtWkkd1CvIzGMxsfplv++q+Q4oy+ONy+U/tQ1X6n1GQYyWFxcY9JaM/U5CduTTmqKEllFSOw9a/BEz9nPx//AGuCD+0p47/6+If/AEWteSV63+1xG3/DSnjrcpV2nhIVuCQY1wfpxXkntX9MZZ/uVH/CvyPwLMf96qerClX/AFi0jDd93mhMsQw6fWvS66nnWP1E/wCCev8AybToY/6ebj/0a1fTVfMv/BPlXj/Zr0IOjKGuLh0JH3lMjDNfTVfzbnD/AOFCv/iZ+95Z/udP0QUUUV456YUUUUAFFFFABSN0paTqKAG+lFJ6H2opojUzPDRz4f0vH/PtH/6CK16xvDO0eH9MC8KLaPH/AHzWzVVPjl6ip/ArBRRRUGgUUUUAFFFFABSUtFAFdoWZslf15r48/bJ/Y7Xx8lz438FW8dv4piQveWKgBdRQDk+0g9e9fZdVJFJyuO/Ht2yK78Djq2X1416D1X4nDi8HSxlN06q/4B+Fn7zzJUlieCdHKSQyKVeNx95WU8gj3oPGPev0P/bI/Y9HjqG58deB7VIvFEKF7yxXCrqCd2x0Eg9e/evzxXdudHiaGWJzHJHIpDIw6qQehHpX9AZTm1DNqPtKbtLquzPxjMssq5fVcZLToxKKWkr3DxAooooAKKKKACiiigAooopALhe5xX6If8Eyb6WX4W+J7Vs+VDrMjID0G5FJx+NfnbJIscZZxkLX6nfsG+Ap/A37P+lT3cey+1qaTU5R3AkxtB/AfrXwvGNWEMu5JbyasfZcL05SxnMtkfR/enU2nV+Hn68FFFFABRRRQAVG4JxUlJikwK7W4kVgyhwwwQ3P4e9eO/Ez9kP4ZfFB2uNS8NwWV+w/4/NNP2aQn1bZgN/wLNe0baUZrpoYithp89Cbi/JnPWw9KurVIpnwL4v/AOCYs6sZPCnjEKv/AD76vDu/8eXmvF/En7Dfxk8PO/leH7XV416Safdrg/g5B/Sv1jOajxj2NfV4fi3M6Gk5Kfqv8j5yvw1gausU4+h+KuqfBv4h6HM0V74J1uB1+9ttGkH5rkVz03hvXLZiJ9D1SEjrusZR/wCy1+5Rj9g1QyWkU334Ef8A3lBr24ccVVbnor5P/gHkS4Sp392r+H/BPw2GmX54Gm6gT7Wcv/xNWrXwn4jvmC2fh7VrjP8AcsJT/wCy1+3S6PZLyLO3H0iX/CpYreOIEJEqD/ZQCtJccS6UPx/4BC4Rj/z9/A/HHw3+zf8AFTxbIqaf4H1QFv8AlpdKIB/4+Vr2vwH/AME5PiBrzJceJda03w5btjdDCDPOPXkfL+tfpOqhc4yB6VIeR6V5WJ4yzCsrUoxh6bnp4fhfCUneo3L8v8z5++D/AOxP8O/hLMl8NPbxDrS8jUNUxIV/3U+6p/Cve1gMajYMD+XtU+2lxXxeJxVfGT9pXm5PzPqaGGo4aKjRikhqg96kptOrmOkKKKKAImVtowMn3PSvNPi1+zz4K+NVh5PibRIri4UYjvosR3EZ9VdcHj0Jr1CkIzW1KtUw81OlJprqjGrRp14uFRXTPz08ff8ABM3WbGZ5/BPiqG8h+8tnrUZVlPoJEz+teG+Jv2Q/jF4V8x5/B897Ep5msJ45AfcANu/Sv1821HsHpj8hmvsMNxfmNFctS0/Va/gfL4jhrB1neF4n4j3Xw38aafn7V4Q1uHH9+wlP/stUP+EY17v4f1YN/wBeE3/xNfuL5ftn8qYbZM5EYz6kD/CvZjxxUXxUF97/AMjy/wDVGH/P38D8RrXwL4rv2xa+F9anP+zYy/8AxNdn4Z/Zn+LHio/6D4F1BQed12UhH/j7Cv2J8pduAuB7ChQ2AMYHv/8ArrKpxxiGv3dJL1d/8jSHCdGL9+o/uPzf8Cf8E3fHOtus3ibXtO8PW54eOzBuJ8fU/L+tfVfwh/Yy+HnwfkgvLTTW1nWYhxqWpkSurf3kQ/Kp+gFe94owfWvl8dxBmOOTjUqWT6LT/gn0OFyXBYRqUIXfnqQCE49B2B7e1Wabtp1fOHuJWVkFMcE0+m80xmXrmi2/iDR7zTL2ET2V5A9vNEf4kYEEflxX5tfFP/gnz8QfCetznwYkHijw+8jPbxmRYrqBT/yzbcQCB2Ir9OdtNr28rzjE5TNzw+z3T2PIx2V4fMIqNbddT8cbz9mn4r6fK0cvgHVMr12lG/kxq7pf7KHxh1yRRB4EvYiOjXEsSY/NxX6/7M+tAHtX1P8ArtjLe7Tjf5/5nzy4Uwt787sfFf7KH7D+qfD3xdb+NfHMtu+qWakWGmWrbkgJ6yO3Qv8AQ4r7XCnnNJ7fzqSvjcfmFfMqzr13r+C9D6rB4OlgaXsqS0CiiivNO4KaelOpPpSA8r+PXwC0P4+eDptG1YG3u0JlsdRj/wBbay9mB9PUdK/PDxb+w38YfCl1OkGi2/iOBW+W706dFEg9SrsGB9eK/WP8KiZSa+lyvP8AG5VH2dJpx7M8HH5Phse+aej8j8aJP2dvirBJsbwFqhbOPuKf5Gt7RP2Q/jH4hkAj8ET26/8APS8nijH5b81+vAz3PbsKCCeCMj3xX0EuNsa1aNKK+/8AzPG/1VwsXrNny7+yH+yHN8C5LvxH4ju4NR8WXkfkrHa/6iyi4yiE8knufavqJFZQQRUu3jpSj1r4fGYutj6zr13eTPrMNhaeEpKlSVkjxb9pr9ne1/aF8DrpTXJ07V7OX7Rp9/gERSYxhh1KkHGPavz38SfsYfGTw7Mwk8J/2vGvyi4065Qq2Oh2lgf0r9cG4pm3AOBivZyviDGZVTdKnZx7M8rMMlw2YS553T8j8Z/+Ge/ip5mz/hX+r7v9wf411fhj9jH4x+Kp4gnhMaPE/wApuNSuEVV9CVVixx9K/Wzb7UFScH9K96fGuNkrQpxX3nkU+FcLF3lJni37MH7N9p+zz4NmsWuRquuag4n1DUNgUO+PuL3CjnA969r2ndTguKdXweIr1MVVdas7ye59fQoQw9NU6askFFFFYHQFFFFABXm/xw+DOm/HD4e3/hbU3eBZyJYbqMAtBKpyrCvSKbtrWlVnQqRq03aS2MqlOFaDhNXTPyd8XfsMfGDwndTxW2jw+JbZWyLvT7hV8wZ6lXIIOO2MVwk/7PPxTtpCkvgTVifRUU/qDX7NMp7U1RjqfyBr76nxtjoxtOEW++v+Z8fU4VwsneMmv6+R+QOifsk/GHxAwNv4KvLcd5LqaKP+bivtH9kP9ju5+C99P4r8U3UN74puIjBDBa/6iyiPUA9Sx7mvq7a3r+dP215WY8UY7MKToytGL3t1O7A5BhsFV9qm5Ndxsa7VApJVZlGBnmpNtH4V8g9dz6c+Tf2sP2L5PjVrEXirwxfQaT4nji8qdLoEwXigfKGxyCPWvkLU/wBir40aOzKfCK3wX7stndREH8C+a/W/bzTNv4/gK+uwHE+Oy+kqMbSitr30+4+axmQYXGTdR3T8j8gbf9kf4x3D7B4FvM/7U8IH/odeg+A/+CePxM8UalGniSaz8L6SzZnKyLNOVzyqBSQDjvmv08GccrxTue/Nd1bjPMKkXGCjG/ZP9Tjo8L4OnJSbb8tDnPAvgjTvh34T0rw7o0Bt9N0+IQxxkjO0A8n6k5rp6TFLXw0pSqSc5u7Z9dGMacVGKskFFFFSWFFFFABRRRQAUlLRQBG3r7dKKDzx3ooJuzM8OLt0DTgOn2aP/wBBrXrH8MSGTw7pTEYP2aPP/fNbFXP42yaekEgoooqDQKKKKACiiigAooooAKQqD2paKAIGUjbkfr7V8Z/tkfscr43W68d+BbWGLxJFGWv9NQbVv0ByWXsJQOh719nywiVQD0phjODnJ9PavQwOPr5bXVeg7Nfc/U4cXg6eMpOlUW/4H4Tqx3OjeZHJExSSKVdrRMOqkHkEelL6V+g/7Zv7HCeMEu/HPga0SLxGi+ZqGmQqAt+oHLKO0g/Wvz3XdukRo2ikUlXicbWRh1Ug9CO46iv3/Kc2o5tQVSnpLqup+MZlltTL6rhLboxaKWkr3DxAooooAKKKXHagBPT3p3l/LxwRx0puG54612Xwm+E/iH42eM4PDPhuH94+JLy8lB8q0i7sx9fQdT2FYV61PD03Vqu0Vqzpo0Z15qnTV2ze/Zx+Cdz8dvilY6OiN/YNnILjVp8HCwryIww4DMeK/X/TbKDT7WK2t0WKCJFjjjVQFUAYwBXCfBD4I+H/AIG+CrfQNCg/27q7cDzbqTu7n1/lmvRlj2tmvwHiDOHm+IvHSnH4f8z9mybLFl1DXWb3HU6m89qWvmT6EWiiigAooooAKKKKACiiigApNuaWk59KACijn0pMGgB1JtHpS0UAN2mlpaKACiiigAooooAKKKKACiiigApKWm4NAC0tFFABRRRSsAUUUUwCiiigAooooAKKKKAEpaKKAEpaKKACiiigAooooAKSlooATaPSilooAKKKKAExmilooAKKKKACiiigAooooAKKKKACiiigBKNo9KWigBKWiigAooooAKbz6U6igBKKWigAooooAKKKKACiiigAooooAKKKSgBg++PxooP3gfrRQSZfhkkaDphYfMbdP/Qa2KyPDvOh6Z/17J/6CK160qfHL1ZFP4I+iCiiiszUKKKKACiiigAooooAKKKKACmtytOpvNAFZYZNoDAHnnacZr4u/bK/Y3Piz7X488B2Sx+IFUvqGlxkKt8gHLqOgk/nX21jFQNHuJyPr716GBx9fLayr0HqunfyZw4zB0sdSdOqj8KVZjvDqY5VYq8bjaysOoIPII7jtS19/wD7Z37HJ8RLeePvAVkq66q+ZqWlRgBb1RyXQdpB+tfAAcMuNpWRWKujjBVh2I7H61/QOVZtQzWh7Wk7Nbrsfi2ZZbVy+rySWnRhRS9elFe0eMJSbTIuBnJoUHd0PvXWfC/4X+IvjJ4wg8M+GbXdcyENPdMP3NpH3dz6+3WsK1anQpupVdorqdFGlOtNU6au2P8Ahb8LfEXxo8YQeG/C9v5lw2Dc3j58q1iHVmP9OvtX6xfA/wCBegfAnwbDoeh2waVv3l3fP/rbqU9XY/06DtTPgX8CfD/wI8FwaJosIknYBr2/kH766k7sx/kOlen+nFfhWf59PNKjp0tKS2XfzP2DJsmhl8FUnrNjEVv4jmpaaO/FOr48+nWgUUUUxhRRRQAUUUUAFFFFABRRRQAUUUUAFFFFABRRRQAUUUUAFFFFABRRRQAUUUUAFFFFABRRRQAUUUUAFFFFABRRRQAUUUUAFFFFABRRRQAUUUUAFFFFABRRRQAUUUUAFFFFABRRRQAUUUUAFFFFABRRRQAUUUUAFFFFABRRRQAUUUUAFFFFABRRRQAUUUUAFFFFABRRRQAUUUUAFFFFABRRRQAUUUUAFItLSLQAw8/lRQP6UUEGV4ZB/wCEf0vcct9mjyf+A1s1j+G1xoOm/wDXvH/6DWxV1NJtE0ruEW+yCiiioNQooooAKKKKACiiigAooooAKKKKACkFLTcUARSLwMjOO1fEX7ZH7HR177f8QfAtoo1hVMmp6TbrgXyjkugHSQd/73tX3CUy2ajkjZhyP8969HAZhXy2uq1B+q6NeZ5+NwVLHUnTqI/CeOQMpIV42UnMbcMpHUMPUdxT8q/BP+fav0V/aY/YPg+JGsXHinwNc2+i6/cHfeWM4K212398EAlJP9ode9fPeg/8E+vi1rGom2vV0jRbXeA901y0hC+qrt5P1xX7dheJcvxND206ihLqmfk2KyHF0avJCPMu54r8Mvhnr/xg8Y23hnwzbebeSEG4uXBMdpH3kc9Pw61+sHwH+Avh/wCA3hCHRtFj827f57zUJRmW5kxyzH09B0pvwD/Z98N/ALwmNI0OFri7mbzL3UZv9bcv3JPp6DpXqm3nIFfmOf5/PNJ+you1Jfi+7P0DJ8mhgIc9RXmwxT6T8KWvjj6kKKKKACiiigAooooAKKKKACiiigAooooAKKKKACiiigAooooAKKKKACiiigAooooAKKKKACiiigAooooAKKKKACiiigAooooAKKKKACiiigAooooAKKKKACiiigAooooAKKKKACiiigAooooAKKKKACiiigAooooAKKKKACiiigAooooAKKKKACiiigAooooAKKKKACiiigAooooAKKKKACiiigAooooAKKKKACiiigCP0/Gij+IfSimiHuZfhpg/h/SyOQbePH/fIrYrG8Lrjw/pYHRbaP8A9BrYq6nxsml8CFooorM1CiiigAooooAKKKKACiiigAooooAKKKKACkboaWigCNoy3fFN8k7ccHHTcM/1qakFACKu3NOpDS0AFFFFABRRRQAUUUUAFFFFABRRRQAUUUUAFFFFABRRRQAUUUUAFFFFABRRRQAUUUUAFFFFABRRRQAUUUUAFFFFABRRRQAUUUUAFFFFABRRRQAUUUUAFFFFABRRRQAUUUUAFFFFABRRRQAUUUUAFFFFABRRRQAUUUUAFFFFABRRRQAUUUUAFFFFABRRRQAUUUUAFFFFABRRRQAUUUUAFFFFABRRRQAUUUUAFFFFABRRRQAUUUhz2oAZ0bPbmig8j6cUUE3sZnhn5fD+m5/59o//AEGtesXww2fDulk9fs0f/oNbNaVPjkRS+BC0UUVmahRRRQAUUUUAFFFFABRRRQAUUUUAFFFFABRRRQAUUUUAFFFFABRRRQAUUUUAFFFFABRRRQAUUUUAFFFFABRRRQAUUUUAFFFFABRRRQAUUUUAFFFFABRRRQAUUUUAFFFFABRRRQAUUUUAFFFFABRRRQAUUUUAFFFFABRRRQAUUUUAFFFFABRRRQAUUUUAFFFFABRRRQAUUUUAFFFFABRRRQAUUUUAFFFFABRRRQAUUUUAFFFFABRRRQAUUUUAFFFFABRRRQAUUUUAFFFFABRRRQAUUUUAFFFFAEXP580Uvf8ACimiTL8LjHh/Tc/8+0f/AKDWxWP4a/5F/Tf+vaP/ANBFbFXU+OXqRS/hx9AooorM1CiiigAooooAKKKKACiiigAooooAKKKKACikzS0AFFFFABRRRQAUUUUAFFJmloAKKKKACiiigAopKWgAopM0tABRRRQAUUUUAFFFFABRRRQAUUmaWgAooooAKKKKACiiigAooooAKKKKACiiigAooooAKKKKACiiigAooooAKKKKACiiigAoopMigBaKTIpaACiiigAooooAKKKKACiiigAooooAKKKKACiiigAooooAKKTNLQAUUUUAFFFFABRRRQAUUUUAFFFFABRRRQAUUUUAFFFFABRRRQAUUUUAFFFJQAz/AAoo9fTHFFO5Jk+F/wDkXdKDdRbR/wDoNbVYvhw7fD+mk/8APun/AKDWrz/eq6n8Roil8EfRElFMG4/xUgbJwGOazNCTIpaj59aT5vWkgJaKiDMe9HzetMCSlqENno/6Uv40DJMiiowSeQaMn1pCuS0mRUY570c+tLUZJRUZYr1el+bj5utMB9LUW88fN16UFgOppiuSZFFM59aTcfWkguS0lMxnvSZP96mMlpKj3AcbqPm/vUkBJRUXmf7VOy2OtMm5JRUXOM7+KM+9AySimfN60m47c7uKA8yTilqENno1O2n+9SGP4oqLf7/pSkle9BNySimfNz81JuOcbuaYySlqP5v71Jz130DJMijIqLI67qdz60gH0tRDno1KQR1ai4h/FFRhi3Q5o3HpmhCuSUtR4b+9Rz/fplElJUfPXfS8/wB6gCSkqPPvS/N/epeorklFR4P9+kyM4zzTAkyKWo/m9aPxqbsCSkqPnGd/FLtb+9Tv2GPyKMiotw/vU7n1oAkpKj9eaN3+0aBN2JKWo/m/vUf8CoGPophyOrUfN/eoYD8iio93+0Pyo567qYEtJTP4sZ5ppk29W/ShaiJaWotx/vUfjQMkpaiyf73fFJuP96gRNSVHubjnrR8396gZLSZFRjc3INJznG7mgRNSVHub1oLFRktigZLSVH680vzf3qQD6Wo/m/vUmR60XESZFFR7uvNG88/N060wbsSUUz5v71N3nru/SkHmS5FFRbh13U7a396gY/iiot+cYbr04p3zf3qNRXJKSo+f79J5n+1TBuxLS1Fz/epvmZGd1AE1LUO//apef79AyWkqP8aNx9aWorktJUfP96gNk4DGj0GS0lRjLdHo3Hn5ulMRJS1FuPHzdaXB/vUDH5FLUOR/e7Zp3P8AfoAkoqPn+9RuIfGaAJKSmc/36aHz0f8ASgCaiotw9aXdSbASimnOP1ooujN7n//Z;" vertex="1" parent="1">
          <mxGeometry x="990" y="139.6" width="83" height="30.79" as="geometry" />
        </mxCell>
        <mxCell id="q41vTv1glD9lVKqyJohb-30" value="" style="group" vertex="1" connectable="0" parent="1">
          <mxGeometry x="820" y="410" width="170" height="240" as="geometry" />
        </mxCell>
        <mxCell id="q41vTv1glD9lVKqyJohb-29" value="" style="group" vertex="1" connectable="0" parent="q41vTv1glD9lVKqyJohb-30">
          <mxGeometry width="170" height="240" as="geometry" />
        </mxCell>
        <mxCell id="q41vTv1glD9lVKqyJohb-27" value="" style="rounded=0;whiteSpace=wrap;html=1;" vertex="1" parent="q41vTv1glD9lVKqyJohb-29">
          <mxGeometry y="90" width="170" height="145" as="geometry" />
        </mxCell>
        <mxCell id="q41vTv1glD9lVKqyJohb-15" value="SUNAT &lt;font style=&quot;font-size: 18px;&quot;&gt;*&lt;/font&gt;" style="swimlane;fontStyle=0;childLayout=stackLayout;horizontal=1;startSize=30;horizontalStack=0;resizeParent=1;resizeParentMax=0;resizeLast=0;collapsible=1;marginBottom=0;whiteSpace=wrap;html=1;" vertex="1" parent="q41vTv1glD9lVKqyJohb-29">
          <mxGeometry width="170" height="90" as="geometry" />
        </mxCell>
        <mxCell id="q41vTv1glD9lVKqyJohb-16" value="ruc" style="text;strokeColor=none;fillColor=none;align=left;verticalAlign=middle;spacingLeft=4;spacingRight=4;overflow=hidden;points=[[0,0.5],[1,0.5]];portConstraint=eastwest;rotatable=0;whiteSpace=wrap;html=1;" vertex="1" parent="q41vTv1glD9lVKqyJohb-15">
          <mxGeometry y="30" width="170" height="30" as="geometry" />
        </mxCell>
        <mxCell id="q41vTv1glD9lVKqyJohb-17" value="regimen_laboral" style="text;strokeColor=none;fillColor=none;align=left;verticalAlign=middle;spacingLeft=4;spacingRight=4;overflow=hidden;points=[[0,0.5],[1,0.5]];portConstraint=eastwest;rotatable=0;whiteSpace=wrap;html=1;" vertex="1" parent="q41vTv1glD9lVKqyJohb-15">
          <mxGeometry y="60" width="170" height="30" as="geometry" />
        </mxCell>
        <mxCell id="q41vTv1glD9lVKqyJohb-22" value="dni" style="text;strokeColor=none;fillColor=none;align=left;verticalAlign=middle;spacingLeft=4;spacingRight=4;overflow=hidden;points=[[0,0.5],[1,0.5]];portConstraint=eastwest;rotatable=0;whiteSpace=wrap;html=1;" vertex="1" parent="q41vTv1glD9lVKqyJohb-29">
          <mxGeometry y="91" width="170" height="30" as="geometry" />
        </mxCell>
        <mxCell id="q41vTv1glD9lVKqyJohb-23" value="tipo_contrato" style="text;strokeColor=none;fillColor=none;align=left;verticalAlign=middle;spacingLeft=4;spacingRight=4;overflow=hidden;points=[[0,0.5],[1,0.5]];portConstraint=eastwest;rotatable=0;whiteSpace=wrap;html=1;" vertex="1" parent="q41vTv1glD9lVKqyJohb-29">
          <mxGeometry y="120" width="170" height="30" as="geometry" />
        </mxCell>
        <mxCell id="q41vTv1glD9lVKqyJohb-24" value="remuneracion" style="text;strokeColor=none;fillColor=none;align=left;verticalAlign=middle;spacingLeft=4;spacingRight=4;overflow=hidden;points=[[0,0.5],[1,0.5]];portConstraint=eastwest;rotatable=0;whiteSpace=wrap;html=1;" vertex="1" parent="q41vTv1glD9lVKqyJohb-29">
          <mxGeometry y="150" width="170" height="30" as="geometry" />
        </mxCell>
        <mxCell id="q41vTv1glD9lVKqyJohb-25" value="regimen_pensionario" style="text;strokeColor=none;fillColor=none;align=left;verticalAlign=middle;spacingLeft=4;spacingRight=4;overflow=hidden;points=[[0,0.5],[1,0.5]];portConstraint=eastwest;rotatable=0;whiteSpace=wrap;html=1;" vertex="1" parent="q41vTv1glD9lVKqyJohb-29">
          <mxGeometry y="180" width="170" height="30" as="geometry" />
        </mxCell>
        <mxCell id="q41vTv1glD9lVKqyJohb-26" value="regimen_salud" style="text;strokeColor=none;fillColor=none;align=left;verticalAlign=middle;spacingLeft=4;spacingRight=4;overflow=hidden;points=[[0,0.5],[1,0.5]];portConstraint=eastwest;rotatable=0;whiteSpace=wrap;html=1;" vertex="1" parent="q41vTv1glD9lVKqyJohb-29">
          <mxGeometry y="210" width="170" height="30" as="geometry" />
        </mxCell>
        <mxCell id="q41vTv1glD9lVKqyJohb-98" value="RENIEC &lt;font style=&quot;font-size: 18px;&quot;&gt;**&lt;/font&gt;" style="swimlane;fontStyle=0;childLayout=stackLayout;horizontal=1;startSize=30;horizontalStack=0;resizeParent=1;resizeParentMax=0;resizeLast=0;collapsible=1;marginBottom=0;whiteSpace=wrap;html=1;" vertex="1" parent="1">
          <mxGeometry x="1010" y="410" width="170" height="270" as="geometry" />
        </mxCell>
        <mxCell id="q41vTv1glD9lVKqyJohb-99" value="id_trabajador" style="text;strokeColor=none;fillColor=none;align=left;verticalAlign=middle;spacingLeft=4;spacingRight=4;overflow=hidden;points=[[0,0.5],[1,0.5]];portConstraint=eastwest;rotatable=0;whiteSpace=wrap;html=1;" vertex="1" parent="q41vTv1glD9lVKqyJohb-98">
          <mxGeometry y="30" width="170" height="30" as="geometry" />
        </mxCell>
        <mxCell id="q41vTv1glD9lVKqyJohb-100" value="dni" style="text;strokeColor=none;fillColor=none;align=left;verticalAlign=middle;spacingLeft=4;spacingRight=4;overflow=hidden;points=[[0,0.5],[1,0.5]];portConstraint=eastwest;rotatable=0;whiteSpace=wrap;html=1;" vertex="1" parent="q41vTv1glD9lVKqyJohb-98">
          <mxGeometry y="60" width="170" height="30" as="geometry" />
        </mxCell>
        <mxCell id="q41vTv1glD9lVKqyJohb-105" value="nombres" style="text;strokeColor=none;fillColor=none;align=left;verticalAlign=middle;spacingLeft=4;spacingRight=4;overflow=hidden;points=[[0,0.5],[1,0.5]];portConstraint=eastwest;rotatable=0;whiteSpace=wrap;html=1;" vertex="1" parent="q41vTv1glD9lVKqyJohb-98">
          <mxGeometry y="90" width="170" height="30" as="geometry" />
        </mxCell>
        <mxCell id="q41vTv1glD9lVKqyJohb-104" value="apellidos" style="text;strokeColor=none;fillColor=none;align=left;verticalAlign=middle;spacingLeft=4;spacingRight=4;overflow=hidden;points=[[0,0.5],[1,0.5]];portConstraint=eastwest;rotatable=0;whiteSpace=wrap;html=1;" vertex="1" parent="q41vTv1glD9lVKqyJohb-98">
          <mxGeometry y="120" width="170" height="30" as="geometry" />
        </mxCell>
        <mxCell id="q41vTv1glD9lVKqyJohb-136" value="fecha_inicio" style="text;strokeColor=none;fillColor=none;align=left;verticalAlign=middle;spacingLeft=4;spacingRight=4;overflow=hidden;points=[[0,0.5],[1,0.5]];portConstraint=eastwest;rotatable=0;whiteSpace=wrap;html=1;" vertex="1" parent="q41vTv1glD9lVKqyJohb-98">
          <mxGeometry y="150" width="170" height="30" as="geometry" />
        </mxCell>
        <mxCell id="q41vTv1glD9lVKqyJohb-103" value="genero" style="text;strokeColor=none;fillColor=none;align=left;verticalAlign=middle;spacingLeft=4;spacingRight=4;overflow=hidden;points=[[0,0.5],[1,0.5]];portConstraint=eastwest;rotatable=0;whiteSpace=wrap;html=1;" vertex="1" parent="q41vTv1glD9lVKqyJohb-98">
          <mxGeometry y="180" width="170" height="30" as="geometry" />
        </mxCell>
        <mxCell id="q41vTv1glD9lVKqyJohb-102" value="fecha_nac" style="text;strokeColor=none;fillColor=none;align=left;verticalAlign=middle;spacingLeft=4;spacingRight=4;overflow=hidden;points=[[0,0.5],[1,0.5]];portConstraint=eastwest;rotatable=0;whiteSpace=wrap;html=1;" vertex="1" parent="q41vTv1glD9lVKqyJohb-98">
          <mxGeometry y="210" width="170" height="30" as="geometry" />
        </mxCell>
        <mxCell id="q41vTv1glD9lVKqyJohb-106" value="departamento" style="text;strokeColor=none;fillColor=none;align=left;verticalAlign=middle;spacingLeft=4;spacingRight=4;overflow=hidden;points=[[0,0.5],[1,0.5]];portConstraint=eastwest;rotatable=0;whiteSpace=wrap;html=1;" vertex="1" parent="q41vTv1glD9lVKqyJohb-98">
          <mxGeometry y="240" width="170" height="30" as="geometry" />
        </mxCell>
        <mxCell id="q41vTv1glD9lVKqyJohb-128" value="" style="shape=image;verticalLabelPosition=bottom;labelBackgroundColor=default;verticalAlign=top;aspect=fixed;imageAspect=0;image=data:image/png,iVBORw0KGgoAAAANSUhEUgAAAgAAAAIACAYAAAD0eNT6AAAAAXNSR0IArs4c6QAAIABJREFUeAHtnQuQHVd5521vGRMwOGvMq7JZEqhQLhaSSioVllQgiynYlO3wsAEbiE1gIYDZAmzkBFhgwVQA43LAst62bMuWZetpaaz3+/2WRhpppNF7NCPNjGTZlmRJlkaWz9YZ097rvn3n9r39dX/nnP6paqrnXt05r/5///+v+97bfdFFAf+79sfT11x07TDDD2uABtBA6BqYOH/D4fb29ssDtnSmxgqkXwEAANMP3fSZHxqPNDBz6Qazo6OjFwhInxG8MuAVAAAwx8gc2aKF0DUwYc5qs3XbNiAg4Exjag2sAACA6Ydu+swPjUcaGD9r1QAAAAENhAQvDXcFAADMMTJHtmghdA1UAgAQEG6uMbOUKwAAYPqhmz7zQ+ORBuIAAASkDApeFuYKAACYY2SObNFC6BpIAgAgIMxsY1YpVgAAwPRDN33mh8YjDdQCACAgRVjwkvBWAADAHCNzZIsWQtfAYAAABISXb8yozgoAAJh+6KbP/NB4pIF6AAAE1AkM/jusFQAAMMfIHNmihdA1kAYAgICwMo7ZDLICAACmH7rpMz80HmkgLQAAAYOEBv8VzgoAAJhjZI5s0ULoGmgEAICAcHKOmdRYAQAA0w/d9JkfGo800CgAAAE1goOnw1gBAABzjMyRLVoIXQPNAAAQEEbWMYuEFQAAMP3QTZ/5ofFIA80CABCQEB485f8KAACYY2SObNFC6BrIAgBAgP95xwxiKwAAYPqhmz7zQ+ORBrICABAQCxAe+r0CAADmGJkjW7QQugYkAAAI8DvzGH3FCgAAmH7ops/80HikASkAAAIqQoRf/V0BAABzjMyRLVoIXQOSAAAE+Jt7jPz3KwAAYPqhmz7zQ+ORBqQBAAggSr1eAQAAc4zMkS1aCF0DeQAAEOB1BJZ78AAAph+66TM/NB5pIC8AAALKnaPezh4AwBwjc2SLFkLXQJ4AAAR4G4PlHTgAgOmHbvrMD41HGsgbAICA8maplzMHADDHyBzZooXQNVAEAAABXkZhOQcNAGD6oZs+80PjkQaKAgAgoJx56t2sAQDMMTJHtmghdA0UCQBAgHdxWL4BAwCYfuimz/zQeKSBogEACChfpno1YwAAc4zMkS1aCF0DGgAABHgVieUaLACA6Ydu+swPjUca0AIAIKBcuerNbAEAzDEyR7ZoIXQNaAIAEOBNLJZnoAAAph+66TM/NB5pQBsAgIDyZKsXMwUAMMfIHNmihdA14AIAAAFeRGM5BgkAYPqhmz7zQ+ORBlwBACCgHPnq/CwBAMwxMke2aCF0DbgEAECA8/EY/gABAEw/dNNnfmg80oBrAAAEhJ+xTs8QAMAcI3NkixZC14CLAAAEOB2RYQ8OAMD0Qzd95ofGIw24CgBAQNg56+zsAADMMTJHtmghdA24DABAgLMxGe7AAABMP3TTZ35oPNKA6wAABISbtU7ObMjoJS2f+tkMww9rgAbQQOgamLVso7Eh6/rPjo6O3vb29sudDA0GFc4KHDly5Nd9fX2GH9YADaCB0DWwo6PD+fCP4AQICCdnnZ0JAIDph276zA+NRxrwCQB4O8DZ2AxnYAAA5hiZI1u0ELoGfAMAICCcrHVyJgAAph+66TM/NB5pwEcAAAKcjM4wBgUAYI6RObJFC6FrwFcAAALCyFvnZgEAYPqhmz7zQ+ORBnwGACDAufj0f0AAAOYYmSNbtBC6BnwHACDA/8x1agYAAKYfuukzPzQeaSAEAAACnIpQvwcDAGCOkTmyRQuhayAUAAAC/M5dZ0YPAGD6oZs+80PjkQZCAgAgwJkY9XcgAADmGJkjW7QQugZCAwAgwN/sdWLkAACmH7rpMz80HmkgRAAAApyIUj8HAQBgjpE5skULoWsgVAAAAvzMX/VRAwCYfuimz/zQeKSBkAEACFCPU/8GAABgjpE5skULoWsgdAAAAvzLYNURAwCYfuimz/zQeKSBMgAAEKAaqX51DgBgjpE5skULoWugLAAABPiVw2qjBQAw/dBNn/mh8UgDZQIAIEAtVv3pGADAHCNzZIsWQtdA2QAACPAni1VGCgBg+qGbPvND45EGyggAQIBKtPrRKQCAOUbmyBYthK6BsgIAEOBHHhc+SgAA0w/d9JkfGo80UGYAAAIKj1f3OwQAMMfIHNmihdA1UHYAAALcz+RCRwgAYPqhmz7zQ+ORBgCAbQYIKDRi3e4MAMAcI3NkixZC1wAA8AoAAAFu53JhowMAMP3QTZ/5ofFIAwDA/wcAIKCwmHW3IwAAc4zMkS1aCF0DAMBrAQAIcDebCxkZAIDph276zA+NRxoAAKoBAAgoJGrd7AQAwBwjc2SLFkLXAACQDABAgJv5nPuoAABMP3TTZ35oPNIAAFAbAICA3OPWvQ4AAMwxMke2aCF0DQAAgwMAEOBeRuc6IgAA0w/d9JkfGo80AADUBwAgINfIdatxAABzjMyRLVoIXQMAQDoAAALcyuncRgMAYPqhmz7zQ+ORBgCA9AAABOQWu+40DABgjpE5skULoWsAAGgMAIAAd7I6l5EAAJh+6KbP/NB4pAEAoHEAAAJyiV43GgUAMMfIHNmihdA1AAA0BwBAgBt5LT4KAADTD930mR8ajzQAADQPAECAePzqNwgAYI6RObJFC6FrAADIBgBAgH5mi44AAMD0Qzd95ofGIw0AANkBAAgQjWDdxgAAzDEyR7ZoIXQNAAAyAAAE6Oa2WO8AAKYfuukzPzQeaQAAkAMAIEAshvUaAgAwx8gc2aKF0DXQ1d1tDh48yI/gGnR3d9+jl2D0nGkFAABMP3TTZ35oHA3kpwGbIZlCiD/WWwEAIL/CwHRYWzSABkLXAACgl9+ZewYAMKjQDYr5oXE0kJ8GAIDMMazXAACQX2FgOqwtGkADoWsAANDL78w9AwAYVOgGxfzQOBrITwMAQOYY1msAAMivMDAd1hYNoIHQNQAA6OV35p4BAAwqdINifmgcDeSnAQAgcwzrNQAA5FcYmA5riwbQQOgaAAD08jtzzwAABhW6QTE/NI4G8tMAAJA5hvUaAADyKwxMh7VFA2ggdA0AAHr5nblnAACDCt2gmB8aRwP5aQAAyBzDeg0AAPkVBqbD2qIBNBC6BgAAvfzO3DMAgEGFblDMD42jgfw0AABkjmG9BgCA/AoD02Ft0QAaCF0DAIBefmfuGQDAoEI3KOaHxtFAfhoAADLHsF4DAEB+hYHpsLZoAA2ErgEAQC+/M/cMAGBQoRsU80PjaCA/DQAAmWNYrwEAIL/CwHRYWzSABkLXAACgl9+ZewYAMKjQDYr5oXE0kJ8GAIDMMazXAACQX2FgOqwtGkADoWsAANDL78w9AwAYVOgGxfzQOBrITwMAQOYY1msAAMivMDAd1hYNoIHQNQAA6OV35p4BAAwqdINifmgcDeSnAQAgcwzrNQAA5FcYmA5riwbQQOgaAAD08jtzzwAABhW6QTE/NI4G8tMAAJA5hvUaAADyKwxMh7VFA2ggdA0AAHr5nblnAACDCt2gmB8aRwP5aQAAyBzDeg0AAPkVBqbj59oe6Dpstu3uNGvb9ppN7fvNrn1d5lBPr2F/+rk/2W/57jcAQC+/M/cMAORbHJiPG+trQ33Bug4zfPp6890RC831P51uPjxkkvnLb08wf/a/HjXv/NJY8+YbR5tLrhtuLrp2WOLPZZ8aaa66+QHzJ//8iHn/N8ebD37vSfOxH0wxt/5mtvnFYyvMxEVbTevOA4BCnxv7nNorZj8AAJljWK8BAKCYIsGMilvnDdv3md9NWWtuGzp/IKD/+NaHzcXXJYd6rbDP8vybbhxt/up/TzA3/ftM89NHlpkpS9pM96EewAAwCFIDAIBefmfuGQAoLpiAgHzW2oarDdlv3Td/4Gg+S3jn9bdv/Mwo8w//Z5q5Z+Jqs3nH/iCDAH3no2/X1xUAyBzDeg0AAOUsWtdNpd74OvZ1mXsnrTHX/vgpc/kNoxJP2ecV5hLtXv31R823719gWla0AwOcGfBaAwCAXn5n7hkAAADqha1L/798825zy92zzR98eqR3oV8LHOznCe6butZ08TaB10HoUp0UORYAIHMM6zUAAAAARZpFM3319vaZ8fNbzd/fOTmY0E+CAfsBwyGjFw98A6GZdeJvqGUNDQAAevmduWcAANPQMI20fdpP7b/7K48EHfxxGLj0kyPMzb+cCQjw1oAXZ0QAgMwxrNcAAAAApA3jIl9nP8n/0X8N+4g/Hvzxx1d8bszA5xzsGZAi156+WO9GNAAA6OV35p4BAIq9kWLP+7WHe3rNzx9dYd7wGf8+2BcPcKnHH7p9olm1ZQ8QwBkBJzUAAGSOYb0GAAAAIO9QT9v+mra95i9ue7xUp/vTQsLrPjnC/OThZU4GQNr9y+vC9BoAQC+/M/cMAIRZlL6Z7bJNu83bvvAg4V/jKoQRKPzLb+cBAZwJcEoDAEDmGNZrAAAAALRhYcH6DnPl5x8g/OuEfwQBX/7NbMPnAqhb7bqN+gcA9PI7c88AAEYSFbLGduaqdnPFZ0cT/inDP4IAe5nhnl5uUKShWfp8rWcCAJljWK8BAOC1Yqa4i1uPtl2dAzfgiUKNbWP3K7hj5CKnTgVTO8XVjktrDQDo5XfmngGAchatCwZy410tHPk3eORfCUn2egF8O4D61a5lACBzDOs1AABgIBoGMm3pNsI/Q/hHIGBvaayx/+gT34g0AADo5XfmngEACjkq5KK29rv+7/3aowCAAABYEBg1YwMQwDcD1DQAAGSOYb0GAAAAoKjgj/pZsK6D8BcKfwsAn/jRVDXzj/Yp2/L6CACgl9+ZewYAylu4WqZ9z8TVAIAgALz9Cw8CAJwBUNMAAJA5hvUaAAAAgKJB4Eu/ngUACAKAPQvQuvOAWgAUrR/6c8uzAAC9/M7cMwDgVjGVwdz+nMv9igPQY/NaAQDOAqhoAADIHMN6DQAAAEDR0PGer44TD8DoU/Fl3fJBQOq46DqO+gMA9PI7c88AAMYRFXJRWwkA+JOvjDNfuHueuXvyJnPb8KXmr787yVxy3fDSggUAQB0XVb/xfgCAzDGs1wAAgHHECzrvx1kA4I03jDZDW7aal182Vf9W7eg17/36+FJCAABAHeddt7XaBwD08jtzzwAAxlGrsPN6vlkAeP2nR5q2A8eqgr/yiTPnzg+cDSjbWwEAAHWcV73WaxcAyBzDeg0AABhHvQKX/v9mAeA/ntpSmfU1f9/R9ZyxsFAmCAAAqGPpOk3bHgCgl9+ZewYAMI60hS71umYA4D9//gFzIem8fw0M+PK9CwEAPhWv8ql4qTrxpR0AIHMM6zUAAAAARRtNMwDwsR9NrxH1yU/f39IGAAAAAEABGgAA9PI7c88AAADgAwB8e8Sy5KSv8eyC1i4AoADzL1o79OeeXwEAmWNYrwEAwL2CCt3kmjkD8D9/3FIj6pOfHjmrXHcb5DMA1LGWbwAAevmduWcAAOMo2jiaAYC3fmFsctLXePbrQxdzBoAzALwFUIAGAIDMMazXAAAAAPgAAPYT/Q/N31Ej7l/7dOeRk+ZNN44GAAow/6K1Q3/u+RUAoJffmXsGANwrqNBNrpkzABYA3vzZMcaG+2D/7DcFrvnh9FKFv10b3gKgjrV8AwDIHMN6DQAAGEfRxtEsANigs28FTFqxJ5EBdnY/Z/77HZNLF/4AADVcdA1X9gcA6OV35p4BAMyjspiL+D0LANiwsz8fvH2yuX3MCjNuYYe5a8IGc/3PZpbu4j/RWgAA1HARdVurDwAgcwzrNQAAYB61Cjuv5yUAoDL8+J23APLSKu3W90cAQC+/M/cMANQXOCYgu0YAwCtnMSTBhc8AyGqUmk+/ngBA5hjWawAASC90TEFmrQAAAIBakqklF9YRANDL78w9AwDhFKILZpBmDAAAAJBGJ7zGD28CADLHsF4DAIAfRRaSGQIAAEBIei77XAAAvfzO3DMAAAAUbWAAAABQtOboLz+fAwAyx7BeAwBAfoWB6SSvLQAAAFAbybXh47oAAHr5nblnACCcQvTFPAAAAMAXrTLO+v4IAGSOYb0GAID6AscEZNcIAAAAqCnZmtJcTwBAL78z9wwAhFOImibQSN8AAADQiF54rdseBQBkjmG9BgAAt4srRPMDAACAEHVd1jkBAHr5nblnAAAAKNq4AAAAoGjN0V9+PgcAZI5hvQYAgPwKA9NJXlsAAACgNpJrw8d1AQD08jtzzwBAOIXoi3kAAACAL1plnPX9EQDIHMN6DQAA9QWOCciuEQAAAFBTsjWluZ4AgF5+Z+4ZAAinEDVNoJG+AQAAoBG98Fq3PQoAyBzDeg0AAG4XV4jmBwAAACHquqxzAgD08jtzzwAAAFC0cQEAAEDRmqO//HwOAMgcw3oNAAD5FQamk7y2ezsPmV37u53/eWxeq7noWvmwzqPNUTM2GPSWrDfWJd91AQD08jtzzwBAvsWB+fi7vtOWbgMA+vzdf9ReMfsOAMgcw3oNAADFFAlm5N86AwD+7TPqrPh9BgDo5XfmngGA4gsGk/JjzQEAP/YT9aS7nwCAzDGs1wAAoFs8eZpX16Ee07ark58m12DsrE1evwVw5OAOc7SzTe3nSNdOPpdQgrdQAAC9/M7cMwAQDgDsPtBt7pm42vzT3bPMB7453lz6jyO8CbA8PhhXpjZHt1R/CPDsw+8x54depPpzbsxbzekpHzcnFg0xx9pnAgQBAgEAkDmG9RoAAMIAgBHT15u3feFBAt+TT+1Lw0nStwBcAIA4gJyacaM52rkNEAgIBAAAvfzO3DMA4DcArNqyx/zd9ycR/CUN/ggkfAEACwT9I68wx1f+2vT19gACAYAAAJA5hvUaAAD8BYDZq3eYy28YRfiXPPwtBPgEANFZgVMtnzd9fb1AgOcQAADo5XfmngEAPwFg4foOc8XnxhD+hP+ABnwEAAsCL8y8BQAAADLnGA00uQIAgH8AsKJ1t3nLTQ8Q/oT/qxrwFQAGIGDO14AAjyGAMwBNhq8LfwYA+AUAm3fsN+/44thXjT96D5itH5fszWs/+QwAFgJOLrwdCPAUAgAAF5K8yTEAAH4BwDX/NoXw58i/SgO+A8D5+y8xx9pnAQEeQgAA0GT4uvBnAIA/AGBNPq8jSNr1+wyC9wAw9CJzdtzVpq+nGwjwDAIAABeSvMkxAAB+AEDHvi5z1c287w+oJINKCABg3wo4seQHAAAA0GSa8WcNrwAA4AcA3PzLmRz9c+q/pgZCAYD+4ZeZZ/asAgI8ggDOADQcu+78AQDgPgDMWL69pvFzRJx8RFy2dQkFAOxZgDMTPwwAAADuhGTIIwEA3AcAPvhHyNcDmpAAwELAsR1zgQBPIIAzAB4TAgDgNgCsbN1jLr6OAKwXgGX//9AA4NT0GwAAAMDjZPVk6ACA2wBw629mc/qf9/7raiA0ADg/7FJz9MAWIMADCOAMgCdhnzRMAMBdANi5t8u8/tMj65p/2Y9+mb+f9wKwp/oH+zm54HsAAACQFFs8J7UCAIC7APDDB5cS/hz9p9JAcGcA7F0DR19pjhw+CAQ4DgGcAZBKY4V2AAA3AeBQTy+X/CX8U4W/PQMSIgDYswPPr/ktAAAAKCRjSboEANwEgOl89S91+PEWQLgAcGbSNQAAAFCSNFaYJgDgJgB8Z/hCApAzAKk1EOoZAHthoCOHO4EAhyGAtwAUgluqSwDATQB4/zfHpzZ/joD5muS4uZurQvLcg3806IfsBvsAnkv/91zr41Vz63M4EMs2NgBAKo0V2gEA3AOAtl2dfPefo/+GAHDump2xkOw19qt0LgV5s2N5YfZXYnNzr2bLFvqV8wUAFIJbqksAwD0zuW/q2obMnzMAnAFo3XngNSF55OCOIMLfQsPZse96zdwqw4ff9f0LAJBKY4V2AAD9Aoqb2Kd+NgMA4AxAag1cct1wc7in9zUh+UzH4mAAwEIANwhyz6ci3wIAFIJbqksAwK3CskZ+xefGpDZ/jv45+r/664++JvytMT+75YmgAOD48ruq5hgFEFtdDwMApNJYoR0AQLd44ua1bNNuwp+j/4Y0cMfIRVXheGLpT4ICgNPTrq+aY7x2eKzjZQCAQnBLdQkA6BRNLbN64OmNDZk/ZwA4A7BwfUdVOL444W+CAoCzj7y3ao61aojni/U0AEAqjRXaAQCKLZZ65nTnmMUAAGcAUmvgXV9+uCoYjx7cbs7ff0lQAGC/0dDXe6hqrvXqif/P398AAIXgluoSAMi/QBoxIT4AyBF9I2d1fj1hVVUo2svnNvuVO5f/7pk9K6vm2kht8dp8vA4AkEpjhXYAgHyKolmzed83Hkt99NdIUPDa8MDCHv13H+6pCsXTUz4eJAA8t+mhqrk2W2f8nZzvAQAKwS3VJQAgVwhZTcV+A+B1nxwBAPAWQCoNjJi+vioQB77+F9rp/9/fNvjEkh9UzTdrzfH32f0PAJBKY4V2AIDsBSBlImva9qYyfo7mwzuab3SffnjIJNPbW61de/Mcl0/jZxnbqRk3AgAOXgIZAFAIbqkuAYBqE5UK9EbbsddzbzQIeH35YOBP//kRs2tfV1UYPrt1crDhb8Hhxcc+UDXnRmuM18v7HQAglcYK7QAA8gXRrMn8/NEVAACn/wfVwJtvHG1Wtu5JCMLegYDMcoTt+t/2j3xTwrzdqd9m6973vwMAFIJbqksAwB0DGTKarwByRqP2GY233PSAaVnRnhiCJxYNCfro/xU4udj09b32kse+h2cI4wcApNJYoR0AwB0A+NZ98wc9+iMca4dj6Gvz377xmNnYvj8x/J/b+KA5P/TiEgDARebIoX2JaxBCkPo6BwBAIbilugQA3AGAW+6eDQDwFkCVBm68q8XsP5h8EZxjHYtM/4g3lCL87VmAo51bAQDHPggIAEilsUI7AIA7APCZn3MXwNCP5BuZ3we/+6SZtWpHzcA7eqDVnHvwj0oT/hYAuCugO34VnbEAABSCW6pLAMCdgvr4D6dWHf01Ehi81v+3CC771EhjdfDInM01g98a77H2WebcmLeVKvwtABzbOX/QdYlCiW1xvgYASKWxQjsAQHGFUs+UPnT7RACgRG8BvPEzo8x7vjrO/O0dE80XfzXLPDR7U81T/ZXaeX7tUNM/7HWlC38LAM+2TQMAeAtAISkD7RIAcAcAPvCt8QBADQD4T9cPHwjK745YaH41YZUZO2vTwOnxTe37za793d791HpPvzLo478fOdxpXpj7jVIGvw1/+/Pc5kcBAAAg0DRWmBYA4A4AvPsrjwAAFQBgT4d/4kdTze+mrDU79h4sr/H39hh7g59zD7yz1OFvAeD59SPKqwPHgj8CVN4CUAhuqS4BAHcA4J1fGgsAXDvM2OD/9v0LEq92F5lOWbbPtk4wZ8ddXfrgj84APL/6XgDAMRAAAKTSWKEdAMAdACj7GYBLrhtubv7lTNO680B5Tb73sHl22/SBU/1nx76L4P/9qf9XAYAzAM7VBgCgENxSXQIA7gBAmT8DYD8Mt2TjrobNzb4vfrRzmzna2ebXz4FWc2zHvIH3tI+v+o05uWiIOTXjs6Z/9JWEfiz0o/C3Wz4D4I5fRWfhAACpNFZoBwBwp6DK+i2A/3Hn5IEP8UWGkrztHQjMkwtvN2cmfsScfeS9pn/kFYTlIGFZGZyh/M63ANzxq6hOAQCF4JbqEgBwp6DKeB2Ar/3HXHO4p/b13Y/u32RemP1VPgBXsqCvBSxcB8AdvwIApFJYsR0AwJ2CKtuVAH/6yPKap/yPdO8yJ+fdZvqHX8ZRPuH/qga4EqA7fgUAKAa3VNcAgDsFVaZ7AfzT3bNqhr+9uU3/qD981fRrHQ3y/CvfjS/TOnAvAHf8CgCQSmHFdgAAdwqqLHcDtJ916D7ckwgAJxbfWZo725UpuKXmyt0A3fErAEAxuKW6BgDcKaghoxcHfx2A/3rrw8kX9enpNqef+iRH/ZzuH0QDF5u+vtqfF4kCiW2xnmYzRCqPaKfgFQAAii2Wwczp54+uCB4ApixpSzzyP9Vy0yDGX75T3VJHzCG10z/yTYnaGaym+L/8/Q0AKDi0JbsDAPIvkLQmNG7u5qAB4KP/OjnRwE8s+7+EP0f+dTXw4mMfSNRP2vridfl4HQAgmcgFtwUA5FMUzZjNmra9wQLAxdcNM4s2VF/o59ktT5jz919S1/xDOpJlLs2d0Tk140YAwLHLAFufAwAKDm3J7gAAdwDAfh/+dZ8cESQEfPYXLdXm3dNtzj70p4Q/R/+pNHBiyQ+qNeRgIDYD/z7/DQAgmcgFtwUAuAMA1gTe943HggSAZZt2V5n38ZW/SmX8HDE3d8Qc2ro9t+mhKg35HJyhjB0AKDi0JbsDANwCgE/9bEZwAGBvchQ3O/t1rnOjrwIAOPpPrYFn9qys0lFcVzwu3s8AAMlELrgtAKD4ghnMpO4cE95XAW8buqDKuI+vuju18Yd2JMt8mjijMexS09d7qEpHg9US/1eMtwEABYe2ZHcAQDFFktaMHnh6Y3BnAJ5e2V5l3GcmXQMAcPSfWgP25k9pa4jXFetpAIBkIhfcFgBQbLHUMyf7XvlF1w4L5ueqmx8wPb2vvXjLke495vywS1ObP0fMTRwxBwYXp6ddDwA4+oFHAKDg0JbsDgBwCwDsNwGu+NyYYADgb++YWGXcz20YQ/gHFtB5Q9rx5XdV6ageTPP/xXgbACCZyAW3BQAUUySNmFFIHwS84a7qr/+dXPh9AAAAaEgD3AXQPZ+KPA0AKDi0JbsDANwrrPumrg3mDMBtQ+dXHbmdmvmlhsw/76NL2nf7LYazY99VpaEofNjq+xcAIJnIBbcFAOgXUNzE2nZ1GnvlvBA+C/CzccurzPv05I8BAJwBSK2BF2Z/pUpD8ZrhsZ6PAQAFh7ZkdwCAXuEMZlrv/+b4IABg5IwNVeZtr+nOUbfbR90u7Z/nWh/IGwTqAAAgAElEQVSv0tBgtcP/FetpAIBkIhfcFgBQbLGkNafvDF8YBAA8PHtzlXmfffg9AABnAFJpoH/4ZebI4c4qDaWtI16Xv78BAAWHtmR3AED+BdKMCU1fvh0AICRThaRLR+vSY7HXi2imfvib4nwNAJBM5ILbAgCKK5RGTOlQT695xxfHeg8BnAHgVH8WKHh+zW8BAEe//x/5GQBQcGhLdgcAuAkAtrh++OBSAICzAKU9C9A/+kpz5PBBAAAAkIw82qpcAQDAXQDYubfLvP7TI72GAM4AcAag2TMAJxd8j/B3PPztgQpnACoT1bPfAQB3AcAW162/mQ0AcBagfGcBhl1qjh7YAgAAAJ4lqmfDBQDcBoCVrXu8viYAZwA4A9DMGYBT028g/D0If84AeBb48eECAG4DgC2wa/5tirdnAQAAAKAZADi2Yy4AAADE44rH0isAALgPADM8/kogAAAANAoAZyZ+mPD3JPw5AyCdyAW3BwC4DwC2yG7+5UwvzwIAAABAIwBgL/zDjX/88CTrSwBAwYEt3R0A4EexdezrMlfd/IB3EAAAAACNAMCJJT/g6N+jo38AQDqRC24PAPADAGyhjZqxAQDgGwHBfiPg7LirTV9PNwAAABScgiXuDgDwBwAsBPj2gUDOAHAGINUZgPsvMcfaZxH+noU/ZwA8hwcAwC8A2Lxjv1eXCAYAAIA0AHBy4e2Ev4fhDwAAABRuwYW7onW3ectNfnweAAAAAOoBwAtzvoaHFOwhNrilfuxBpOcxWN7hcwZArhCkCipNOwvXd5grPjfG+c8EAAAAwGAA8MLMW8SCKE3d8Bp5vwMAPOYHAEC+IIoymdmrd5jLbxjlNAQAAABALQA41fJ509fXCwAIHo0X5T2V/QAAAABFrFTEq7bsMR8ZMslZCAAAAIA4APSPvMIcX/lr09fbg28o+UZlgGf9HQAAAChk5UIe3bLByQ8HAgAAQCUAnJpxoznauQ2/UPaLrKFf+fcAAABAQTtQ0Hs7D5l7J60xt9w923zgm+PNpf84Qv3MAABQbgA4N+at5vSUj5sTi4aYY+0z8QkHfKIyvCV+BwAAAArbwcLuOtRj2nZ1qv7YMcRN5uzD7/HiYjYvPv7X5mhnGz9NrsGRrp1V+z6uBR77+xmkaN8BAAAAhe4gAEQF6trWFwA488SH0DW6RgN1NAAAAAAUSZ0icS2ENccDAPh/1KepH/p2Sz8AAAAAAAAAqTUAALhl4AQq+yOLBgAAACC1+WcRGn8bhlH5AgAvTvgbc6R7lxc/3EQnjNrw0eMAAAAAAOAMQGoN+AIAlV9fc/3359ePSr3+PoYMY3YXcAAAAADzAQBSawAAkP9qIADgbkCGDi8AAACQ2vxDLwbmV9+IAQAAgDqpXye+rBEAAAAAAJwBSK0BAAAA8CXcGGd9UAEAAIDU5k9B1S+o0NcIAAAAQtd4meYHAAAAAABnAFJrAAAAAMoUkKHPFQAAAFKbf+jFwPzqn+EAAAAA6qR+nfiyRgAAAAAAcAYgtQYAAADAl3BjnPVBBQAAAFKbPwVVv6BCXyMAAAAIXeNlmh8AAAAAAJwBSK0BAAAAKFNAhj5XAAAASG3+oRcD86t/hgMAAACok/p14ssaAQAAAADAGYDUGgAAAABfwo1x1gcVAAAASG3+FFT9ggp9jQAAACB0jZdpfgAAAAAAcAYgtQYAAACgTAEZ+lwBAAAgtfmHXgzMr/4ZDgAAAKBO6teJL2sEAAAAAABnAFJrAAAAAHwJN8ZZH1QAAAAgtflTUPULKvQ1AgAAgNA1Xqb5AQAAAADAGYDUGgAAAIAyBWTocwUAAIDU5h96MTC/+mc4ygwAL41/n7mw5FvmQvtYc2HTPealOZ8358dcac4PzQYFz68fRQ0C4SoaAAAAABXhEbb1w9bFNSolAAx/vbmw+V5jXr5gqv6dOWJemvWZTBAAAPhZCy7WZ6NjAgAAAACAo4/UGigfAFxsXu5eVJX78ScuLP5G0xAAAAAAjQa31OsBAAAgtflLiY52/DW8sgHAhWXfiWd98uP+U+alce9uCgIAAH/rwXcvAwAAAACAMwCpNVA2ADCne5MDP+HZC62/BQCopdS15AI8AAAAgFeCdaFoyjyGUgHAQ/8lIeZrP/Vyz0oAAADwyk8BAADAK8GWOXxdmHuZAOCladfUTvuk/zlzFAAAALzyUwAAAPBKsC6EYJnHUCYAOP/gO5JivuZzLx9aCgAAAF75KQAAAHgl2DKHrwtzLxUADL3ImJMHawZ+/D8ubLobAAAAvPJTAAAA8EqwLoRgmcdQNgB4af6t8ZxPfvzis8aeMWjmokB8C4BvAWh5CgAAAAAAHLWk1kDZAMAG+st7JieHfvTsyxdeuSpgk1cEBAAAAADA4yDWGrqlNy3h0G85TauMAHD+/kvMhZV3GvPS2SjyX92+fHyveWnK3zV15B+dLQAAyllLLngoZwC00lugXwAA4yjaREoJANGR/YNvH7js74UN/24urPi+eWnqR8z54a/PFP4WAgAA6rjoOo76AwAEglirCQAA44gKuahtqQEgAgHhLQBAHRdVv/F+AACt9BboFwDAOOIFnffjFx/788xHvNGpb7av3EXwuc2Ppf4MRt77l/bL5SkAgEAQazUBAJSrWF0w51MzvwQACJ8BOHqgFQDgg7gqGgAAtNJboF8AAAAoGgqOr74HABAEgHNj3q5i/EXrhv7c9CoAQCCItZoAANwsqpDN7tjOBQCAIACcnvIJAICjfzUNAABa6S3QLwAAABQOG72HzdlH3gsECEEAHwCkhguv4QrgAgAEglirCQAA89Awj2fbpgEAAgBwZuKH1Y78NHRDn+75FQCgld4C/QIA7hVUWUzu1IwbgYAsEDDsUvPMnlUAQMXRaFlqx6V5AgACQazVBAAAAGiZydHONtM/8s1AQJMQcHLhHYQ/4a+uAQBAK70F+gUAAAAtALD9HmufafpHXgEENAgBp1puMn29Permr6kd+nbDuwAAgSDWagIAcKOIymxm9lsB/aOvBAJSQsALs75s+vp6CX+O/p3QAACgld4C/QIAAIAL8PHMrmXm3Ji3AQF1IOCFuf/ihOm7oBnG4IZ3AQACQazVBADgRhFhZn3mmb1rzIvj/wIISICA/mGvMyeW/oTw56jfOQ0AAFrpLdAvAAAAOAUfvYfN8eU/N/0j3gAI/B4EzjzxIT7tT/A7F/yRbwAAAkGs1QQAAABEhezS9ui+DebMpI+WGgL6R11hnl99L+/3E/7Ohr/1DABAK70F+gUAAACXgj8+lufXDTdnH3p3uUBg2KXm1NM3m6Od25w2/vi+4nE5vQQAEAhirSYAgHIWrV9m3Wueax1vzkz8+6BB4Nzoq8zJRUMIfo74vQI/AEArvQX6BQAAAJ9g4Jndy80LM28x/cP/IBgYePHR95vn195njvR0eWX8PumGsebncwCAQBBrNQEA5FcYmE5+a3ukq2Pg/fHTU681/SMu9w4Gzo672pyc/21zbHsLoc8Rv9caAAC00lugXwAgv5ACAApa255u82zbFHNy3rfM2Uf+zEkY6B/xRnN66j+Y46vvMUf3b/ba8NF1Qbr2BIwAAIEg1moCAKCYQzN0+w2C59f8zpycd5s5Pflj5tzYPzbnh15cGBj0j3yTefHxvzL2cr0nlv10AE76eroJfU8CLbR6yHs+AIBWegv0CwAAAHkbhAvtHzl8wNhLDttvFZxc8F1zetr1xt5K98Xxfzlw1uDcA+985cZE919SExT6h19m7Af1zj70J8a+b3/miQ8OAMYLs241x1f8wjy7daI5eqCVoCfoS6UBAEAgiLWaAAAAABcC2qUxWFiwX8F7Zu9ac3T/JnOka5fp6z1UKlN3aX8wFrc9CgDQSm+BfgEAt4sL82P/oAE04LIGAACBINZqAgDAXFw2F8aGPtGA2xoAALTSW6BfAMDt4sL82D9oAA24rAEAQCCItZoAADAXl82FsaFPNOC2BgAArfQW6BcAcLu4MD/2DxpAAy5rAAAQCGKtJgAAzMVlc2Fs6BMNuK0BAEArvQX6BQDcLi7Mj/2DBtCAyxoAAASCWKsJAABzcdlcGBv6RANuawAA0EpvgX4BALeLC/Nj/6ABNOCyBgAAgSDWagIAwFxcNhfGhj7RgNsaAAC00lugXwDA7eLC/Ng/aAANuKwBAEAgiLWaAAAwF5fNhbGhTzTgtgYAAK30FugXAHC7uDA/9g8aQAMuawAAEAhirSYAAMzFZXNhbOgTDbitAQBAK70F+gUA3C4uzI/9gwbQgMsaAAAEglirCQAAc3HZXBgb+kQDbmsAANBKb4F+AQC3iwvzY/+gATTgsgYAAIEg1moCAMBcXDYXxoY+0YDbGgAAtNJboF8AwO3iwvzYP2gADbisAQBAIIi1mgAAMBeXzYWxoU804LYGAACt9BboFwBwu7gwP/YPGkADLmsAABAIYq0mAADMxWVzYWzoEw24rQEAQCu9BfoFANwuLsyP/YMG0IDLGgAABIJYqwkAAHNx2VwYG/pEA25rAADQSm+BfgEAt4sL82P/oAE04LIGAACBINZqAgDAXFw2F8aGPtGA2xoAALTSW6BfAMDt4sL82D9oAA24rAEAQCCItZoAADAXl82FsaFPNOC2BgAArfQW6BcAcLu4MD/2DxpAAy5rAAAQCGKtJgAAzMVlc2Fs6BMNuK0BAEArvQX6BQDcLi7Mj/2DBtCAyxoAAASCWKsJAABzcdlcGBv6RANuawAA0EpvgX4BALeLC/Nj/6ABNOCyBgAAgSDWagIAwFxcNhfGhj7RgNsaAAC00lugXwDA7eLC/Ng/aAANuKwBAEAgiLWaAAAwF5fNhbGhTzTgtgYAAK30FugXAHC7uDA/9g8aQAMuawAAEAhirSYAAMzFZXNhbOgTDbitAQBAK70F+gUA3C4uzI/9gwbQgMsaAAAEglirCQAAc3HZXBgb+kQDbmsAANBKb4F+AQC3iwvzY/+gATTgsgYAAIEg1moCAMBcXDYXxoY+0YDbGgAAtNJboF8AwO3iwvzYP2gADbisAQBAIIi1mgAAMBeXzYWxoU804LYGAACt9BboFwBwu7gwP/YPGkADLmsAABAIYq0mAADMxWVzYWzoEw24rQEAQCu9BfoFANwuLsyP/YMG0IDLGgAABIJYqwkAAHNx2VwYG/pEA25rAADQSm+BfgEAt4sL82P/oAE04LIGAACBINZqAgDAXFw2F8aGPtGA2xoAALTSW6BfAMDt4sL82D9oAA24rAEAQCCItZoAADAXl82FsaFPNOC2BgAArfQW6BcAcLu4MD/2DxpAAy5rAAAQCGKtJgAAzMVlc2Fs6BMNuK0BAEArvQX6BQDcLi7Mj/2DBtCAyxoAAASCWKsJAABzcdlcGBv6RANuawAA0EpvgX4BALeLC/Nj/6ABNOCyBgAAgSDWagIAwFxcNhfGhj7RgNsaAAC00lugXwDA7eLC/Ng/aAANuKwBAEAgiLWaAAAwF5fNhbGhTzTgtgYAAK30FugXAHC7uDA/9g8aQAMuawAAEAhirSYAAMzFZXNhbOgTDbitAQBAK70F+gUA3C4uzI/9gwbQgMsaAAAEglirCQAAc3HZXBgb+kQDbmsAANBKb4F+AQC3iwvzY/+gATTgsgYAAIEg1moCAMBcksylp6fHrFy9rtCf1WvXm/UbN5vNW7aardu2m/adHWbX7j1m3/4D5tChQyZpnHk819vXZ1av25Db3Ndt2FTYXOz6bG/fkdtcVq5ZZ7oL3Dd57G/azOaBAIBWegv0CwBkE3+o5mEDd/zEqU79TGuZZRYuWT4ACR27dpvDhw/nFqQrVq/Nde4WbIrQTk9vr5k8/enc5jJn/qJC5lHEWtFHc14IAAgEsVYTAEBzog/dLFwEgDiQPD5xqmmZPc9s2NQqfobAHtU+OXV6bsE5b9HSQoJz85a23OZg98eevfsKmUfo9ebz/AAArfQW6BcAAACSzMcHAKgEggmTnzKLlq4w9sxA0nyaeW7N+o25huf+/QfExlprfk89PTu3OdizMbX65fny+AoAIBDEWk0AAOUp1EZM2TcAqISB6TPniIDA4Z4eM+mp/E6fL1m+MtcA3ba9PbfwnzBpmjnQ2Znr+BvRK6/V8zEAQCu9BfoFAPQKx2XT8hkALAzYtwfs+/j2w4xZ1nnj5i35hejkp0xXV1em8Q02t6fnzM9t7MtXrslt3IPNif9zz68AAIEg1moCAHCvoFwwOd8BIDojYE+B796zt+mw6u3tNVNbZuUWpPZT9Hns7527duc25ienTDfd3d25jDuPtaDNfD0OANBKb4F+AYB8i8NX8wkFAAbOBkyaZra0bWs6sLa2bc8vTKdOz+XbDHMXLM5tzGvWbWh6LX2tB8Zd2ycBAIEg1moCAKgt7DIXfUgAEEGAva5As/t0xqy5uQXquo2y1wXYu29/bmO1n4mwn41odh35u/D8BgDQSm+BfgGA8ApSwmRDAwALAU9Mmd702wHtO3bmFqr2e/r2rQaJ/WbbWLR0eW5j3dS6RWycUvOlHV0PAwAEglirCQBAt3hcNa8QAcBCwKRpLWb/gea+fjdr3sLcgrV1a5tIsHZ2HjSPT5qWyzintcwWBRVXtc+4GvNEAEArvQX6BQAaE3tZzCFUALAQYIO8mf1or95n/z6Pn6dmzmlqTPF5LFu5Opfx2Tm3bWsXGWN8zDz224MAAIEg1moCAPC7+PIyz5ABwIbZtvYdTYXZ/EVLcwvY7e07mxpTpIHu7kPmiclP5TI++5XCqB+2eEalBgAArfQW6BcAoJgrizn6PXQAsF8PbOZ9d3tjorxOsc+auyBTyNobGOVxdsK2ubNjV6axRbpiG57fAAACQazVBAAQXkFKmGzoAGBDzV7kp5m1WrxsRW5B2+xNguwn8ydOm5HLuOYuXNzUOjWztvyNf34EAGilt0C/AIB/BVeESZYBAOyn75tZy86DB42990AeR9v2LYZmxmRviJTHeOwVFe3XCpsZE39TDm8BAASCWKsJAKAcRdqoGZcBAGxgNns3u+Wr1uQWuI1+S8G+lTFlxsxcxmNvsNSodnh9uTwFANBKb4F+AYByFWtacy4LAKzdsLGpgLMfuLOXxM3jqHvJ8lUNjal167ZcxmHPctizHWk1w+vK6SUAgEAQazUBAJSzaOuZdV4AMHXGLGM/SBf/saeZ7cV27PvyK1evM3NyvJRtZWg3+5VAu372kriVbUn9boO3qyv9tfbt3Q+l+q5sx95MqZ5O+H/8AwDQSm+BfgEACjjJxPMCgGlPz04dKvYmPnlefMeGnf1E/+HDh1OPqXKt7N9Neqoll/BdlfImQdtzukLhk1NnmO5Dh5pal8o14vfw/QUAEAhirSYAgPALtBkTdgEAonHn+fU2CwE7MtwjYMPmfD58ZwM4DZjYrw5WHrVL/d7sWyPRPmNbHl8BALTSW6BfAKA8hdqIKbsEAPZDbi2z5+USdDYws1yG147Nvq0hFbyV7azfuHnQI/C8rkxovx3Rww1/Bl37Rmop9NcCAAJBrNUEAAAAJBmUSwBgx7dv//7cLsBTL2iT1qfyOXur4crglvp9yvSZg16saF5OVyXcvGUr4deHL1RqfLDfAQCt9BboFwCg0JOK2zUAsGO0N6ORCtfKdlamfL89aZ2i5/K6XXCtsxP2Q5SVc5D6/amn5wwKHdF82eIbkQYAAIEg1moCAKCQo0Ku3LoIAPMWLskl9BYvW5n5iDevD+PZT/hX7pfodztmqdCvbKfZeyRE42JbPj8BALTSW6BfAKB8BZvGpF0EAPu1tMqwkvp93qIliSGbZp0qX5PXB/Ls1yMr+znY1WUm5HDL35kZ70VQOUZ+L4+vAAACQazVBABQnkJtxJRdBIB1GzflAgBz5i96TcA2sk6Vr83rQ3nxaxXkBULN3oegcg34vXx+AgBopbdAvwBA+Qo2jUm7CAD2CnlSR/2V7SxYskwEAOy65vU2hb0mgm3f7pcncrgCodRZkDTa4jVheQ4AIBDEWk0AAGEVo5S5uggA9hR1ZXBL/b5s5WoxANi3b7+xN9CRGlvUzvzFr9wkaO36jeJt24sh2Q8VSmmHdsrlKQCAVnoL9AsAlKtY05qziwAwcWo+t7u1FxpKuy5pXmdvoBMFt9Q2uitfHlceXLI8+4cg06wLrwnTawAAgSDWagIACLMos5qtawBgb0ojFabxduzV/LKuV+Xfd3bmc7tge12A+NizPrb3HTh4sEt0/pVrwe/h+wsAoJXeAv0CAOEXaDMm7BoALFi8TDz8ovDcum27eADmdbvgaMxSW4lrIDSjL/4mHN8BAASCWKsJACCcQpQ0VZcAoG17e27hb4N0Z8cucQDo7u7O5cN6UsFv27FvqRw61NyNkCS1Rlt+exAAoJXeAv0CAH4XX17m6QoA2DvS5fG+dxSkWe4GWG/t876JUTSHZrdZL4Fcb/78fzm8BQAQCGKtJgCAchRpo2bsAgDYC+BMa8nnRjtRaOZ58ZuB2wVPy+d2wdH4m93azxNwwx9qv1FfSHo9AKCV3gL9AgCYQFJRawLAgc6DJq8b3cQDc43wNwDia7lhUz63C47Po9HHte4xEB8/j/GHehoAAASCWKsJAIACTyrwvABgyoyZxl5xrvKnbVu7sUG8cMlyY2+qk8dlbmsFZN5Xv+sZuF2w/Kf3a80nzfPTZ841vdztTvxzH0l1VIbnAACt9BboFwAAAJJMKi8ASBNQRb3mySnTC7nznT3aLmpOafqxNy5K2uc8hxc0owEAQCCItZoAACj6pKIvAwDYC/YkzV36OXu0be/qlyac835N/L4C0nOlvfL5CQCgld4C/QIA5SvYNCYdOgDYT/8fONBZCADY9d7evsMJAIjuKZBGA7wGb0ijAQBAIIi1mgAAKPKkIg8dADQuf5vXvQzSnjWI7ieQtL95Dh9oVgMAgFZ6C/QLAFD4SYUfMgDYy9/aSwsnzTvP5zp27VY7C2DPeOw/wA1/8ty/ZW0bABAIYq0mAAAAIMm4QgYAybv/Ja3dYM/NXbhEBQKWrlhVOPAMtg78Xzi+AwBopbdAvwBAOIUoaaqhAsC0ltnGXl1Qcq0aaWtvTrcLHuxtgCemTDddXdzwp5H9xGvT+yIAIBDEWk0AAOmFXiZTCBEA7LXvXTgNnsftggcDgFVr16sBT5lqpqxzBQC00lugXwAAAEgyrtAAwF5caOeu3U4Eob3SYVEXO5o0rcXYSxIn7WOeo/YlNAAACASxVhMAACaQZAKhAYBrl761n0MY7Khd6v/spYiT9i/PUfdSGgAAtNJboF8AACNIMoJQAMB+4n/zlq3OhWBXAbcLnjpjlrGXIk7avzxH3UtpAAAQCGKtJgAAjCDJCEIAAHvN+3379zsbgKvXrs/1LMCWtm3Ozj1JczznpxcBAFrpLdAvAOBn0eVtlr4DgD3F7vrtbvO8XbC9qVLeGqF9vMNqAAAQCGKtJgAAijjJyH0FgJbZ84xPN7vJ6yxAUfc5SNIOz5XLUwAArfQW6BcAKFexpjVnnwDAXuVu/qKlxl5pL+38XHnd+o2bc3kbAACgrovSOAAgEMRaTQAAGEWSUfgAAFOmzzTLV60xBzqLu6lP0lpleQ4AoP6y6MeFvwUAtNJboF8AAANKMhHXAMAe5dvT+/a9/a3btpuDB8O4sh0AQP0l1Z9PzwEAAkGs1QQAgAElmU1eAPDklOnGnp5O+rHXq1+5Zp1Zt2HTwFf32ra3m50du8yevfuCvZgNAED9JdWfT88BAFrpLdAvAIABJZlNXgAw7enZ3r1Pn7Q+Us8BANSflJa02gEABIJYqwkAAANKMg4AoBhdAADFrHOSxnlOZu0BAK30FugXAJApgtDMBAAoRhcAQDHrHFp9ujQfAEAgiLWaAAAwoCQzAQCK0QUAUMw6J2mc52TWHgDQSm+BfgEAmSIIzUwAgGJ0AQAUs86h1adL8wEABIJYqwkAAANKMhMAoBhdAADFrHOSxnlOZu0BAK30FugXAJApgtDMBAAoRhcAQDHrHFp9ujQfAEAgiLWaAAAwoCQzAQCK0QUAUMw6J2mc52TWHgDQSm+BfgEAmSIIzUwAgGJ0AQAUs86h1adL8wEABIJYqwkAAANKMhMAoBhdAADFrHOSxnlOZu0BAK30FugXAJApgtDMBAAoRhcAQDHrHFp9ujQfAEAgiLWaAAAwoCQzAQCK0QUAUMw6J2mc52TWHgDQSm+BfgEAmSIIzUwAgGJ0AQAUs86h1adL8wEABIJYqwkAAANKMhMAoBhdAADFrHOSxnlOZu0BAK30FugXAJApgtDMBAAoRhcAQDHrHFp9ujQfAEAgiLWaAAAwoCQzAQCK0QUAUMw6J2mc52TWHgDQSm+BfgEAmSIIzUwAgGJ0AQAUs86h1adL8wEABIJYqwkAAANKMhMAoBhdAADFrHOSxnlOZu0BAK30FugXAJApgtDMBAAoRhcAQDHrHFp9ujQfAEAgiLWaAAAwoCQzAQCK0QUAUMw6J2mc52TWHgDQSm+BfgEAmSIIzUwAgGJ0AQAUs86h1adL8wEABIJYqwkAAANKMhMAoBhdAADFrHOSxnlOZu0BAK30FugXAJApgtDMBAAoRhcAQDHrHFp9ujQfAEAgiLWaAAAwoCQzAQCK0QUAUMw6J2mc52TWHgDQSm+BfgEAmSIIzUwAgGJ0AQAUs86h1adL8wEABIJYqwkAAANKMhMAoBhdAADFrHOSxnlOZu0BAK30FugXAJApgtDMpKenx6xeu178Z8OmVhPaWmWZz67de8TX2O63bdvbWec+ajuLNtP+LQAgEMRaTQAAmETaQud1aAUNoIG4BgAArfQW6BcAoKDjBc1jNIEG0EBaDQAAAkGs1QQAQKGnLXReh1bQABqIawAA0EpvgX4BAAo6XtA8RhNoAA2k1QAAIBDEWk0AAK4iURsAAAO9SURBVBR62kLndWgFDaCBuAYAAK30FugXAKCg4wXNYzSBBtBAWg0AAAJBrNUEAEChpy10XodW0AAaiGsAANBKb4F+AQAKOl7QPEYTaAANpNUAACAQxFpNAAAUetpC53VoBQ2ggbgGAACt9BboFwCgoOMFzWM0gQbQQFoNAAACQazVBABAoactdF6HVtAAGohrAADQSm+BfgEACjpe0DxGE2gADaTVAAAgEMRaTQAAFHraQud1aAUNoIG4BgAArfQW6BcAoKDjBc1jNIEG0EBaDQAAAkGs1QQAQKGnLXReh1bQABqIawAA0EpvgX4BAAo6XtA8RhNoAA2k1QAAIBDEWk0AABR62kLndWgFDaCBuAYAAK30FugXAKCg4wXNYzSBBtBAWg0AAAJBrNUEAEChpy10XodW0AAaiGsAANBKb4F+AQAKOl7QPEYTaAANpNUAACAQxFpNAAAUetpC53VoBQ2ggbgGAACt9BboFwCgoOMFzWM0gQbQQFoNAAACQazVBABAoactdF6HVtAAGohrAADQSm+BfgEACjpe0DxGE2gADaTVAAAgEMRaTQAAFHraQud1aAUNoIG4BgAArfQW6BcAoKDjBc1jNIEG0EBaDQAAAkGs1QQAQKGnLXReh1bQABqIawAA0EpvgX4BAAo6XtA8RhNoAA2k1QAAIBDEWk0AABR62kLndWgFDaCBuAYAAK30FugXAKCg4wXNYzSBBtBAWg0AAAJBrNUEAEChpy10XodW0AAaiGsAANBKb4F+AQAKOl7QPEYTaAANpNUAACAQxFpNAAAUetpC53VoBQ2ggbgGAACt9BboFwCgoOMFzWM0gQbQQFoNAAACQazVBABAoactdF6HVtAAGohrAADQSm+BfgEACjpe0DxGE2gADaTVAAAgEMRaTQAAFHraQud1aAUNoIG4BgAArfQW6BcAoKDjBc1jNIEG0EBaDQAAAkGs1QQAQKGnLXReh1bQABqIawAA0EpvgX4BAAo6XtA8RhNoAA2k1QAAIBDEWk0AABR62kLndWgFDaCBuAYAAK30FugXAKCg4wXNYzSBBtBAWg0AAAJBrNUEAEChpy10XodW0AAaiGsAANBKb4F+AQAKOl7QPEYTaAANpNUAACAQxFpNAAAUetpC53VoBQ2ggbgGAACt9BboFwCgoOMFzWM0gQbQQFoNAAACQazVBABAoactdF6HVtAAGohrAADQSm+BfgEACjpe0DxGE2gADaTVAAAgEMRaTQAAFHraQud1aAUNoIG4BkIHgP8Hc9h9DZT4eGkAAAAASUVORK5CYII=;" vertex="1" parent="1">
          <mxGeometry x="1201.88" y="120" width="58.12" height="58.12" as="geometry" />
        </mxCell>
        <mxCell id="q41vTv1glD9lVKqyJohb-147" value="ExtracciÃ³n de InformaciÃ³n - Python" style="swimlane;whiteSpace=wrap;html=1;" vertex="1" parent="1">
          <mxGeometry x="890" y="90" width="270" height="280" as="geometry" />
        </mxCell>
        <mxCell id="q41vTv1glD9lVKqyJohb-115" value="" style="group" vertex="1" connectable="0" parent="q41vTv1glD9lVKqyJohb-147">
          <mxGeometry x="30" y="210" width="180" height="40" as="geometry" />
        </mxCell>
        <mxCell id="q41vTv1glD9lVKqyJohb-46" value="&lt;font style=&quot;font-size: 16px;&quot;&gt;&lt;font style=&quot;&quot;&gt;API&lt;/font&gt;&amp;nbsp; &amp;nbsp; &amp;nbsp; &amp;nbsp; &amp;nbsp; &amp;nbsp; &amp;nbsp; &amp;nbsp; &amp;nbsp; &amp;nbsp; &amp;nbsp; &amp;nbsp; &amp;nbsp;&lt;/font&gt;" style="rounded=0;whiteSpace=wrap;html=1;" vertex="1" parent="q41vTv1glD9lVKqyJohb-115">
          <mxGeometry width="180" height="40" as="geometry" />
        </mxCell>
        <mxCell id="q41vTv1glD9lVKqyJohb-66" value="" style="shape=image;verticalLabelPosition=bottom;labelBackgroundColor=default;verticalAlign=top;aspect=fixed;imageAspect=0;image=data:image/jpeg,/9j/4AAQSkZJRgABAQEAYABgAAD/2wBDAAMCAgMCAgMDAwMEAwMEBQgFBQQEBQoHBwYIDAoMDAsKCwsNDhIQDQ4RDgsLEBYQERMUFRUVDA8XGBYUGBIUFRT/2wBDAQMEBAUEBQkFBQkUDQsNFBQUFBQUFBQUFBQUFBQUFBQUFBQUFBQUFBQUFBQUFBQUFBQUFBQUFBQUFBQUFBQUFBT/wAARCACwA38DASIAAhEBAxEB/8QAHwAAAQUBAQEBAQEAAAAAAAAAAAECAwQFBgcICQoL/8QAtRAAAgEDAwIEAwUFBAQAAAF9AQIDAAQRBRIhMUEGE1FhByJxFDKBkaEII0KxwRVS0fAkM2JyggkKFhcYGRolJicoKSo0NTY3ODk6Q0RFRkdISUpTVFVWV1hZWmNkZWZnaGlqc3R1dnd4eXqDhIWGh4iJipKTlJWWl5iZmqKjpKWmp6ipqrKztLW2t7i5usLDxMXGx8jJytLT1NXW19jZ2uHi4+Tl5ufo6erx8vP09fb3+Pn6/8QAHwEAAwEBAQEBAQEBAQAAAAAAAAECAwQFBgcICQoL/8QAtREAAgECBAQDBAcFBAQAAQJ3AAECAxEEBSExBhJBUQdhcRMiMoEIFEKRobHBCSMzUvAVYnLRChYkNOEl8RcYGRomJygpKjU2Nzg5OkNERUZHSElKU1RVVldYWVpjZGVmZ2hpanN0dXZ3eHl6goOEhYaHiImKkpOUlZaXmJmaoqOkpaanqKmqsrO0tba3uLm6wsPExcbHyMnK0tPU1dbX2Nna4uPk5ebn6Onq8vP09fb3+Pn6/9oADAMBAAIRAxEAPwD7F+MErx+O75VZgNkZ4JH8IriPOk/56N+ddp8Y/wDkfL3/AK5x/wDoIriK5ZLXQ2Tsh/nSf32/M0nnSf32/Om0VA+Yd50n99vzo86T++3502igOYf50n99vzpPOk/vt+dNoo5R8w7zpP77fnR50n99vzptFFg5h/nyf89G/wC+jSedJ/fb86bRQHMO86T++350vny/89G/M0yigOYf58v/AD0b8zSedJ/fb86bRQHMO86T++350edJ/fb86bRQHMP8+T/no3/fRpPOk/vt+dNooDmHedJ/fb86Xz5f+ejfmaZRQHMP8+T/AJ6N/wB9Gk86T++3502igOYd50n99vzpfOf++350yigOYf5z/wB9vzpPOk/vt+dNoo5Q5h3nSf32/OjzpP77fnTaKOUOYf58n/PRv++jR58n/PRv++jTKKLBzDvOk/vt+dL58v8Az0b8zTKKA5h/ny/89G/M0nnSf32/Om0UBzDvOk/vt+dHnSf32/Om0UBzD/Ok/vt+ZoM8v/PRvzNMooFzDvOk/vt+dHnSf32/Om0UBzD/AD5P+ejf99Gk86T++3502igfMO86T++350vnSf32/OmUUBzD/Of++350edJ/fb86ZRRYOYd50n99vzo86T++3502igOYf58v/PRvzNHnyf8APRv++jTKKLBzDvOk/vt+dHnSf32/Om0UBzD/AD5f+ejfmaPPl/56N+ZplFAuYd50n99vzo86T++3502igOYd50n99vzpfPl/56N+ZplFAcw7zpP77fnR50n99vzptFAcw/z5f+ejfmaPPk/56N/30aZRQHMO86T++350edJ/fb86bRQHMP8AOf8Avt+dHnSf32/OmUUWHzDvOk/vt+dHnSf32/Om0UBzDvOk/vt+dL58n/PRv++jTKKLBzDvOk/vt+dHnSf32/Om0UBzD/Pl/wCejfmaPPl/56N+ZplFAcw7zpP77fnR50n99vzptFAcw7zpP77fnS+fL/z0b8zTKKBcw7zpP77fnR50n99vzptFAcw/z5P+ejf99GjzpP77fmaZRQHMO86T++350vnSf32/OmUUBzD/ADpP77fnR50n99vzplFHKPmHedJ/fb86POk/vt+dNoo5Q5h3nSf32/Ol8+T/AJ6N/wB9GmUUWDmHedJ/fb86POk/vt+dNooDmHedJ/fb86Xz5f8Ano35mmUUC5h3nSf32/OjzpP77fnTaKA5h/nP/fb86POk/vt+dMooHzDvOk/vt+dHnSf32/Om0UBzD/Ok/vt+dHnyf89G/wC+jTKKLBzD/Ok/vt+dJ50n99vzptFAcw/zpP77fnSedJ/fb86bRQHMO86T++350edJ/fb86bRQHMP86T++35mjzpP77fmaZRQHMdv8Y/8AkfLz/rnH/wCgiuIrt/jJ/wAj5d/9c4//AEGuIrSW5mtgoooqRhRRSZFAC0UUlMBaKSigBaKSigBaKSigBaKTI9aMj1oAWiko/A4oAWikyP8A9fFHsOtIBaKKKACiij68UAFFHFJTAWikoyPWgYtFJRQIWikooAWikooAWikoyPWgBaKSigBaKPzx/wDWooAKKKSkMWikpaYBRSZHrRketAhaKSlHIoAKKKKQwooooEFFFFABRRSf5/woAWikoyPWmAtFFH498UgCiiigAopBRTAWikpaQBRRSZoAWijj1o4pgFFJketGR60ALRSUvFAwopMj1ooELRSUUALRSUZHrQAtFJketFAC0UY/zmigAooopAFFJx60bh60ALRUkdrNNjyoZJD22qTVldB1N/u6ddN9IW/wpgUqTNaP/CN6wf8AmFXv/gO/+FH/AAjOsf8AQKvf/Ad/8KAM7NGa0f8AhGdY/wCgVe/+A7/4Un/CM6v/ANAq9/8AAd/8KAM/NLWh/wAIzrH/AECr3/wHf/Ck/wCEd1fvpl4P+2Df4UAUKKuNouoJ96xuF+sTf4VXktpofvwyL/vKR/OgCOik74PWl/SgAooopAFFFFABRRRQAUUUUAFFFFABRRRQB2/xk/5Hy7/65x/yriK7b4yH/ivLv/rnH/KuJqpbiQUUUVIxK+p/DWi2Enh3SmaytmY2sRLGFSSdg9q+WG6V9a+F/wDkWdJ/69Iv/QBWlPdkyJv7D07/AJ8LX/vwv+FH9iaf/wA+Nr/35X/Cr1Fa2IKP9h6f/wA+Nt/35X/Cj+w9P/58bb/vyv8AhV3n1o59aLDuUv7D0/8A58bb/vyv+FH9h6f/AM+Nt/35X/CrvPrRz60guUv7D0//AJ8bb/vyv+FH9h6f/wA+Nt/35X/CrvPrRz60Bcpf2Jp//Plbf9+V/wAKP7E0/wD58rb/AL8r/hV3n1o59aAuUv7E0/8A58bX/vyv+FH9iaf0+w23/flf8KvUUAZNx4U0e6XEul2Tj3t1/wAK5/V/g/4Z1ZDiy+xuej2zbcfh0/Su2opWA+c/Gnwh1LwvG91aMdSsF5ZlHzoPUj0rgs/iMZr7HZAykMAwPBBFfPXxe8Dx+GdWW+sk2WF4WO1RxHJ3H0P+NTKNikzz6un+GcMdx460iORFkjaRgVYZB+Rj0rmK6r4W/wDI/wCjf9dW/wDQGrHqUfSH9h6f/wA+Nt/35X/Cj+xNP/58bX/vyv8AhV3FLXVYyKP9iaf/AM+Nr/35X/Cj+xbD/nytv+/K/wCFXqKLAUf7D0//AJ8bb/vyv+FH9h6f/wA+Nt/35X/CrvPrRz60rDuUv7D0/wD58bb/AL8r/hR/Yen/APPjbf8Aflf8Ku8+tHPrRYLlL+xbD/nwtf8Avyv+FH9i2H/Pha/9+V/wq9RTAo/2Hp//AD423/flf8KP7E0//nytv+/K/wCFXefWjn1pWC5S/sPT/wDnxtv+/K/4Uf2Hp/8Az423/flf8Ku/jR+NOwXOV8daPYQ+D9XkSyt1dbZ2VhEoIOOo4r5iHvX1R4+/5EvWv+vZ/wCVfK9ZS0Kiek/Au1hvPEl6k8Mc6i14WRAwHzL617h/Yen/APPjbf8Aflf8K8V+Af8AyNF9/wBeh/8AQ1r3mqp7Ce5R/sTT/wDnxtf+/K/4Uv8AYun/APPjbf8Aflf8Ku0VRJR/sTT/APnytv8Avyv+FH9iaf8A8+Vt/wB+V/wq7z60c+tA7lL+xbA9bG2/78r/AIV5F8X/AIdCBW1zTIFVB/x8wxrjH+2B6ete10ySFZY2RwHRhgqw4I702gPjnPSlrufij8P28I6kbq2QnS7lsocf6t/7p9q4asJKxdwoooqRhRRRQAhOK+o/CGj2UnhbSGezt3ZrSIlmiUknYOelfLlfWHg3/kU9G/69Iv8A0AVdPcmRb/sPT/8Anxtv+/K/4Uf2Jp//AD5W3/flf8Ku8+tHPrW1iblE6Jp//Pjbf9+V/wAK8H+N1pBZ+L4kghjhT7Kh2xqFGdzc8V9D18/fHb/kcoT/ANOy/wA2/wAaiWw0zzivc/gZptreeFbt57aGZ/tbDdJGGONinHP1rw4civevgH/yKV5/1+t/6AlZxWtinsd9/Yenf8+Fr/35X/Cj+xNP/wCfG1/78r/hV6it7GZR/sXT/wDnwtf+/K/4V5r8dtPtbPwzYvBbQwubsAtHGFONjHt9K9Yry/4//wDIr6f/ANfg/wDQHqWtBng9ehfA+1hu/F06TxRzILRiFkUMAdy88157XpHwH/5HKf8A683/APQlrFfEjR7HuX9iaf8A8+Fr/wB+V/wo/sTT/wDnxtf+/K/4VeorosZFH+xNP/58rb/vyv8AhR/Ylh/z5W3/AH5X/CrvPrRz60WHcpf2Jp//AD42v/flf8KX+xdP/wCfG2/78r/hV2ilYRR/sTT/APnytv8Avyv+FH9h6f8A8+Nt/wB+V/wq7zRzRYdyl/Yen/8APjbf9+V/wo/sPT/+fG2/78r/AIVd59aOfWiwXKX9h6f/AM+Nt/35X/Cj+xNP/wCfK2/78r/hV3n1o59aLBcpf2Jp/wDz5W3/AH5X/Cj+w9P/AOfG2/78r/hV38aPxp2C5578XdIsrbwLeyRWkEcu6MCRIlVh847gV89Y9a+kfjJ/yIN9/vx/+hivm9qxloVESrOn6bdatdx2tnbvczyHCpGMn6+wpthp8+qX0FpbIZJ5nCIo7k19L+BfAtp4M0xY0VZb1x+/uDyzH0+lKK5mU9DgfDPwH8xY5tbuyDjJtbcjj6t/9avQ9L+Hfh7R1X7PpcBYfxyje3610mKK2UUjO7IYbGC3GI4Y4wOm1QP5VNtA6UtFPQQmKKWiiwCUUtFFgEo2+vNLRRYBCoPUVFJZwzffiRv95QamoosBiX3gnQdSXFzpNpJ7+UAf0rj9a+BeiXys1hJNp03YI25PyP8AjXpdJikM+XvF3w71bwcxe4jE9mTgXMPK/wDAv7v41zNfYVxaRXcEkM6LNDINrI4yCPQ182/E3wSPBuuAW4JsLkF4Sf4cdV/Dis5RsUmcfRRRWZQUUUUAFFFFABRRRQAUUUUAdt8ZB/xXl3/1zj/lXE12/wAZP+R9u/8ArnH/ACriKqW4kFFFFSMRulfWvhf/AJFnSP8Ar0i/9AFfJTdK+tfC/wDyLOk/9ekX/oAq6e7JkalFFFdBAUmaWvOPHPxafwdrzacNNW6CxrJ5hlKnkHjGPak3bce56NRXjH/DQkn/AEBB/wB//wD7Gj/hoQ/9AX/yP/8AWqOaIWZ7PS14v/w0If8AoC/+R/8A61H/AA0I3/QF/wDI/wD9ajmiPlZ7PRXjH/DQTf8AQFP/AH//APrUo/aEI/5g3/kf/wCtT549w5WezUteQ2/7QVvkefpEyg/885AT/Ku78J+PNL8YxObGRhNHjzIJBtdc98elClGWwrNHR0UUUxBXH/FTSRq3gfUVC7pIVE6e205P6bq7CqOtQC40i+iPR4HU/ipFO2gz5GzXU/C3/koGi/8AXVv/AEBq5X1rqvhb/wAlA0X/AK6t/wCgNXL1Rp0Pp6iiiuoyCkpainYpDIQcFVOPypgP3Ubq+cZvjB4qSaQC+jwGwP3Cev0pn/C5PFf/AD/Rf9+V/wAKy54l8rPpHdRur5u/4XJ4r/5/Y/8AvwtH/C5PFf8Az/Rf9+V/wpc8Q5WfSO6jdXzd/wALk8V/8/0X/flf8KP+FyeK/wDn9j/78r/hRzxDlZ9I7qN1fNv/AAuTxX/z+x/9+Vo/4XH4r/5/o/8AvwtHPEOVn0pRXzZ/wuLxX/z+xf8AflaP+Fx+K/8An+j/AO/K/wCFP2kQ5We5+Pv+RM1n/r2f+VfK9dZqPxU8SarYzWdxeI0Ey7HURKMjH0rk6iUr7Dien/AP/kaL7/r0P/oa17zXg3wB58T33/Xof/Qlr3mrp/CTLcKKKKskKKinuY7WFpZXWONerMcAU/dn6UwHUUUUwKGs6Na69ps9jeRiSCZcMMcj3Hoa+YvF/hW68H6zJZXAJjzuhm/hkT1FfVlcz468HW3jLRXtpAEuo8tbzd0b0+h71EojTPl2irOo6bcaTfT2d3GYbiFtjo3bng/Q1WrDY0CiiikAjdK+r/Bv/Ip6N/16Rf8AoAr5QbpX1f4N/wCRT0b/AK84f/QBV09yZbI2qKKK6CAr5++O3/I4Q/8AXuv8zX0DXz98df8AkcIf+vdf5ms5bDR5yv3a97+Af/Io3n/X63/oCV4LjjFe9fAP/kUbz/r9b/0BKzj8RT2PTKKKK6CAry74/wDPhjT/APr7H/oDV6jXl3x+/wCRZ0//AK+x/wCgNUvYDwhutej/AAG/5HKf/r0f/wBCWvOG616P8B/+Ryn/AOvR/wD0JawXxI0ex9A0UUV0mYUmaWsnxVezab4b1O6t32Tw27yIxGcEAkUAam6jdXzd/wALj8V/8/0f/fhP8KP+FyeK/wDn9j/78L/hWXPEvlPpLPvRn3r5t/4XJ4r/AOf2P/vwv+FH/C5PFf8Az/Rf9+V/wo54hys+kd1G6vm7/hcXiv8A5/Yv+/K0f8Li8V/8/sX/AH5WlzxDlZ9I7qN1fN3/AAuLxX/z+xf9+Vo/4XF4r/5/Yv8AvytPniHKz6R3Ubq+bv8Ahcniv/n9h/78rR/wuTxX/wA/0f8A35X/AAo9og5Wet/GP5vAN9j+/H/6GK+b66bXPiRr/iLTnsb+6SW2cgsoiVehGOgrmazlK7KirHq3wG8Oi61K81eVcrbr5URI/iI5P5Y/OvccVwnwX08WfgW2kx81xI8pP47R+gru61hoiJbi0UUVoSFFJXLeKviVovhJvJuZjPd4z9ngG5h9fT8aTsgOpozXjV5+0JhiLXRty9jLNgn8MVU/4aEv+2j2/wD3+b/Cp54lcrPcM/5xRmvDv+Gg7/8A6A9t/wB/m/wo/wCGhNQ/6A9t/wB/m/wpc8R8rPcc0V4d/wANB33/AEBrf/v63+FKP2hb3vo8H/f5v8KPaRDlZ7hS145Y/tCIzAXejsqd2glyR+BAr0jwx4v03xdY/adPm3hTiSNhh4z6MKanGWxNmjbooop2EFcH8ZtHGqeCriVV3SWrrMD3Azhv0JrvKyfFFv8AavDeqQkZDW0g/wDHTRLYD5NopByM0tcxqFFFFABRRRQAUUUUAFFFFAHbfGQ/8V5d/wDXOP8AlXE123xk/wCR8u/+ucf8q4mrluJBRRRUDEbpX1r4X/5FnSf+vSL/ANAFfJTdK+tfC/8AyLWk/wDXpF/6AKunuyZGpRRRW5AV87fG7/kepfX7PH/I19E187fG7/kepP8ArhGP0NTPYqO5wFFFFc9iwoooosMTHvR/npS0UWC4mPxrp/hnfSaf460lo3KiSbymGeqsMYNczW/8P4Wm8baKqjP+kqePY5P6UtmG6PqmiiiuwxCq9/8A8eVx/wBc2/lViqerSCLS7xz0WJz+SmgD5EcbXb611Pwt/wCSgaN/11b/ANAauXc5Yn1rqPhb/wAlA0b/AK6t/wCgNXJ1Rr0Pp6iiiupmQVFcf8e8v+6f5VLTZF8xGX1GKYHx9cZ86Xr989j61DmvbZP2fbWSR2/tiYbjnHkr6/Wm/wDDPdr/ANBmf/v0P8a53FmikeKc+n86M+x/I17X/wAM82n/AEGJv+/K/wCNH/DPNp/0GZv+/K/40uVhzHimfY/kaM+x/I17X/wzzaf9Bmb/AL8r/jR/wzzaf9Bmb/vyv+NHKw5jxTPsfyNJuPp/OvbP+GebT/oMzf8Aflf8aP8Ahnm0/wCgxN/34X/GjlYcx4pu9jQGzXtX/DPFp/0GZv8Avwv+NL/wz1a/9Bmf/vyP/iqOVhzHiv8AOit3xt4cXwn4iudMSdrlIwp8xl2k5UHpk1hVNrDPTvgD/wAjPff9eh/9CWveq8F+AP8AyM99/wBeh/8AQlr3qtqfwkS3CiiitEScx8Sc/wDCC60R/wA+5/Q1ynwh+In9sQLo2oSf6bCMQyMf9ao7fUfrXWfEj/kRda/692r5it7qaxuorm3laKeJg6SKcFSOhrOT5WXHVH2Fmlrj/hz44i8Z6QGcqmoQgLPGP/Qh7H+ddfWl7kC0mKWimB5x8Wfh8PEli2pWMeNTt1OQo5mTHT6jtXz8wKkhhhgcEHsfQ/Svsbb714l8Yvh39kkk17TosQuf9KiQcKf7/wBPWspRKTPJqKSlrIsRulfV/g//AJFPRv8Arzh/9AFfKDdK+sPB4/4pPR/+vOL/ANAFVT3Jl0NmiiiuggK+fvjr/wAjhD/17r/M19A18/fHX/kcIf8Ar3X+ZrOWw0edZ4zXvPwD/wCRRvP+v1v/AEBK8F/hr3r4B/8AIo3n/X63/oCVnH4insem0UUV0EBXlvx+/wCRZsP+vsH/AMcavUq8t+P3/Is2H/X1/wCytUy2Gjwlutej/Af/AJHKf/r0f/0Ja84PWvR/gN/yOU//AF6P/wChLWC+JFvY+gaKKK6TMKwvG/8AyJ+s/wDXpJ/6Ca3apazpq6xpN3YtIYluImjLqMkZGM0nsB8isDgf4U2va/8Ahnq2/wCgzN/34X/Gl/4Z7tf+gzP/AN+h/jWDiy1I8Tz7H8jRn2P5Gva/+GebT/oMzf8Aflf8aP8Ahnm0/wCgzN/35X/GlysfMeKZ9j+Roz7H8jXtf/DPNp/0GZv+/K/40f8ADPNp/wBBmb/vyv8AjRysOY8Uz7H8jRn2P5Gva/8Ahnm0/wCgzN/35X/Gj/hnm0/6DM3/AH5X/GjlYcx4pn2P5GjNe1/8M82v/QYm/wC/I/xpf+Ge7XtrM3/fkf8AxVHKw5jxSkrQ8QaWNE1y/wBPWQyrazNEHIwTgkZrPrOxR9R/DeIQ+BdFUdPs6t+fNdLXP/D7/kSNE/69U/lXQdK6l8KMmLRRRViOX+Inic+E/C9zeRsBct+6g4/jbv8AgMmvmKaaS5meaV2kkkbczMckn1Ne1ftBTFdL0eEHCtNIx/ADH8zXiVYTeti0hMUtFFZ+pYlGKWilYApMUtFHKgD6813fwWvpLXxxDEHIjuInR09QFyM/kK4SprK+uNNuFntJ5baZekkLlGHB7j601ow6H2Bu96N3vXyl/wAJlr//AEHNQ/8AAp/8aP8AhNNf/wCg3qH/AIFP/jWvtF2J5PM+rdw/vCquqDdpt2D0MLj/AMdNfLn/AAmev/8AQa1D/wACn/xpr+MNdkVlbWb8qwwQbl+mPrS9ouwcnmY6/dpaKKzGFFFFABRRRQAUUUUAFFFFAHbfGT/kfLv/AK5x/wAq4mu2+Mn/ACPl3/1zj/lXE1UtxIKKKKkYjdK+tfC//ItaT/16Rf8AoAr5KbpX1r4X/wCRa0n/AK9Iv/QBV092TI1KKKK2sQFeGfFzwrrGseL3ubLTbi6gMKDzI0yMgdK9zpNtIZ8sHwB4j/6A15/37NH/AAr/AMSf9AW8/wC/Zr6noqeVDufLH/Cv/En/AEBbz/v2aP8AhX3iT/oC3n/fuvqeilyCuz5Y/wCFfeJP+gLd/wDfuj/hX3iT/oC3n/fuvqeijkK5j5cg+HHiW4faukXA92AA/nXqHww+Fc/h2+Gq6oU+1qu2KFDnZnufwr1OjFNRSZN2LRRSVqIWuW+JWrjR/Bepy5w8kfkpz/E/yj+ZP4V0V3ewWNu89xKsMKDLO5wB+NfPfxU+ISeL76O0sif7Nt2JUnjzX6bvpg1LegHA11fwtP8AxcDRf+urf+gNXK11Pwt/5KBov/XVv/QGrm6mvQ+n6KKK6TIKKKSqAWikzRuHrSsAtFJmjNAC0UmaM07ALRSZozRYBaKTNFID5v8AjJ/yUC//ANyP/wBAFcRXb/GQf8V9fe8cf/oA/wAK4iuaRoj0/wCAP/Iz33/Xqf8A0Ja95rwb4A/8jNff9ep/9CWvea2p/CTLcKKKK0JOa+JH/Ii6z/17tXy4RivqL4j/APIj61/17tXy6TmsahcTU8M+IrvwrrEOoWjYZDh0J4de6n/PWvqDw54itfE+kwX9m26KQcrnlT3Br5K+vSuv+G/juXwXq6iQs+mXDATx/wB09nHuKiMuXcqWp9NUVDbXUV5bxzwOssUihldTkEHoamrpMgqKa3juIXilRXjcFWVhwQeoNS0UAfNfxM8AyeDdUMsCM2l3DZifGdh7of6etcXzX1vr2g2viPSp9PvE3wTDB9QexHuK+YPFXhm68I6xLp92M45jkxxInZh/UdqwkikzGNfWPg//AJFPRv8Arzi/9AFfKDV9XeDv+RT0b/rzi/8AQBRT3Y5dDZooorcgK+fvjr/yOEP/AF7r/M19A18/fHX/AJHCH/r3X+ZrOew0ec/w1718A/8AkUbz/r9b/wBASvBf4a96+Af/ACKN5/1+t/6AlZw+Ip7HptFFFbdSAry34/f8i3Yf9fX/ALK1epV5b8fv+RbsP+vr/wBlaiWw1ueE+tej/Ab/AJHKf/r0f/0Ja847mvR/gN/yOU//AF6P/wChLWC+JFvY+gaKKK6TMKKKTNAC0UmaNw9aQC0UmaM0ALRSZozTsAtFJmjNFgFpKKKQHyt48/5HTXD/ANPcn/oRrBre8ef8jnrX/X1If1NYNcsjVH1P8Pv+RJ0T/r1T+Vb7VgfD7/kSdE/69U/lXQEZroWxkLRRRVAeO/tCf6nRR/tSn9FrxmvZv2hB+50U/wC1KP0WvGawluaIKKKKgYUUUUAFFFFABRRRQAUUUUWGFFFFIAooopiCiiigAooooAKKKKACiiigDtvjJ/yPl3/1zj/lXE123xk/5Hy7/wCucf8AKuJqpbiQUUUVIxG6V9a+F/8AkWtJ/wCvSL/0AV8lN0r618L/APItaT/16Rf+gCrp7smRqUUUV0EBRRSbuQKVgFoopMikAtFN3ClyKLALRSUUWAWikozRYBapatFeyWbLYTxW9wekkybwPwyKu0lUB4H8RvCfjOQSXF/cNq1mnzH7MTtX/gFeZj8c9P8A61fZG3/CvCfjR4Fi0e4i1mxi8u3nbZOi8BX7ED35/KspRGjy6up+F3/JQNF/66t/6A1ctiup+Fv/ACUDRf8Arq3/AKA1Y9TQ+n6KKK6TIKjmYrDIw4KgmpKiuObeX/dP8qoD5+m+NniaOR1DWuA3/PH3+tR/8Lw8Tetp/wB+f/r1w11jzpTn+I/zqKua8u5rod9/wvHxP/05/wDfr/69J/wvDxR62f8A36/+vXA5ozS5pdx2XY77/heXij/p0/78/wD16X/hePif/p0/79f/AF64DPtRn2pc0+4WXY7/AP4Xl4o9bP8A79f/AF6P+F5eJvWz/wC/X/164DNJkelHNLuFl2PQP+F5eJvWz/79f/XoHxw8T9jaD/tj/wDXrgPwpafNLuFl2NDXteu/E2qS398UNxIACY12jgYHFZ9J+FLSEen/AAB/5Ge+/wCvU/8AoS17zXgvwB/5Ge+/69D/AOhLXvVbU/hIluFFFFaIk5n4j/8AIj61/wBe7V8u19RfEf8A5EfWv+vdq+XaynuVEKT9KWisWWepfB34if2XOmh6jJi1kbFtIx+4390+1e6bq+OD6jg1778IfiEPEFmNJvpP+Jlbr8jMeZUH9R3rWnLoyZLsemUUm6lrcgK5X4geCYfGmjPCQsd7Fl7eYjlW9Poa6qkxSsB8fXllPp91NaXMZhuYWKSRvwQR1H+e1fVPg3/kUtG/69Ih/wCOiuL+Lnw7GvWbarp8edRgX541H+tQf+zD9a7Pwfn/AIRPRwQQRaR5BHP3RURjZsq5tUUUVoSFfP8A8df+Rwh/691/ma+gK+f/AI6/8jhD/wBe6/zNZz2Gjzj+GvevgH/yKN5/1+t/6AleC/w1718A/wDkUbz/AK/W/wDQErOHxFPY9NooordkBXlvx+/5Fuw/6+v/AGVq9Sry34/f8i1Yf9fX/sjUpbDW54T3Nej/AAG/5HKf/r0f/wBCWvOOhNekfAf/AJHKf/r0f/0JawXxIt7H0BRRRXQzMKy/E19Npfh/ULyAr50EDyJuGRkDI4rUrE8bf8ijrH/XrJ/6CaYHiP8Awu/xP/es/wDvz/8AXpP+F4eJvW0/78//AF64Kkrmbl0Zpod9/wALw8Tetp/35/8Ar0n/AAvDxP8A9On/AH5/+vXA/nRn2pc0u5Wh33/C8PFH/Tp/35/+vS/8Lx8T/wDTp/36/wDr1wGfajPtRzS7gd//AMLx8T/9On/fr/69J/wvDxN62f8A36/+vXA59qPwpc0u4Hff8Lx8T+tn/wB+v/r0v/C8PE472g/7Y/8A168//D9KX6inzS7hZdi1qWpTavqFxe3BBmuHMj7RgZJ7elVqMUn1qRH1R8Pv+RI0T/r1T+VdDXMfDWUTeBdFYc4gC/kSP6V01dK2RkLRRRQB5J+0FCzabo8oHCzSKfqVBH8jXiVfTnxK8Mt4q8K3FvCu66i/ewj1YdvxGRXzLJG8UjRyKY5FO0qwwQfpUS3KTG0Uu05xSc1kWFFFFAwooo/z1FABVjTbJtS1C2tVba08qxKT2JIAqvXV/DHRZta8ZaeEUtFbyCeVuoUKQRQI63/hn29/6C0H/fo/40v/AAz5e/8AQWt/+/Tf417fSYro5UZ3Z4j/AMM+3v8A0Frf/vy3+NH/AAz7e/8AQWt/+/Tf417fSHoaXKguz5E1nTW0bVrywdxK9vI0ZZRwSDVOt7x1/wAjhrHr9qk/nWDWJoFFFFIAooooAKKKKACiiigDtvjIP+K8u/8ArnH/ACria7f4yf8AI+3f/XOP+VcRVy3EgoooqBiN0r618Mf8i3pP/XpF/wCgCvkqvrXwv/yLWk/9ekX/AKAKunuyZGpRRRXQQFeMfFL4ga94c8VyWWn3v2e2EKMI/KRuTknkjNezfer54+N3/I9S/wDXvH/I1EnZDRQ/4XB4s/6CQ/78R/8AxNH/AAuDxZ/0El/78R//ABNcdRXPdmuh2P8AwuDxZ/0Eh/4Dx/8AxNH/AAuDxZ/0Eh/4Dx//ABNcdRRdhodh/wALg8V/9BIf9+I//iaX/hb3iz/oJD/vxH/8TXHUUajud7YfGzxNayBppYLtO6yQhc/iuK9k8C+OLbxtpZniTybmM7Z4GOdp/qPevl6vSfgLeNb+LLm3zhJ7ZuPdWGP5mqjJ81iJJWue/wBFFFdJmFcx8SNNXVPBOqxYyViMq/VfmH8v1rp6zfESBvD+pg9DbSf+gmpewHyVmup+Fo/4uBov/XVv/QGrla6r4W/8lA0X/rq3/oDVz9TXofT1FFFdJkFNkTfGy5xuGKdRTA8Yl/Z9mkkdhra4Y5wbc+v+9TP+Gepv+g3H/wCA5/8Aiq9porNxHc8W/wCGeZv+g2n/AIDn/wCKo/4Z5l/6Dkf/AIDn/wCKr2milyoLs8W/4Z5m/wCg2n/gOf8A4qj/AIZ5m/6Daf8AgOf/AIqvaaKOVBdni3/DPM3/AEG0/wDAc/8AxVH/AAzzN/0Gk/8AAc//ABVe00UcqC7PFv8Ahnmf/oNp/wCA5/8AiqP+Gepv+g3H/wCA5/8Aiq9poo5UF2eK/wDDPc//AEG4/wDwHP8A8VXlWpWZ0/ULq0LbzBK0RYDGdrEZ/Svr+vknxH/yMWqf9fUv/oZqZRSKizvvgD/yM99/16n/ANCWvea8G+AP/IzX3/Xqf/Qlr3mqp/CKW4UUUVqSc18SP+RG1n/r3avlyvqL4kf8iPrP/Xu1fLtYz3KQUUUVkWJU1lfT6XeQ3drIYZ4mDI69iP6Hv61FRR5jPp34f+NofGmjJMCqXkWEuIQeQ3976Gurr5O8J+J7vwhrUN/anI+7LHniRe6n+noa+n9B1y18RaVBfWb74JRn3U9wfcVtCXMjNqxpUUUVqSJtpFjCKFUBVHAAHAp1FIAooopgFfP/AMdv+Rwh/wCvZf5mvoCvn/47H/isIv8Ar2X+ZrOew1uecfw1718A/wDkUbz/AK/W/wDQErwUcrXvXwD/AORRvP8Ar9b/ANASs4fEXLY9NoooroMwry74/f8AIs2H/X3j/wAcavUa8u+P3/Is6f8A9fY/9AaplsNHhLda9H+A/wDyOU//AF6P/wChLXm9ekfAf/kcp/8Ar0f/ANCWudfEi3sfQFFFFdRmFUNc006xo97ZB/KNxE0W/GcZBGcd6v0lIDxb/hnqYf8AMbQ/9u5/+Ko/4Z5m/wCg2n/gOf8A4qvaaKhxHc8W/wCGeZv+g2n/AIDn/wCKo/4Z5m/6Daf+A5/+Kr2mijlQXZ4t/wAM8zf9BtP/AAHP/wAVR/wzzN/0G0/8Bz/8VXtNFLlQXZ4t/wAM8zf9BtP/AAHP/wAVR/wzzN/0G0/8Bz/8VXtNFHKguzxb/hnmb/oNp/4Dn/4qj/hnmf8A6Daf+A5/+Kr2mijlQXZ4ncfACeGB3GsxsVUtjyCOg/3q8kZevfmvsG+P+h3H/XNv5V8gN94getRKNion0P8ABPUBeeCIot2Wt5njPtzuH6Gu+rwT4G+JF03XZtLnfbFejdHzx5gB4/EZr3r361pB3iiXuOoooqhCVy/iX4a6F4pkM11a+XdHrcQna/4+v411NFFrgeUzfs/6Zu/d6ndIPQopqP8A4Z9sP+gvcf8Aflf8a9aoqeVDueSf8M+2P/QXuP8Avyv+NH/DPtj/ANBe4/78r/jXrdFHKguzyT/hn2w/6C9x/wB+V/xpR+z7Yj/mL3P/AH6X/GvWqKOVBdnl1r8A9IiYGa9uph3GQua7rw/4X07wxbGHTrVIFblmA+Zvqa16KaSQXCiiirEFNLfKc8etLWV4n1iPQtBvr6RtohiYj/ePAH54qegHzF4quReeJdUmByr3MhH03VlUrMZGLHkscmkrnZogooopDCiiigAooooAKKKKAO3+Mn/I+Xn/AFzj/wDQa4iu3+Mn/I+Xn/XOP/0GuIq5biQUUUVAwr608L/8i1pP/XpF/wCgCvkuvpTw78QPDttoOmwy6xaRyR20asrSDIIQZ/lVw6ikjtKK5v8A4WR4Y/6Dlj/3+FH/AAsfwx/0HLL/AL+it7oizOjWvnj43f8AI9Sf9e8f8jXsg+I3hj/oOWP/AH+FeH/FrWLPWvGD3NjcJdQGBF8yM5XIByM1nNqw0cXRRRWJYUUUUAFFFFABXe/BLnx5D/1wk/kK4Kuy+EurWei+MIrq+uEtbcQuDJIcDJAwP0oXxIHsfS1Fc3/wsfwx/wBBuz/7+Cj/AIWP4Z/6Ddn/AN/RXVdGdmdJWf4i/wCQDqX/AF7Sf+gmsv8A4WP4Y/6Dll/39FUtb+IHhu40W/ji1uyd2gdVUTDJJU4FJtWCzPmcV1fwt/5KBov/AF1b/wBAauUXoK6P4e39vpnjTSrq7mSC3jkZnkY/KBsYcmubqjTofU1Fc5/wsbwx/wBByz/7+Ck/4WN4Y/6Ddn/38FdV0Z2Z0lFc3/wsfwx/0HbL/v6KT/hY3hn/AKDll/39FF0FmdLRXNf8LH8M/wDQdsv+/oo/4WR4Y/6Dll/3+FLQLM6Wiub/AOFjeGf+g3Zf9/hR/wALG8M/9Buy/wC/wo0CzOkormv+FkeGP+g5Zf8Af4Uf8LH8M/8AQdsv+/oo0CzOlormv+Fj+Gf+g7Zf9/RR/wALG8M/9Byy/wC/oo0CzOlormv+Fj+GP+g7Zf8Af0Uv/Cx/DP8A0G7L/v8ACjQLM6NelfJXiP8A5GDVP+vqX/0M19JD4jeGP+g5Zf8Af4V8065PHca3qMsbiSN7iRlZehBc4rOb0KiegfAHjxNf/wDXqf8A0Ja96r54+DOuafoXiC8mv7uK0ie22q0rYBO5a9j/AOFj+GP+g5Zf9/RTpvQT3Okorm/+Fj+GP+g5Zf8Af0Uv/CxvDH/Qcs/+/grS6FZjPiR/yI+tf9e7V8u9hX0N468c+H9Q8I6rbW+r2k08kJVI0kBLH2r557CsZlIKKKKzKCiiigBK7T4ZePpPBuqeTcOW0u4YCVc/cPZx/X1rjKSj4WPSx9iQ3EdxEksTCSNwGVlOQQehqWvDfhL8TItKjOkaxcLFaqN0FxIeF9VNenf8LG8Mf9Byz/7+it4yTMrM6Siub/4WP4Y/6Dll/wB/RR/wsfwz/wBBuy/7/Crug1Okorm/+FkeGP8AoOWX/f0Uf8LH8Mf9Byy/7+ii6CzOkr5++O3/ACOEQ/6dl/ma9d/4WP4Y/wCg5Zf9/RXivxh1qx1zxRFcWFzHdQi3VS8ZyAcms5NNDSOGBr3v4B/8ijef9frf+gJXggNey/Bnxbo2h+GbmC/1G3tJmu2cRyPg42KM/oazjvcp7HsVFc3/AMLG8Mf9Byz/AO/oo/4WP4Y/6Dll/wB/RXRdEWZ0leXfH7/kWdP/AOvsf+gNXW/8LH8Mf9Byy/7+ivPPjR4p0jXvD9jFp2o297Il1uZYXDEDY3NTJqw0ePe9ekfAf/kcp/8Ar0f/ANCWvOa7n4OazY6H4qnnv7qO0hNq6hpDgZ3LxWC+JFPY+jaK5z/hY3hj/oOWf/fwUn/Cx/DH/Qbs/wDv4K6boizOkormv+FkeGO2uWR/7bCj/hY3hn/oOWX/AH+FLQLM6Wiub/4WN4Z/6Ddl/wB/hSf8LI8Mf9Byy/7/AAo0CzOlormv+Fj+Gf8AoO2X/f0Uf8LH8M/9B2y/7+ijQLM6Wiua/wCFj+Gf+g7Zf9/RR/wsfwz/ANB2y/7+ijQLM6Wiua/4WP4Z/wCg7Zf9/RS/8LI8Mf8AQcsv+/oo0CzOkormv+FkeGP+g5Zf9/hSj4j+GD/zHLL/AL/CjQLM3L7/AI8rj/rm38q+QZOHbthsV9OXnxE8MyWkyrrlkSyEAecM8ivmOXDSOc5G6s5lRFt7iS1mjmiYxyRsGVl6gjpX0Z8OfiNbeL7FIJ2WHVY1AkjbjzMfxLXzhToZ5LWZZoZGimQ5WRDhh75rOLcdi2lI+xd1LXgnhr46ajp6LDqsC6jGo4mUhZR9eoNehaX8ZPDOoIpe8a0c9VuEIx+IyP1rdSTM3Fo7mismz8WaNqC5t9UtJv8AdmU/1q+t5bt92eM/RxVXJJ6Kj86P++v5il85P76/mKNAH0VH5y/3l/MUecn95f8AvoUaASUVH5yf3l/76FHnL/eX8xRoBJRUfnJ/eX8xTWuoV5MqD/gVGgE1FZN74s0fTVzdanaQf78yg/zrltZ+NXhzTVPkTSahJ2W3Xg/ieKLodmd60gXJY7QOSSa8I+MPxATW5xo+nyb7OFt00g6SP2A9hWP4w+LGr+Jke3i/4l9i3HkxH5n9mPpXEVlKfYpIKKKKyKCiiigAooooAKKKKACiiigDt/jJ/wAj5ef7kf8A6CP8a4iu3+Mn/I+Xv+5H/wCgiuIq5biQUUUVIwpuPm/+tTqKmw9huPr+dJt9v5U+iiw7sbt96OnanUU0hXCiiimIKKKKACiiigApP89KWilYBNv+cCjaP8gUtFTylXY3mlxjHNLRT5QuxKP17fWlopkiY/zijb/nApaKnlKuxKMe9LRTsF2N2+9G33p1FFguxMe9GPeloosF2N2+9G33p1FFguxu33pce9LRS0C7G7aXHvS0U7BdiYo9KWihCuI3zAA0nNOooYXG7fp+QpNvsPyFPopaDuxvt+PTpTqKKaFcKKKKoQUUUUAFFFFJgJSbfb9BTqKWo72G7felx70tFLlHdjdtG36fkKdRT5QuxNvvR+n0paKdhXCkK7utLRStcQ3aP8gUbfp+Qp1FLlKuxu0f5ApcDmlop8orhSN83FLRTsIZt/zxTtv+cCloqeUq7G7felx70tFPlC7Ex70m33p1FFguxu33o2+9Ooo5Quxu33o2+9OoosF2N2+9G2nUUWC7G7felC4paKWgrsTHv+NLRRTQXCkpaKoQm0UmD9adRU2GmNweCacshX7rMPpRSbRSK5h/nSdpG/M0vnyf89G/76NMooFzD/Pk/wCejf8AfRpPOk/56N/30abRQHMO86T/AJ6N/wB9GjzpP+ej/wDfRptFAcw4zSf89G/76NJ5jHq7H6k0lFArsDz3NJilooC7D9aKKKsQUUUUAFFFFABRRRQAUUUUAFFFFAHcfGTnx5e8fwR/+giuHwa6f43+JNI0/wCIV5Dd6tZWs4SPMU06K3K+hNcF/wAJl4f/AOg9pv8A4FJ/jVyi2y405tXSNaisj/hMfD//AEHtN/8AAtP8aP8AhMvD3/Qe03/wKT/Gp5GV7Kf8pr0Vj/8ACZeHv+g/pv8A4FJ/jR/wmXh7/oP6b/4FJ/jRyMXs59jYorH/AOEy8Pf9B/Tf/ApP8aP+Ey8Pf9B/Tf8AwKT/ABo5GHs59jYorH/4TLw9/wBB/Tf/AAKT/Gj/AITLw9/0H9N/8Ck/xo5GP2U/5TYorH/4TLw9/wBB/Tf/AAKT/Gj/AITLw9/0H9N/8Ck/xo5GL2c+xsUVj/8ACZeHv+g/pv8A4FJ/jR/wmXh7/oP6b/4FJ/jRyMPZz7GxRWP/AMJl4e/6D+m/+BSf40f8Jl4e/wCg/pv/AIFJ/jRysPZz7GxRWP8A8Jl4e/6D+m/+BSf40f8ACZeHv+g/pv8A4FJ/jRyMfsp/ymxRWP8A8Jl4e/6D+m/+BSf40f8ACZeHv+g/pv8A4FJ/jRyMPZT/AJTYorH/AOEy8Pf9B/Tf/ApP8aP+Ey8Pf9B/Tf8AwKT/ABo5GHsp/wApsUVj/wDCZeHv+g/pv/gUn+NH/CZeHv8AoP6b/wCBSf40cr7C9nPsbFFY/wDwmXh7/oP6b/4FJ/jR/wAJl4e/6D+m/wDgUn+NHK+w/ZT/AJTYorH/AOEy8Pf9B/Tf/ApP8aP+Ey8Pf9B/Tf8AwKT/ABo5GHsp/wApsUVj/wDCZeHv+g/pv/gUn+NH/CZeHv8AoP6b/wCBSf40cr7B7Kf8psUVj/8ACZeHv+g/pv8A4FJ/jR/wmXh7/oP6b/4FJ/jRyvsHsp/ymxRWP/wmXh7/AKD+m/8AgUn+NH/CZeHv+g/pv/gUn+NPlfYPZT/lNiisf/hMvD3/AEH9N/8AApP8aP8AhMvD3/Qf03/wKT/GlyvsHsp/ymxRWP8A8Jl4e/6D+m/+BSf40f8ACZeHv+g/pv8A4FJ/jRyvsHsp/wApsUVj/wDCZeHv+g/pv/gUn+NH/CZeHv8AoP6b/wCBSf40cjF7OfY2KKx/+Ey8Pf8AQf03/wACk/xo/wCEy8Pf9B/Tf/ApP8aORj9lP+U2KKx/+Ey8Pf8AQf03/wACk/xo/wCEy8Pf9B/Tf/ApP8aXK+weyn/KbFFY/wDwmXh7/oP6b/4FJ/jR/wAJl4e/6D+m/wDgUn+NHK+wvZz7GxRWP/wmXh7/AKD+m/8AgUn+NH/CZeHv+g/pv/gUn+NPlYezn2Niisf/AITLw9/0H9N/8Ck/xo/4TLw9/wBB/Tf/AAKT/GjkY/ZT/lNiisf/AITLw9/0H9N/8Ck/xo/4TLw9/wBB/Tf/AAKT/GjkYvZz7GxRWP8A8Jl4e/6D+m/+BSf40f8ACZeHv+g/pv8A4FJ/jRyvsP2U/wCU2KKx/wDhMvD3/Qf03/wKT/Gj/hMvD3/Qf03/AMCk/wAaORi9nPsbFFY//CZeHv8AoP6b/wCBSf40f8Jl4e/6D+m/+BSf40crH7Kf8psUVj/8Jl4e/wCg/pv/AIFJ/jR/wmXh7/oP6b/4FJ/jRysXs59jYorH/wCEy8Pf9B/Tf/ApP8aP+Ey8Pf8AQf03/wACk/xo5WP2U+xsUVj/APCZeHv+g/pv/gUn+NH/AAmXh7/oP6b/AOBSf40crF7OfY2KKx/+Ey8Pf9B/Tf8AwKT/ABo/4TLw9/0H9N/8Ck/xo5GHs59jYorH/wCEy8Pf9B/Tf/ApP8aP+Ey8Pf8AQf03/wACk/xo5WHs59jYorH/AOEy8Pf9B/Tf/ApP8aP+Ey8Pf9B/Tf8AwKT/ABo5GP2U/wCU2KKx/wDhMvD3/Qf03/wKT/Gj/hMvD3/Qf03/AMCk/wAaOVh7Kf8AKbFFY/8AwmXh7/oP6b/4FJ/jR/wmXh7/AKD+m/8AgUn+NHK+weyn/KbFFY//AAmXh7/oP6b/AOBSf40f8Jl4e/6D+m/+BSf40crF7OfY2KKx/wDhMvD3/Qf03/wKT/Gj/hMvD3/Qf03/AMCk/wAaOV9h+yn/ACmxRWP/AMJl4e/6D+m/+BSf40f8Jl4e/wCg/pv/AIFJ/jT5X2D2U/5TYorH/wCEy8Pf9B/Tf/ApP8aP+Ey8Pf8AQf03/wACk/xpcr7B7Kf8psUVj/8ACZeHv+g/pv8A4FJ/jR/wmXh7/oP6b/4FJ/jRyvsHsp/ymxRWP/wmXh7/AKD+m/8AgUn+NH/CZeHv+g/pv/gUn+NHIxezn2Niisf/AITLw9/0H9N/8Ck/xo/4TLw9/wBB/Tf/AAKT/GjkY/ZT/lNiisf/AITLw9/0H9N/8Ck/xo/4TLw9/wBB/Tf/AAKT/GjlfYPZT/lNiisf/hMvD3/Qf03/AMCk/wAaP+Ey8Pf9B/Tf/ApP8aXK+wvZz7GxRWP/AMJl4e/6D+m/+BSf40f8Jl4e/wCg/pv/AIFJ/jT5X2H7Kf8AKbFFY/8AwmXh7/oP6b/4FJ/jR/wmXh7/AKD+m/8AgUn+NLlfYPZT/lNiisf/AITLw9/0H9N/8Ck/xo/4TLw9/wBB/Tf/AAKT/GnyvsHsp/ymxRWP/wAJl4e/6D+m/wDgUn+NH/CZeHv+g/pv/gUn+NLkYvZz7GxRWP8A8Jl4e/6D+m/+BSf40f8ACZeHv+g/pv8A4FJ/jT5GHs59jYorH/4TLw9/0H9N/wDApP8AGj/hMvD3/Qf03/wKT/GjkYezn2Niisf/AITLw9/0H9N/8Ck/xo/4TLw9/wBB/Tf/AAKT/GjkYezn2Niisf8A4TLw9/0H9N/8Ck/xo/4TLw9/0H9N/wDApP8AGjkY/ZT/AJTYorH/AOEy8Pf9B/Tf/ApP8aP+Ey8Pf9B/Tf8AwKT/ABo5GL2c+xsUVj/8Jl4e/wCg/pv/AIFJ/jR/wmXh7/oP6b/4FJ/jRyMPZz7H/9k=;" vertex="1" parent="q41vTv1glD9lVKqyJohb-115">
          <mxGeometry x="59" y="10" width="105" height="20.65" as="geometry" />
        </mxCell>
        <mxCell id="q41vTv1glD9lVKqyJohb-87" value="&lt;font style=&quot;font-size: 18px;&quot;&gt;**&lt;/font&gt;" style="text;html=1;align=center;verticalAlign=middle;whiteSpace=wrap;rounded=0;" vertex="1" parent="q41vTv1glD9lVKqyJohb-115">
          <mxGeometry x="160" y="10.000000000000023" width="20" height="10.4" as="geometry" />
        </mxCell>
        <mxCell id="q41vTv1glD9lVKqyJohb-149" value="SQL Server" style="swimlane;whiteSpace=wrap;html=1;" vertex="1" parent="1">
          <mxGeometry x="1320" y="90" width="450" height="280" as="geometry" />
        </mxCell>
        <mxCell id="q41vTv1glD9lVKqyJohb-150" value="" style="group" vertex="1" connectable="0" parent="q41vTv1glD9lVKqyJohb-149">
          <mxGeometry x="20" y="108.01999999999998" width="156.12" height="83.96" as="geometry" />
        </mxCell>
        <mxCell id="q41vTv1glD9lVKqyJohb-151" value="" style="shape=image;verticalLabelPosition=bottom;labelBackgroundColor=default;verticalAlign=top;aspect=fixed;imageAspect=0;image=data:image/png,iVBORw0KGgoAAAANSUhEUgAAAgAAAAIACAYAAAD0eNT6AAAAAXNSR0IArs4c6QAAIABJREFUeAHt3V/I/ns+7/H3ECk5kIZFkpA5se05IcrBiGhzYBGxm3ZR07ZOqB0pGWZkHCAcqL0PJGPvRilzgJSa0pZCInMgyYGcKPkz2xB7bw3L+gwHy7Jq1nXfr+9vva77/bjqqllrrvv9e3+er9f3+j6v+/db92/GAwEEEEAAAQQQQAABBBBAAAEEEEAAAQQQQAABBBBAAAEEEEAAAQQQQAABBBBAAAEEEEAAAQQQQAABBBBAAAEEEEAAAQQQQAABBBBAAAEEEEAAAQQQQAABBBBAAAEEEEAAAQQQQAABBBBAAAEEEEAAAQQQQAABBBBAAAEEEEAAAQQQQAABBBBAAAEEEEAAAQQQQAABBBBAAAEEEEAAAQQQQAABBBBAAAEEEEAAAQQQQAABBBBAAAEEEEAAAQQQQAABBBBAAAEEEEAAAQQQQAABBBBAAAEEEEAAAQQQQAABBBBAAAEEEEAAAQQQQAABBBBAAAEEEEAAAQQQQAABBBBAAAEEEEAAAQQQQAABBBBAAAEEEEAAAQQQQAABBBBAAAEEEEAAAQQQQAABBBBAAAEEEEAAAQQQQAABBBBAAAEEEEAAAQQQQAABBBBAAAEEEEAAAQQQQAABBBBAAAEEEEAAAQQQQAABBBBAAAEEEEAAAQQQQAABBBBAAAEEEEAAAQQQQAABBBBAAAEEEEAAAQQQQAABBBBAAAEEEEAAAQQQQAABBBBAAAEEEEAAAQQQQAABBBBAAAEEEEAAAQQQQAABBBBAAAEEEEAAAQQQQAABBBBAAAEEEEAAAQQQQAABBBBAAAEEEEAAAQQQQAABBBBAAAEEEEAAAQQQQAABBBBAAAEEEEAAAQQQQAABBBBAAAEEEEAAAQQQQAABBBBAAAEEEEAAAQQQQAABBBBAAAEEEEAAAQQQeGIE3jAzb5qZt87MO1462zs9MdABHdABHdCB2g6ce/W5Z59797mH3/z4wpl538x88KUb/4ueGOiADuiADujA3XXg3MPPvfzc0z/i42Nn5l0z8yFB313QRI2s6oAO6IAOvFoHzj393NvPPf5VH2+cmfe78bvx64AO6IAO6MCT7MC5x597/b97vFfgTzLwV7NB/86nBB3QAR3Y2YFzr/83j/MHBpQBAx3QAR3QAR14+h049/wPPz55Zj5AAAiQDuiADuiADqzowLnnn3v/fJPAVwTO6p++1ctYxjqgA6+1A+fePz9KAAiADuiADuiADqzqwLn3z68JfVXor9UOvc4nCR3QAR14uh049/75WwJAAHRAB3RAB3RgVQfOvX/VgdmsvHVAB3RAB3TgXzpAAEiQDuiADuiADizsgNAXhs5+fQLSAR3QAR0gAARAB3RAB3RABxZ2QOgLQ2f+zF8HdEAHdIAAEAAd0AEd0AEdWNgBoS8Mnfkzfx3QAR3QAQJAAHRAB3RAB3RgYQeEvjB05s/8dUAHdEAH4gLwwZn5M08MdEAHdEAHdCDWgXNvTUtbfOAL58cLeiCAAAIIIIBAjMC5txKAGE6DEEAAAQQQuA8CBOA+crIlAggggAACUQIEIIrTMAQQQAABBO6DAAG4j5xsiQACCCCAQJQAAYjiNAwBBBBAAIH7IEAA7iMnWyKAAAIIIBAlQACiOA1DAAEEEEDgPggQgPvIyZYIIIAAAghECRCAKE7DEEAAAQQQuA8CBOA+crIlAggggAACUQIEIIrTMARyBN44M/9pZr53Zn56Zt7tiYEOfLgDPzgzXzszn5673G6a9NEz8x9m5ltm5icuzORHZuYbZ+azb9rutb+YALx2Vl6JwDMh8NaZ+eMLfkZ3+md+m5f/OeqY3s70/EVx3zkzH/UMrs4j5T87M3/3OlyfH5iZH56ZjwuekwAEYRqFwGMIfOrM/MLr8MbipnP7TQezPma/8dLN+XMfcwF+hK89n8T/ouD6/MOZ+eKPsOtr/b8JwGsl5XUIXEjgP87MMXw3Fgx04OEd+PuZ+coLrtP/XnZt/uNLfyXyuXk/9kEAHkvQ1yPwSAIfMzO/V/YG4yb08JsQdq8vuz+dmU985DX58i//mtJr8//OzJtevugD/jcBeAA0X4JAksD3lb7BuJG9vjcy/B/O/3+FLtBPeumT9vkzBq1Z/NbMnD+Q+NAHAXgoOV+HQIDA58zMPxS/wbS+8dmr96bUks1XBK7Pn7qDa/PbHnFOAvAIeL4UgccS+NY7eINpeUO3h5v+LR348cdenDNzfjvhll/z9XjtLz/inATgEfB8KQKPJfCTd/AG83q8qfk1+2887Rn9+iMvzufu5No8v0Xx0AcBeCg5X4dAgMD77+RNpv3N3n6E4ZUdOP+t/mN+f/yr7uja/LQHvhcRgAeC82UIPJbAG2bm/9/Rm8wr32D9s5tuewc+6xEX6Xfc0bX5ZQ88JwF4IDhfhkCCwB/c0ZtM+5u9/QjJyzvw/2bm/Ce2D308f0fX5mc+8JAE4IHgfBkCCQL/847eZF7+5up/u9m2d+C3H3mBfsadXJt/9YhzEoBHwPOlCDyWwLffyZtM+5u9/QjJKztwfnrfYx8NP/r3led65T+/7xGHJACPgOdLEXgsgc+fmX8iAfX/qdUr33T9c79wfP1jL86Z+fk7uDbf/ohzEoBHwPOlCCQInL9O1A0FAx3IdeBXEhfmzJzfBvib4uvz/MVAj/nbAQlAqCjGIPBQAh/vr/8lQMU3mXsTk7+emU9/6MX4Kl/3ttJsPjQzX/Qq+97yrwjALbS8FoGLCLzFjwQmAaU3mnsSgPPbaf/lgmv0Fwuz+YHAOQlAAKIRCCQInD8P4G8FzH0b+J5uXHZ9fO5/MjNfmrgQX2XG+YFC313yczvOn/r/z6+y40P+FQF4CDVfg8BFBM5/t/z9vhvguwGFnzibJeX8SO1PuOiafPnYz5uZ330ds/mFmTk/ojj1IAApkuYgECRw/lzAl8zMf5uZ98zMb87M+as/PTHQgZn3/usn8i+fmU8MXnevddT5wTvfMDM/NDPnP8O7KpNfekk23jEzXz0zn/Jal7vhdQTgBlheigACCCCAwFMhQACeSpLOgQACCCCAwA0ECMANsLwUAQQQQACBp0KAADyVJJ0DAQQQQACBGwgQgBtgeSkCCCCAAAJPhQABeCpJOgcCCCCAAAI3ECAAN8DyUgQQQAABBJ4KAQLwVJJ0DgQQQAABBG4gQABugOWlCCCAAAIIPBUCBOCpJOkcCCCAAAII3ECAANwAy0sRQAABBBB4KgQIwFNJ0jkQQAABBBC4gQABuAGWlyKAAAIIIPBUCBCAp5KkcyCAAAIIIHADAQJwAywvRQABBBBA4KkQIABPJUnnQAABBBBA4AYCBOAGWF6KAAIIIIDAUyFAAJ5Kks6BAAIIIIDADQQIwA2wvBQBBBBAAIGnQoAAPJUknQMBBBBAAIEbCBCAG2B5KQIIIIAAAk+FAAF4Kkk6BwIIIIAAAjcQuAsB+JmZ+WZPDHRAB3RAB3Qg1oFzb30x/IwPTC9oXj50TDHVAR3QAR0gAGGjclG5qHRAB3RAB+6hAwSAAOiADuiADujAwg4IfWHo92CmdvQJSgd0QAeu7QABIAA6oAM6oAM6sLADQl8YOqu+1qrxxVcHdOAeOkAACIAO6IAO6IAOLOyA0BeGfg9makefoHRAB3Tg2g4QAAKgAzqgAzqgAws7IPSFobPqa60aX3x1QAfuoQMEgADogA7ogA7owMIOCH1h6Pdgpnb0CUoHdEAHru0AASAAOqADOqADOrCwA0JfGDqrvtaq8cVXB3TgHjpAAAiADuiADuiADizsgNAXhn4PZmpHn6B0QAd04NoOEAACoAM6oAM6oAMLOyD0haGz6mutGl98dUAH7qEDBIAA6IAO6IAO6MDCDgh9Yej3YKZ29AlKB3RAB67tQFwAfmxm3uJZx+DrLhCdt8u5Ludz7b3tgqzPTNd1H4NzDaZvkue9QtZ9DM69NZ11fOAL49FI4LkLyvN840HtNG++IOsz06OPwLkG0zeF817h0Ufg3FvTWccHEoC+4pyNCEBnLldsRQCuoNo5kwB05nLFVgTgCqpLZhKAJUHP+A7AnqiHAOwJmwDsyTp+UgIQR1o70HcAaqOJL0YA4khrBxKA2mj6FyMA/RmlNiQAKZL9cwhAf0apDQlAiuTCOQRgT+gEYE/WBGBP1gRgT9bxkxKAONLagQSgNpr4YgQgjrR2IAGojaZ/MQLQn1FqQwKQItk/hwD0Z5TakACkSC6cQwD2hE4A9mRNAPZkTQD2ZB0/KQGII60dSABqo4kvRgDiSGsHEoDaaPoXIwD9GaU2JAApkv1zCEB/RqkNCUCK5MI5BGBP6ARgT9YEYE/WBGBP1vGTEoA40tqBBKA2mvhiBCCOtHYgAaiNpn8xAtCfUWpDApAi2T+HAPRnlNqQAKRILpxDAPaETgD2ZE0A9mRNAPZkHT8pAYgjrR1IAGqjiS9GAOJIawcSgNpo+hcjAP0ZpTYkACmS/XMIQH9GqQ0JQIrkwjkEYE/oBGBP1gRgT9YEYE/W8ZMSgDjS2oEEoDaa+GIEII60diABqI2mfzEC0J9RakMCkCLZP4cA9GeU2pAApEgunEMA9oROAPZkTQD2ZE0A9mQdPykBiCOtHUgAaqOJL0YA4khrBxKA2mj6FyMA/RmlNiQAKZL9cwhAf0apDQlAiuTCOQRgT+gEYE/WBGBP1gRgT9bxkxKAONLagQSgNpr4YgQgjrR2IAGojaZ/MQLQn1FqQwKQItk/hwD0Z5TakACkSC6cQwD2hE4A9mRNAPZkTQD2ZB0/KQGII60dSABqo4kvRgDiSGsHEoDaaPoXIwD9GaU2JAApkv1zCEB/RqkNCUCK5MI5BGBP6ARgT9YEYE/WBGBP1vGTEoA40tqBBKA2mvhiBCCOtHYgAaiNpn8xAtCfUWpDApAi2T+HAPRnlNqQAKRILpxDAPaETgD2ZE0A9mRNAPZkHT8pAYgjrR1IAGqjiS9GAOJIawcSgNpo+hcjAP0ZpTYkACmS/XMIQH9GqQ0JQIrkwjkEYE/oBGBP1gRgT9YEYE/W8ZMSgDjS2oEEoDaa+GIEII60diABqI2mfzEC0J9RakMCkCLZP4cA9GeU2pAApEgunEMA9oROAPZkTQD2ZE0A9mQdPykBiCOtHUgAaqOJL0YA4khrBxKA2mj6FyMA/RmlNiQAKZL9cwhAf0apDQlAiuTCOQRgT+gEYE/WBGBP1gRgT9bxkxKAONLagQSgNpr4YgQgjrR2IAGojaZ/MQLQn1FqQwKQItk/hwD0Z5TakACkSC6cQwD2hE4A9mRNAPZkTQD2ZB0/KQGII60dSABqo4kvRgDiSGsHEoDaaPoXIwD9GaU2JAApkv1zCEB/RqkNCUCK5MI5BGBP6ARgT9YEYE/WBGBP1vGTEoA40tqBBKA2mvhiBCCOtHYgAaiNpn8xAtCfUWpDApAi2T+HAPRnlNqQAKRILpxDAPaETgD2ZE0A9mRNAPZkHT8pAYgjrR1IAGqjiS9GAOJIawcSgNpo+hcjAP0ZpTYkACmS/XMIQH9GqQ0JQIrkwjkEYE/oBGBP1gRgT9Z3IQAvzownBjqgAzqgAzrQ3QE3a8KiAzqgAzqgAws7IPSFobPybiuXj3x0QAeeRQcIAAHQAR3QAR3QgYUdEPrC0J+FWfo1fILRAR3Qge4OEAACoAM6oAM6oAMLOyD0haGz8m4rl498dEAHnkUHCAAB0AEd0AEd0IGFHRD6wtCfhVn6NXyC0QEd0IHuDhAAAqADOqADOqADCzsg9IWhs/JuK5ePfHRAB55FBwgAAdABHdABHdCBhR0Q+sLQn4VZ+jV8gtEBHdCB7g4QAAKgAzqgAzqgAws7IPSFobPybiuXj3x0QAeeRQcIAAHQAR3QAR3QgYUdEPrC0J+FWfo1fILRAR3Qge4OEAACoAM6oAM6oAMLOyD0haGz8m4rl498dEAHnkUHCAAB0AEd0AEd0IGFHYiH/p6ZecGzjsF3XVDu/yHnupzPtfeuC7I+M13XfQzONZj+pHjeK2Tdx+DcW9NZxwee4nj0EXjugvI833dMG83Mmy/I+sz06CNwrsH0TeG8V3j0ETj31nTW8YEEoK84ZyMC0JnLFVsRgCuods4kAJ25XLEVAbiC6pKZBGBJ0L4DsCfomSEAe+ImAHuyjp+UAMSR1g70HYDaaOKLEYA40tqBBKA2mv7FCEB/RqkNCUCKZP8cAtCfUWpDApAiuXAOAdgTOgHYkzUB2JM1AdiTdfykBCCOtHYgAaiNJr4YAYgjrR1IAGqj6V+MAPRnlNqQAKRI9s8hAP0ZpTYkACmSC+cQgD2hE4A9WROAPVkTgD1Zx09KAOJIawcSgNpo4osRgDjS2oEEoDaa/sUIQH9GqQ0JQIpk/xwC0J9RakMCkCK5cA4B2BM6AdiTNQHYkzUB2JN1/KQEII60diABqI0mvhgBiCOtHUgAaqPpX4wA9GeU2pAApEj2zyEA/RmlNiQAKZIL5xCAPaETgD1ZE4A9WROAPVnHT0oA4khrBxKA2mjiixGAONLagQSgNpr+xQhAf0apDQlAimT/HALQn1FqQwKQIrlwDgHYEzoB2JM1AdiTNQHYk3X8pAQgjrR2IAGojSa+GAGII60dSABqo+lfjAD0Z5TakACkSPbPIQD9GaU2JAApkgvnEIA9oROAPVkTgD1ZE4A9WcdPSgDiSGsHEoDaaOKLEYA40tqBBKA2mv7FCEB/RqkNCUCKZP8cAtCfUWpDApAiuXAOAdgTOgHYkzUB2JM1AdiTdfykBCCOtHYgAaiNJr4YAYgjrR1IAGqj6V+MAPRnlNqQAKRI9s8hAP0ZpTYkACmSC+cQgD2hE4A9WROAPVkTgD1Zx09KAOJIawcSgNpo4osRgDjS2oEEoDaa/sUIQH9GqQ0JQIpk/xwC0J9RakMCkCK5cA4B2BM6AdiTNQHYkzUB2JN1/KQEII60diABqI0mvhgBiCOtHUgAaqPpX4wA9GeU2pAApEj2zyEA/RmlNiQAKZIL5xCAPaETgD1ZE4A9WROAPVnHT0oA4khrBxKA2mjiixGAONLagQSgNpr+xQhAf0apDQlAimT/HALQn1FqQwKQIrlwDgHYEzoB2JM1AdiTNQHYk3X8pAQgjrR2IAGojSa+GAGII60dSABqo+lfjAD0Z5TakACkSPbPIQD9GaU2JAApkgvnEIA9oROAPVkTgD1ZE4A9WcdPSgDiSGsHEoDaaOKLEYA40tqBBKA2mv7FCEB/RqkNCUCKZP8cAtCfUWpDApAiuXAOAdgTOgHYkzUB2JM1AdiTdfykBCCOtHYgAaiNJr4YAYgjrR1IAGqj6V+MAPRnlNqQAKRI9s8hAP0ZpTYkACmSC+cQgD2hE4A9WROAPVkTgD1Zx09KAOJIawcSgNpo4osRgDjS2oEEoDaa/sUIQH9GqQ0JQIpk/xwC0J9RakMCkCK5cA4B2BM6AdiTNQHYkzUB2JN1/KQEII60diABqI0mvhgBiCOtHUgAaqPpX4wA9GeU2pAApEj2zyEA/RmlNiQAKZIL5xCAPaETgD1ZE4A9WROAPVnHT0oA4khrBxKA2mjiixGAONLagQSgNpr+xQhAf0apDQlAimT/HALQn1FqQwKQIrlwDgHYEzoB2JM1AdiT9V0IwG/OzLs96xj83My8GH7+qpzrcj7X3i+Gcz69OTNd130MzjWYvq7Pe4Ws+xice2s66/jA9ILm5UPHFFMd0AEd0AECcIFVubBcWDqgAzqgA+0dIAAEQAd0QAd0QAcWdkDoC0Nvt1L7+eSkAzqgA9d3gAAQAB3QAR3QAR1Y2AGhLwydWV9v1hhjrAM60N4BAkAAdEAHdEAHdGBhB4S+MPR2K7WfT046oAM6cH0HCAAB0AEd0AEd0IGFHRD6wtCZ9fVmjTHGOqAD7R0gAARAB3RAB3RABxZ2QOgLQ2+3Uvv55KQDOqAD13eAABAAHdABHdABHVjYAaEvDJ1ZX2/WGGOsAzrQ3gECQAB0QAd0QAd0YGEHhL4w9HYrtZ9PTjqgAzpwfQcIAAHQAR3QAR3QgYUdEPrC0Jn19WaNMcY6oAPtHSAABEAHdEAHdEAHFnYgHvofzcz/9qxj8BsXlPv35VyX87n2fueCrM9M13Ufg3MNpj9lnvcKWfcxOPfWdNbxgS+MRyOB5y4oz/ONB7XTvPmCrM9Mjz4C5xpM3xTOe4VHH4Fzb01nHR9IAPqKczYiAJ25XLEVAbiCaudMAtCZyxVbEYArqC6ZSQCWBD3jOwB7oh4CsCdsArAn6/hJCUAcae1A3wGojSa+GAGII60dSABqo+lfjAD0Z5TakACkSPbPIQD9GaU2JAApkgvnEIA9oROAPVkTgD1ZE4A9WcdPSgDiSGsHEoDaaOKLEYA40tqBBKA2mv7FCEB/RqkNCUCKZP8cAtCfUWpDApAiuXAOAdgTOgHYkzUB2JM1AdiTdfykBCCOtHYgAaiNJr4YAYgjrR1IAGqj6V+MAPRnlNqQAKRI9s8hAP0ZpTYkACmSC+cQgD2hE4A9WROAPVkTgD1Zx09KAOJIawcSgNpo4osRgDjS2oEEoDaa/sUIQH9GqQ0JQIpk/xwC0J9RakMCkCK5cA4B2BM6AdiTNQHYkzUB2JN1/KQEII60diABqI0mvhgBiCOtHUgAaqPpX4wA9GeU2pAApEj2zyEA/RmlNiQAKZIL5xCAPaETgD1ZE4A9WROAPVnHT0oA4khrBxKA2mjiixGAONLagQSgNpr+xQhAf0apDQlAimT/HALQn1FqQwKQIrlwDgHYEzoB2JM1AdiTNQHYk3X8pAQgjrR2IAGojSa+GAGII60dSABqo+lfjAD0Z5TakACkSPbPIQD9GaU2JAApkgvnEIA9oROAPVkTgD1ZE4A9WcdPSgDiSGsHEoDaaOKLEYA40tqBBKA2mv7FCEB/RqkNCUCKZP8cAtCfUWpDApAiuXAOAdgTOgHYkzUB2JM1AdiTdfykBCCOtHYgAaiNJr4YAYgjrR1IAGqj6V+MAPRnlNqQAKRI9s8hAP0ZpTYkACmSC+cQgD2hE4A9WROAPVkTgD1Zx09KAOJIawcSgNpo4osRgDjS2oEEoDaa/sUIQH9GqQ0JQIpk/xwC0J9RakMCkCK5cA4B2BM6AdiTNQHYkzUB2JN1/KQEII60diABqI0mvhgBiCOtHUgAaqPpX4wA9GeU2pAApEj2zyEA/RmlNiQAKZIL5xCAPaETgD1ZE4A9WROAPVnHT0oA4khrBxKA2mjiixGAONLagQSgNpr+xQhAf0apDQlAimT/HALQn1FqQwKQIrlwDgHYEzoB2JM1AdiTNQHYk3X8pAQgjrR2IAGojSa+GAGII60dSABqo+lfjAD0Z5TakACkSPbPIQD9GaU2JAApkgvnEIA9oROAPVkTgD1ZE4A9WcdPSgDiSGsHEoDaaOKLEYA40tqBBKA2mv7FCEB/RqkNCUCKZP8cAtCfUWpDApAiuXAOAdgTOgHYkzUB2JM1AdiTdfykBCCOtHYgAaiNJr4YAYgjrR1IAGqj6V+MAPRnlNqQAKRI9s8hAP0ZpTYkACmSC+cQgD2hE4A9WROAPVkTgD1Zx09KAOJIawcSgNpo4osRgDjS2oEEoDaa/sUIQH9GqQ0JQIpk/xwC0J9RakMCkCK5cA4B2BM6AdiTNQHYkzUB2JN1/KQEII60diABqI0mvhgBiCOtHUgAaqPpX4wA9GeU2pAApEj2zyEA/RmlNiQAKZIL5xCAPaETgD1ZE4A9Wd+FAPzYzLzFs47B183Mi+Hn2+Vcl/O59t4Wzvn05sx0XfcxONdg+ro+7xWy7mNw7q3prOMD0wualw8dU0x1QAd0QAcIwAVW5cJyYemADuiADrR3gAAQAB3QAR3QAR1Y2AGhLwy93Urt55OTDuiADlzfAQJAAHRAB3RAB3RgYQeEvjB0Zn29WWOMsQ7oQHsHCAAB0AEd0AEd0IGFHRD6wtDbrdR+PjnpgA7owPUdIAAEQAd0QAd0QAcWdkDoC0Nn1tebNcYY64AOtHeAABAAHdABHdABHVjYAaEvDL3dSu3nk5MO6IAOXN8BAkAAdEAHdEAHdGBhB4S+MHRmfb1ZY4yxDuhAewcIAAHQAR3QAR3QgYUdEPrC0Nut1H4+OemADujA9R0gAARAB3RAB3RABxZ2QOgLQ2fW15s1xhjrgA60d4AAEAAd0AEd0AEdWNgBoS8Mvd1K7eeTkw7ogA5c34G4AHzPzHymZx2DL7hAdP6rnOtyPtfeV12Q9Znpuu5jcK7B9I3yvFfIuo/Bubems44PfGE8Ggk8d0F5nm88qJ3mzRdkfWZ69BE412D6pnDeKzz6CJx7azrr+EAC0FecsxEB6Mzliq0IwBVUO2cSgM5crtiKAFxBdclMArAk6BnfAdgT9RCAPWETgD1Zx09KAOJIawf6DkBtNPHFCEAcae1AAlAbTf9iBKA/o9SGBCBFsn8OAejPKLUhAUiRXDiHAOwJnQDsyZoA7MmaAOzJOn5SAhBHWjuQANRGE1+MAMSR1g4kALXR9C9GAPozSm1IAFIk++cQgP6MUhsSgBTJhXMIwJ7QCcCerAnAnqwJwJ6s4yclAHGktQMJQG008cUIQBxp7UACUBtN/2IEoD+j1IYEIEWyfw4B6M8otSEBSJFcOIcA7AmdAOzJmgDsyZoA7Mk6flICEEdaO5AA1EYTX4wAxJHWDiQAtdH0L0YA+jNKbUgAUiT75xCA/oxSGxKAFMmFcwjAntAJwJ6sCcCerAnAnqzjJyUAcaS1AwlAbTTxxQhAHGntQAJQG03/YgSgP6PUhgQgRbJ/DgHozyi1IQFIkVw4hwDsCZ0A7MmaAOzJmgDsyTp+UgIQR1o7kADURhNfjADEkdYOJAC10fQvRgD6M0ptSABSJPvnEID+jFIbEoAUyYVzCMCe0AnAnqwJwJ6sCcCerOMnJQBxpLXuW8EEAAAG1ElEQVQDCUBtNPHFCEAcae1AAlAbTf9iBKA/o9SGBCBFsn8OAejPKLUhAUiRXDiHAOwJnQDsyZoA7MmaAOzJOn5SAhBHWjuQANRGE1+MAMSR1g4kALXR9C9GAPozSm1IAFIk++cQgP6MUhsSgBTJhXMIwJ7QCcCerAnAnqwJwJ6s4yclAHGktQMJQG008cUIQBxp7UACUBtN/2IEoD+j1IYEIEWyfw4B6M8otSEBSJFcOIcA7AmdAOzJmgDsyZoA7Mk6flICEEdaO5AA1EYTX4wAxJHWDiQAtdH0L0YA+jNKbUgAUiT75xCA/oxSGxKAFMmFcwjAntAJwJ6sCcCerAnAnqzjJyUAcaS1AwlAbTTxxQhAHGntQAJQG03/YgSgP6PUhgQgRbJ/DgHozyi1IQFIkVw4hwDsCZ0A7MmaAOzJmgDsyTp+UgIQR1o7kADURhNfjADEkdYOJAC10fQvRgD6M0ptSABSJPvnEID+jFIbEoAUyYVzCMCe0AnAnqwJwJ6sCcCerOMnJQBxpLUDCUBtNPHFCEAcae1AAlAbTf9iBKA/o9SGBCBFsn8OAejPKLUhAUiRXDiHAOwJnQDsyZoA7MmaAOzJOn5SAhBHWjuQANRGE1+MAMSR1g4kALXR9C9GAPozSm1IAFIk++cQgP6MUhsSgBTJhXMIwJ7QCcCerAnAnqwJwJ6s4yclAHGktQMJQG008cUIQBxp7UACUBtN/2IEoD+j1IYEIEWyfw4B6M8otSEBSJFcOIcA7AmdAOzJmgDsyZoA7Mk6flICEEdaO5AA1EYTX4wAxJHWDiQAtdH0L0YA+jNKbUgAUiT75xCA/oxSGxKAFMmFcwjAntAJwJ6sCcCerAnAnqzjJyUAcaS1AwlAbTTxxQhAHGntQAJQG03/YgSgP6PUhgQgRbJ/DgHozyi1IQFIkVw4hwDsCZ0A7MmaAOzJ+i4E4IMz82eedQz+fGZeDD//j5zrcj7X3l+Gcz69OTNd130MzjWYvq7Pe4Ws+xice2s66/jA9ILm5UPHFFMd0AEd0AECcIFVubBcWDqgAzqgA+0dIAAEQAd0QAd0QAcWdkDoC0Nvt1L7+eSkAzqgA9d3gAAQAB3QAR3QAR1Y2AGhLwydWV9v1hhjrAM60N4BAkAAdEAHdEAHdGBhB4S+MPR2K7WfT046oAM6cH0HCAAB0AEd0AEd0IGFHZi/XXhoZnm9WWKMsQ7ogA70duDc++fXCADz1QEd0AEd0IFVHTj3/vlRoa8KnZH3GrlsZKMDOvCsOnDu/fNNBIAA6IAO6IAO6MCqDpx7/3zyzHxA8KuCf1aG6dfxaUYHdEAH+jpw7vnn3v/hx1sJAAHQAR3QAR3QgRUdOPf8f/N4r+BXBM/G+2xcJjLRAR14Vh049/p/93jjzLyfBJAAHdABHdABHXiSHTj3+HOvf9XHx87Mu2bmQ8J/kuE/K8P06/g0owM6oAM9HTj39HNvP/f4j/j4wpl538x8kAgQAR3QAR3QAR24yw6ce/i5l597+s2PN8zMm2bm/IGBd7z01e/0xEAHdEAHdEAHajtw7tXnnn3u3ece7oEAAggggAACCCCAAAIIIIAAAggggAACCCCAAAIIIIAAAggggAACCCCAAAIIIIAAAggggAACCCCAAAIIIIAAAggggAACCCCAAAIIIIAAAggggAACCCCAAAIIIIAAAggggAACCCCAAAIIIIAAAggggAACCCCAAAIIIIAAAggggAACCCCAAAIIIIAAAggggAACCCCAAAIIIIAAAggggAACCCCAAAIIIIAAAggggAACCCCAAAIIIIAAAggggAACCCCAAAIIIIAAAggggAACCCCAAAIIIIAAAggggAACCCCAAAIIIIAAAggggAACCCCAAAIIIIAAAggggAACCCCAAAIIIIAAAggggAACCCCAAAIIIIAAAggggAACCCCAAAIIIIAAAggggAACCCCAAAIIIIAAAggggAACCCCAAAIIIIAAAggggAACCCCAAAIIIIAAAggggAACCCCAAAIIIIAAAggggAACCCCAAAIIIIAAAggggAACCCCAAAIIIIAAAggggAACCCCAAAIIIIAAAggggAACCCCAAAIIIIAAAggggAACCCCAAAIIIIAAAggggAACCCCAAAIIIIAAAggggAACCCCAAAIIIIAAAggggAACCCCAAAIIIIAAAggggAACCCCAAAIIIIAAAggggAACCCCAAAIIIIAAAggggAACCCCAAAIIIIAAAggggAACCCCAAAIIIIAAAggggAACCCCAAAIIIIAAAggggAACCCCAAAIIIIAAAggggAACCDwdAv8MMD+q/AMP1twAAAAASUVORK5CYII=;" vertex="1" parent="q41vTv1glD9lVKqyJohb-150">
          <mxGeometry x="50.79871174447153" y="27.374404535850882" width="54.52839916839917" height="54.52839916839917" as="geometry" />
        </mxCell>
        <mxCell id="q41vTv1glD9lVKqyJohb-152" value="trabajadores" style="text;html=1;align=center;verticalAlign=middle;whiteSpace=wrap;rounded=0;" vertex="1" parent="q41vTv1glD9lVKqyJohb-150">
          <mxGeometry width="156.12" height="27.381140916263263" as="geometry" />
        </mxCell>
        <mxCell id="q41vTv1glD9lVKqyJohb-159" style="edgeStyle=orthogonalEdgeStyle;rounded=0;orthogonalLoop=1;jettySize=auto;html=1;entryX=0.5;entryY=1;entryDx=0;entryDy=0;" edge="1" parent="1" source="q41vTv1glD9lVKqyJohb-87" target="q41vTv1glD9lVKqyJohb-151">
          <mxGeometry relative="1" as="geometry" />
        </mxCell>
        <mxCell id="q41vTv1glD9lVKqyJohb-137" value="" style="shape=image;verticalLabelPosition=bottom;labelBackgroundColor=default;verticalAlign=top;aspect=fixed;imageAspect=0;image=data:image/png,iVBORw0KGgoAAAANSUhEUgAAAgAAAAIACAYAAAD0eNT6AAAAAXNSR0IArs4c6QAAIABJREFUeAHtnQuQHVd5521vGRMwOGvMq7JZEqhQLhaSSioVllQgiynYlO3wsAEbiE1gIYDZAmzkBFhgwVQA43LAst62bMuWZetpaaz3+/2WRhpppNF7NCPNjGTZlmRJlkaWz9YZ097rvn3n9r39dX/nnP6paqrnXt05r/5///+v+97bfdFFAf+79sfT11x07TDDD2uABtBA6BqYOH/D4fb29ssDtnSmxgqkXwEAANMP3fSZHxqPNDBz6Qazo6OjFwhInxG8MuAVAAAwx8gc2aKF0DUwYc5qs3XbNiAg4Exjag2sAACA6Ydu+swPjUcaGD9r1QAAAAENhAQvDXcFAADMMTJHtmghdA1UAgAQEG6uMbOUKwAAYPqhmz7zQ+ORBuIAAASkDApeFuYKAACYY2SObNFC6BpIAgAgIMxsY1YpVgAAwPRDN33mh8YjDdQCACAgRVjwkvBWAADAHCNzZIsWQtfAYAAABISXb8yozgoAAJh+6KbP/NB4pIF6AAAE1AkM/jusFQAAMMfIHNmihdA1kAYAgICwMo7ZDLICAACmH7rpMz80HmkgLQAAAYOEBv8VzgoAAJhjZI5s0ULoGmgEAICAcHKOmdRYAQAA0w/d9JkfGo800CgAAAE1goOnw1gBAABzjMyRLVoIXQPNAAAQEEbWMYuEFQAAMP3QTZ/5ofFIA80CABCQEB485f8KAACYY2SObNFC6BrIAgBAgP95xwxiKwAAYPqhmz7zQ+ORBrICABAQCxAe+r0CAADmGJkjW7QQugYkAAAI8DvzGH3FCgAAmH7ops/80HikASkAAAIqQoRf/V0BAABzjMyRLVoIXQOSAAAE+Jt7jPz3KwAAYPqhmz7zQ+ORBqQBAAggSr1eAQAAc4zMkS1aCF0DeQAAEOB1BJZ78AAAph+66TM/NB5pIC8AAALKnaPezh4AwBwjc2SLFkLXQJ4AAAR4G4PlHTgAgOmHbvrMD41HGsgbAICA8maplzMHADDHyBzZooXQNVAEAAABXkZhOQcNAGD6oZs+80PjkQaKAgAgoJx56t2sAQDMMTJHtmghdA0UCQBAgHdxWL4BAwCYfuimz/zQeKSBogEACChfpno1YwAAc4zMkS1aCF0DGgAABHgVieUaLACA6Ydu+swPjUca0AIAIKBcuerNbAEAzDEyR7ZoIXQNaAIAEOBNLJZnoAAAph+66TM/NB5pQBsAgIDyZKsXMwUAMMfIHNmihdA14AIAAAFeRGM5BgkAYPqhmz7zQ+ORBlwBACCgHPnq/CwBAMwxMke2aCF0DbgEAECA8/EY/gABAEw/dNNnfmg80oBrAAAEhJ+xTs8QAMAcI3NkixZC14CLAAAEOB2RYQ8OAMD0Qzd95ofGIw24CgBAQNg56+zsAADMMTJHtmghdA24DABAgLMxGe7AAABMP3TTZ35oPNKA6wAABISbtU7ObMjoJS2f+tkMww9rgAbQQOgamLVso7Eh6/rPjo6O3vb29sudDA0GFc4KHDly5Nd9fX2GH9YADaCB0DWwo6PD+fCP4AQICCdnnZ0JAIDph276zA+NRxrwCQB4O8DZ2AxnYAAA5hiZI1u0ELoGfAMAICCcrHVyJgAAph+66TM/NB5pwEcAAAKcjM4wBgUAYI6RObJFC6FrwFcAAALCyFvnZgEAYPqhmz7zQ+ORBnwGACDAufj0f0AAAOYYmSNbtBC6BnwHACDA/8x1agYAAKYfuukzPzQeaSAEAAACnIpQvwcDAGCOkTmyRQuhayAUAAAC/M5dZ0YPAGD6oZs+80PjkQZCAgAgwJkY9XcgAADmGJkjW7QQugZCAwAgwN/sdWLkAACmH7rpMz80HmkgRAAAApyIUj8HAQBgjpE5skULoWsgVAAAAvzMX/VRAwCYfuimz/zQeKSBkAEACFCPU/8GAABgjpE5skULoWsgdAAAAvzLYNURAwCYfuimz/zQeKSBMgAAEKAaqX51DgBgjpE5skULoWugLAAABPiVw2qjBQAw/dBNn/mh8UgDZQIAIEAtVv3pGADAHCNzZIsWQtdA2QAACPAni1VGCgBg+qGbPvND45EGyggAQIBKtPrRKQCAOUbmyBYthK6BsgIAEOBHHhc+SgAA0w/d9JkfGo80UGYAAAIKj1f3OwQAMMfIHNmihdA1UHYAAALcz+RCRwgAYPqhmz7zQ+ORBgCAbQYIKDRi3e4MAMAcI3NkixZC1wAA8AoAAAFu53JhowMAMP3QTZ/5ofFIAwDA/wcAIKCwmHW3IwAAc4zMkS1aCF0DAMBrAQAIcDebCxkZAIDph276zA+NRxoAAKoBAAgoJGrd7AQAwBwjc2SLFkLXAACQDABAgJv5nPuoAABMP3TTZ35oPNIAAFAbAICA3OPWvQ4AAMwxMke2aCF0DQAAgwMAEOBeRuc6IgAA0w/d9JkfGo80AADUBwAgINfIdatxAABzjMyRLVoIXQMAQDoAAALcyuncRgMAYPqhmz7zQ+ORBgCA9AAABOQWu+40DABgjpE5skULoWsAAGgMAIAAd7I6l5EAAJh+6KbP/NB4pAEAoHEAAAJyiV43GgUAMMfIHNmihdA1AAA0BwBAgBt5LT4KAADTD930mR8ajzQAADQPAECAePzqNwgAYI6RObJFC6FrAADIBgBAgH5mi44AAMD0Qzd95ofGIw0AANkBAAgQjWDdxgAAzDEyR7ZoIXQNAAAyAAAE6Oa2WO8AAKYfuukzPzQeaQAAkAMAIEAshvUaAgAwx8gc2aKF0DXQ1d1tDh48yI/gGnR3d9+jl2D0nGkFAABMP3TTZ35oHA3kpwGbIZlCiD/WWwEAIL/CwHRYWzSABkLXAACgl9+ZewYAMKjQDYr5oXE0kJ8GAIDMMazXAACQX2FgOqwtGkADoWsAANDL78w9AwAYVOgGxfzQOBrITwMAQOYY1msAAMivMDAd1hYNoIHQNQAA6OV35p4BAAwqdINifmgcDeSnAQAgcwzrNQAA5FcYmA5riwbQQOgaAAD08jtzzwAABhW6QTE/NI4G8tMAAJA5hvUaAADyKwxMh7VFA2ggdA0AAHr5nblnAACDCt2gmB8aRwP5aQAAyBzDeg0AAPkVBqbD2qIBNBC6BgAAvfzO3DMAgEGFblDMD42jgfw0AABkjmG9BgCA/AoD02Ft0QAaCF0DAIBefmfuGQDAoEI3KOaHxtFAfhoAADLHsF4DAEB+hYHpsLZoAA2ErgEAQC+/M/cMAGBQoRsU80PjaCA/DQAAmWNYrwEAIL/CwHRYWzSABkLXAACgl9+ZewYAMKjQDYr5oXE0kJ8GAIDMMazXAACQX2FgOqwtGkADoWsAANDL78w9AwAYVOgGxfzQOBrITwMAQOYY1msAAMivMDAd1hYNoIHQNQAA6OV35p4BAAwqdINifmgcDeSnAQAgcwzrNQAA5FcYmA5riwbQQOgaAAD08jtzzwAABhW6QTE/NI4G8tMAAJA5hvUaAADyKwxMh7VFA2ggdA0AAHr5nblnAACDCt2gmB8aRwP5aQAAyBzDeg0AAPkVBqbj59oe6Dpstu3uNGvb9ppN7fvNrn1d5lBPr2F/+rk/2W/57jcAQC+/M/cMAORbHJiPG+trQ33Bug4zfPp6890RC831P51uPjxkkvnLb08wf/a/HjXv/NJY8+YbR5tLrhtuLrp2WOLPZZ8aaa66+QHzJ//8iHn/N8ebD37vSfOxH0wxt/5mtvnFYyvMxEVbTevOA4BCnxv7nNorZj8AAJljWK8BAKCYIsGMilvnDdv3md9NWWtuGzp/IKD/+NaHzcXXJYd6rbDP8vybbhxt/up/TzA3/ftM89NHlpkpS9pM96EewAAwCFIDAIBefmfuGQAoLpiAgHzW2oarDdlv3Td/4Gg+S3jn9bdv/Mwo8w//Z5q5Z+Jqs3nH/iCDAH3no2/X1xUAyBzDeg0AAOUsWtdNpd74OvZ1mXsnrTHX/vgpc/kNoxJP2ecV5hLtXv31R823719gWla0AwOcGfBaAwCAXn5n7hkAAADqha1L/798825zy92zzR98eqR3oV8LHOznCe6butZ08TaB10HoUp0UORYAIHMM6zUAAAAARZpFM3319vaZ8fNbzd/fOTmY0E+CAfsBwyGjFw98A6GZdeJvqGUNDQAAevmduWcAANPQMI20fdpP7b/7K48EHfxxGLj0kyPMzb+cCQjw1oAXZ0QAgMwxrNcAAAAApA3jIl9nP8n/0X8N+4g/Hvzxx1d8bszA5xzsGZAi156+WO9GNAAA6OV35p4BAIq9kWLP+7WHe3rNzx9dYd7wGf8+2BcPcKnHH7p9olm1ZQ8QwBkBJzUAAGSOYb0GAAAAIO9QT9v+mra95i9ue7xUp/vTQsLrPjnC/OThZU4GQNr9y+vC9BoAQC+/M/cMAIRZlL6Z7bJNu83bvvAg4V/jKoQRKPzLb+cBAZwJcEoDAEDmGNZrAAAAALRhYcH6DnPl5x8g/OuEfwQBX/7NbMPnAqhb7bqN+gcA9PI7c88AAEYSFbLGduaqdnPFZ0cT/inDP4IAe5nhnl5uUKShWfp8rWcCAJljWK8BAOC1Yqa4i1uPtl2dAzfgiUKNbWP3K7hj5CKnTgVTO8XVjktrDQDo5XfmngGAchatCwZy410tHPk3eORfCUn2egF8O4D61a5lACBzDOs1AABgIBoGMm3pNsI/Q/hHIGBvaayx/+gT34g0AADo5XfmngEACjkq5KK29rv+7/3aowCAAABYEBg1YwMQwDcD1DQAAGSOYb0GAAAAoKjgj/pZsK6D8BcKfwsAn/jRVDXzj/Yp2/L6CACgl9+ZewYAylu4WqZ9z8TVAIAgALz9Cw8CAJwBUNMAAJA5hvUaAAAAgKJB4Eu/ngUACAKAPQvQuvOAWgAUrR/6c8uzAAC9/M7cMwDgVjGVwdz+nMv9igPQY/NaAQDOAqhoAADIHMN6DQAAAEDR0PGer44TD8DoU/Fl3fJBQOq46DqO+gMA9PI7c88AAMYRFXJRWwkA+JOvjDNfuHueuXvyJnPb8KXmr787yVxy3fDSggUAQB0XVb/xfgCAzDGs1wAAgHHECzrvx1kA4I03jDZDW7aal182Vf9W7eg17/36+FJCAABAHeddt7XaBwD08jtzzwAAxlGrsPN6vlkAeP2nR5q2A8eqgr/yiTPnzg+cDSjbWwEAAHWcV73WaxcAyBzDeg0AABhHvQKX/v9mAeA/ntpSmfU1f9/R9ZyxsFAmCAAAqGPpOk3bHgCgl9+ZewYAMI60hS71umYA4D9//gFzIem8fw0M+PK9CwEAPhWv8ql4qTrxpR0AIHMM6zUAAAAARRtNMwDwsR9NrxH1yU/f39IGAAAAAEABGgAA9PI7c88AAADgAwB8e8Sy5KSv8eyC1i4AoADzL1o79OeeXwEAmWNYrwEAwL2CCt3kmjkD8D9/3FIj6pOfHjmrXHcb5DMA1LGWbwAAevmduWcAAOMo2jiaAYC3fmFsctLXePbrQxdzBoAzALwFUIAGAIDMMazXAAAAAPgAAPYT/Q/N31Ej7l/7dOeRk+ZNN44GAAow/6K1Q3/u+RUAoJffmXsGANwrqNBNrpkzABYA3vzZMcaG+2D/7DcFrvnh9FKFv10b3gKgjrV8AwDIHMN6DQAAGEfRxtEsANigs28FTFqxJ5EBdnY/Z/77HZNLF/4AADVcdA1X9gcA6OV35p4BAMyjspiL+D0LANiwsz8fvH2yuX3MCjNuYYe5a8IGc/3PZpbu4j/RWgAA1HARdVurDwAgcwzrNQAAYB61Cjuv5yUAoDL8+J23APLSKu3W90cAQC+/M/cMANQXOCYgu0YAwCtnMSTBhc8AyGqUmk+/ngBA5hjWawAASC90TEFmrQAAAIBakqklF9YRANDL78w9AwDhFKILZpBmDAAAAJBGJ7zGD28CADLHsF4DAIAfRRaSGQIAAEBIei77XAAAvfzO3DMAAAAUbWAAAABQtOboLz+fAwAyx7BeAwBAfoWB6SSvLQAAAFAbybXh47oAAHr5nblnACCcQvTFPAAAAMAXrTLO+v4IAGSOYb0GAID6AscEZNcIAAAAqCnZmtJcTwBAL78z9wwAhFOImibQSN8AAADQiF54rdseBQBkjmG9BgAAt4srRPMDAACAEHVd1jkBAHr5nblnAAAAKNq4AAAAoGjN0V9+PgcAZI5hvQYAgPwKA9NJXlsAAACgNpJrw8d1AQD08jtzzwBAOIXoi3kAAACAL1plnPX9EQDIHMN6DQAA9QWOCciuEQAAAFBTsjWluZ4AgF5+Z+4ZAAinEDVNoJG+AQAAoBG98Fq3PQoAyBzDeg0AAG4XV4jmBwAAACHquqxzAgD08jtzzwAAAFC0cQEAAEDRmqO//HwOAMgcw3oNAAD5FQamk7y2ezsPmV37u53/eWxeq7noWvmwzqPNUTM2GPSWrDfWJd91AQD08jtzzwBAvsWB+fi7vtOWbgMA+vzdf9ReMfsOAMgcw3oNAADFFAlm5N86AwD+7TPqrPh9BgDo5XfmngGA4gsGk/JjzQEAP/YT9aS7nwCAzDGs1wAAoFs8eZpX16Ee07ark58m12DsrE1evwVw5OAOc7SzTe3nSNdOPpdQgrdQAAC9/M7cMwAQDgDsPtBt7pm42vzT3bPMB7453lz6jyO8CbA8PhhXpjZHt1R/CPDsw+8x54depPpzbsxbzekpHzcnFg0xx9pnAgQBAgEAkDmG9RoAAMIAgBHT15u3feFBAt+TT+1Lw0nStwBcAIA4gJyacaM52rkNEAgIBAAAvfzO3DMA4DcArNqyx/zd9ycR/CUN/ggkfAEACwT9I68wx1f+2vT19gACAYAAAJA5hvUaAAD8BYDZq3eYy28YRfiXPPwtBPgEANFZgVMtnzd9fb1AgOcQAADo5XfmngEAPwFg4foOc8XnxhD+hP+ABnwEAAsCL8y8BQAAADLnGA00uQIAgH8AsKJ1t3nLTQ8Q/oT/qxrwFQAGIGDO14AAjyGAMwBNhq8LfwYA+AUAm3fsN+/44thXjT96D5itH5fszWs/+QwAFgJOLrwdCPAUAgAAF5K8yTEAAH4BwDX/NoXw58i/SgO+A8D5+y8xx9pnAQEeQgAA0GT4uvBnAIA/AGBNPq8jSNr1+wyC9wAw9CJzdtzVpq+nGwjwDAIAABeSvMkxAAB+AEDHvi5z1c287w+oJINKCABg3wo4seQHAAAA0GSa8WcNrwAA4AcA3PzLmRz9c+q/pgZCAYD+4ZeZZ/asAgI8ggDOADQcu+78AQDgPgDMWL69pvFzRJx8RFy2dQkFAOxZgDMTPwwAAADuhGTIIwEA3AcAPvhHyNcDmpAAwELAsR1zgQBPIIAzAB4TAgDgNgCsbN1jLr6OAKwXgGX//9AA4NT0GwAAAMDjZPVk6ACA2wBw629mc/qf9/7raiA0ADg/7FJz9MAWIMADCOAMgCdhnzRMAMBdANi5t8u8/tMj65p/2Y9+mb+f9wKwp/oH+zm54HsAAACQFFs8J7UCAIC7APDDB5cS/hz9p9JAcGcA7F0DR19pjhw+CAQ4DgGcAZBKY4V2AAA3AeBQTy+X/CX8U4W/PQMSIgDYswPPr/ktAAAAKCRjSboEANwEgOl89S91+PEWQLgAcGbSNQAAAFCSNFaYJgDgJgB8Z/hCApAzAKk1EOoZAHthoCOHO4EAhyGAtwAUgluqSwDATQB4/zfHpzZ/joD5muS4uZurQvLcg3806IfsBvsAnkv/91zr41Vz63M4EMs2NgBAKo0V2gEA3AOAtl2dfPefo/+GAHDump2xkOw19qt0LgV5s2N5YfZXYnNzr2bLFvqV8wUAFIJbqksAwD0zuW/q2obMnzMAnAFo3XngNSF55OCOIMLfQsPZse96zdwqw4ff9f0LAJBKY4V2AAD9Aoqb2Kd+NgMA4AxAag1cct1wc7in9zUh+UzH4mAAwEIANwhyz6ci3wIAFIJbqksAwK3CskZ+xefGpDZ/jv45+r/664++JvytMT+75YmgAOD48ruq5hgFEFtdDwMApNJYoR0AQLd44ua1bNNuwp+j/4Y0cMfIRVXheGLpT4ICgNPTrq+aY7x2eKzjZQCAQnBLdQkA6BRNLbN64OmNDZk/ZwA4A7BwfUdVOL444W+CAoCzj7y3ao61aojni/U0AEAqjRXaAQCKLZZ65nTnmMUAAGcAUmvgXV9+uCoYjx7cbs7ff0lQAGC/0dDXe6hqrvXqif/P398AAIXgluoSAMi/QBoxIT4AyBF9I2d1fj1hVVUo2svnNvuVO5f/7pk9K6vm2kht8dp8vA4AkEpjhXYAgHyKolmzed83Hkt99NdIUPDa8MDCHv13H+6pCsXTUz4eJAA8t+mhqrk2W2f8nZzvAQAKwS3VJQAgVwhZTcV+A+B1nxwBAPAWQCoNjJi+vioQB77+F9rp/9/fNvjEkh9UzTdrzfH32f0PAJBKY4V2AIDsBSBlImva9qYyfo7mwzuab3SffnjIJNPbW61de/Mcl0/jZxnbqRk3AgAOXgIZAFAIbqkuAYBqE5UK9EbbsddzbzQIeH35YOBP//kRs2tfV1UYPrt1crDhb8Hhxcc+UDXnRmuM18v7HQAglcYK7QAA8gXRrMn8/NEVAACn/wfVwJtvHG1Wtu5JCMLegYDMcoTt+t/2j3xTwrzdqd9m6973vwMAFIJbqksAwB0DGTKarwByRqP2GY233PSAaVnRnhiCJxYNCfro/xU4udj09b32kse+h2cI4wcApNJYoR0AwB0A+NZ98wc9+iMca4dj6Gvz377xmNnYvj8x/J/b+KA5P/TiEgDARebIoX2JaxBCkPo6BwBAIbilugQA3AGAW+6eDQDwFkCVBm68q8XsP5h8EZxjHYtM/4g3lCL87VmAo51bAQDHPggIAEilsUI7AIA7APCZn3MXwNCP5BuZ3we/+6SZtWpHzcA7eqDVnHvwj0oT/hYAuCugO34VnbEAABSCW6pLAMCdgvr4D6dWHf01Ehi81v+3CC771EhjdfDInM01g98a77H2WebcmLeVKvwtABzbOX/QdYlCiW1xvgYASKWxQjsAQHGFUs+UPnT7RACgRG8BvPEzo8x7vjrO/O0dE80XfzXLPDR7U81T/ZXaeX7tUNM/7HWlC38LAM+2TQMAeAtAISkD7RIAcAcAPvCt8QBADQD4T9cPHwjK745YaH41YZUZO2vTwOnxTe37za793d791HpPvzLo478fOdxpXpj7jVIGvw1/+/Pc5kcBAAAg0DRWmBYA4A4AvPsrjwAAFQBgT4d/4kdTze+mrDU79h4sr/H39hh7g59zD7yz1OFvAeD59SPKqwPHgj8CVN4CUAhuqS4BAHcA4J1fGgsAXDvM2OD/9v0LEq92F5lOWbbPtk4wZ8ddXfrgj84APL/6XgDAMRAAAKTSWKEdAMAdACj7GYBLrhtubv7lTNO680B5Tb73sHl22/SBU/1nx76L4P/9qf9XAYAzAM7VBgCgENxSXQIA7gBAmT8DYD8Mt2TjrobNzb4vfrRzmzna2ebXz4FWc2zHvIH3tI+v+o05uWiIOTXjs6Z/9JWEfiz0o/C3Wz4D4I5fRWfhAACpNFZoBwBwp6DK+i2A/3Hn5IEP8UWGkrztHQjMkwtvN2cmfsScfeS9pn/kFYTlIGFZGZyh/M63ANzxq6hOAQCF4JbqEgBwp6DKeB2Ar/3HXHO4p/b13Y/u32RemP1VPgBXsqCvBSxcB8AdvwIApFJYsR0AwJ2CKtuVAH/6yPKap/yPdO8yJ+fdZvqHX8ZRPuH/qga4EqA7fgUAKAa3VNcAgDsFVaZ7AfzT3bNqhr+9uU3/qD981fRrHQ3y/CvfjS/TOnAvAHf8CgCQSmHFdgAAdwqqLHcDtJ916D7ckwgAJxbfWZo725UpuKXmyt0A3fErAEAxuKW6BgDcKaghoxcHfx2A/3rrw8kX9enpNqef+iRH/ZzuH0QDF5u+vtqfF4kCiW2xnmYzRCqPaKfgFQAAii2Wwczp54+uCB4ApixpSzzyP9Vy0yDGX75T3VJHzCG10z/yTYnaGaym+L/8/Q0AKDi0JbsDAPIvkLQmNG7u5qAB4KP/OjnRwE8s+7+EP0f+dTXw4mMfSNRP2vridfl4HQAgmcgFtwUA5FMUzZjNmra9wQLAxdcNM4s2VF/o59ktT5jz919S1/xDOpJlLs2d0Tk140YAwLHLAFufAwAKDm3J7gAAdwDAfh/+dZ8cESQEfPYXLdXm3dNtzj70p4Q/R/+pNHBiyQ+qNeRgIDYD/z7/DQAgmcgFtwUAuAMA1gTe943HggSAZZt2V5n38ZW/SmX8HDE3d8Qc2ro9t+mhKg35HJyhjB0AKDi0JbsDANwCgE/9bEZwAGBvchQ3O/t1rnOjrwIAOPpPrYFn9qys0lFcVzwu3s8AAMlELrgtAKD4ghnMpO4cE95XAW8buqDKuI+vuju18Yd2JMt8mjijMexS09d7qEpHg9US/1eMtwEABYe2ZHcAQDFFktaMHnh6Y3BnAJ5e2V5l3GcmXQMAcPSfWgP25k9pa4jXFetpAIBkIhfcFgBQbLHUMyf7XvlF1w4L5ueqmx8wPb2vvXjLke495vywS1ObP0fMTRwxBwYXp6ddDwA4+oFHAKDg0JbsDgBwCwDsNwGu+NyYYADgb++YWGXcz20YQ/gHFtB5Q9rx5XdV6ageTPP/xXgbACCZyAW3BQAUUySNmFFIHwS84a7qr/+dXPh9AAAAaEgD3AXQPZ+KPA0AKDi0JbsDANwrrPumrg3mDMBtQ+dXHbmdmvmlhsw/76NL2nf7LYazY99VpaEofNjq+xcAIJnIBbcFAOgXUNzE2nZ1GnvlvBA+C/CzccurzPv05I8BAJwBSK2BF2Z/pUpD8ZrhsZ6PAQAFh7ZkdwCAXuEMZlrv/+b4IABg5IwNVeZtr+nOUbfbR90u7Z/nWh/IGwTqAAAgAElEQVSv0tBgtcP/FetpAIBkIhfcFgBQbLGkNafvDF8YBAA8PHtzlXmfffg9AABnAFJpoH/4ZebI4c4qDaWtI16Xv78BAAWHtmR3AED+BdKMCU1fvh0AICRThaRLR+vSY7HXi2imfvib4nwNAJBM5ILbAgCKK5RGTOlQT695xxfHeg8BnAHgVH8WKHh+zW8BAEe//x/5GQBQcGhLdgcAuAkAtrh++OBSAICzAKU9C9A/+kpz5PBBAAAAkIw82qpcAQDAXQDYubfLvP7TI72GAM4AcAag2TMAJxd8j/B3PPztgQpnACoT1bPfAQB3AcAW162/mQ0AcBagfGcBhl1qjh7YAgAAAJ4lqmfDBQDcBoCVrXu8viYAZwA4A9DMGYBT028g/D0If84AeBb48eECAG4DgC2wa/5tirdnAQAAAKAZADi2Yy4AAADE44rH0isAALgPADM8/kogAAAANAoAZyZ+mPD3JPw5AyCdyAW3BwC4DwC2yG7+5UwvzwIAAABAIwBgL/zDjX/88CTrSwBAwYEt3R0A4EexdezrMlfd/IB3EAAAAACNAMCJJT/g6N+jo38AQDqRC24PAPADAGyhjZqxAQDgGwHBfiPg7LirTV9PNwAAABScgiXuDgDwBwAsBPj2gUDOAHAGINUZgPsvMcfaZxH+noU/ZwA8hwcAwC8A2Lxjv1eXCAYAAIA0AHBy4e2Ev4fhDwAAABRuwYW7onW3ectNfnweAAAAAOoBwAtzvoaHFOwhNrilfuxBpOcxWN7hcwZArhCkCipNOwvXd5grPjfG+c8EAAAAwGAA8MLMW8SCKE3d8Bp5vwMAPOYHAEC+IIoymdmrd5jLbxjlNAQAAABALQA41fJ509fXCwAIHo0X5T2V/QAAAABFrFTEq7bsMR8ZMslZCAAAAIA4APSPvMIcX/lr09fbg28o+UZlgGf9HQAAAChk5UIe3bLByQ8HAgAAQCUAnJpxoznauQ2/UPaLrKFf+fcAAABAQTtQ0Hs7D5l7J60xt9w923zgm+PNpf84Qv3MAABQbgA4N+at5vSUj5sTi4aYY+0z8QkHfKIyvCV+BwAAAArbwcLuOtRj2nZ1qv7YMcRN5uzD7/HiYjYvPv7X5mhnGz9NrsGRrp1V+z6uBR77+xmkaN8BAAAAhe4gAEQF6trWFwA488SH0DW6RgN1NAAAAAAUSZ0icS2ENccDAPh/1KepH/p2Sz8AAAAAAAAAqTUAALhl4AQq+yOLBgAAACC1+WcRGn8bhlH5AgAvTvgbc6R7lxc/3EQnjNrw0eMAAAAAAOAMQGoN+AIAlV9fc/3359ePSr3+PoYMY3YXcAAAAADzAQBSawAAkP9qIADgbkCGDi8AAACQ2vxDLwbmV9+IAQAAgDqpXye+rBEAAAAAAJwBSK0BAAAA8CXcGGd9UAEAAIDU5k9B1S+o0NcIAAAAQtd4meYHAAAAAABnAFJrAAAAAMoUkKHPFQAAAFKbf+jFwPzqn+EAAAAA6qR+nfiyRgAAAAAAcAYgtQYAAADAl3BjnPVBBQAAAFKbPwVVv6BCXyMAAAAIXeNlmh8AAAAAAJwBSK0BAAAAKFNAhj5XAAAASG3+oRcD86t/hgMAAACok/p14ssaAQAAAADAGYDUGgAAAABfwo1x1gcVAAAASG3+FFT9ggp9jQAAACB0jZdpfgAAAAAAcAYgtQYAAACgTAEZ+lwBAAAgtfmHXgzMr/4ZDgAAAKBO6teJL2sEAAAAAABnAFJrAAAAAHwJN8ZZH1QAAAAgtflTUPULKvQ1AgAAgNA1Xqb5AQAAAADAGYDUGgAAAIAyBWTocwUAAIDU5h96MTC/+mc4ygwAL41/n7mw5FvmQvtYc2HTPealOZ8358dcac4PzQYFz68fRQ0C4SoaAAAAABXhEbb1w9bFNSolAAx/vbmw+V5jXr5gqv6dOWJemvWZTBAAAPhZCy7WZ6NjAgAAAACAo4/UGigfAFxsXu5eVJX78ScuLP5G0xAAAAAAjQa31OsBAAAgtflLiY52/DW8sgHAhWXfiWd98uP+U+alce9uCgIAAH/rwXcvAwAAAACAMwCpNVA2ADCne5MDP+HZC62/BQCopdS15AI8AAAAgFeCdaFoyjyGUgHAQ/8lIeZrP/Vyz0oAAADwyk8BAADAK8GWOXxdmHuZAOCladfUTvuk/zlzFAAAALzyUwAAAPBKsC6EYJnHUCYAOP/gO5JivuZzLx9aCgAAAF75KQAAAHgl2DKHrwtzLxUADL3ImJMHawZ+/D8ubLobAAAAvPJTAAAA8EqwLoRgmcdQNgB4af6t8ZxPfvzis8aeMWjmokB8C4BvAWh5CgAAAAAAHLWk1kDZAMAG+st7JieHfvTsyxdeuSpgk1cEBAAAAADA4yDWGrqlNy3h0G85TauMAHD+/kvMhZV3GvPS2SjyX92+fHyveWnK3zV15B+dLQAAyllLLngoZwC00lugXwAA4yjaREoJANGR/YNvH7js74UN/24urPi+eWnqR8z54a/PFP4WAgAA6rjoOo76AwAEglirCQAA44gKuahtqQEgAgHhLQBAHRdVv/F+AACt9BboFwDAOOIFnffjFx/788xHvNGpb7av3EXwuc2Ppf4MRt77l/bL5SkAgEAQazUBAJSrWF0w51MzvwQACJ8BOHqgFQDgg7gqGgAAtNJboF8AAAAoGgqOr74HABAEgHNj3q5i/EXrhv7c9CoAQCCItZoAANwsqpDN7tjOBQCAIACcnvIJAICjfzUNAABa6S3QLwAAABQOG72HzdlH3gsECEEAHwCkhguv4QrgAgAEglirCQAA89Awj2fbpgEAAgBwZuKH1Y78NHRDn+75FQCgld4C/QIA7hVUWUzu1IwbgYAsEDDsUvPMnlUAQMXRaFlqx6V5AgACQazVBAAAAGiZydHONtM/8s1AQJMQcHLhHYQ/4a+uAQBAK70F+gUAAAAtALD9HmufafpHXgEENAgBp1puMn29Permr6kd+nbDuwAAgSDWagIAcKOIymxm9lsB/aOvBAJSQsALs75s+vp6CX+O/p3QAACgld4C/QIAAIAL8PHMrmXm3Ji3AQF1IOCFuf/ihOm7oBnG4IZ3AQACQazVBADgRhFhZn3mmb1rzIvj/wIISICA/mGvMyeW/oTw56jfOQ0AAFrpLdAvAAAAOAUfvYfN8eU/N/0j3gAI/B4EzjzxIT7tT/A7F/yRbwAAAkGs1QQAAABEhezS9ui+DebMpI+WGgL6R11hnl99L+/3E/7Ohr/1DABAK70F+gUAAACXgj8+lufXDTdnH3p3uUBg2KXm1NM3m6Od25w2/vi+4nE5vQQAEAhirSYAgHIWrV9m3Wueax1vzkz8+6BB4Nzoq8zJRUMIfo74vQI/AEArvQX6BQAAAJ9g4Jndy80LM28x/cP/IBgYePHR95vn195njvR0eWX8PumGsebncwCAQBBrNQEA5FcYmE5+a3ukq2Pg/fHTU681/SMu9w4Gzo672pyc/21zbHsLoc8Rv9caAAC00lugXwAgv5ACAApa255u82zbFHNy3rfM2Uf+zEkY6B/xRnN66j+Y46vvMUf3b/ba8NF1Qbr2BIwAAIEg1moCAKCYQzN0+w2C59f8zpycd5s5Pflj5tzYPzbnh15cGBj0j3yTefHxvzL2cr0nlv10AE76eroJfU8CLbR6yHs+AIBWegv0CwAAAHkbhAvtHzl8wNhLDttvFZxc8F1zetr1xt5K98Xxfzlw1uDcA+985cZE919SExT6h19m7Af1zj70J8a+b3/miQ8OAMYLs241x1f8wjy7daI5eqCVoCfoS6UBAEAgiLWaAAAAABcC2qUxWFiwX8F7Zu9ac3T/JnOka5fp6z1UKlN3aX8wFrc9CgDQSm+BfgEAt4sL82P/oAE04LIGAACBINZqAgDAXFw2F8aGPtGA2xoAALTSW6BfAMDt4sL82D9oAA24rAEAQCCItZoAADAXl82FsaFPNOC2BgAArfQW6BcAcLu4MD/2DxpAAy5rAAAQCGKtJgAAzMVlc2Fs6BMNuK0BAEArvQX6BQDcLi7Mj/2DBtCAyxoAAASCWKsJAABzcdlcGBv6RANuawAA0EpvgX4BALeLC/Nj/6ABNOCyBgAAgSDWagIAwFxcNhfGhj7RgNsaAAC00lugXwDA7eLC/Ng/aAANuKwBAEAgiLWaAAAwF5fNhbGhTzTgtgYAAK30FugXAHC7uDA/9g8aQAMuawAAEAhirSYAAMzFZXNhbOgTDbitAQBAK70F+gUA3C4uzI/9gwbQgMsaAAAEglirCQAAc3HZXBgb+kQDbmsAANBKb4F+AQC3iwvzY/+gATTgsgYAAIEg1moCAMBcXDYXxoY+0YDbGgAAtNJboF8AwO3iwvzYP2gADbisAQBAIIi1mgAAMBeXzYWxoU804LYGAACt9BboFwBwu7gwP/YPGkADLmsAABAIYq0mAADMxWVzYWzoEw24rQEAQCu9BfoFANwuLsyP/YMG0IDLGgAABIJYqwkAAHNx2VwYG/pEA25rAADQSm+BfgEAt4sL82P/oAE04LIGAACBINZqAgDAXFw2F8aGPtGA2xoAALTSW6BfAMDt4sL82D9oAA24rAEAQCCItZoAADAXl82FsaFPNOC2BgAArfQW6BcAcLu4MD/2DxpAAy5rAAAQCGKtJgAAzMVlc2Fs6BMNuK0BAEArvQX6BQDcLi7Mj/2DBtCAyxoAAASCWKsJAABzcdlcGBv6RANuawAA0EpvgX4BALeLC/Nj/6ABNOCyBgAAgSDWagIAwFxcNhfGhj7RgNsaAAC00lugXwDA7eLC/Ng/aAANuKwBAEAgiLWaAAAwF5fNhbGhTzTgtgYAAK30FugXAHC7uDA/9g8aQAMuawAAEAhirSYAAMzFZXNhbOgTDbitAQBAK70F+gUA3C4uzI/9gwbQgMsaAAAEglirCQAAc3HZXBgb+kQDbmsAANBKb4F+AQC3iwvzY/+gATTgsgYAAIEg1moCAMBcXDYXxoY+0YDbGgAAtNJboF8AwO3iwvzYP2gADbisAQBAIIi1mgAAMBeXzYWxoU804LYGAACt9BboFwBwu7gwP/YPGkADLmsAABAIYq0mAADMxWVzYWzoEw24rQEAQCu9BfoFANwuLsyP/YMG0IDLGgAABIJYqwkAAHNx2VwYG/pEA25rAADQSm+BfgEAt4sL82P/oAE04LIGAACBINZqAgDAXFw2F8aGPtGA2xoAALTSW6BfAMDt4sL82D9oAA24rAEAQCCItZoAADAXl82FsaFPNOC2BgAArfQW6BcAcLu4MD/2DxpAAy5rAAAQCGKtJgAAzMVlc2Fs6BMNuK0BAEArvQX6BQDcLi7Mj/2DBtCAyxoAAASCWKsJAABzcdlcGBv6RANuawAA0EpvgX4BALeLC/Nj/6ABNOCyBgAAgSDWagIAwFxcNhfGhj7RgNsaAAC00lugXwDA7eLC/Ng/aAANuKwBAEAgiLWaAAAwF5fNhbGhTzTgtgYAAK30FugXAHC7uDA/9g8aQAMuawAAEAhirSYAAMzFZXNhbOgTDbitAQBAK70F+gUA3C4uzI/9gwbQgMsaAAAEglirCQAAc3HZXBgb+kQDbmsAANBKb4F+AQC3iwvzY/+gATTgsgYAAIEg1moCAMBcksylp6fHrFy9rtCf1WvXm/UbN5vNW7aardu2m/adHWbX7j1m3/4D5tChQyZpnHk819vXZ1av25Db3Ndt2FTYXOz6bG/fkdtcVq5ZZ7oL3Dd57G/azOaBAIBWegv0CwBkE3+o5mEDd/zEqU79TGuZZRYuWT4ACR27dpvDhw/nFqQrVq/Nde4WbIrQTk9vr5k8/enc5jJn/qJC5lHEWtFHc14IAAgEsVYTAEBzog/dLFwEgDiQPD5xqmmZPc9s2NQqfobAHtU+OXV6bsE5b9HSQoJz85a23OZg98eevfsKmUfo9ebz/AAArfQW6BcAAACSzMcHAKgEggmTnzKLlq4w9sxA0nyaeW7N+o25huf+/QfExlprfk89PTu3OdizMbX65fny+AoAIBDEWk0AAOUp1EZM2TcAqISB6TPniIDA4Z4eM+mp/E6fL1m+MtcA3ba9PbfwnzBpmjnQ2Znr+BvRK6/V8zEAQCu9BfoFAPQKx2XT8hkALAzYtwfs+/j2w4xZ1nnj5i35hejkp0xXV1em8Q02t6fnzM9t7MtXrslt3IPNif9zz68AAIEg1moCAHCvoFwwOd8BIDojYE+B796zt+mw6u3tNVNbZuUWpPZT9Hns7527duc25ienTDfd3d25jDuPtaDNfD0OANBKb4F+AYB8i8NX8wkFAAbOBkyaZra0bWs6sLa2bc8vTKdOz+XbDHMXLM5tzGvWbWh6LX2tB8Zd2ycBAIEg1moCAKgt7DIXfUgAEEGAva5As/t0xqy5uQXquo2y1wXYu29/bmO1n4mwn41odh35u/D8BgDQSm+BfgGA8ApSwmRDAwALAU9Mmd702wHtO3bmFqr2e/r2rQaJ/WbbWLR0eW5j3dS6RWycUvOlHV0PAwAEglirCQBAt3hcNa8QAcBCwKRpLWb/gea+fjdr3sLcgrV1a5tIsHZ2HjSPT5qWyzintcwWBRVXtc+4GvNEAEArvQX6BQAaE3tZzCFUALAQYIO8mf1or95n/z6Pn6dmzmlqTPF5LFu5Opfx2Tm3bWsXGWN8zDz224MAAIEg1moCAPC7+PIyz5ABwIbZtvYdTYXZ/EVLcwvY7e07mxpTpIHu7kPmiclP5TI++5XCqB+2eEalBgAArfQW6BcAoJgrizn6PXQAsF8PbOZ9d3tjorxOsc+auyBTyNobGOVxdsK2ubNjV6axRbpiG57fAAACQazVBAAQXkFKmGzoAGBDzV7kp5m1WrxsRW5B2+xNguwn8ydOm5HLuOYuXNzUOjWztvyNf34EAGilt0C/AIB/BVeESZYBAOyn75tZy86DB42990AeR9v2LYZmxmRviJTHeOwVFe3XCpsZE39TDm8BAASCWKsJAKAcRdqoGZcBAGxgNns3u+Wr1uQWuI1+S8G+lTFlxsxcxmNvsNSodnh9uTwFANBKb4F+AYByFWtacy4LAKzdsLGpgLMfuLOXxM3jqHvJ8lUNjal167ZcxmHPctizHWk1w+vK6SUAgEAQazUBAJSzaOuZdV4AMHXGLGM/SBf/saeZ7cV27PvyK1evM3NyvJRtZWg3+5VAu372kriVbUn9boO3qyv9tfbt3Q+l+q5sx95MqZ5O+H/8AwDQSm+BfgEACjjJxPMCgGlPz04dKvYmPnlefMeGnf1E/+HDh1OPqXKt7N9Neqoll/BdlfImQdtzukLhk1NnmO5Dh5pal8o14vfw/QUAEAhirSYAgPALtBkTdgEAonHn+fU2CwE7MtwjYMPmfD58ZwM4DZjYrw5WHrVL/d7sWyPRPmNbHl8BALTSW6BfAKA8hdqIKbsEAPZDbi2z5+USdDYws1yG147Nvq0hFbyV7azfuHnQI/C8rkxovx3Rww1/Bl37Rmop9NcCAAJBrNUEAAAAJBmUSwBgx7dv//7cLsBTL2iT1qfyOXur4crglvp9yvSZg16saF5OVyXcvGUr4deHL1RqfLDfAQCt9BboFwCg0JOK2zUAsGO0N6ORCtfKdlamfL89aZ2i5/K6XXCtsxP2Q5SVc5D6/amn5wwKHdF82eIbkQYAAIEg1moCAKCQo0Ku3LoIAPMWLskl9BYvW5n5iDevD+PZT/hX7pfodztmqdCvbKfZeyRE42JbPj8BALTSW6BfAKB8BZvGpF0EAPu1tMqwkvp93qIliSGbZp0qX5PXB/Ls1yMr+znY1WUm5HDL35kZ70VQOUZ+L4+vAAACQazVBABQnkJtxJRdBIB1GzflAgBz5i96TcA2sk6Vr83rQ3nxaxXkBULN3oegcg34vXx+AgBopbdAvwBA+Qo2jUm7CAD2CnlSR/2V7SxYskwEAOy65vU2hb0mgm3f7pcncrgCodRZkDTa4jVheQ4AIBDEWk0AAGEVo5S5uggA9hR1ZXBL/b5s5WoxANi3b7+xN9CRGlvUzvzFr9wkaO36jeJt24sh2Q8VSmmHdsrlKQCAVnoL9AsAlKtY05qziwAwcWo+t7u1FxpKuy5pXmdvoBMFt9Q2uitfHlceXLI8+4cg06wLrwnTawAAgSDWagIACLMos5qtawBgb0ojFabxduzV/LKuV+Xfd3bmc7tge12A+NizPrb3HTh4sEt0/pVrwe/h+wsAoJXeAv0CAOEXaDMm7BoALFi8TDz8ovDcum27eADmdbvgaMxSW4lrIDSjL/4mHN8BAASCWKsJACCcQpQ0VZcAoG17e27hb4N0Z8cucQDo7u7O5cN6UsFv27FvqRw61NyNkCS1Rlt+exAAoJXeAv0CAH4XX17m6QoA2DvS5fG+dxSkWe4GWG/t876JUTSHZrdZL4Fcb/78fzm8BQAQCGKtJgCAchRpo2bsAgDYC+BMa8nnRjtRaOZ58ZuB2wVPy+d2wdH4m93azxNwwx9qv1FfSHo9AKCV3gL9AgCYQFJRawLAgc6DJq8b3cQDc43wNwDia7lhUz63C47Po9HHte4xEB8/j/GHehoAAASCWKsJAIACTyrwvABgyoyZxl5xrvKnbVu7sUG8cMlyY2+qk8dlbmsFZN5Xv+sZuF2w/Kf3a80nzfPTZ841vdztTvxzH0l1VIbnAACt9BboFwAAAJJMKi8ASBNQRb3mySnTC7nznT3aLmpOafqxNy5K2uc8hxc0owEAQCCItZoAACj6pKIvAwDYC/YkzV36OXu0be/qlyac835N/L4C0nOlvfL5CQCgld4C/QIA5SvYNCYdOgDYT/8fONBZCADY9d7evsMJAIjuKZBGA7wGb0ijAQBAIIi1mgAAKPKkIg8dADQuf5vXvQzSnjWI7ieQtL95Dh9oVgMAgFZ6C/QLAFD4SYUfMgDYy9/aSwsnzTvP5zp27VY7C2DPeOw/wA1/8ty/ZW0bABAIYq0mAAAAIMm4QgYAybv/Ja3dYM/NXbhEBQKWrlhVOPAMtg78Xzi+AwBopbdAvwBAOIUoaaqhAsC0ltnGXl1Qcq0aaWtvTrcLHuxtgCemTDddXdzwp5H9xGvT+yIAIBDEWk0AAOmFXiZTCBEA7LXvXTgNnsftggcDgFVr16sBT5lqpqxzBQC00lugXwAAAEgyrtAAwF5caOeu3U4Eob3SYVEXO5o0rcXYSxIn7WOeo/YlNAAACASxVhMAACaQZAKhAYBrl761n0MY7Khd6v/spYiT9i/PUfdSGgAAtNJboF8AACNIMoJQAMB+4n/zlq3OhWBXAbcLnjpjlrGXIk7avzxH3UtpAAAQCGKtJgAAjCDJCEIAAHvN+3379zsbgKvXrs/1LMCWtm3Ozj1JczznpxcBAFrpLdAvAOBn0eVtlr4DgD3F7vrtbvO8XbC9qVLeGqF9vMNqAAAQCGKtJgAAijjJyH0FgJbZ84xPN7vJ6yxAUfc5SNIOz5XLUwAArfQW6BcAKFexpjVnnwDAXuVu/qKlxl5pL+38XHnd+o2bc3kbAACgrovSOAAgEMRaTQAAGEWSUfgAAFOmzzTLV60xBzqLu6lP0lpleQ4AoP6y6MeFvwUAtNJboF8AAANKMhHXAMAe5dvT+/a9/a3btpuDB8O4sh0AQP0l1Z9PzwEAAkGs1QQAgAElmU1eAPDklOnGnp5O+rHXq1+5Zp1Zt2HTwFf32ra3m50du8yevfuCvZgNAED9JdWfT88BAFrpLdAvAIABJZlNXgAw7enZ3r1Pn7Q+Us8BANSflJa02gEABIJYqwkAAANKMg4AoBhdAADFrHOSxnlOZu0BAK30FugXAJApgtDMBAAoRhcAQDHrHFp9ujQfAEAgiLWaAAAwoCQzAQCK0QUAUMw6J2mc52TWHgDQSm+BfgEAmSIIzUwAgGJ0AQAUs86h1adL8wEABIJYqwkAAANKMhMAoBhdAADFrHOSxnlOZu0BAK30FugXAJApgtDMBAAoRhcAQDHrHFp9ujQfAEAgiLWaAAAwoCQzAQCK0QUAUMw6J2mc52TWHgDQSm+BfgEAmSIIzUwAgGJ0AQAUs86h1adL8wEABIJYqwkAAANKMhMAoBhdAADFrHOSxnlOZu0BAK30FugXAJApgtDMBAAoRhcAQDHrHFp9ujQfAEAgiLWaAAAwoCQzAQCK0QUAUMw6J2mc52TWHgDQSm+BfgEAmSIIzUwAgGJ0AQAUs86h1adL8wEABIJYqwkAAANKMhMAoBhdAADFrHOSxnlOZu0BAK30FugXAJApgtDMBAAoRhcAQDHrHFp9ujQfAEAgiLWaAAAwoCQzAQCK0QUAUMw6J2mc52TWHgDQSm+BfgEAmSIIzUwAgGJ0AQAUs86h1adL8wEABIJYqwkAAANKMhMAoBhdAADFrHOSxnlOZu0BAK30FugXAJApgtDMBAAoRhcAQDHrHFp9ujQfAEAgiLWaAAAwoCQzAQCK0QUAUMw6J2mc52TWHgDQSm+BfgEAmSIIzUwAgGJ0AQAUs86h1adL8wEABIJYqwkAAANKMhMAoBhdAADFrHOSxnlOZu0BAK30FugXAJApgtDMBAAoRhcAQDHrHFp9ujQfAEAgiLWaAAAwoCQzAQCK0QUAUMw6J2mc52TWHgDQSm+BfgEAmSIIzUwAgGJ0AQAUs86h1adL8wEABIJYqwkAAANKMhMAoBhdAADFrHOSxnlOZu0BAK30FugXAJApgtDMpKenx6xeu178Z8OmVhPaWmWZz67de8TX2O63bdvbWec+ajuLNtP+LQAgEMRaTQAAmETaQud1aAUNoIG4BgAArfQW6BcAoKDjBc1jNIEG0EBaDQAAAkGs1QQAQKGnLXReh1bQABqIawAA0EpvgX4BAAo6XtA8RhNoAA2k1QAAIBDEWk0AAK4iURsAAAO9SURBVBR62kLndWgFDaCBuAYAAK30FugXAKCg4wXNYzSBBtBAWg0AAAJBrNUEAEChpy10XodW0AAaiGsAANBKb4F+AQAKOl7QPEYTaAANpNUAACAQxFpNAAAUetpC53VoBQ2ggbgGAACt9BboFwCgoOMFzWM0gQbQQFoNAAACQazVBABAoactdF6HVtAAGohrAADQSm+BfgEACjpe0DxGE2gADaTVAAAgEMRaTQAAFHraQud1aAUNoIG4BgAArfQW6BcAoKDjBc1jNIEG0EBaDQAAAkGs1QQAQKGnLXReh1bQABqIawAA0EpvgX4BAAo6XtA8RhNoAA2k1QAAIBDEWk0AABR62kLndWgFDaCBuAYAAK30FugXAKCg4wXNYzSBBtBAWg0AAAJBrNUEAEChpy10XodW0AAaiGsAANBKb4F+AQAKOl7QPEYTaAANpNUAACAQxFpNAAAUetpC53VoBQ2ggbgGAACt9BboFwCgoOMFzWM0gQbQQFoNAAACQazVBABAoactdF6HVtAAGohrAADQSm+BfgEACjpe0DxGE2gADaTVAAAgEMRaTQAAFHraQud1aAUNoIG4BgAArfQW6BcAoKDjBc1jNIEG0EBaDQAAAkGs1QQAQKGnLXReh1bQABqIawAA0EpvgX4BAAo6XtA8RhNoAA2k1QAAIBDEWk0AABR62kLndWgFDaCBuAYAAK30FugXAKCg4wXNYzSBBtBAWg0AAAJBrNUEAEChpy10XodW0AAaiGsAANBKb4F+AQAKOl7QPEYTaAANpNUAACAQxFpNAAAUetpC53VoBQ2ggbgGAACt9BboFwCgoOMFzWM0gQbQQFoNAAACQazVBABAoactdF6HVtAAGohrAADQSm+BfgEACjpe0DxGE2gADaTVAAAgEMRaTQAAFHraQud1aAUNoIG4BgAArfQW6BcAoKDjBc1jNIEG0EBaDQAAAkGs1QQAQKGnLXReh1bQABqIawAA0EpvgX4BAAo6XtA8RhNoAA2k1QAAIBDEWk0AABR62kLndWgFDaCBuAYAAK30FugXAKCg4wXNYzSBBtBAWg0AAAJBrNUEAEChpy10XodW0AAaiGsAANBKb4F+AQAKOl7QPEYTaAANpNUAACAQxFpNAAAUetpC53VoBQ2ggbgGAACt9BboFwCgoOMFzWM0gQbQQFoNAAACQazVBABAoactdF6HVtAAGohrAADQSm+BfgEACjpe0DxGE2gADaTVAAAgEMRaTQAAFHraQud1aAUNoIG4BkIHgP8Hc9h9DZT4eGkAAAAASUVORK5CYII=;" vertex="1" parent="1">
          <mxGeometry x="1201.88" y="280" width="58.12" height="58.12" as="geometry" />
        </mxCell>
        <mxCell id="q41vTv1glD9lVKqyJohb-164" value="GeneraciÃ³n de Documento" style="swimlane;whiteSpace=wrap;html=1;" vertex="1" parent="1">
          <mxGeometry x="1570" y="440" width="190" height="120" as="geometry" />
        </mxCell>
        <mxCell id="q41vTv1glD9lVKqyJohb-177" value="" style="shape=image;verticalLabelPosition=bottom;labelBackgroundColor=default;verticalAlign=top;aspect=fixed;imageAspect=0;image=data:image/png,iVBORw0KGgoAAAANSUhEUgAAAgAAAAIACAYAAAD0eNT6AAAAAXNSR0IArs4c6QAAIABJREFUeAHtnduXZEWd75mHwzz47Jr5J+Y8zPtZa6gGHTwyjpeuokFURFS8gLpwUEZQUdBBdMDDcFAZUURA+iAKyEWhuTQ3uxu5tN10N3Y3WVVZu0AFKut+yzgrsnvTm+yKqoy9I/aOiN+n1+qVWbuqdkZ84xPf7zez8nLCCfxLWoHJycm3tdqTp7UmJj7XamdXttqTN7cmsm2tdrav1c46o+1M8R8NYKAZBh59cucjSRsQk0MBFKhXgSzL3j7WnjxnrJ3dPdrO5jH3Zswd3dF9IwZ+dd9DihJQrz9yayiQnAJ79uw5cXQ8O2+0nW0fbWerGxkP3yecYKB5BnQBoAQkZ8dMCAXqUUAp9Tej7ckto+PZQQy9eUNnDVgDGwbyAkAJqMcvuRUUSEaBl8cnh0bb2S4bw+FnCSgYCIeBYgGgBCRjzUwEBfwpcPjVV/9+dDy7FyMPx8hZC9aiDAP9BYAS4M83OTMKRK/Ay+32P462s7EyZsPvEFIwEBYDaxUASkD0Ns0EUMC9Aq3xbPNoO5vFxMMycdaD9SjLgKkAUALc+ydnRIEoFdBP9Gu1s6+NtrNuWaPh9wgpGAiPgfUKACUgSrtm0CjgTgEd/mPj2U2Yd3jmzZqwJlUZ2KgAUALceSlnQoHoFBhrZ1+tajL8PkEFA2EyMEgBoAREZ9sMGAWqK9Aazz7Aw/5hGjeByrq4YGDQAkAJqO6nnAEFolHg6LP9ecIfn1XAZzUkzIBNAaAERGPfDBQFyivQe50/L/Uj+BIOPhf3nlM4h20BoASU91V+EwWiUODoh/gQgAQgDCTOQJkCQAmIwsYZJArYKzA2lv1TCvdsmAN/I4eBjRkoWwAoAfbeym+gQNAK9D7YZzzbgXFubJxohEYpMFClAFACgrZzBocCdgqMtidHUjA15kA4w8BgDFQtAJQAO4/lp1EgSAX27NlzIh/pO5hpEi7olAoDLgoAJSBIS2dQKDC4AqPj2XmpmBrzIKBhYDAGXBUASsDgXstPokBwCoy2s+2Y5mCmiU7olAoDLgsAJSA4W2dAKLCxAlmWvX20na2mYmrMg4CGgcEYcF0AKAEb+y0/gQJBKTDWnjwHwxzMMNEJnVJiwEcBoAQEZe8MBgXWV4A3/iHUUgo15jI4z74KACVgfc/luygQhAKTk5NvG21n85jm4KaJVmiVCgM+CwAlIAiLZxAoYFag1Z48LRUzYx4EMwzYMeC7AFACzN7Ld1CgcQVaExOfwzTtTBO90CsVBuooAJSAxm2eAaDA2gq02tmVqZgZ8yCYYcCOgboKACVgbf/lKAo0qkCrPXkzpmlnmuiFXqkwUGcBoAQ0avXcOAocr0BrItuWipkxD4IZBuwYqLsAUAKO92COoEBjCrTa2T5M08400Qu9UmGgiQJACWjM7rlhFHirAq121knFzJgHwQwDdgw0VQAoAW/1Yb5CgUYUwDDtDBO90CslBposAJSARiyfG0WBYwqkZGbMhXCGATsGmi4AlIBjXsw1FKhdAQzTzjDRC71SYiCEAkAJqN32uUEUOKJASmbGXAhnGLBjIJQCQAkgkVCgAQUwTDvDRC/0SomBkAoAJaCBAOAmZSuQkpkxF8IZBuwYCK0AUAJk5xGzr1kBDNPOMNELvVJiIMQCQAmoOQS4ObkKpGRmzIVwhgE7BkItAJQAuZnEzGtUAMO0M0z0Qq+UGAi5AFACagwCbkqmAimZGXMhnGHAjoHQCwAlQGYuMeuaFMAw7QwTvdArJQZiKACUgJrCgJuRp0BKZsZcCGcYsGMglgJACZCXTcy4BgUwTDvDRC/0SomBmAoAJaCGQOAmZCmQkpkxF8IZBuwYiK0AUAJk5ROz9awAhmlnmOiFXikxEGMBoAR4DgVOL0eBlMyMuRDOMGDHQKwFgBIgJ6OYqUcFMEw7w0Qv9EqJgZgLACXAYzBwahkKpGRmzIVwhgE7BmIvAJQAGTnFLD0pgGHaGSZ6oVdKDKRQACgBnsKB06avQEpmxlwIZxiwYyCVAkAJSD+rmKEHBTBMO8NEL/RKiYGUCgAlwENAcMq0FUjJzJgL4QwDdgykVgAoAWnnFbNzrACGaWeY6IVeKTGQYgGgBDgOCU6XrgIpmRlzIZxhwI6BVAsAJSDdzGJmDhXAMO0ME73QKyUGUi4AlACHQcGp0lQgJTNjLoQzDNgxkHoBoASkmVvMypECGKadYaIXeqXEgIQCQAlwFBacJj0FUjIz5kI4w4AdA1IKACUgvexiRg4UwDDtDBO90CslBiQVAEqAg8DgFGkpkJKZMRfCGQbsGJBWACgBaeUXs6moAIZpZ5johV4pMSCxAFACKoYGv56OAimZGXMhnGHAjgGpBYASkE6GMZMKCmCYdoaJXuiVEgOSCwAloEJw8KtpKJCSmTEXwhkG7BiQXgAoAWnkGLMoqQCGaWeY6IVeKTFAAXhIUQJKhge/Fr8CKZkZcyGcYcCOAQrAkQJACYg/y5hBCQUwTDvDRC/0SokBCsCxAkAJKBEg/ErcCqRkZsyFcIYBOwYoAG8tAJSAuPOM0VsqgGHaGSZ6oVdKDFAAji8AlADLEOHH41UgJTNjLoQzDNgxQAFYuwBQAuLNNEZuoQCGaWeY6IVeKTFAATAXAEqARZDwo3EqkJKZMRfCGQbsGKAArF8AKAFx5hqjHlABDNPOMNELvVJigAKwcQGgBAwYJvxYfAqkZGbMhXCGATsGKACDFQBKQHzZxogHUADDtDNM9EKvlBigAAxeACgBAwQKPxKXAimZGXMhnGHAjgEKgF0BoATElW+MdgMFMEw7w0Qv9EqJAQqAfQGgBGwQKnw7HgVSMjPmQjjDgB0DFIByBYASEE/GMdJ1FMAw7QwTvdArJQYoAOULACVgnWDhW3EokJKZMRfCGQbsGKAAVCsAlIA4co5RGhTAMO0ME73QKyUGKADVCwAlwBAuHA5fgZTMjLkQzjBgxwAFwE0BoASEn3WMcA0FMEw7w0Qv9EqJAQqAuwJACVgjYDgUtgIpmRlzIZxhwI4BCoDbAkAJCDvvGF2fAhimnWGiF3qlxAAFwH0BoAT0hQxfhqtASmbGXAhnGLBjgALgpwBQAsLNPEZWUADDtDNM9EKvlBigAPgrAJSAQtBwNUwFUjIz5kI4w4AdAxQAvwWAEhBm7jGqowpgmHaGiV7olRIDFAD/BYASQNwGq0BKZsZcCGcYsGOAAlBPAaAEBBuBsgeGYdoZJnqhV0oMUADqKwCUANlZG+TsUzIz5kI4w4AdAxSAegsAJSDIGJQ7KAzTzjDRC71SYoACUH8BoATIzdvgZp6SmTEXwhkG7BigADRTACgBwUWhzAFhmHaGiV7olRIDdz/wsKIEUAJkph+zPiElM2MuhDMM2DFw/7btFID7misAPBJACDeqAIZpZ5johV4pMfDQ9qcpAA0XAEpAoxEo+8ZTMjPmQjjDgB0Djz21iwIQQAGgBMjO4cZmj2HaGSZ6oVdKDDy16zkKQCAFgBLQWAzKveGUzIy5EM4wYMfAruf3UAACKgCUALlZ3MjMMUw7w0Qv9EqJgd0vHqAABFYAKAGNRKHMG03JzJgL4QwDdgy8PNZWd92/jRJACZAZgNJnjWHaGSZ6oVdqDDz8xA4KQIAFgEcCpKdzDfNPzcyYDwENA3YMPLv7RQpAoAWAElBDCEq+CczSzizRC71SY+BQa5wCEHABoARITmjPc0/NzJgPAQ0D9gw8+NhTlABKgOe04fTBKYBZ2pslmqFZagw888JeCkDgBYBHAoKLz/gHlJqRMR/CGQbsGWiNT6j7HuJzAXTIhv7/0Sd3PhJ/8jCDIBTALO3NEs3QLEUGnt+zP/jwCz2c6xofJSCI+Ix/ECkaGXMioGGgHAO/e/RJSkAEjwLookEJiD9/G58BRlnOKNEN3VJkYO+BgxSASAoAJaDx+Ix/ACmaGHMinGGgPAOP8MZAUZUgHgmIP4cbmwFGWd4o0Q7tUmRAvy/AvQ89FlUI1vW391BvhxLQWITGfcMpGhhzIphhoBoD+w8eVnc98DAlgD8HxB1wjH59BTDKakaJfuiXKgMv7OVVAaHe4zeNi0cC1s87vtunQKrmxbwIZhiozsDv//ACjwJE9CiALgaUgL6Q40uzAphkdZNEQzRMmYHHnt5FCaAEmEOE78SrQMrGxdwIZhhwwwCPBIT/DoH9fxbgkYB4c7m2kWOQbgwSHdExdQb0cwJ4YmBcRYASUFuUxnlDqZsW8yOYYcAdA/v+dFj95kFeIth/bzvkrykBcWZzLaPGHN2ZI1qipQQGDrbG1MO8WVBUz4ugBNQSp/HdiATDYo4EMwy4Z2DP/j+p3/LZAdEUAUpAfPnsfcQYo3tjRFM0lcSA/hRBPko4jucGUAK8R2pcNyDJqJgrwQwDfhhojU+oZ17Yqx587Klo7hGH/Hd7n2OjBMSV0V5HiyH6MUR0RVepDOjPEnh294u95wncdf82CkGA7yFACfAaq/GcXKpJMW8CGgb8M/DyWFvtfvGA2vX8HvXUrufUY0/tUg9tf1rdv227upvPGmi0HFEC4slpbyPFBP2bIBqjMQyszcDelw6rHc/v439DGngLFk4chwIY09rGhC7oAgP1MEAJaK4AxZFSjNKbAphcPSaHzugMA2YGKAHNlABvwcKJ41AAUzKbEtqgDQzUxwAloP4SEEdKMUpvCmBw9RkcWqM1DKzPACWg3hLgLVg4cRwKYEjrGxL6oA8M1MsAJaC+EhBHSjFKbwpgbvWaG3qjNwxszAAloJ4S4C1YOHEcCmBGG5sRGqERDNTPACXAfwmII6UYpTcFMLb6jQ3N0RwGBmOAEuC3BHgLFk4chwIY0WBGhE7oBAPNMEAJ8FcC4kgpRulNAUytGVNDd3SHgcEZoAT4KQHegoUTx6EAJjS4CaEVWsFAcwxQAtyXgDhSilF6UwBDa87Q0B7tYcCOAUqA2xLgLVg4cRwKYEB2BoRe6AUDzTJACXBXAuJIKUbpTQHMrFkzQ3/0hwF7BigBbkqAt2DhxHEogPnYmw+aoRkMNM8AJaB6CYgjpRilNwUwsuaNjDVgDWCgHAOUgGolwFuwcOI4FMB4yhkPuqEbDITBACWgfAmII6UYpTcFMLEwTIx1YB1goDwDlIByJcBbsHDiOBTAdMqbDtqhHQyEwwAlwL4ExJFSjNKbAhhYOAbGWrAWMFCNAUqAXQnwFiycOA4FMJxqhoN+6AcDYTFACRi8BMSRUozSmwKYV1jmxXqwHjBQnQFKwGAlwFuwcOI4FMBsqpsNGqIhDITHACVg4xIQR0oxSm8KYFzhGRdrwprAgBsGKAHrlwBvwcKJ41AAo3FjNOiIjjAQJgOUAHMJiCOlGKU3BTCtME2LdWFdYMAdA5SAtUuAt2DhxHEogMm4Mxm0REsYCJcBSsDxJSCOlGKU3hTAsMI1LNaGtYEBtwxQAt5aArwFCyeOQwEMxq3BoCd6wkDYDFACjpWAOFKKUXpTALMK26xYH9YHBtwzQAk4UgK8BQsnjkMBzMW9uaApmsJA+AxQAvapOFKKUXpTAKMK36hYI9YIBvwwIL0EeAsWThyHAhiLH2NBV3SFgTgYkFwC4kgpRulNAUwqDpNinVgnGPDHgNQS4C1YOHEcCmAq/kwFbdEWBuJhQGIJiCOlGKU3BTCoeAyKtWKtYMAvA9JKgLdg4cRxKICh+DUU9EVfGIiLAUklII6UYpTeFMCc4jIn1ov1ggH/DEgpAd6ChRPHoQBm4t9M0BiNYSA+BiSUgDhSilF6UwBjis+YWDPWDAbqYSD1EuAtWDhxHApgJPUYCTqjMwzEyUDKJSCOlGKU3hTAlOI0JdaNdYOB+hhItQR4CxZOHIcCmEh9JoLWaA0D8TKQYgmII6UYpTcFMKR4DYm1Y+1goF4GUisB3oKFE8ehAAZSr4GgN3rDQNwMpFQC4kgpRulNAcwobjNi/Vg/GKifgVRKgLdg4cRxKIB51G8eaI7mMBA/AymUgDhSilF6UwAjit+IWEPWEAaaYSD2EuAtWDhxHApgHM0YB7qjOwykwUDMJSCOlGKU3hTAhNIwIdaRdYSB5hiItQR4CxZOHIcCmEZzpoH2aA8D6TAQYwmII6UYpTcFMKB0DIi1ZC1hoFkGYisB3oKFE8ehAIbRrGGgP/rDQFoMxFQC4kgpRulNAcwnLfNhPVlPGGiegVhKgLdg4cRxKIBZNG8WrAFrAAPpMRBDCYgjpRilNwUwnvSMhzVlTWEgDAZCLwHegoUTx6EARhGGUbAOrAMMpMlAyCUgjpRilN4UwHTSNB3WlXWFgXAYCLUEeAsWThyHAphEOCbBWrAWMJAuAyGWgDhSilF6UwDDSddwWFvWFgbCYiC0EuAtWDhxHApgEGEZBOvBesBA2gyEVALiSClG6U0BzCZts2F9WV8YCI+BUEqAt2DhxHEogDmEZw6sCWsCA+kzEEIJiCOlGKU3BTCa9I2GNWaNYSBMBpouAd6ChRPHoQDGEKYxsC6sCwzIYKDJEhBHSjFKbwpgMjJMhnVmnWEgXAaaKgHegoUTx6EAphCuKbA2rA0MyGGgiRIQR0oxSm8KYDByDIa1Zq1hIGwG6i4B3oKFE8ehAIYQtiGwPqwPDMhioM4SEEdKMUpvCmAussyF9Wa9YSB8BuoqAd6ChRPHoQBmEL4ZsEasEQzIY6COEhBHSjFKbwpgLPKMhTVnzWEgDgZ8lwBvwcKJ41AAI4jDCFgn1gkGZDLgswTEkVKM0psCmIpMU2HdWXcYiIcBXyXAW7Bw4jgUwATiMQHWirWCAbkM+CgBcaQUo/SmAIYi11BYe9YeBuJiwHUJ8BYsnDgOBTCAuAyA9WK9YEA2Ay5LQBwpxSi9KYCZyDYT1p/1h4H4GHBVArwFCyeOQwE2f3ybnzVjzWAABlyUgDhSilF6UwAjwUhgAAZgIE4GqpYAb8HCieNQgI0f58Zn3Vg3GIABzUCVEhBHSjFKbwpgIpgIDMAADMTNQNkS4C1YOHEcCrDx4974rB/rBwMwoBkoUwLiSClG6U0BzAPzgAEYgIE0GLAtAd6ChRPHoQAbP42NzzqyjjAAA5oBmxIQR0oxSm8KYBqYBgzAAAykxcCgJcBbsHDiOBRg46e18VlP1hMGYEAzMEgJiCOlGKU3BTALzAIGYAAG0mRgoxLgLVg4cRwKsPHT3PisK+sKAzCgGVivBMSRUozSmwKYBCYBAzAAA2kzYCoB3oKFE8ehABs/7Y3P+rK+MAADmoG1SkAcKcUovSmAOWAOMAADMCCDgf4S4C1YOHEcCrDxZWx81pl1hgEY0AwUS0AcKcUovSmAKWAKMAADMCCLgbwEeAsWThyHAmx8WRuf9Wa9YQAGNAO6BMSRUozSmwKYAWYAAzAAAzIZ8BYsnDgOBdj4Mjc+6866wwAMxJFSjNKbApgAJgADMAADMhnwFiycOA4F2PgyNz7rzrrDAAzEkVKM0psCmAAmAAMwAAMyGfAWLJw4DgXY+DI3PuvOusMADMSRUozSmwKYACYAAzAAAzIZ8BYsnDgOBdj4Mjc+6866wwAMxJFSjNKbApgAJgADMAADMhnwFiycOA4F2PgyNz7rzrrDAAzEkVKM0psCmAAmAAMwAAMyGfAWLJw4DgXY+DI3PuvOusMADMSRUozSmwKYACYAAzAAAzIZ8BYsnDgOBdj4Mjc+6866wwAMxJFSjNKbApgAJgADMAADMhnwFiycOA4F2PgyNz7rzrrDAAzEkVIBjFKdeurfTo0MndoZPun6N4aHHp0aGTowNTw0PTU8pPiPBjAAAzBQPwNvnPUu9fqnz1B//fKn1J+vvlxNPHi/Gm2NKsrNYOUmgGgNewgzWzb93dTI0HVTw0MdNnj9GxzN0RwGYMCGAV0K/nzNFWps3z6KQHv9IhB2+jY4OrV584lTwyddwr18zMfGfPhZeIGBMBjQReCVG69To6NjFAFDEWgwYsO96d69/uGhx9nIYWxk1oF1gAEYKMvAaxd9kkcDKACDFY6ZzSf/w9TwSaNlYeP3MCoYgAEYCIuB1z++WbV37eCRgL4iMFgqCvmpI/f8CX/MKyzzYj1YDxiozoAuATwv4K3PCRAS7RtP88jf/HnYH6OpbjRoiIYwECYD+s8BPCfgWAnYOBmF/MTRJ/zxkj5e1ggDMAADCTPQe2Jg30PhUl82KCTe15/m0Sf98Zr+hDc998jCvEfGurAudTOgXx3AnwKOPAqwfjIK+e7R1/nT+ikAMAADMCCAAf0+AVLv9RfnLSTizdPsvcMfb/KD6QkwvbrvaXF73LsPlQH9KADvGJgpczIK+Y5+e99QIWVcGCgMwAAM+GGg97bBwp8LICTmzdPU7+3PBvOzwdAVXWEABkJlQH92QPHhcInXzcko5Du9D/bh4V/+BAADMAADohjQHyAkMfSLcxYS8+ZpHv1UP1Hgh9rIGRf3FmEABupiQH+KYDEMJV43J6OQ7/BhPxhOXYbD7cAaDITDQO+JgDwHQEjSG6bJhgxnQ7IWrAUMwECdDEi811+csyEW5RyuEzZuC3ODARiAgXAYKIahxOtykt4wUzZjOJuRtWAtYAAG6mRAYugX52yIRTmH64SN28LcYAAGYCAcBophKPG6nKQ3zJTNGM5mZC1YCxiAgToZkBj6xTkbYlHO4Tph47YwNxiAARgIh4FiGEq8LifpDTNlM4azGVkL1gIGYKBOBiSGfnHOhliUc7hO2LgtzA0GYAAGwmGgGIYSr8tJesNM2YzhbEbWgrWAARiokwGJoV+csyEW5RyuEzZuC3ODARiAgXAYKIahxOtykt4wUzZjOJuRtWAtYAAG6mRAYugX52yIRTmH64SN28LcYAAGYCAcBophKPG6nKQ3zJTNGM5mZC1YCxiAgToZkBj6xTkbYlHO4Tph47YwNxiAARgIh4FiGEq8LifpDTNlM4azGVkL1gIGYKBOBiSGfnHOhliUc7hO2LgtzA0GYAAGwmGgGIYSr8tJesNM2YzhbEbWgrWAARiokwGJoV+csyEW5RyuEzZuC3ODARiAgXAYKIahxOtykt4wUzZjOJuRtWAtYAAG6mRAYugX52yIRTmH64SN28LcYAAGYCAcBophKPG6nKQ3zJTNGM5mZC1YCxiAgToZkBj6xTkbYlHO4Tph47YwNxiAARgIh4FiGEq8LifpDTNlM4azGVkL1gIGYKBOBiSGfnHOhliUc7hO2LgtzA0GYAAGwmGgGIYSr8tJesNM2YzhbEbWgrWAARiokwGJoV+csyEW5RyuEzZuC3ODARiAgXAYKIahxOtykt4wUzZjOJuRtWAtYAAG6mRAYugX52yIRTmH64SN28LcYAAGYCAcBophKPG6nKQ3zJTNGM5mZC1YCxiAgToZkBj6xTkbYlHO4Tph47YwNxiAARgIh4FiGEq8LifpDTNlM4azGVkL1gIGYKBOBiSGfnHOhliUc7hO2LgtzA0GYAAGwmGgGIYSr8tJesNM2YzhbEbWgrWAARiokwGJoV+csyEW5RyuEzZuC3ODARiAgXAYKIahxOtykt4wUzZjOJuRtWAtYAAG6mRAYugX52yIRTmH64SN28LcYAAGYCAcBophKPG6nKQ3zJTNGM5mZC1YCxiAgToZkBj6xTkbYlHO4Tph47YwNxiAARgIh4FiGEq8LifpDTNlMw6+GTsfOU3NfvOLauG2H6ulpx5Ryzsfr/f/jsfV0vYH1eI9W9XCLT9Sc9ddqWa/fbGa+fJ5qnP2vyjWcvC1RCu0goEhJTH0i3M2xKKcw2yCjY1QB//Skw8r1e2qYP91u2rlpRfVwh03q5mvfV5NnfGOqArB9KfPULPfuUQt/OJGtfCrW+v9f+ctamHrTWr+5h+o+RuuVnPXfkvNXnWpmrn0AtU59/1R6ehiP3c+OaxmL7tQzf/3NWpBa1P3elS9vVt+1GNp+vMfUVNb4toHLtbP5hzFMJR4XU7SG2ZqA4vEn5350ifV6mQ72Nw3Day7MK+Wn/29mvvu19TUyKZgQ2zu+5er1b+8appGEMe7szNq5U/71NJjv1PzP7teaSZC1rTUPt1ySi/wu1OvB6G5s0GsLKvF392tOue8N9g9UGq9hje+4zLIeSWGfnHOhliUc3gQSKT+zPQXzlZqacmZFzV1otXxlpr7r2+rqS2nBGOC+t7Zyr7dTUlS+Xa7Mx21/Pvtav7H31edT2wORtcye3XmK59Rq2MvV9Yk5BN0Z6bV/I/+M+p1KrO2G/1OMQwlXpeT9IaZbgSI5O8v73kuZE+zHtvqq5O9e3lTZ/5zo0aoH1YP/V6/lbirq2r5mafU3FVfje5PL7q8dDtvWE035h+eveKiRtkPzU8lhn5xzoZYlHM4NCBDGY9+aDrVf/oRgekvfLQZIzzjHVHf89+ICR2mC7feoKbOfGcz+to8NDyySS0/v2ujKSX1/e5rf1Gdj74n/LWxWccKP1sMQ4nX5SS9YaahBG5o41hJ7N5/v4t3FxZ6T3arW/f5G6/tH0qSX69OTqjZKy8JOmhmv/XlJLXfaFILd/ws6HWpc09KDP3inA2xKOdwnbDFdFv6b4YS/i0+eI+q808C+qFySf+Wn9+pes9Gr3Avzde+Wdj6U0lL8eZcl5/bQQE4ymMxDCVel5P0hpn6MpeYz6tfkibp38rhl1Tn4x/wb4qnn6y6c7OSpD0yV/1M9Lu3qs6H3+1fY4uisbzrSXlroZTSr3SI2Z9cjl1i6BfnbIhFOYddwpTKufTr6KX9Wzm4T3XOOtWrMfZeVSFN2MJ8u2+8puau+aZXjW324Go2XhidrKuds94VzDrYrJnrny2GocTrcpLeMFPXQKVwvlmBBUDbv35Zm8/Xt8/828dlpYxhtr0nCVrcU/e1p/SrQiT+W30lI/z5E0DvXRANsSjnsC9zifm8UguADoPFu2/3Zo4UgGNxq/8k4LNsDbL/pBYA/Tbeg+gj4Wck3usvzlkTmW/nAAAfgklEQVRO0htmKgFy2zlKLgA6ony9YQoF4FgB0NeWHnlATZ1+cmNhJLUAzP/we41pbutFvn++GIYSrxtiUc5h34DFeH7pBUCtrHh5nwAKwFsLgP5qeecTtb4Ko7gfJRYA/YTXJktXUf8QrksM/eKc5SS9YaYhQBjaGMQXAB1Mzzzl/F4SBeD4AqCP6PecaOIVAuIKQLerZi7+lHOuQ/Mvm/EUw1DidUMsyjlsA4uUn6UAHAmq3qcKOnyyGgVg7QLQKwEH9tT+yXWiCsDSUu+THqV42KDzlBj6xTnLSXrDTAcFRdLPuSgA+tPj5n/yX87/L9x+o1p66Ddq+dkdqvv6X82J4uA7+uOFXa47BWD9RVm48+dO9d5o7aQUAP3W15q9jfSQ+P1iGEq8bohFOYclQr/RnF0UgN4TvBzee15zzCOb1Myl56vFe7Yq/el0Pv7Nfe/rzozTRQFY/uOzvTct0m9c5PL/9AUfUvoRj7mrv6Hmf3qdWrzrF2pp+4Nq5dABH7KufU79EPWlFzjTe01mCkwmWwBWVpT+W79+l8u566/y/v4WG+kc8vclhn5xznKS3jDTkOFsamzRFICCmevPO1/87V1Kdbtrh0vJo/rNYly9XM1JAWjgbVynP3umWrjlR71QKSnjwL+mQ7nzkdNqKQFVC4D+REeXJczVuep8a+umPMrV7RbDUOJ1QyzKOewKpJTOE2MByPWf+fJ5zv80MHPJ+U4CKdYCkGurL/UjBQu3/8TrWxrrRx6Kt+nreuUC8OpkLeP0NX/OO9R7MxyJwZ/PWU7SG2bKJhg6zsRiLgB6PfVnGei/e7r65+pv0ykUgHy/dD6xWS09sc2VxMedp463DKYAHL/38/WVcpkHodRLQyzKOSwFdJt5xl4A9Fw75/yr0m956uLfauvQcSXJRs/8Z1MqAPmcZr9xoVqdGHMh81vOoT+Ncvq8ESe652Ptv6QAUACkBn8+bzlJb5hpvynw9ZBKoQDodewF7tLiW4Kl7BfTnzq9chilWAB6++XMd6rF++4sK63x95YefaCy5uvtZwoABSAPQqmXhliUc3g9g5D6vVQKgF4//ba+Lv7N33B15TBKtgAcfTLm4q9vcyH1sXOsLKvOJ4cr627axxQACoDU4M/nLSfpDTM1mYPk4ykVAP0M/tWxw8dCpeQ1F+8MmHoB0HtGP1/C5T9dKnztRQoABSAPQqmXhliUc9iXucR83qQKwPCQ0q/lr/qvOzdbOYgkFIBeCfh/N1WV+83f188F6Hzof1fWfq39SAGgAEgN/nzecpLeMNO1jEH6sdQKQO9RgInxN0Ol7JXOWe+qFERSCoDeP0tPPFxW5uN+T7+jpI89SQGgAORBKPXSEItyDvswltjPmVwBGB5Si3ffflyw2B6Y/swZlYJIUgHQb8zUnXrdVuI1f14HtY9PsKMAUACkBn8+bzlJb5hp7GHtY/wpFoDZyy5cM1xsDs5c/GkKQOHdFzdiz8WfXvL1mbv6skrarzVWCgAFIA9CqZeGWJRzeC1jkH4sxQIwdcY7lFpezvOk1OXslV+pFEKSHgHI99DS04+W0rr/l1b27a6kfT6e4iUFgAIgNfjzectJesNMi4bA9SOGkGQBGB5SVQ1ff7BKFUYkFoDOue9XysV7Mayuqs6H311J//61q8qD/v3+c/J1XKUiD0Kpl4ZYlHOYDXv8hk21AKy8tLf/jqXV1wu33lDJ8CUWAL2/9Bv6uPg3++2LK+nfv9cpAMfv/X6NUv9aavDn85aT9IaZpg54mfmlWgCWdz5eKYcWf3NHpQCSWgD0cydc/Fu8e2sl/fv3AgWAApAHodRLQyzKOdxvCnydzlsB96/l8vO7KuXQwp23VAogqQVAr8PKoQOVtNe/rD/jvn9Nq3xNAaAASA3+fN5ykt4w0yoGkurvpvoIwOrYy5VCqOrr0SUXgLnrv1NJ+94vd7uqc/Z7nJUACgAFIA9CqZeGWJRzONUQrzKvVAuAfje/Kv/mrv5GpfCRXAD0u/mplZUq8vd+d/Y7l1Rag+K+oABQAKQGfz5vOUlvmGnRELh+xBBSLAAzX/pk9fD5+hcqhY/kAqD31srB/ZXXYPHeas/DKO5xCgAFIA9CqZeGWJRzuGgIXE+3ACzc8bPK4TP9+Y9QACzeCKh/Py3e98vKa7BycF+lNSiOiQJAAZAa/Pm85SS9YaZFQ+B6ogVAfyLgeKty+HQ+Wu3vz9IfAdDv5lf1X/evfw6mAOg/KelXhjT5f+FXt6q5q76qOh97nzNdJPlgHoRSLw2xKOewJNgHnWtqfwLQf7uv/G9lubLBSi8A0+eNVF4GtbRUeR3yfVD1EYDqk3F7Bl1yZ6+61Jk+uU4pX0oN/nzecpLeMNOU4S47t6QKwJZ3qNXJdmWnXdm/p7KxSi8AmsfuG9U/IMjVOwKmVgByyJcevs/5uyaW9ZLQfy8PQqmXhliUczh0QJsYX0oFYGGrm8+mX/j5DykAFf7+n3Nc9aWYOuSqfirjm2N5dTLPzOQuVycnVOecf63MbK5VqpdSgz+ft5ykN8w0VbCrzCuVAqA/vEd1u07MveoTAPV68AjAkFrZ/8fK6zFz8aecBFuqjwDkAi/veNyJTlW8JPTfzYNQ6qUhFuUcDh3QJsaXQgHQYVv1df+5ka5OjDkxUgrAkFr+w9O5rKUvZ7/1ZSfrkXoB0ALP/+C7TrRqwofquE2pwZ/PW07SG2ZaB2Sx3UbsBWD2iotUd36udMD0/+Lir29zYqIUgCG1tP3Bfnmtv5679ttO1kNCAdAleGrLKU70is3HBhlvHoRSLw2xKOfwIJBI+5loC8CWU9T8Tf/XyTvOFVNp5pLznRgoBWBILT7wq6K0pa7P//Q6J+shoQBogWf+/TNO9ErRB6UGfz5vOUlvmGmKUFedU4wFYPaKLzl5rX9/IumXVk2NbHJioBQANx8NPP+j/3SyHlIKgIsnsFb1lFB/Pw9CqZeGWJRzOFQwmxxXLAVg+gtnq4WtP1UunlneH/z51y4/g54CMKSWn9+ZS1v6Ur/xjYv9IaUALD2xzYleLjQP7RxSgz+ft5ykN8w0NCBDGI+LArD6l1fV8s7H3f//47NqNRtXanGhdIAM+ovLu59xapwUgCG10jo4qPzGn5u59AIn6yKlAMz/7HoneoXgTa7HkAeh1EtDLMo57BqoFM7nogAY3TuWb3S7auaL5zo1TgqAmzcCcvGSTL1PpRSAmQs/5pTjFDwun4PU4M/nLSfpDTPNQeDy2AeDUACUWtp2r3PTFF8ATj/ZyfsyVP1MhnyvSygAq2OHnXOc65fCZR6EUi8NsSjncAoQu56D9ALQnZlWnU9sdm6c0guAvude+d/KirMnZaZeALqdKTX92Q8659i13zR5PqnBn89bTtIbZtokfKHetugCsLys9Px9rI30AqCfvV/1X/eN15ytTdIFYGlJuXquhI+9EMo58yCUemmIRTmHQwExpHGILQDdrpq75pvOAqZ/TaUXgKUnHq6a/2q1dcjZ+qRaAPRbAE9f8CFnOvVznNLXUoM/n7ecpDfMNCWYXc1FagGYv/kHXk1TegHovvaXygVAlwhXnCdTAFZWei+F1drMeHr0ypXmoZ0nD0Kpl4ZYlHM4NCBDGI/EArB4/6+cBYtpDSUXAH2P1MU/V28CpNeoagHQhUavaZP/9XthTJ35Tu/smpiO/bjU4M/nLSfpDTONHWAf4xdVALpdtfDLnzt7Ytl66yG5AMzfdJ2L/FeuXgKo16lqAdC/v956871jrywKVYs8CKVeGmJRzuFQwWxyXFIKQHfqdTV7+UW1mbjYAnD6yWr1laxyAei+/lena0UBCD+gffug1ODP5y0n6Q0z9Q1YjOeXUABW9j7v5aV+66231AKg37rXxT+Xf//X60QBoADkQSj10hCLcg6vZ9hSv5dyAeguLPQ+P2Dq9JOd3pschBWpBWDlxd0u8l+5/Ps/BYDw1wxIDf583nKS3jDTQYxb2s+kWAC6szO9v/V3Pva+2oM/50diAZj50nlOwl+fxOXf//Wa8AgAJSAPQqmXhliUczg3Zy6PmUFKBaD7xutq4ZYbVOfD724s+HO2xBWAkU1qefcfnBQA13//pwAc2+85nxIvpQZ/Pm85SW+YqUToN5pz7AVgdbKtFn93t5r73tfV1AdPbTz4c72lFYD5/77GSfjrkyzes9X5OvIIACUgD0Kpl4ZYlHM4N2cuj5lBNAVgeVnpjx1eOXRALT3+kJq7/jtq+tNbnAeFKzYkFQD9HvTdhXk3BWB11cu6UgCO7XlXjMd2HqnBn89bTtIbZhobsHWM10UBWH7hGTV7xUVu/19+kZq59Pze25x2zv6XYIPetEZiCsDIJuXqiX+6QSw96e7d/4prQwGgAORBKPXSEItyDhcNgetHDMFFAVh65IHoAtr3+kspAAtbf+rmnv/Rs8xc/CkvLFEAKABSgz+ft5ykN8zUt+nHeH4KgB9jlFAAFm69wWn4r+zb7SX89b6kAPjhPCbPy4NQ6qUhFuUcjgnWusZKAfBjjKkXgIXbfuw0/PXJZq+6lAIw7IfHuvwk5NuRGvz5vOUkvWGmIcPZ1NgoAH4MN+UCsHD7jc7DX7+aY2pkEwWAAuCNgTwIpV4aYlHO4aZCNuTbpQBQAAbls3Pu+9TS9gedh78+oX5Vx6DjKPNz/AnAD+dl1qKp35Ea/Pm85SS9YaZNgRfy7VIA/BhjUo8AjGxS8z/8nurOdLyE//KzO7yGv95/FAA/nIfsbf1jy4NQ6qUhFuUc7geCr4cUBcCPMaZSAGYu/Jha2b/HS/Drk3Y7U7V8UBMFwA/nMXmo1ODP5y0n6Q0zjQnWusZKAfBjjDEXgM4nNqv5G689Evzdrrfw1yee++7XvN/713uJAuCH87p8ysXt5EEo9dIQi3IOu4AotXNQAPwYYzQFYGST0h+apMerP4FvZc9zSnkO/bxRLD1a3/tHUAD8cB6TH0oN/nzecpLeMNOYYK1rrBQAP8boogDotz7Wn3Pg+v/SE9t67963+kqm1PJynse1XupArvNDmygAfjivy6dc3E4ehFIvDbEo57ALiFI7BwXAjzG6KAC1JnKdN9btqpmvfb6Wh/7z/UoB8MN5rm8Ml1KDP5+3nKQ3zDQGSOseIwXAjzFSAAyNottV+pMD6+acAuCH87rXscrt5UEo9dIQi3IOV4En1d+lAPgxRgrAGgWg21Vz111Ze/jrvUsB8MN5TL4oNfjzectJesNMY4K1rrFSAPwYIwWgrwCsLKu5qy9rJPwpAH4Yr8ujXN1OHoRSLw2xKOewK5BSOg8FwI85UgAKBWBpSc3+x783Fv56v/IIgB/OY/JCqcGfz1tO0htmGhOsdY2VAuDHGCkARwpAd2FezX7jwkbDnwLgh/G6PMrV7eRBKPXSEItyDrsCKaXzzHzx3MJdtXJXF++9o3GDD21NKACq99bBM5ecHwQbPAJACZAa/Pm85SS9YaahhUQQ49lyilJLi+WS/+hv6feJD2IuAX2SWufjH6ikadS/3O2qpUceUJ1z3x8MFysvvVhJ0pWD+4KZC3utXJnJg1DqpSEW5Rxm46y9caqa48ylF2COa5SP3hvtVIqd+H555fBLauYrnw2Oh8UHfl1JzKVt9wY3J/xsbT8z6SI1+PN5y0l6w0xNYEg/XtUcOx99D+a4RgHw9dG5lZLM0y/rTwqcv+EaNTWyKUgW9McNV/k3/5Nrg5yXdO+ymX8ehFIvDbEo57ANLJJ+dvr8s1R3fq6UP+qQk6SVzVyrhk6pBan7l/TD/Q/dqzrnvDdoDvSfZPQnD5b6t7Sopj/7waDnZ8Ol1J+VGvz5vOUkvWGmUsEfZN5z1/2HtTd2pzuqc+77MMY17v33NB/ZpJZ3PWmtawy/0J2b7X1GgX4S6SB8hfAzs1deUkrahdt+HM0cQ9A51DHkQSj10hCLcg6HCmYo41p6+L7BDVK/q9v/uQJjNIX/0eP6A29Wxw4PrmvIP9nt9j5ESL+bX+esd0W59ov3bLVSeOXgfjW15R1RzjUUXwllHFKDP5+3nKQ3zDQUEEMeh/58dv0pdOv904E2c/GnMcUNwj9fZ/1s+MX7fln51RbrrYmv761m42rxt3epuau+qjpnp/Fcj9nLLty4lHW7avGuX6ipM/8ZzgfkPOc91Ms8CKVeGmJRzuFQwQxtXPre3fyN16qlR3+rVluHes8PWDl0QOlHCPRnxk+dwT2iMmvW+cRmtXDHzWr5mafU6nhLqaUlX7m98XlXlnuv01/98ytqdexltfLS3t6fK3To6ecu6GfyJ/3kzi2nqLnvX94L+d56ZOOq+/pf1fJzO9TCnT+n4CYS+sV9KjX483nLSXrDTIswcN3uJTTohV4wAAMxM5AHodRLQyzKORwzvIwd84UBGICB8gxIDf583nKS3jBTNk/5zYN2aAcDMBAzA3kQSr00xKKcwzHDy9gxXxiAARgoz4DU4M/nLSfpDTNl85TfPGiHdjAAAzEzkAeh1EtDLMo5HDO8jB3zhQEYgIHyDEgN/nzecpLeMFM2T/nNg3ZoBwMwEDMDeRBKvTTEopzDMcPL2DFfGIABGCjPgNTgz+ctJ+kNM2XzlN88aId2MAADMTOQB6HUS0MsyjkcM7yMHfOFARiAgfIMSA3+fN5ykt4wUzZP+c2DdmgHAzAQMwN5EEq9NMSinMMxw8vYMV8YgAEYKM+A1ODP5y0n6Q0zZfOU3zxoh3YwAAMxM5AHodRLQyzKORwzvIwd84UBGICB8gxIDf583nKS3jBTNk/5zYN2aAcDMBAzA3kQSr00xKKcwzHDy9gxXxiAARgoz4DU4M/nLSfpDTNl85TfPGiHdjAAAzEzkAeh1EtDLMo5HDO8jB3zhQEYgIHyDEgN/nzecpLeMFM2T/nNg3ZoBwMwEDMDeRBKvTTEopzDMcPL2DFfGIABGCjPgNTgz+ctJ+kNM2XzlN88aId2MAADMTOQB6HUS0MsyjkcM7yMHfOFARiAgfIMSA3+fN5ykt4wUzZP+c2DdmgHAzAQMwN5EEq9NMSinMMxw8vYMV8YgAEYKM+A1ODP5y0n6Q0zZfOU3zxoh3YwAAMxM5AHodRLQyzKORwzvIwd84UBGICB8gxIDf583nKS3jBTNk/5zYN2aAcDMBAzA3kQSr00xKKcwzHDy9gxXxiAARgoz4DU4M/nLSfpDTNl85TfPGiHdjAAAzEzkAeh1EtDLMo5HDO8jB3zhQEYgIHyDEgN/nzecpLeMFM2T/nNg3ZoBwMwEDMDeRBKvTTEopzDMcPL2DFfGIABGCjPgNTgz+ctJ+kNM50aHppmA5XfQGiHdjAAAzEy8NpH36vyIJR6aYhFOYenRoYOxAgvY8Z0YQAGYKA8A69e/BkKgJyoX3umbwwPPcomKr+J0A7tYAAGYmRg/HuXUwDWjkU5RzvDJ10fI7yMGdOFARiAgfIMHLr9VgqAnKhfe6ZTI0OnsonKbyK0QzsYgIEYGXhh57MUgLVjUc5Rdeqpfzs1PNSJEWDGjPHCAAzAgD0Dr53zXrXz+X0UADlRb57p1MjQdWwi+02EZmgGAzAQIwMHt96mdlAAlDkVBX1nZsumv+PlgBhZjEbGmOEWBuwY0C//2/XCPgpAO6MA5D1navikS9hIdhsJvdALBmAgNgb2339/L/x5BIACkOf/CWrz5hOnhocejw1mxosBwwAMwMBgDExcdVnvb/86/CkAFIA3C4C+cuRPASeNspkG20zohE4wAAOxMPDnL3zszYf+KQBZ7wmQbwlAvjjhhJnNJ//D1DAlIJZNzTgJIBiAgY0Y0OH/7HN733zonwJAATD2naNPCuTPAcMYy0bGwvdhBAbCZkA/7J8/6S8P/vxS6mcA5PM2hqD0bxx5TkDviYF8WBBFQGHyYZs868P69DOgn+2vn/CnX++fB37/ZR6EUi+l5/yG8+89GnDkfQJ4syCKAEUABmAgcAb0m/zo1/mb7vUXS4DU4M/nvWEA8gNHFOi9Y+DI0Kn6swN6HyB05FMEeXQgcDPov1fA19xThIF0GND38vWn+ukP9tHv7a/f3ne9e/zF8NfX8yCUekm+C1egf0PwtfnhQrRBGxhIh4GdL+ynAAjPP/HTx9DSMTTWkrWEgcEZeOaPBygA4hNQuAAYxuCGgVZoBQPpMPDc3j9RAITnn/jpY2jpGBpryVrCwOAM/HH/IQqA+AQULgCGMbhhoBVawUA6DLx0eIwCIDz/xE8fQ0vH0FhL1hIGBmNAPwGwNX7k3fCkvgJAz1t8AEoXAMMYzDDQCZ1gIB0GePiftwKWnv29+WNq6Zgaa8lawsDGDOh7/y+PTYh/+J9HAKgAJ2AYGxsGGqERDKTDwN6XXib82zwCQPyfcAIFYJ33Ccf00zF91pK11Aw8t/cl1ToafpL/9p/PnRAUrgDGiDHCAAxIYOCZ3Qd46L+v/AiPP6YvYeMzRwIOBmQzoMP/UGuch/4pAIR+UQGMUbYxsv6sf+oM6If9edLf2i95LGYB1wUqkPrmZ34EHAzIZEA/218/4Y+/+a8d/rwKQGDg908Zc5Rpjqw7654qAzr49ev8uddvDn6eBNifhEK/TtUEmBcBBwPpM6DDXn+qn/5gHx36+u19eYe/jYOfAiA08PunnYPA5eCbBq3QCgZgIAUG+vOAr4UpkALEzAEzhgEYgAF7BoTFHdPtV4BNY79p0AzNYAAGUmCgPw/4WpgCKUDMHDBjGIABGLBnQFjcMd1+Bdg09psGzdAMBmAgBQb684CvhSmQAsTMATOGARiAAXsGhMUd0+1XgE1jv2nQDM1gAAZSYKA/D/hamAIpQMwcMGMYgAEYsGdAWNwx3X4F2DT2mwbN0AwGYCAFBvrzgK+FKZACxMwBM4YBGIABewaExR3T7VeATWO/adAMzWAABlJgoD8P+FqYAilAzBwwYxiAARiwZ0BY3DHdfgXYNPabBs3QDAZgIAUG+vOAr4UpkALEzAEzhgEYgAF7BoTFHdPtV4BNY79p0AzNYAAGUmCgPw/4WpgCKUDMHDBjGIABGLBnQFjcMd1+Bdg09psGzdAMBmAgBQb684CvhSmQAsTMATOGARiAAXsGhMUd0+1XgE1jv2nQDM1gAAZSYKA/D/hamAIpQMwcMGMYgAEYsGdAWNwx3X4F2DT2mwbN0AwGYCAFBvrzgK+FKZACxMwBM4YBGIABewaExR3T7VeATWO/adAMzWAABlJgoD8P+FqYAilAzBwwYxiAARiwZ0BY3DHdfgXYNPabBs3QDAZgIAUG+vOAr4UpkALEzAEzhgEYgAF7BoTFHdPtV4BNY79p0AzNYAAGUmCgPw/4WpgCKUDMHDBjGIABGLBnQFjcMd1+Bdg09psGzdAMBmAgBQb684CvhSmQAsTMATOGARiAAXsGhMUd0+1XgE1jv2nQDM1gAAZSYKA/D/hamAIpQMwcMGMYgAEYsGdAWNwx3X4FWu2sw8ax3zhohmYwAAMxM6C9vz8P+FqYAq12ti9miBk7JgwDMAAD9gxo7xcWd0y3X4HWRLaNzWO/edAMzWAABmJmQHt/fx7wtTAFWu3Jm2OGmLFjwjAAAzBgz4D2fmFxx3T7FWi1syvZPPabB83QDAZgIGYGtPf35wFfC1OgNTHxuZghZuyYMAzAAAzYM6C9X1jcMd1+BVrtydPYPPabB83QDAZgIGYGtPf35wFfC1NgcnLybaPtbD5mkBk7RgwDMAADVgzMa+8XFndMdy0FxtrZ3Wweq82j0Au9YAAGYmVAe/5aWcAxgQqMtSfPiRVkxo0JwwAMwIAdA9rzBUYdU15LgSzL3j7azlbZRHabCL3QCwZgIEIGVrXnr5UFHBOqwGg72x4hyDwU38aA4RYGYMCKge1CY45pmxQYHc/OYxNZbSLKB+UDBmAgPgbGs/NMOcBxoQrs2bPnxNHx7CAlgBIAAzAAA4kyMJ4d1F4vNOaY9noKjLYnR9j4iW587qnFd0+NNWPNnDMwObJeBvA9wQoopf5mdDzbQQmgBMAADMBAYgyMZzu0xwuOOKa+kQJjY9k/sfET2/jO70WgD3sEBmJjQHv7Rv7P91HgBN4YCHOLzdwYL8zCgJkB3viHYB9YgcOvvvr3o+1sjA1l3lBogzYwAAORMDCmPX3gAOAHUeDldvsfR9vZbCSA82QhHuaHARiAgeMZmNVeTqKhgLUCrfHsA6PtrEsJ4J4ODMAADETHQFd7uLXx8wsokCsw1s6+ysaPbuNzT+j4e0JogiaiGNDenfs4lyhQSgH9spGx8ewmSgAlAAZgAAbiYEB7Ni/5KxV5/FK/Ar0S0M4u5c8BcWx+TJp1ggGxDHT1PX/Cvz/F+LqyAmMTE+8bbWczmItYcxH1ECqcw3lkDMzyN//KMccJ1lNgbOyV/znWzl6ObGMQXPz9FwZgIGUGxni2/3rJxfecKaA/S3q0PXknJYB7SDAAAzDQLAP6TX54nb+zeONEgyowOjHxv0bb2dMYQLMGgP7oDwMCGRjPdvD2voOmFT/nTYHWeDY8OpH9CRMSaEI8rJzyw8rMLUS+ex/bPjnCE/28RRontlVg1y71P0bHs/NG29n20Xa2ShmgDMAADMCAMwa0pz6mPXbPnj0n2vozP48CtSmgnyMw1p485+iHCs1jAs5MgHtkId4jY0xw6YeBee2h2ku1p9Zm4NwQCrhSYHJy8m2t9uRprYmJz7Xa2ZWt9uTNrYlsW6ud7Wu1sw7lgHIAAzAglQHtgT0v7Hni5M09j+x55eRp2jtd+XCo5/n/Buy3qncOEXkAAAAASUVORK5CYII=;" vertex="1" parent="q41vTv1glD9lVKqyJohb-164">
          <mxGeometry x="60.8" y="39.99999999999999" width="58.12" height="58.12" as="geometry" />
        </mxCell>
        <mxCell id="q41vTv1glD9lVKqyJohb-155" value="" style="group" vertex="1" connectable="0" parent="1">
          <mxGeometry x="1580" y="198.01999999999995" width="156.12000000000012" height="123.97000000000003" as="geometry" />
        </mxCell>
        <mxCell id="q41vTv1glD9lVKqyJohb-156" value="" style="shape=image;verticalLabelPosition=bottom;labelBackgroundColor=default;verticalAlign=top;aspect=fixed;imageAspect=0;image=data:image/png,iVBORw0KGgoAAAANSUhEUgAAAgAAAAIACAYAAAD0eNT6AAAAAXNSR0IArs4c6QAAIABJREFUeAHt3V/I/ns+7/H3ECk5kIZFkpA5se05IcrBiGhzYBGxm3ZR07ZOqB0pGWZkHCAcqL0PJGPvRilzgJSa0pZCInMgyYGcKPkz2xB7bw3L+gwHy7Jq1nXfr+9vva77/bjqqllrrvv9e3+er9f3+j6v+/db92/GAwEEEEAAAQQQQAABBBBAAAEEEEAAAQQQQAABBBBAAAEEEEAAAQQQQAABBBBAAAEEEEAAAQQQQAABBBBAAAEEEEAAAQQQQAABBBBAAAEEEEAAAQQQQAABBBBAAAEEEEAAAQQQQAABBBBAAAEEEEAAAQQQQAABBBBAAAEEEEAAAQQQQAABBBBAAAEEEEAAAQQQQAABBBBAAAEEEEAAAQQQQAABBBBAAAEEEEAAAQQQQAABBBBAAAEEEEAAAQQQQAABBBBAAAEEEEAAAQQQQAABBBBAAAEEEEAAAQQQQAABBBBAAAEEEEAAAQQQQAABBBBAAAEEEEAAAQQQQAABBBBAAAEEEEAAAQQQQAABBBBAAAEEEEAAAQQQQAABBBBAAAEEEEAAAQQQQAABBBBAAAEEEEAAAQQQQAABBBBAAAEEEEAAAQQQQAABBBBAAAEEEEAAAQQQQAABBBBAAAEEEEAAAQQQQAABBBBAAAEEEEAAAQQQQAABBBBAAAEEEEAAAQQQQAABBBBAAAEEEEAAAQQQQAABBBBAAAEEEEAAAQQQQAABBBBAAAEEEEAAAQQQQAABBBBAAAEEEEAAAQQQQAABBBBAAAEEEEAAAQQQQAABBBBAAAEEEEAAAQQQQAABBBBAAAEEEEAAAQQQQAABBBBAAAEEEEAAAQQQQAABBBBAAAEEEEAAAQQQQAABBBBAAAEEEEAAAQQQQAABBBBAAAEEEEAAAQQQQAABBBBAAAEEEEAAAQQQeGIE3jAzb5qZt87MO1462zs9MdABHdABHdCB2g6ce/W5Z59797mH3/z4wpl538x88KUb/4ueGOiADuiADujA3XXg3MPPvfzc0z/i42Nn5l0z8yFB313QRI2s6oAO6IAOvFoHzj393NvPPf5VH2+cmfe78bvx64AO6IAO6MCT7MC5x597/b97vFfgTzLwV7NB/86nBB3QAR3Y2YFzr/83j/MHBpQBAx3QAR3QAR14+h049/wPPz55Zj5AAAiQDuiADuiADqzowLnnn3v/fJPAVwTO6p++1ctYxjqgA6+1A+fePz9KAAiADuiADuiADqzqwLn3z68JfVXor9UOvc4nCR3QAR14uh049/75WwJAAHRAB3RAB3RgVQfOvX/VgdmsvHVAB3RAB3TgXzpAAEiQDuiADuiADizsgNAXhs5+fQLSAR3QAR0gAARAB3RAB3RABxZ2QOgLQ2f+zF8HdEAHdIAAEAAd0AEd0AEdWNgBoS8Mnfkzfx3QAR3QAQJAAHRAB3RAB3RgYQeEvjB05s/8dUAHdEAH4gLwwZn5M08MdEAHdEAHdCDWgXNvTUtbfOAL58cLeiCAAAIIIIBAjMC5txKAGE6DEEAAAQQQuA8CBOA+crIlAggggAACUQIEIIrTMAQQQAABBO6DAAG4j5xsiQACCCCAQJQAAYjiNAwBBBBAAIH7IEAA7iMnWyKAAAIIIBAlQACiOA1DAAEEEEDgPggQgPvIyZYIIIAAAghECRCAKE7DEEAAAQQQuA8CBOA+crIlAggggAACUQIEIIrTMARyBN44M/9pZr53Zn56Zt7tiYEOfLgDPzgzXzszn5673G6a9NEz8x9m5ltm5icuzORHZuYbZ+azb9rutb+YALx2Vl6JwDMh8NaZ+eMLfkZ3+md+m5f/OeqY3s70/EVx3zkzH/UMrs4j5T87M3/3OlyfH5iZH56ZjwuekwAEYRqFwGMIfOrM/MLr8MbipnP7TQezPma/8dLN+XMfcwF+hK89n8T/ouD6/MOZ+eKPsOtr/b8JwGsl5XUIXEjgP87MMXw3Fgx04OEd+PuZ+coLrtP/XnZt/uNLfyXyuXk/9kEAHkvQ1yPwSAIfMzO/V/YG4yb08JsQdq8vuz+dmU985DX58i//mtJr8//OzJtevugD/jcBeAA0X4JAksD3lb7BuJG9vjcy/B/O/3+FLtBPeumT9vkzBq1Z/NbMnD+Q+NAHAXgoOV+HQIDA58zMPxS/wbS+8dmr96bUks1XBK7Pn7qDa/PbHnFOAvAIeL4UgccS+NY7eINpeUO3h5v+LR348cdenDNzfjvhll/z9XjtLz/inATgEfB8KQKPJfCTd/AG83q8qfk1+2887Rn9+iMvzufu5No8v0Xx0AcBeCg5X4dAgMD77+RNpv3N3n6E4ZUdOP+t/mN+f/yr7uja/LQHvhcRgAeC82UIPJbAG2bm/9/Rm8wr32D9s5tuewc+6xEX6Xfc0bX5ZQ88JwF4IDhfhkCCwB/c0ZtM+5u9/QjJyzvw/2bm/Ce2D308f0fX5mc+8JAE4IHgfBkCCQL/847eZF7+5up/u9m2d+C3H3mBfsadXJt/9YhzEoBHwPOlCDyWwLffyZtM+5u9/QjJKztwfnrfYx8NP/r3led65T+/7xGHJACPgOdLEXgsgc+fmX8iAfX/qdUr33T9c79wfP1jL86Z+fk7uDbf/ohzEoBHwPOlCCQInL9O1A0FAx3IdeBXEhfmzJzfBvib4uvz/MVAj/nbAQlAqCjGIPBQAh/vr/8lQMU3mXsTk7+emU9/6MX4Kl/3ttJsPjQzX/Qq+97yrwjALbS8FoGLCLzFjwQmAaU3mnsSgPPbaf/lgmv0Fwuz+YHAOQlAAKIRCCQInD8P4G8FzH0b+J5uXHZ9fO5/MjNfmrgQX2XG+YFC313yczvOn/r/z6+y40P+FQF4CDVfg8BFBM5/t/z9vhvguwGFnzibJeX8SO1PuOiafPnYz5uZ330ds/mFmTk/ojj1IAApkuYgECRw/lzAl8zMf5uZ98zMb87M+as/PTHQgZn3/usn8i+fmU8MXnevddT5wTvfMDM/NDPnP8O7KpNfekk23jEzXz0zn/Jal7vhdQTgBlheigACCCCAwFMhQACeSpLOgQACCCCAwA0ECMANsLwUAQQQQACBp0KAADyVJJ0DAQQQQACBGwgQgBtgeSkCCCCAAAJPhQABeCpJOgcCCCCAAAI3ECAAN8DyUgQQQAABBJ4KAQLwVJJ0DgQQQAABBG4gQABugOWlCCCAAAIIPBUCBOCpJOkcCCCAAAII3ECAANwAy0sRQAABBBB4KgQIwFNJ0jkQQAABBBC4gQABuAGWlyKAAAIIIPBUCBCAp5KkcyCAAAIIIHADAQJwAywvRQABBBBA4KkQIABPJUnnQAABBBBA4AYCBOAGWF6KAAIIIIDAUyFAAJ5Kks6BAAIIIIDADQQIwA2wvBQBBBBAAIGnQoAAPJUknQMBBBBAAIEbCBCAG2B5KQIIIIAAAk+FAAF4Kkk6BwIIIIAAAjcQuAsB+JmZ+WZPDHRAB3RAB3Qg1oFzb30x/IwPTC9oXj50TDHVAR3QAR0gAGGjclG5qHRAB3RAB+6hAwSAAOiADuiADujAwg4IfWHo92CmdvQJSgd0QAeu7QABIAA6oAM6oAM6sLADQl8YOqu+1qrxxVcHdOAeOkAACIAO6IAO6IAOLOyA0BeGfg9makefoHRAB3Tg2g4QAAKgAzqgAzqgAws7IPSFobPqa60aX3x1QAfuoQMEgADogA7ogA7owMIOCH1h6Pdgpnb0CUoHdEAHru0AASAAOqADOqADOrCwA0JfGDqrvtaq8cVXB3TgHjpAAAiADuiADuiADizsgNAXhn4PZmpHn6B0QAd04NoOEAACoAM6oAM6oAMLOyD0haGz6mutGl98dUAH7qEDBIAA6IAO6IAO6MDCDgh9Yej3YKZ29AlKB3RAB67tQFwAfmxm3uJZx+DrLhCdt8u5Ludz7b3tgqzPTNd1H4NzDaZvkue9QtZ9DM69NZ11fOAL49FI4LkLyvN840HtNG++IOsz06OPwLkG0zeF817h0Ufg3FvTWccHEoC+4pyNCEBnLldsRQCuoNo5kwB05nLFVgTgCqpLZhKAJUHP+A7AnqiHAOwJmwDsyTp+UgIQR1o70HcAaqOJL0YA4khrBxKA2mj6FyMA/RmlNiQAKZL9cwhAf0apDQlAiuTCOQRgT+gEYE/WBGBP1gRgT9bxkxKAONLagQSgNpr4YgQgjrR2IAGojaZ/MQLQn1FqQwKQItk/hwD0Z5TakACkSC6cQwD2hE4A9mRNAPZkTQD2ZB0/KQGII60dSABqo4kvRgDiSGsHEoDaaPoXIwD9GaU2JAApkv1zCEB/RqkNCUCK5MI5BGBP6ARgT9YEYE/WBGBP1vGTEoA40tqBBKA2mvhiBCCOtHYgAaiNpn8xAtCfUWpDApAi2T+HAPRnlNqQAKRILpxDAPaETgD2ZE0A9mRNAPZkHT8pAYgjrR1IAGqjiS9GAOJIawcSgNpo+hcjAP0ZpTYkACmS/XMIQH9GqQ0JQIrkwjkEYE/oBGBP1gRgT9YEYE/W8ZMSgDjS2oEEoDaa+GIEII60diABqI2mfzEC0J9RakMCkCLZP4cA9GeU2pAApEgunEMA9oROAPZkTQD2ZE0A9mQdPykBiCOtHUgAaqOJL0YA4khrBxKA2mj6FyMA/RmlNiQAKZL9cwhAf0apDQlAiuTCOQRgT+gEYE/WBGBP1gRgT9bxkxKAONLagQSgNpr4YgQgjrR2IAGojaZ/MQLQn1FqQwKQItk/hwD0Z5TakACkSC6cQwD2hE4A9mRNAPZkTQD2ZB0/KQGII60dSABqo4kvRgDiSGsHEoDaaPoXIwD9GaU2JAApkv1zCEB/RqkNCUCK5MI5BGBP6ARgT9YEYE/WBGBP1vGTEoA40tqBBKA2mvhiBCCOtHYgAaiNpn8xAtCfUWpDApAi2T+HAPRnlNqQAKRILpxDAPaETgD2ZE0A9mRNAPZkHT8pAYgjrR1IAGqjiS9GAOJIawcSgNpo+hcjAP0ZpTYkACmS/XMIQH9GqQ0JQIrkwjkEYE/oBGBP1gRgT9YEYE/W8ZMSgDjS2oEEoDaa+GIEII60diABqI2mfzEC0J9RakMCkCLZP4cA9GeU2pAApEgunEMA9oROAPZkTQD2ZE0A9mQdPykBiCOtHUgAaqOJL0YA4khrBxKA2mj6FyMA/RmlNiQAKZL9cwhAf0apDQlAiuTCOQRgT+gEYE/WBGBP1gRgT9bxkxKAONLagQSgNpr4YgQgjrR2IAGojaZ/MQLQn1FqQwKQItk/hwD0Z5TakACkSC6cQwD2hE4A9mRNAPZkTQD2ZB0/KQGII60dSABqo4kvRgDiSGsHEoDaaPoXIwD9GaU2JAApkv1zCEB/RqkNCUCK5MI5BGBP6ARgT9YEYE/WBGBP1vGTEoA40tqBBKA2mvhiBCCOtHYgAaiNpn8xAtCfUWpDApAi2T+HAPRnlNqQAKRILpxDAPaETgD2ZE0A9mRNAPZkHT8pAYgjrR1IAGqjiS9GAOJIawcSgNpo+hcjAP0ZpTYkACmS/XMIQH9GqQ0JQIrkwjkEYE/oBGBP1gRgT9Z3IQAvzownBjqgAzqgAzrQ3QE3a8KiAzqgAzqgAws7IPSFobPybiuXj3x0QAeeRQcIAAHQAR3QAR3QgYUdEPrC0J+FWfo1fILRAR3Qge4OEAACoAM6oAM6oAMLOyD0haGz8m4rl498dEAHnkUHCAAB0AEd0AEd0IGFHRD6wtCfhVn6NXyC0QEd0IHuDhAAAqADOqADOqADCzsg9IWhs/JuK5ePfHRAB55FBwgAAdABHdABHdCBhR0Q+sLQn4VZ+jV8gtEBHdCB7g4QAAKgAzqgAzqgAws7IPSFobPybiuXj3x0QAeeRQcIAAHQAR3QAR3QgYUdEPrC0J+FWfo1fILRAR3Qge4OEAACoAM6oAM6oAMLOyD0haGz8m4rl498dEAHnkUHCAAB0AEd0AEd0IGFHYiH/p6ZecGzjsF3XVDu/yHnupzPtfeuC7I+M13XfQzONZj+pHjeK2Tdx+DcW9NZxwee4nj0EXjugvI833dMG83Mmy/I+sz06CNwrsH0TeG8V3j0ETj31nTW8YEEoK84ZyMC0JnLFVsRgCuods4kAJ25XLEVAbiC6pKZBGBJ0L4DsCfomSEAe+ImAHuyjp+UAMSR1g70HYDaaOKLEYA40tqBBKA2mv7FCEB/RqkNCUCKZP8cAtCfUWpDApAiuXAOAdgTOgHYkzUB2JM1AdiTdfykBCCOtHYgAaiNJr4YAYgjrR1IAGqj6V+MAPRnlNqQAKRI9s8hAP0ZpTYkACmSC+cQgD2hE4A9WROAPVkTgD1Zx09KAOJIawcSgNpo4osRgDjS2oEEoDaa/sUIQH9GqQ0JQIpk/xwC0J9RakMCkCK5cA4B2BM6AdiTNQHYkzUB2JN1/KQEII60diABqI0mvhgBiCOtHUgAaqPpX4wA9GeU2pAApEj2zyEA/RmlNiQAKZIL5xCAPaETgD1ZE4A9WROAPVnHT0oA4khrBxKA2mjiixGAONLagQSgNpr+xQhAf0apDQlAimT/HALQn1FqQwKQIrlwDgHYEzoB2JM1AdiTNQHYk3X8pAQgjrR2IAGojSa+GAGII60dSABqo+lfjAD0Z5TakACkSPbPIQD9GaU2JAApkgvnEIA9oROAPVkTgD1ZE4A9WcdPSgDiSGsHEoDaaOKLEYA40tqBBKA2mv7FCEB/RqkNCUCKZP8cAtCfUWpDApAiuXAOAdgTOgHYkzUB2JM1AdiTdfykBCCOtHYgAaiNJr4YAYgjrR1IAGqj6V+MAPRnlNqQAKRI9s8hAP0ZpTYkACmSC+cQgD2hE4A9WROAPVkTgD1Zx09KAOJIawcSgNpo4osRgDjS2oEEoDaa/sUIQH9GqQ0JQIpk/xwC0J9RakMCkCK5cA4B2BM6AdiTNQHYkzUB2JN1/KQEII60diABqI0mvhgBiCOtHUgAaqPpX4wA9GeU2pAApEj2zyEA/RmlNiQAKZIL5xCAPaETgD1ZE4A9WROAPVnHT0oA4khrBxKA2mjiixGAONLagQSgNpr+xQhAf0apDQlAimT/HALQn1FqQwKQIrlwDgHYEzoB2JM1AdiTNQHYk3X8pAQgjrR2IAGojSa+GAGII60dSABqo+lfjAD0Z5TakACkSPbPIQD9GaU2JAApkgvnEIA9oROAPVkTgD1ZE4A9WcdPSgDiSGsHEoDaaOKLEYA40tqBBKA2mv7FCEB/RqkNCUCKZP8cAtCfUWpDApAiuXAOAdgTOgHYkzUB2JM1AdiTdfykBCCOtHYgAaiNJr4YAYgjrR1IAGqj6V+MAPRnlNqQAKRI9s8hAP0ZpTYkACmSC+cQgD2hE4A9WROAPVkTgD1Zx09KAOJIawcSgNpo4osRgDjS2oEEoDaa/sUIQH9GqQ0JQIpk/xwC0J9RakMCkCK5cA4B2BM6AdiTNQHYkzUB2JN1/KQEII60diABqI0mvhgBiCOtHUgAaqPpX4wA9GeU2pAApEj2zyEA/RmlNiQAKZIL5xCAPaETgD1ZE4A9WROAPVnHT0oA4khrBxKA2mjiixGAONLagQSgNpr+xQhAf0apDQlAimT/HALQn1FqQwKQIrlwDgHYEzoB2JM1AdiT9V0IwG/OzLs96xj83My8GH7+qpzrcj7X3i+Gcz69OTNd130MzjWYvq7Pe4Ws+xice2s66/jA9ILm5UPHFFMd0AEd0AECcIFVubBcWDqgAzqgA+0dIAAEQAd0QAd0QAcWdkDoC0Nvt1L7+eSkAzqgA9d3gAAQAB3QAR3QAR1Y2AGhLwydWV9v1hhjrAM60N4BAkAAdEAHdEAHdGBhB4S+MPR2K7WfT046oAM6cH0HCAAB0AEd0AEd0IGFHRD6wtCZ9fVmjTHGOqAD7R0gAARAB3RAB3RABxZ2QOgLQ2+3Uvv55KQDOqAD13eAABAAHdABHdABHVjYAaEvDJ1ZX2/WGGOsAzrQ3gECQAB0QAd0QAd0YGEHhL4w9HYrtZ9PTjqgAzpwfQcIAAHQAR3QAR3QgYUdEPrC0Jn19WaNMcY6oAPtHSAABEAHdEAHdEAHFnYgHvofzcz/9qxj8BsXlPv35VyX87n2fueCrM9M13Ufg3MNpj9lnvcKWfcxOPfWdNbxgS+MRyOB5y4oz/ONB7XTvPmCrM9Mjz4C5xpM3xTOe4VHH4Fzb01nHR9IAPqKczYiAJ25XLEVAbiCaudMAtCZyxVbEYArqC6ZSQCWBD3jOwB7oh4CsCdsArAn6/hJCUAcae1A3wGojSa+GAGII60dSABqo+lfjAD0Z5TakACkSPbPIQD9GaU2JAApkgvnEIA9oROAPVkTgD1ZE4A9WcdPSgDiSGsHEoDaaOKLEYA40tqBBKA2mv7FCEB/RqkNCUCKZP8cAtCfUWpDApAiuXAOAdgTOgHYkzUB2JM1AdiTdfykBCCOtHYgAaiNJr4YAYgjrR1IAGqj6V+MAPRnlNqQAKRI9s8hAP0ZpTYkACmSC+cQgD2hE4A9WROAPVkTgD1Zx09KAOJIawcSgNpo4osRgDjS2oEEoDaa/sUIQH9GqQ0JQIpk/xwC0J9RakMCkCK5cA4B2BM6AdiTNQHYkzUB2JN1/KQEII60diABqI0mvhgBiCOtHUgAaqPpX4wA9GeU2pAApEj2zyEA/RmlNiQAKZIL5xCAPaETgD1ZE4A9WROAPVnHT0oA4khrBxKA2mjiixGAONLagQSgNpr+xQhAf0apDQlAimT/HALQn1FqQwKQIrlwDgHYEzoB2JM1AdiTNQHYk3X8pAQgjrR2IAGojSa+GAGII60dSABqo+lfjAD0Z5TakACkSPbPIQD9GaU2JAApkgvnEIA9oROAPVkTgD1ZE4A9WcdPSgDiSGsHEoDaaOKLEYA40tqBBKA2mv7FCEB/RqkNCUCKZP8cAtCfUWpDApAiuXAOAdgTOgHYkzUB2JM1AdiTdfykBCCOtHYgAaiNJr4YAYgjrR1IAGqj6V+MAPRnlNqQAKRI9s8hAP0ZpTYkACmSC+cQgD2hE4A9WROAPVkTgD1Zx09KAOJIawcSgNpo4osRgDjS2oEEoDaa/sUIQH9GqQ0JQIpk/xwC0J9RakMCkCK5cA4B2BM6AdiTNQHYkzUB2JN1/KQEII60diABqI0mvhgBiCOtHUgAaqPpX4wA9GeU2pAApEj2zyEA/RmlNiQAKZIL5xCAPaETgD1ZE4A9WROAPVnHT0oA4khrBxKA2mjiixGAONLagQSgNpr+xQhAf0apDQlAimT/HALQn1FqQwKQIrlwDgHYEzoB2JM1AdiTNQHYk3X8pAQgjrR2IAGojSa+GAGII60dSABqo+lfjAD0Z5TakACkSPbPIQD9GaU2JAApkgvnEIA9oROAPVkTgD1ZE4A9WcdPSgDiSGsHEoDaaOKLEYA40tqBBKA2mv7FCEB/RqkNCUCKZP8cAtCfUWpDApAiuXAOAdgTOgHYkzUB2JM1AdiTdfykBCCOtHYgAaiNJr4YAYgjrR1IAGqj6V+MAPRnlNqQAKRI9s8hAP0ZpTYkACmSC+cQgD2hE4A9WROAPVkTgD1Zx09KAOJIawcSgNpo4osRgDjS2oEEoDaa/sUIQH9GqQ0JQIpk/xwC0J9RakMCkCK5cA4B2BM6AdiTNQHYkzUB2JN1/KQEII60diABqI0mvhgBiCOtHUgAaqPpX4wA9GeU2pAApEj2zyEA/RmlNiQAKZIL5xCAPaETgD1ZE4A9Wd+FAPzYzLzFs47B183Mi+Hn2+Vcl/O59t4Wzvn05sx0XfcxONdg+ro+7xWy7mNw7q3prOMD0wualw8dU0x1QAd0QAcIwAVW5cJyYemADuiADrR3gAAQAB3QAR3QAR1Y2AGhLwy93Urt55OTDuiADlzfAQJAAHRAB3RAB3RgYQeEvjB0Zn29WWOMsQ7oQHsHCAAB0AEd0AEd0IGFHRD6wtDbrdR+PjnpgA7owPUdIAAEQAd0QAd0QAcWdkDoC0Nn1tebNcYY64AOtHeAABAAHdABHdABHVjYAaEvDL3dSu3nk5MO6IAOXN8BAkAAdEAHdEAHdGBhB4S+MHRmfb1ZY4yxDuhAewcIAAHQAR3QAR3QgYUdEPrC0Nut1H4+OemADujA9R0gAARAB3RAB3RABxZ2QOgLQ2fW15s1xhjrgA60d4AAEAAd0AEd0AEdWNgBoS8Mvd1K7eeTkw7ogA5c34G4AHzPzHymZx2DL7hAdP6rnOtyPtfeV12Q9Znpuu5jcK7B9I3yvFfIuo/Bubems44PfGE8Ggk8d0F5nm88qJ3mzRdkfWZ69BE412D6pnDeKzz6CJx7azrr+EAC0FecsxEB6Mzliq0IwBVUO2cSgM5crtiKAFxBdclMArAk6BnfAdgT9RCAPWETgD1Zx09KAOJIawf6DkBtNPHFCEAcae1AAlAbTf9iBKA/o9SGBCBFsn8OAejPKLUhAUiRXDiHAOwJnQDsyZoA7MmaAOzJOn5SAhBHWjuQANRGE1+MAMSR1g4kALXR9C9GAPozSm1IAFIk++cQgP6MUhsSgBTJhXMIwJ7QCcCerAnAnqwJwJ6s4yclAHGktQMJQG008cUIQBxp7UACUBtN/2IEoD+j1IYEIEWyfw4B6M8otSEBSJFcOIcA7AmdAOzJmgDsyZoA7Mk6flICEEdaO5AA1EYTX4wAxJHWDiQAtdH0L0YA+jNKbUgAUiT75xCA/oxSGxKAFMmFcwjAntAJwJ6sCcCerAnAnqzjJyUAcaS1AwlAbTTxxQhAHGntQAJQG03/YgSgP6PUhgQgRbJ/DgHozyi1IQFIkVw4hwDsCZ0A7MmaAOzJmgDsyTp+UgIQR1o7kADURhNfjADEkdYOJAC10fQvRgD6M0ptSABSJPvnEID+jFIbEoAUyYVzCMCe0AnAnqwJwJ6sCcCerOMnJQBxpLXuW8EEAAAG1ElEQVQDCUBtNPHFCEAcae1AAlAbTf9iBKA/o9SGBCBFsn8OAejPKLUhAUiRXDiHAOwJnQDsyZoA7MmaAOzJOn5SAhBHWjuQANRGE1+MAMSR1g4kALXR9C9GAPozSm1IAFIk++cQgP6MUhsSgBTJhXMIwJ7QCcCerAnAnqwJwJ6s4yclAHGktQMJQG008cUIQBxp7UACUBtN/2IEoD+j1IYEIEWyfw4B6M8otSEBSJFcOIcA7AmdAOzJmgDsyZoA7Mk6flICEEdaO5AA1EYTX4wAxJHWDiQAtdH0L0YA+jNKbUgAUiT75xCA/oxSGxKAFMmFcwjAntAJwJ6sCcCerAnAnqzjJyUAcaS1AwlAbTTxxQhAHGntQAJQG03/YgSgP6PUhgQgRbJ/DgHozyi1IQFIkVw4hwDsCZ0A7MmaAOzJmgDsyTp+UgIQR1o7kADURhNfjADEkdYOJAC10fQvRgD6M0ptSABSJPvnEID+jFIbEoAUyYVzCMCe0AnAnqwJwJ6sCcCerOMnJQBxpLUDCUBtNPHFCEAcae1AAlAbTf9iBKA/o9SGBCBFsn8OAejPKLUhAUiRXDiHAOwJnQDsyZoA7MmaAOzJOn5SAhBHWjuQANRGE1+MAMSR1g4kALXR9C9GAPozSm1IAFIk++cQgP6MUhsSgBTJhXMIwJ7QCcCerAnAnqwJwJ6s4yclAHGktQMJQG008cUIQBxp7UACUBtN/2IEoD+j1IYEIEWyfw4B6M8otSEBSJFcOIcA7AmdAOzJmgDsyZoA7Mk6flICEEdaO5AA1EYTX4wAxJHWDiQAtdH0L0YA+jNKbUgAUiT75xCA/oxSGxKAFMmFcwjAntAJwJ6sCcCerAnAnqzjJyUAcaS1AwlAbTTxxQhAHGntQAJQG03/YgSgP6PUhgQgRbJ/DgHozyi1IQFIkVw4hwDsCZ0A7MmaAOzJ+i4E4IMz82eedQz+fGZeDD//j5zrcj7X3l+Gcz69OTNd130MzjWYvq7Pe4Ws+xice2s66/jA9ILm5UPHFFMd0AEd0AECcIFVubBcWDqgAzqgA+0dIAAEQAd0QAd0QAcWdkDoC0Nvt1L7+eSkAzqgA9d3gAAQAB3QAR3QAR1Y2AGhLwydWV9v1hhjrAM60N4BAkAAdEAHdEAHdGBhB4S+MPR2K7WfT046oAM6cH0HCAAB0AEd0AEd0IGFHZi/XXhoZnm9WWKMsQ7ogA70duDc++fXCADz1QEd0AEd0IFVHTj3/vlRoa8KnZH3GrlsZKMDOvCsOnDu/fNNBIAA6IAO6IAO6MCqDpx7/3zyzHxA8KuCf1aG6dfxaUYHdEAH+jpw7vnn3v/hx1sJAAHQAR3QAR3QgRUdOPf8f/N4r+BXBM/G+2xcJjLRAR14Vh049/p/93jjzLyfBJAAHdABHdABHXiSHTj3+HOvf9XHx87Mu2bmQ8J/kuE/K8P06/g0owM6oAM9HTj39HNvP/f4j/j4wpl538x8kAgQAR3QAR3QAR24yw6ce/i5l597+s2PN8zMm2bm/IGBd7z01e/0xEAHdEAHdEAHajtw7tXnnn3u3ece7oEAAggggAACCCCAAAIIIIAAAggggAACCCCAAAIIIIAAAggggAACCCCAAAIIIIAAAggggAACCCCAAAIIIIAAAggggAACCCCAAAIIIIAAAggggAACCCCAAAIIIIAAAggggAACCCCAAAIIIIAAAggggAACCCCAAAIIIIAAAggggAACCCCAAAIIIIAAAggggAACCCCAAAIIIIAAAggggAACCCCAAAIIIIAAAggggAACCCCAAAIIIIAAAggggAACCCCAAAIIIIAAAggggAACCCCAAAIIIIAAAggggAACCCCAAAIIIIAAAggggAACCCCAAAIIIIAAAggggAACCCCAAAIIIIAAAggggAACCCCAAAIIIIAAAggggAACCCCAAAIIIIAAAggggAACCCCAAAIIIIAAAggggAACCCCAAAIIIIAAAggggAACCCCAAAIIIIAAAggggAACCCCAAAIIIIAAAggggAACCCCAAAIIIIAAAggggAACCCCAAAIIIIAAAggggAACCCCAAAIIIIAAAggggAACCCCAAAIIIIAAAggggAACCCCAAAIIIIAAAggggAACCCCAAAIIIIAAAggggAACCCCAAAIIIIAAAggggAACCCCAAAIIIIAAAggggAACCCCAAAIIIIAAAggggAACCCCAAAIIIIAAAggggAACCCCAAAIIIIAAAggggAACCCCAAAIIIIAAAggggAACCCCAAAIIIIAAAggggAACCCCAAAIIIIAAAggggAACCDwdAv8MMD+q/AMP1twAAAAASUVORK5CYII=;" vertex="1" parent="q41vTv1glD9lVKqyJohb-155">
          <mxGeometry x="50.798711744471575" y="27.384404535850877" width="54.52839916839917" height="54.52839916839917" as="geometry" />
        </mxCell>
        <mxCell id="q41vTv1glD9lVKqyJohb-157" value="empresa" style="text;html=1;align=center;verticalAlign=middle;whiteSpace=wrap;rounded=0;" vertex="1" parent="q41vTv1glD9lVKqyJohb-155">
          <mxGeometry width="156.12" height="27.381140916263263" as="geometry" />
        </mxCell>
        <mxCell id="q41vTv1glD9lVKqyJohb-160" style="edgeStyle=orthogonalEdgeStyle;rounded=0;orthogonalLoop=1;jettySize=auto;html=1;exitX=1;exitY=0.5;exitDx=0;exitDy=0;entryX=0;entryY=0.5;entryDx=0;entryDy=0;" edge="1" parent="1" source="q41vTv1glD9lVKqyJohb-151" target="q41vTv1glD9lVKqyJohb-156">
          <mxGeometry relative="1" as="geometry" />
        </mxCell>
        <mxCell id="q41vTv1glD9lVKqyJohb-162" value="&amp;nbsp; &amp;nbsp;TRIGGER&amp;nbsp; &amp;nbsp;" style="edgeLabel;html=1;align=center;verticalAlign=middle;resizable=0;points=[];" vertex="1" connectable="0" parent="q41vTv1glD9lVKqyJohb-160">
          <mxGeometry x="-0.179" y="-1" relative="1" as="geometry">
            <mxPoint as="offset" />
          </mxGeometry>
        </mxCell>
        <mxCell id="q41vTv1glD9lVKqyJohb-184" style="edgeStyle=orthogonalEdgeStyle;rounded=0;orthogonalLoop=1;jettySize=auto;html=1;exitX=1;exitY=0.5;exitDx=0;exitDy=0;entryX=1;entryY=0.5;entryDx=0;entryDy=0;" edge="1" parent="1" source="q41vTv1glD9lVKqyJohb-156" target="q41vTv1glD9lVKqyJohb-177">
          <mxGeometry relative="1" as="geometry">
            <Array as="points">
              <mxPoint x="1880" y="253" />
              <mxPoint x="1880" y="509" />
            </Array>
          </mxGeometry>
        </mxCell>
        <mxCell id="q41vTv1glD9lVKqyJohb-182" value="" style="shape=image;verticalLabelPosition=bottom;labelBackgroundColor=default;verticalAlign=top;aspect=fixed;imageAspect=0;image=data:image/png,iVBORw0KGgoAAAANSUhEUgAAAgAAAAIACAYAAAD0eNT6AAAAAXNSR0IArs4c6QAAIABJREFUeAHtnQuQHVd5521vGRMwOGvMq7JZEqhQLhaSSioVllQgiynYlO3wsAEbiE1gIYDZAmzkBFhgwVQA43LAst62bMuWZetpaaz3+/2WRhpppNF7NCPNjGTZlmRJlkaWz9YZ097rvn3n9r39dX/nnP6paqrnXt05r/5///+v+97bfdFFAf+79sfT11x07TDDD2uABtBA6BqYOH/D4fb29ssDtnSmxgqkXwEAANMP3fSZHxqPNDBz6Qazo6OjFwhInxG8MuAVAAAwx8gc2aKF0DUwYc5qs3XbNiAg4Exjag2sAACA6Ydu+swPjUcaGD9r1QAAAAENhAQvDXcFAADMMTJHtmghdA1UAgAQEG6uMbOUKwAAYPqhmz7zQ+ORBuIAAASkDApeFuYKAACYY2SObNFC6BpIAgAgIMxsY1YpVgAAwPRDN33mh8YjDdQCACAgRVjwkvBWAADAHCNzZIsWQtfAYAAABISXb8yozgoAAJh+6KbP/NB4pIF6AAAE1AkM/jusFQAAMMfIHNmihdA1kAYAgICwMo7ZDLICAACmH7rpMz80HmkgLQAAAYOEBv8VzgoAAJhjZI5s0ULoGmgEAICAcHKOmdRYAQAA0w/d9JkfGo800CgAAAE1goOnw1gBAABzjMyRLVoIXQPNAAAQEEbWMYuEFQAAMP3QTZ/5ofFIA80CABCQEB485f8KAACYY2SObNFC6BrIAgBAgP95xwxiKwAAYPqhmz7zQ+ORBrICABAQCxAe+r0CAADmGJkjW7QQugYkAAAI8DvzGH3FCgAAmH7ops/80HikASkAAAIqQoRf/V0BAABzjMyRLVoIXQOSAAAE+Jt7jPz3KwAAYPqhmz7zQ+ORBqQBAAggSr1eAQAAc4zMkS1aCF0DeQAAEOB1BJZ78AAAph+66TM/NB5pIC8AAALKnaPezh4AwBwjc2SLFkLXQJ4AAAR4G4PlHTgAgOmHbvrMD41HGsgbAICA8maplzMHADDHyBzZooXQNVAEAAABXkZhOQcNAGD6oZs+80PjkQaKAgAgoJx56t2sAQDMMTJHtmghdA0UCQBAgHdxWL4BAwCYfuimz/zQeKSBogEACChfpno1YwAAc4zMkS1aCF0DGgAABHgVieUaLACA6Ydu+swPjUca0AIAIKBcuerNbAEAzDEyR7ZoIXQNaAIAEOBNLJZnoAAAph+66TM/NB5pQBsAgIDyZKsXMwUAMMfIHNmihdA14AIAAAFeRGM5BgkAYPqhmz7zQ+ORBlwBACCgHPnq/CwBAMwxMke2aCF0DbgEAECA8/EY/gABAEw/dNNnfmg80oBrAAAEhJ+xTs8QAMAcI3NkixZC14CLAAAEOB2RYQ8OAMD0Qzd95ofGIw24CgBAQNg56+zsAADMMTJHtmghdA24DABAgLMxGe7AAABMP3TTZ35oPNKA6wAABISbtU7ObMjoJS2f+tkMww9rgAbQQOgamLVso7Eh6/rPjo6O3vb29sudDA0GFc4KHDly5Nd9fX2GH9YADaCB0DWwo6PD+fCP4AQICCdnnZ0JAIDph276zA+NRxrwCQB4O8DZ2AxnYAAA5hiZI1u0ELoGfAMAICCcrHVyJgAAph+66TM/NB5pwEcAAAKcjM4wBgUAYI6RObJFC6FrwFcAAALCyFvnZgEAYPqhmz7zQ+ORBnwGACDAufj0f0AAAOYYmSNbtBC6BnwHACDA/8x1agYAAKYfuukzPzQeaSAEAAACnIpQvwcDAGCOkTmyRQuhayAUAAAC/M5dZ0YPAGD6oZs+80PjkQZCAgAgwJkY9XcgAADmGJkjW7QQugZCAwAgwN/sdWLkAACmH7rpMz80HmkgRAAAApyIUj8HAQBgjpE5skULoWsgVAAAAvzMX/VRAwCYfuimz/zQeKSBkAEACFCPU/8GAABgjpE5skULoWsgdAAAAvzLYNURAwCYfuimz/zQeKSBMgAAEKAaqX51DgBgjpE5skULoWugLAAABPiVw2qjBQAw/dBNn/mh8UgDZQIAIEAtVv3pGADAHCNzZIsWQtdA2QAACPAni1VGCgBg+qGbPvND45EGyggAQIBKtPrRKQCAOUbmyBYthK6BsgIAEOBHHhc+SgAA0w/d9JkfGo80UGYAAAIKj1f3OwQAMMfIHNmihdA1UHYAAALcz+RCRwgAYPqhmz7zQ+ORBgCAbQYIKDRi3e4MAMAcI3NkixZC1wAA8AoAAAFu53JhowMAMP3QTZ/5ofFIAwDA/wcAIKCwmHW3IwAAc4zMkS1aCF0DAMBrAQAIcDebCxkZAIDph276zA+NRxoAAKoBAAgoJGrd7AQAwBwjc2SLFkLXAACQDABAgJv5nPuoAABMP3TTZ35oPNIAAFAbAICA3OPWvQ4AAMwxMke2aCF0DQAAgwMAEOBeRuc6IgAA0w/d9JkfGo80AADUBwAgINfIdatxAABzjMyRLVoIXQMAQDoAAALcyuncRgMAYPqhmz7zQ+ORBgCA9AAABOQWu+40DABgjpE5skULoWsAAGgMAIAAd7I6l5EAAJh+6KbP/NB4pAEAoHEAAAJyiV43GgUAMMfIHNmihdA1AAA0BwBAgBt5LT4KAADTD930mR8ajzQAADQPAECAePzqNwgAYI6RObJFC6FrAADIBgBAgH5mi44AAMD0Qzd95ofGIw0AANkBAAgQjWDdxgAAzDEyR7ZoIXQNAAAyAAAE6Oa2WO8AAKYfuukzPzQeaQAAkAMAIEAshvUaAgAwx8gc2aKF0DXQ1d1tDh48yI/gGnR3d9+jl2D0nGkFAABMP3TTZ35oHA3kpwGbIZlCiD/WWwEAIL/CwHRYWzSABkLXAACgl9+ZewYAMKjQDYr5oXE0kJ8GAIDMMazXAACQX2FgOqwtGkADoWsAANDL78w9AwAYVOgGxfzQOBrITwMAQOYY1msAAMivMDAd1hYNoIHQNQAA6OV35p4BAAwqdINifmgcDeSnAQAgcwzrNQAA5FcYmA5riwbQQOgaAAD08jtzzwAABhW6QTE/NI4G8tMAAJA5hvUaAADyKwxMh7VFA2ggdA0AAHr5nblnAACDCt2gmB8aRwP5aQAAyBzDeg0AAPkVBqbD2qIBNBC6BgAAvfzO3DMAgEGFblDMD42jgfw0AABkjmG9BgCA/AoD02Ft0QAaCF0DAIBefmfuGQDAoEI3KOaHxtFAfhoAADLHsF4DAEB+hYHpsLZoAA2ErgEAQC+/M/cMAGBQoRsU80PjaCA/DQAAmWNYrwEAIL/CwHRYWzSABkLXAACgl9+ZewYAMKjQDYr5oXE0kJ8GAIDMMazXAACQX2FgOqwtGkADoWsAANDL78w9AwAYVOgGxfzQOBrITwMAQOYY1msAAMivMDAd1hYNoIHQNQAA6OV35p4BAAwqdINifmgcDeSnAQAgcwzrNQAA5FcYmA5riwbQQOgaAAD08jtzzwAABhW6QTE/NI4G8tMAAJA5hvUaAADyKwxMh7VFA2ggdA0AAHr5nblnAACDCt2gmB8aRwP5aQAAyBzDeg0AAPkVBqbj59oe6Dpstu3uNGvb9ppN7fvNrn1d5lBPr2F/+rk/2W/57jcAQC+/M/cMAORbHJiPG+trQ33Bug4zfPp6890RC831P51uPjxkkvnLb08wf/a/HjXv/NJY8+YbR5tLrhtuLrp2WOLPZZ8aaa66+QHzJ//8iHn/N8ebD37vSfOxH0wxt/5mtvnFYyvMxEVbTevOA4BCnxv7nNorZj8AAJljWK8BAKCYIsGMilvnDdv3md9NWWtuGzp/IKD/+NaHzcXXJYd6rbDP8vybbhxt/up/TzA3/ftM89NHlpkpS9pM96EewAAwCFIDAIBefmfuGQAoLpiAgHzW2oarDdlv3Td/4Gg+S3jn9bdv/Mwo8w//Z5q5Z+Jqs3nH/iCDAH3no2/X1xUAyBzDeg0AAOUsWtdNpd74OvZ1mXsnrTHX/vgpc/kNoxJP2ecV5hLtXv31R823719gWla0AwOcGfBaAwCAXn5n7hkAAADqha1L/798825zy92zzR98eqR3oV8LHOznCe6butZ08TaB10HoUp0UORYAIHMM6zUAAAAARZpFM3319vaZ8fNbzd/fOTmY0E+CAfsBwyGjFw98A6GZdeJvqGUNDQAAevmduWcAANPQMI20fdpP7b/7K48EHfxxGLj0kyPMzb+cCQjw1oAXZ0QAgMwxrNcAAAAApA3jIl9nP8n/0X8N+4g/Hvzxx1d8bszA5xzsGZAi156+WO9GNAAA6OV35p4BAIq9kWLP+7WHe3rNzx9dYd7wGf8+2BcPcKnHH7p9olm1ZQ8QwBkBJzUAAGSOYb0GAAAAIO9QT9v+mra95i9ue7xUp/vTQsLrPjnC/OThZU4GQNr9y+vC9BoAQC+/M/cMAIRZlL6Z7bJNu83bvvAg4V/jKoQRKPzLb+cBAZwJcEoDAEDmGNZrAAAAALRhYcH6DnPl5x8g/OuEfwQBX/7NbMPnAqhb7bqN+gcA9PI7c88AAEYSFbLGduaqdnPFZ0cT/inDP4IAe5nhnl5uUKShWfp8rWcCAJljWK8BAOC1Yqa4i1uPtl2dAzfgiUKNbWP3K7hj5CKnTgVTO8XVjktrDQDo5XfmngGAchatCwZy410tHPk3eORfCUn2egF8O4D61a5lACBzDOs1AABgIBoGMm3pNsI/Q/hHIGBvaayx/+gT34g0AADo5XfmngEACjkq5KK29rv+7/3aowCAAABYEBg1YwMQwDcD1DQAAGSOYb0GAAAAoKjgj/pZsK6D8BcKfwsAn/jRVDXzj/Yp2/L6CACgl9+ZewYAylu4WqZ9z8TVAIAgALz9Cw8CAJwBUNMAAJA5hvUaAAAAgKJB4Eu/ngUACAKAPQvQuvOAWgAUrR/6c8uzAAC9/M7cMwDgVjGVwdz+nMv9igPQY/NaAQDOAqhoAADIHMN6DQAAAEDR0PGer44TD8DoU/Fl3fJBQOq46DqO+gMA9PI7c88AAMYRFXJRWwkA+JOvjDNfuHueuXvyJnPb8KXmr787yVxy3fDSggUAQB0XVb/xfgCAzDGs1wAAgHHECzrvx1kA4I03jDZDW7aal182Vf9W7eg17/36+FJCAABAHeddt7XaBwD08jtzzwAAxlGrsPN6vlkAeP2nR5q2A8eqgr/yiTPnzg+cDSjbWwEAAHWcV73WaxcAyBzDeg0AABhHvQKX/v9mAeA/ntpSmfU1f9/R9ZyxsFAmCAAAqGPpOk3bHgCgl9+ZewYAMI60hS71umYA4D9//gFzIem8fw0M+PK9CwEAPhWv8ql4qTrxpR0AIHMM6zUAAAAARRtNMwDwsR9NrxH1yU/f39IGAAAAAEABGgAA9PI7c88AAADgAwB8e8Sy5KSv8eyC1i4AoADzL1o79OeeXwEAmWNYrwEAwL2CCt3kmjkD8D9/3FIj6pOfHjmrXHcb5DMA1LGWbwAAevmduWcAAOMo2jiaAYC3fmFsctLXePbrQxdzBoAzALwFUIAGAIDMMazXAAAAAPgAAPYT/Q/N31Ej7l/7dOeRk+ZNN44GAAow/6K1Q3/u+RUAoJffmXsGANwrqNBNrpkzABYA3vzZMcaG+2D/7DcFrvnh9FKFv10b3gKgjrV8AwDIHMN6DQAAGEfRxtEsANigs28FTFqxJ5EBdnY/Z/77HZNLF/4AADVcdA1X9gcA6OV35p4BAMyjspiL+D0LANiwsz8fvH2yuX3MCjNuYYe5a8IGc/3PZpbu4j/RWgAA1HARdVurDwAgcwzrNQAAYB61Cjuv5yUAoDL8+J23APLSKu3W90cAQC+/M/cMANQXOCYgu0YAwCtnMSTBhc8AyGqUmk+/ngBA5hjWawAASC90TEFmrQAAAIBakqklF9YRANDL78w9AwDhFKILZpBmDAAAAJBGJ7zGD28CADLHsF4DAIAfRRaSGQIAAEBIei77XAAAvfzO3DMAAAAUbWAAAABQtOboLz+fAwAyx7BeAwBAfoWB6SSvLQAAAFAbybXh47oAAHr5nblnACCcQvTFPAAAAMAXrTLO+v4IAGSOYb0GAID6AscEZNcIAAAAqCnZmtJcTwBAL78z9wwAhFOImibQSN8AAADQiF54rdseBQBkjmG9BgAAt4srRPMDAACAEHVd1jkBAHr5nblnAAAAKNq4AAAAoGjN0V9+PgcAZI5hvQYAgPwKA9NJXlsAAACgNpJrw8d1AQD08jtzzwBAOIXoi3kAAACAL1plnPX9EQDIHMN6DQAA9QWOCciuEQAAAFBTsjWluZ4AgF5+Z+4ZAAinEDVNoJG+AQAAoBG98Fq3PQoAyBzDeg0AAG4XV4jmBwAAACHquqxzAgD08jtzzwAAAFC0cQEAAEDRmqO//HwOAMgcw3oNAAD5FQamk7y2ezsPmV37u53/eWxeq7noWvmwzqPNUTM2GPSWrDfWJd91AQD08jtzzwBAvsWB+fi7vtOWbgMA+vzdf9ReMfsOAMgcw3oNAADFFAlm5N86AwD+7TPqrPh9BgDo5XfmngGA4gsGk/JjzQEAP/YT9aS7nwCAzDGs1wAAoFs8eZpX16Ee07ark58m12DsrE1evwVw5OAOc7SzTe3nSNdOPpdQgrdQAAC9/M7cMwAQDgDsPtBt7pm42vzT3bPMB7453lz6jyO8CbA8PhhXpjZHt1R/CPDsw+8x54depPpzbsxbzekpHzcnFg0xx9pnAgQBAgEAkDmG9RoAAMIAgBHT15u3feFBAt+TT+1Lw0nStwBcAIA4gJyacaM52rkNEAgIBAAAvfzO3DMA4DcArNqyx/zd9ycR/CUN/ggkfAEACwT9I68wx1f+2vT19gACAYAAAJA5hvUaAAD8BYDZq3eYy28YRfiXPPwtBPgEANFZgVMtnzd9fb1AgOcQAADo5XfmngEAPwFg4foOc8XnxhD+hP+ABnwEAAsCL8y8BQAAADLnGA00uQIAgH8AsKJ1t3nLTQ8Q/oT/qxrwFQAGIGDO14AAjyGAMwBNhq8LfwYA+AUAm3fsN+/44thXjT96D5itH5fszWs/+QwAFgJOLrwdCPAUAgAAF5K8yTEAAH4BwDX/NoXw58i/SgO+A8D5+y8xx9pnAQEeQgAA0GT4uvBnAIA/AGBNPq8jSNr1+wyC9wAw9CJzdtzVpq+nGwjwDAIAABeSvMkxAAB+AEDHvi5z1c287w+oJINKCABg3wo4seQHAAAA0GSa8WcNrwAA4AcA3PzLmRz9c+q/pgZCAYD+4ZeZZ/asAgI8ggDOADQcu+78AQDgPgDMWL69pvFzRJx8RFy2dQkFAOxZgDMTPwwAAADuhGTIIwEA3AcAPvhHyNcDmpAAwELAsR1zgQBPIIAzAB4TAgDgNgCsbN1jLr6OAKwXgGX//9AA4NT0GwAAAMDjZPVk6ACA2wBw629mc/qf9/7raiA0ADg/7FJz9MAWIMADCOAMgCdhnzRMAMBdANi5t8u8/tMj65p/2Y9+mb+f9wKwp/oH+zm54HsAAACQFFs8J7UCAIC7APDDB5cS/hz9p9JAcGcA7F0DR19pjhw+CAQ4DgGcAZBKY4V2AAA3AeBQTy+X/CX8U4W/PQMSIgDYswPPr/ktAAAAKCRjSboEANwEgOl89S91+PEWQLgAcGbSNQAAAFCSNFaYJgDgJgB8Z/hCApAzAKk1EOoZAHthoCOHO4EAhyGAtwAUgluqSwDATQB4/zfHpzZ/joD5muS4uZurQvLcg3806IfsBvsAnkv/91zr41Vz63M4EMs2NgBAKo0V2gEA3AOAtl2dfPefo/+GAHDump2xkOw19qt0LgV5s2N5YfZXYnNzr2bLFvqV8wUAFIJbqksAwD0zuW/q2obMnzMAnAFo3XngNSF55OCOIMLfQsPZse96zdwqw4ff9f0LAJBKY4V2AAD9Aoqb2Kd+NgMA4AxAag1cct1wc7in9zUh+UzH4mAAwEIANwhyz6ci3wIAFIJbqksAwK3CskZ+xefGpDZ/jv45+r/664++JvytMT+75YmgAOD48ruq5hgFEFtdDwMApNJYoR0AQLd44ua1bNNuwp+j/4Y0cMfIRVXheGLpT4ICgNPTrq+aY7x2eKzjZQCAQnBLdQkA6BRNLbN64OmNDZk/ZwA4A7BwfUdVOL444W+CAoCzj7y3ao61aojni/U0AEAqjRXaAQCKLZZ65nTnmMUAAGcAUmvgXV9+uCoYjx7cbs7ff0lQAGC/0dDXe6hqrvXqif/P398AAIXgluoSAMi/QBoxIT4AyBF9I2d1fj1hVVUo2svnNvuVO5f/7pk9K6vm2kht8dp8vA4AkEpjhXYAgHyKolmzed83Hkt99NdIUPDa8MDCHv13H+6pCsXTUz4eJAA8t+mhqrk2W2f8nZzvAQAKwS3VJQAgVwhZTcV+A+B1nxwBAPAWQCoNjJi+vioQB77+F9rp/9/fNvjEkh9UzTdrzfH32f0PAJBKY4V2AIDsBSBlImva9qYyfo7mwzuab3SffnjIJNPbW61de/Mcl0/jZxnbqRk3AgAOXgIZAFAIbqkuAYBqE5UK9EbbsddzbzQIeH35YOBP//kRs2tfV1UYPrt1crDhb8Hhxcc+UDXnRmuM18v7HQAglcYK7QAA8gXRrMn8/NEVAACn/wfVwJtvHG1Wtu5JCMLegYDMcoTt+t/2j3xTwrzdqd9m6973vwMAFIJbqksAwB0DGTKarwByRqP2GY233PSAaVnRnhiCJxYNCfro/xU4udj09b32kse+h2cI4wcApNJYoR0AwB0A+NZ98wc9+iMca4dj6Gvz377xmNnYvj8x/J/b+KA5P/TiEgDARebIoX2JaxBCkPo6BwBAIbilugQA3AGAW+6eDQDwFkCVBm68q8XsP5h8EZxjHYtM/4g3lCL87VmAo51bAQDHPggIAEilsUI7AIA7APCZn3MXwNCP5BuZ3we/+6SZtWpHzcA7eqDVnHvwj0oT/hYAuCugO34VnbEAABSCW6pLAMCdgvr4D6dWHf01Ehi81v+3CC771EhjdfDInM01g98a77H2WebcmLeVKvwtABzbOX/QdYlCiW1xvgYASKWxQjsAQHGFUs+UPnT7RACgRG8BvPEzo8x7vjrO/O0dE80XfzXLPDR7U81T/ZXaeX7tUNM/7HWlC38LAM+2TQMAeAtAISkD7RIAcAcAPvCt8QBADQD4T9cPHwjK745YaH41YZUZO2vTwOnxTe37za793d791HpPvzLo478fOdxpXpj7jVIGvw1/+/Pc5kcBAAAg0DRWmBYA4A4AvPsrjwAAFQBgT4d/4kdTze+mrDU79h4sr/H39hh7g59zD7yz1OFvAeD59SPKqwPHgj8CVN4CUAhuqS4BAHcA4J1fGgsAXDvM2OD/9v0LEq92F5lOWbbPtk4wZ8ddXfrgj84APL/6XgDAMRAAAKTSWKEdAMAdACj7GYBLrhtubv7lTNO680B5Tb73sHl22/SBU/1nx76L4P/9qf9XAYAzAM7VBgCgENxSXQIA7gBAmT8DYD8Mt2TjrobNzb4vfrRzmzna2ebXz4FWc2zHvIH3tI+v+o05uWiIOTXjs6Z/9JWEfiz0o/C3Wz4D4I5fRWfhAACpNFZoBwBwp6DK+i2A/3Hn5IEP8UWGkrztHQjMkwtvN2cmfsScfeS9pn/kFYTlIGFZGZyh/M63ANzxq6hOAQCF4JbqEgBwp6DKeB2Ar/3HXHO4p/b13Y/u32RemP1VPgBXsqCvBSxcB8AdvwIApFJYsR0AwJ2CKtuVAH/6yPKap/yPdO8yJ+fdZvqHX8ZRPuH/qga4EqA7fgUAKAa3VNcAgDsFVaZ7AfzT3bNqhr+9uU3/qD981fRrHQ3y/CvfjS/TOnAvAHf8CgCQSmHFdgAAdwqqLHcDtJ916D7ckwgAJxbfWZo725UpuKXmyt0A3fErAEAxuKW6BgDcKaghoxcHfx2A/3rrw8kX9enpNqef+iRH/ZzuH0QDF5u+vtqfF4kCiW2xnmYzRCqPaKfgFQAAii2Wwczp54+uCB4ApixpSzzyP9Vy0yDGX75T3VJHzCG10z/yTYnaGaym+L/8/Q0AKDi0JbsDAPIvkLQmNG7u5qAB4KP/OjnRwE8s+7+EP0f+dTXw4mMfSNRP2vridfl4HQAgmcgFtwUA5FMUzZjNmra9wQLAxdcNM4s2VF/o59ktT5jz919S1/xDOpJlLs2d0Tk140YAwLHLAFufAwAKDm3J7gAAdwDAfh/+dZ8cESQEfPYXLdXm3dNtzj70p4Q/R/+pNHBiyQ+qNeRgIDYD/z7/DQAgmcgFtwUAuAMA1gTe943HggSAZZt2V5n38ZW/SmX8HDE3d8Qc2ro9t+mhKg35HJyhjB0AKDi0JbsDANwCgE/9bEZwAGBvchQ3O/t1rnOjrwIAOPpPrYFn9qys0lFcVzwu3s8AAMlELrgtAKD4ghnMpO4cE95XAW8buqDKuI+vuju18Yd2JMt8mjijMexS09d7qEpHg9US/1eMtwEABYe2ZHcAQDFFktaMHnh6Y3BnAJ5e2V5l3GcmXQMAcPSfWgP25k9pa4jXFetpAIBkIhfcFgBQbLHUMyf7XvlF1w4L5ueqmx8wPb2vvXjLke495vywS1ObP0fMTRwxBwYXp6ddDwA4+oFHAKDg0JbsDgBwCwDsNwGu+NyYYADgb++YWGXcz20YQ/gHFtB5Q9rx5XdV6ageTPP/xXgbACCZyAW3BQAUUySNmFFIHwS84a7qr/+dXPh9AAAAaEgD3AXQPZ+KPA0AKDi0JbsDANwrrPumrg3mDMBtQ+dXHbmdmvmlhsw/76NL2nf7LYazY99VpaEofNjq+xcAIJnIBbcFAOgXUNzE2nZ1GnvlvBA+C/CzccurzPv05I8BAJwBSK2BF2Z/pUpD8ZrhsZ6PAQAFh7ZkdwCAXuEMZlrv/+b4IABg5IwNVeZtr+nOUbfbR90u7Z/nWh/IGwTqAAAgAElEQVSv0tBgtcP/FetpAIBkIhfcFgBQbLGkNafvDF8YBAA8PHtzlXmfffg9AABnAFJpoH/4ZebI4c4qDaWtI16Xv78BAAWHtmR3AED+BdKMCU1fvh0AICRThaRLR+vSY7HXi2imfvib4nwNAJBM5ILbAgCKK5RGTOlQT695xxfHeg8BnAHgVH8WKHh+zW8BAEe//x/5GQBQcGhLdgcAuAkAtrh++OBSAICzAKU9C9A/+kpz5PBBAAAAkIw82qpcAQDAXQDYubfLvP7TI72GAM4AcAag2TMAJxd8j/B3PPztgQpnACoT1bPfAQB3AcAW162/mQ0AcBagfGcBhl1qjh7YAgAAAJ4lqmfDBQDcBoCVrXu8viYAZwA4A9DMGYBT028g/D0If84AeBb48eECAG4DgC2wa/5tirdnAQAAAKAZADi2Yy4AAADE44rH0isAALgPADM8/kogAAAANAoAZyZ+mPD3JPw5AyCdyAW3BwC4DwC2yG7+5UwvzwIAAABAIwBgL/zDjX/88CTrSwBAwYEt3R0A4EexdezrMlfd/IB3EAAAAACNAMCJJT/g6N+jo38AQDqRC24PAPADAGyhjZqxAQDgGwHBfiPg7LirTV9PNwAAABScgiXuDgDwBwAsBPj2gUDOAHAGINUZgPsvMcfaZxH+noU/ZwA8hwcAwC8A2Lxjv1eXCAYAAIA0AHBy4e2Ev4fhDwAAABRuwYW7onW3ectNfnweAAAAAOoBwAtzvoaHFOwhNrilfuxBpOcxWN7hcwZArhCkCipNOwvXd5grPjfG+c8EAAAAwGAA8MLMW8SCKE3d8Bp5vwMAPOYHAEC+IIoymdmrd5jLbxjlNAQAAABALQA41fJ509fXCwAIHo0X5T2V/QAAAABFrFTEq7bsMR8ZMslZCAAAAIA4APSPvMIcX/lr09fbg28o+UZlgGf9HQAAAChk5UIe3bLByQ8HAgAAQCUAnJpxoznauQ2/UPaLrKFf+fcAAABAQTtQ0Hs7D5l7J60xt9w923zgm+PNpf84Qv3MAABQbgA4N+at5vSUj5sTi4aYY+0z8QkHfKIyvCV+BwAAAArbwcLuOtRj2nZ1qv7YMcRN5uzD7/HiYjYvPv7X5mhnGz9NrsGRrp1V+z6uBR77+xmkaN8BAAAAhe4gAEQF6trWFwA488SH0DW6RgN1NAAAAAAUSZ0icS2ENccDAPh/1KepH/p2Sz8AAAAAAAAAqTUAALhl4AQq+yOLBgAAACC1+WcRGn8bhlH5AgAvTvgbc6R7lxc/3EQnjNrw0eMAAAAAAOAMQGoN+AIAlV9fc/3359ePSr3+PoYMY3YXcAAAAADzAQBSawAAkP9qIADgbkCGDi8AAACQ2vxDLwbmV9+IAQAAgDqpXye+rBEAAAAAAJwBSK0BAAAA8CXcGGd9UAEAAIDU5k9B1S+o0NcIAAAAQtd4meYHAAAAAABnAFJrAAAAAMoUkKHPFQAAAFKbf+jFwPzqn+EAAAAA6qR+nfiyRgAAAAAAcAYgtQYAAADAl3BjnPVBBQAAAFKbPwVVv6BCXyMAAAAIXeNlmh8AAAAAAJwBSK0BAAAAKFNAhj5XAAAASG3+oRcD86t/hgMAAACok/p14ssaAQAAAADAGYDUGgAAAABfwo1x1gcVAAAASG3+FFT9ggp9jQAAACB0jZdpfgAAAAAAcAYgtQYAAACgTAEZ+lwBAAAgtfmHXgzMr/4ZDgAAAKBO6teJL2sEAAAAAABnAFJrAAAAAHwJN8ZZH1QAAAAgtflTUPULKvQ1AgAAgNA1Xqb5AQAAAADAGYDUGgAAAIAyBWTocwUAAIDU5h96MTC/+mc4ygwAL41/n7mw5FvmQvtYc2HTPealOZ8358dcac4PzQYFz68fRQ0C4SoaAAAAABXhEbb1w9bFNSolAAx/vbmw+V5jXr5gqv6dOWJemvWZTBAAAPhZCy7WZ6NjAgAAAACAo4/UGigfAFxsXu5eVJX78ScuLP5G0xAAAAAAjQa31OsBAAAgtflLiY52/DW8sgHAhWXfiWd98uP+U+alce9uCgIAAH/rwXcvAwAAAACAMwCpNVA2ADCne5MDP+HZC62/BQCopdS15AI8AAAAgFeCdaFoyjyGUgHAQ/8lIeZrP/Vyz0oAAADwyk8BAADAK8GWOXxdmHuZAOCladfUTvuk/zlzFAAAALzyUwAAAPBKsC6EYJnHUCYAOP/gO5JivuZzLx9aCgAAAF75KQAAAHgl2DKHrwtzLxUADL3ImJMHawZ+/D8ubLobAAAAvPJTAAAA8EqwLoRgmcdQNgB4af6t8ZxPfvzis8aeMWjmokB8C4BvAWh5CgAAAAAAHLWk1kDZAMAG+st7JieHfvTsyxdeuSpgk1cEBAAAAADA4yDWGrqlNy3h0G85TauMAHD+/kvMhZV3GvPS2SjyX92+fHyveWnK3zV15B+dLQAAyllLLngoZwC00lugXwAA4yjaREoJANGR/YNvH7js74UN/24urPi+eWnqR8z54a/PFP4WAgAA6rjoOo76AwAEglirCQAA44gKuahtqQEgAgHhLQBAHRdVv/F+AACt9BboFwDAOOIFnffjFx/788xHvNGpb7av3EXwuc2Ppf4MRt77l/bL5SkAgEAQazUBAJSrWF0w51MzvwQACJ8BOHqgFQDgg7gqGgAAtNJboF8AAAAoGgqOr74HABAEgHNj3q5i/EXrhv7c9CoAQCCItZoAANwsqpDN7tjOBQCAIACcnvIJAICjfzUNAABa6S3QLwAAABQOG72HzdlH3gsECEEAHwCkhguv4QrgAgAEglirCQAA89Awj2fbpgEAAgBwZuKH1Y78NHRDn+75FQCgld4C/QIA7hVUWUzu1IwbgYAsEDDsUvPMnlUAQMXRaFlqx6V5AgACQazVBAAAAGiZydHONtM/8s1AQJMQcHLhHYQ/4a+uAQBAK70F+gUAAAAtALD9HmufafpHXgEENAgBp1puMn29Permr6kd+nbDuwAAgSDWagIAcKOIymxm9lsB/aOvBAJSQsALs75s+vp6CX+O/p3QAACgld4C/QIAAIAL8PHMrmXm3Ji3AQF1IOCFuf/ihOm7oBnG4IZ3AQACQazVBADgRhFhZn3mmb1rzIvj/wIISICA/mGvMyeW/oTw56jfOQ0AAFrpLdAvAAAAOAUfvYfN8eU/N/0j3gAI/B4EzjzxIT7tT/A7F/yRbwAAAkGs1QQAAABEhezS9ui+DebMpI+WGgL6R11hnl99L+/3E/7Ohr/1DABAK70F+gUAAACXgj8+lufXDTdnH3p3uUBg2KXm1NM3m6Od25w2/vi+4nE5vQQAEAhirSYAgHIWrV9m3Wueax1vzkz8+6BB4Nzoq8zJRUMIfo74vQI/AEArvQX6BQAAAJ9g4Jndy80LM28x/cP/IBgYePHR95vn195njvR0eWX8PumGsebncwCAQBBrNQEA5FcYmE5+a3ukq2Pg/fHTU681/SMu9w4Gzo672pyc/21zbHsLoc8Rv9caAAC00lugXwAgv5ACAApa255u82zbFHNy3rfM2Uf+zEkY6B/xRnN66j+Y46vvMUf3b/ba8NF1Qbr2BIwAAIEg1moCAKCYQzN0+w2C59f8zpycd5s5Pflj5tzYPzbnh15cGBj0j3yTefHxvzL2cr0nlv10AE76eroJfU8CLbR6yHs+AIBWegv0CwAAAHkbhAvtHzl8wNhLDttvFZxc8F1zetr1xt5K98Xxfzlw1uDcA+985cZE919SExT6h19m7Af1zj70J8a+b3/miQ8OAMYLs241x1f8wjy7daI5eqCVoCfoS6UBAEAgiLWaAAAAABcC2qUxWFiwX8F7Zu9ac3T/JnOka5fp6z1UKlN3aX8wFrc9CgDQSm+BfgEAt4sL82P/oAE04LIGAACBINZqAgDAXFw2F8aGPtGA2xoAALTSW6BfAMDt4sL82D9oAA24rAEAQCCItZoAADAXl82FsaFPNOC2BgAArfQW6BcAcLu4MD/2DxpAAy5rAAAQCGKtJgAAzMVlc2Fs6BMNuK0BAEArvQX6BQDcLi7Mj/2DBtCAyxoAAASCWKsJAABzcdlcGBv6RANuawAA0EpvgX4BALeLC/Nj/6ABNOCyBgAAgSDWagIAwFxcNhfGhj7RgNsaAAC00lugXwDA7eLC/Ng/aAANuKwBAEAgiLWaAAAwF5fNhbGhTzTgtgYAAK30FugXAHC7uDA/9g8aQAMuawAAEAhirSYAAMzFZXNhbOgTDbitAQBAK70F+gUA3C4uzI/9gwbQgMsaAAAEglirCQAAc3HZXBgb+kQDbmsAANBKb4F+AQC3iwvzY/+gATTgsgYAAIEg1moCAMBcXDYXxoY+0YDbGgAAtNJboF8AwO3iwvzYP2gADbisAQBAIIi1mgAAMBeXzYWxoU804LYGAACt9BboFwBwu7gwP/YPGkADLmsAABAIYq0mAADMxWVzYWzoEw24rQEAQCu9BfoFANwuLsyP/YMG0IDLGgAABIJYqwkAAHNx2VwYG/pEA25rAADQSm+BfgEAt4sL82P/oAE04LIGAACBINZqAgDAXFw2F8aGPtGA2xoAALTSW6BfAMDt4sL82D9oAA24rAEAQCCItZoAADAXl82FsaFPNOC2BgAArfQW6BcAcLu4MD/2DxpAAy5rAAAQCGKtJgAAzMVlc2Fs6BMNuK0BAEArvQX6BQDcLi7Mj/2DBtCAyxoAAASCWKsJAABzcdlcGBv6RANuawAA0EpvgX4BALeLC/Nj/6ABNOCyBgAAgSDWagIAwFxcNhfGhj7RgNsaAAC00lugXwDA7eLC/Ng/aAANuKwBAEAgiLWaAAAwF5fNhbGhTzTgtgYAAK30FugXAHC7uDA/9g8aQAMuawAAEAhirSYAAMzFZXNhbOgTDbitAQBAK70F+gUA3C4uzI/9gwbQgMsaAAAEglirCQAAc3HZXBgb+kQDbmsAANBKb4F+AQC3iwvzY/+gATTgsgYAAIEg1moCAMBcXDYXxoY+0YDbGgAAtNJboF8AwO3iwvzYP2gADbisAQBAIIi1mgAAMBeXzYWxoU804LYGAACt9BboFwBwu7gwP/YPGkADLmsAABAIYq0mAADMxWVzYWzoEw24rQEAQCu9BfoFANwuLsyP/YMG0IDLGgAABIJYqwkAAHNx2VwYG/pEA25rAADQSm+BfgEAt4sL82P/oAE04LIGAACBINZqAgDAXFw2F8aGPtGA2xoAALTSW6BfAMDt4sL82D9oAA24rAEAQCCItZoAADAXl82FsaFPNOC2BgAArfQW6BcAcLu4MD/2DxpAAy5rAAAQCGKtJgAAzMVlc2Fs6BMNuK0BAEArvQX6BQDcLi7Mj/2DBtCAyxoAAASCWKsJAABzcdlcGBv6RANuawAA0EpvgX4BALeLC/Nj/6ABNOCyBgAAgSDWagIAwFxcNhfGhj7RgNsaAAC00lugXwDA7eLC/Ng/aAANuKwBAEAgiLWaAAAwF5fNhbGhTzTgtgYAAK30FugXAHC7uDA/9g8aQAMuawAAEAhirSYAAMzFZXNhbOgTDbitAQBAK70F+gUA3C4uzI/9gwbQgMsaAAAEglirCQAAc3HZXBgb+kQDbmsAANBKb4F+AQC3iwvzY/+gATTgsgYAAIEg1moCAMBcksylp6fHrFy9rtCf1WvXm/UbN5vNW7aardu2m/adHWbX7j1m3/4D5tChQyZpnHk819vXZ1av25Db3Ndt2FTYXOz6bG/fkdtcVq5ZZ7oL3Dd57G/azOaBAIBWegv0CwBkE3+o5mEDd/zEqU79TGuZZRYuWT4ACR27dpvDhw/nFqQrVq/Nde4WbIrQTk9vr5k8/enc5jJn/qJC5lHEWtFHc14IAAgEsVYTAEBzog/dLFwEgDiQPD5xqmmZPc9s2NQqfobAHtU+OXV6bsE5b9HSQoJz85a23OZg98eevfsKmUfo9ebz/AAArfQW6BcAAACSzMcHAKgEggmTnzKLlq4w9sxA0nyaeW7N+o25huf+/QfExlprfk89PTu3OdizMbX65fny+AoAIBDEWk0AAOUp1EZM2TcAqISB6TPniIDA4Z4eM+mp/E6fL1m+MtcA3ba9PbfwnzBpmjnQ2Znr+BvRK6/V8zEAQCu9BfoFAPQKx2XT8hkALAzYtwfs+/j2w4xZ1nnj5i35hejkp0xXV1em8Q02t6fnzM9t7MtXrslt3IPNif9zz68AAIEg1moCAHCvoFwwOd8BIDojYE+B796zt+mw6u3tNVNbZuUWpPZT9Hns7527duc25ienTDfd3d25jDuPtaDNfD0OANBKb4F+AYB8i8NX8wkFAAbOBkyaZra0bWs6sLa2bc8vTKdOz+XbDHMXLM5tzGvWbWh6LX2tB8Zd2ycBAIEg1moCAKgt7DIXfUgAEEGAva5As/t0xqy5uQXquo2y1wXYu29/bmO1n4mwn41odh35u/D8BgDQSm+BfgGA8ApSwmRDAwALAU9Mmd702wHtO3bmFqr2e/r2rQaJ/WbbWLR0eW5j3dS6RWycUvOlHV0PAwAEglirCQBAt3hcNa8QAcBCwKRpLWb/gea+fjdr3sLcgrV1a5tIsHZ2HjSPT5qWyzintcwWBRVXtc+4GvNEAEArvQX6BQAaE3tZzCFUALAQYIO8mf1or95n/z6Pn6dmzmlqTPF5LFu5Opfx2Tm3bWsXGWN8zDz224MAAIEg1moCAPC7+PIyz5ABwIbZtvYdTYXZ/EVLcwvY7e07mxpTpIHu7kPmiclP5TI++5XCqB+2eEalBgAArfQW6BcAoJgrizn6PXQAsF8PbOZ9d3tjorxOsc+auyBTyNobGOVxdsK2ubNjV6axRbpiG57fAAACQazVBAAQXkFKmGzoAGBDzV7kp5m1WrxsRW5B2+xNguwn8ydOm5HLuOYuXNzUOjWztvyNf34EAGilt0C/AIB/BVeESZYBAOyn75tZy86DB42990AeR9v2LYZmxmRviJTHeOwVFe3XCpsZE39TDm8BAASCWKsJAKAcRdqoGZcBAGxgNns3u+Wr1uQWuI1+S8G+lTFlxsxcxmNvsNSodnh9uTwFANBKb4F+AYByFWtacy4LAKzdsLGpgLMfuLOXxM3jqHvJ8lUNjal167ZcxmHPctizHWk1w+vK6SUAgEAQazUBAJSzaOuZdV4AMHXGLGM/SBf/saeZ7cV27PvyK1evM3NyvJRtZWg3+5VAu372kriVbUn9boO3qyv9tfbt3Q+l+q5sx95MqZ5O+H/8AwDQSm+BfgEACjjJxPMCgGlPz04dKvYmPnlefMeGnf1E/+HDh1OPqXKt7N9Neqoll/BdlfImQdtzukLhk1NnmO5Dh5pal8o14vfw/QUAEAhirSYAgPALtBkTdgEAonHn+fU2CwE7MtwjYMPmfD58ZwM4DZjYrw5WHrVL/d7sWyPRPmNbHl8BALTSW6BfAKA8hdqIKbsEAPZDbi2z5+USdDYws1yG147Nvq0hFbyV7azfuHnQI/C8rkxovx3Rww1/Bl37Rmop9NcCAAJBrNUEAAAAJBmUSwBgx7dv//7cLsBTL2iT1qfyOXur4crglvp9yvSZg16saF5OVyXcvGUr4deHL1RqfLDfAQCt9BboFwCg0JOK2zUAsGO0N6ORCtfKdlamfL89aZ2i5/K6XXCtsxP2Q5SVc5D6/amn5wwKHdF82eIbkQYAAIEg1moCAKCQo0Ku3LoIAPMWLskl9BYvW5n5iDevD+PZT/hX7pfodztmqdCvbKfZeyRE42JbPj8BALTSW6BfAKB8BZvGpF0EAPu1tMqwkvp93qIliSGbZp0qX5PXB/Ls1yMr+znY1WUm5HDL35kZ70VQOUZ+L4+vAAACQazVBABQnkJtxJRdBIB1GzflAgBz5i96TcA2sk6Vr83rQ3nxaxXkBULN3oegcg34vXx+AgBopbdAvwBA+Qo2jUm7CAD2CnlSR/2V7SxYskwEAOy65vU2hb0mgm3f7pcncrgCodRZkDTa4jVheQ4AIBDEWk0AAGEVo5S5uggA9hR1ZXBL/b5s5WoxANi3b7+xN9CRGlvUzvzFr9wkaO36jeJt24sh2Q8VSmmHdsrlKQCAVnoL9AsAlKtY05qziwAwcWo+t7u1FxpKuy5pXmdvoBMFt9Q2uitfHlceXLI8+4cg06wLrwnTawAAgSDWagIACLMos5qtawBgb0ojFabxduzV/LKuV+Xfd3bmc7tge12A+NizPrb3HTh4sEt0/pVrwe/h+wsAoJXeAv0CAOEXaDMm7BoALFi8TDz8ovDcum27eADmdbvgaMxSW4lrIDSjL/4mHN8BAASCWKsJACCcQpQ0VZcAoG17e27hb4N0Z8cucQDo7u7O5cN6UsFv27FvqRw61NyNkCS1Rlt+exAAoJXeAv0CAH4XX17m6QoA2DvS5fG+dxSkWe4GWG/t876JUTSHZrdZL4Fcb/78fzm8BQAQCGKtJgCAchRpo2bsAgDYC+BMa8nnRjtRaOZ58ZuB2wVPy+d2wdH4m93azxNwwx9qv1FfSHo9AKCV3gL9AgCYQFJRawLAgc6DJq8b3cQDc43wNwDia7lhUz63C47Po9HHte4xEB8/j/GHehoAAASCWKsJAIACTyrwvABgyoyZxl5xrvKnbVu7sUG8cMlyY2+qk8dlbmsFZN5Xv+sZuF2w/Kf3a80nzfPTZ841vdztTvxzH0l1VIbnAACt9BboFwAAAJJMKi8ASBNQRb3mySnTC7nznT3aLmpOafqxNy5K2uc8hxc0owEAQCCItZoAACj6pKIvAwDYC/YkzV36OXu0be/qlyac835N/L4C0nOlvfL5CQCgld4C/QIA5SvYNCYdOgDYT/8fONBZCADY9d7evsMJAIjuKZBGA7wGb0ijAQBAIIi1mgAAKPKkIg8dADQuf5vXvQzSnjWI7ieQtL95Dh9oVgMAgFZ6C/QLAFD4SYUfMgDYy9/aSwsnzTvP5zp27VY7C2DPeOw/wA1/8ty/ZW0bABAIYq0mAAAAIMm4QgYAybv/Ja3dYM/NXbhEBQKWrlhVOPAMtg78Xzi+AwBopbdAvwBAOIUoaaqhAsC0ltnGXl1Qcq0aaWtvTrcLHuxtgCemTDddXdzwp5H9xGvT+yIAIBDEWk0AAOmFXiZTCBEA7LXvXTgNnsftggcDgFVr16sBT5lqpqxzBQC00lugXwAAAEgyrtAAwF5caOeu3U4Eob3SYVEXO5o0rcXYSxIn7WOeo/YlNAAACASxVhMAACaQZAKhAYBrl761n0MY7Khd6v/spYiT9i/PUfdSGgAAtNJboF8AACNIMoJQAMB+4n/zlq3OhWBXAbcLnjpjlrGXIk7avzxH3UtpAAAQCGKtJgAAjCDJCEIAAHvN+3379zsbgKvXrs/1LMCWtm3Ozj1JczznpxcBAFrpLdAvAOBn0eVtlr4DgD3F7vrtbvO8XbC9qVLeGqF9vMNqAAAQCGKtJgAAijjJyH0FgJbZ84xPN7vJ6yxAUfc5SNIOz5XLUwAArfQW6BcAKFexpjVnnwDAXuVu/qKlxl5pL+38XHnd+o2bc3kbAACgrovSOAAgEMRaTQAAGEWSUfgAAFOmzzTLV60xBzqLu6lP0lpleQ4AoP6y6MeFvwUAtNJboF8AAANKMhHXAMAe5dvT+/a9/a3btpuDB8O4sh0AQP0l1Z9PzwEAAkGs1QQAgAElmU1eAPDklOnGnp5O+rHXq1+5Zp1Zt2HTwFf32ra3m50du8yevfuCvZgNAED9JdWfT88BAFrpLdAvAIABJZlNXgAw7enZ3r1Pn7Q+Us8BANSflJa02gEABIJYqwkAAANKMg4AoBhdAADFrHOSxnlOZu0BAK30FugXAJApgtDMBAAoRhcAQDHrHFp9ujQfAEAgiLWaAAAwoCQzAQCK0QUAUMw6J2mc52TWHgDQSm+BfgEAmSIIzUwAgGJ0AQAUs86h1adL8wEABIJYqwkAAANKMhMAoBhdAADFrHOSxnlOZu0BAK30FugXAJApgtDMBAAoRhcAQDHrHFp9ujQfAEAgiLWaAAAwoCQzAQCK0QUAUMw6J2mc52TWHgDQSm+BfgEAmSIIzUwAgGJ0AQAUs86h1adL8wEABIJYqwkAAANKMhMAoBhdAADFrHOSxnlOZu0BAK30FugXAJApgtDMBAAoRhcAQDHrHFp9ujQfAEAgiLWaAAAwoCQzAQCK0QUAUMw6J2mc52TWHgDQSm+BfgEAmSIIzUwAgGJ0AQAUs86h1adL8wEABIJYqwkAAANKMhMAoBhdAADFrHOSxnlOZu0BAK30FugXAJApgtDMBAAoRhcAQDHrHFp9ujQfAEAgiLWaAAAwoCQzAQCK0QUAUMw6J2mc52TWHgDQSm+BfgEAmSIIzUwAgGJ0AQAUs86h1adL8wEABIJYqwkAAANKMhMAoBhdAADFrHOSxnlOZu0BAK30FugXAJApgtDMBAAoRhcAQDHrHFp9ujQfAEAgiLWaAAAwoCQzAQCK0QUAUMw6J2mc52TWHgDQSm+BfgEAmSIIzUwAgGJ0AQAUs86h1adL8wEABIJYqwkAAANKMhMAoBhdAADFrHOSxnlOZu0BAK30FugXAJApgtDMBAAoRhcAQDHrHFp9ujQfAEAgiLWaAAAwoCQzAQCK0QUAUMw6J2mc52TWHgDQSm+BfgEAmSIIzUwAgGJ0AQAUs86h1adL8wEABIJYqwkAAANKMhMAoBhdAADFrHOSxnlOZu0BAK30FugXAJApgtDMpKenx6xeu178Z8OmVhPaWmWZz67de8TX2O63bdvbWec+ajuLNtP+LQAgEMRaTQAAmETaQud1aAUNoIG4BgAArfQW6BcAoKDjBc1jNIEG0EBaDQAAAkGs1QQAQKGnLXReh1bQABqIawAA0EpvgX4BAAo6XtA8RhNoAA2k1QAAIBDEWk0AAK4iURsAAAO9SURBVBR62kLndWgFDaCBuAYAAK30FugXAKCg4wXNYzSBBtBAWg0AAAJBrNUEAEChpy10XodW0AAaiGsAANBKb4F+AQAKOl7QPEYTaAANpNUAACAQxFpNAAAUetpC53VoBQ2ggbgGAACt9BboFwCgoOMFzWM0gQbQQFoNAAACQazVBABAoactdF6HVtAAGohrAADQSm+BfgEACjpe0DxGE2gADaTVAAAgEMRaTQAAFHraQud1aAUNoIG4BgAArfQW6BcAoKDjBc1jNIEG0EBaDQAAAkGs1QQAQKGnLXReh1bQABqIawAA0EpvgX4BAAo6XtA8RhNoAA2k1QAAIBDEWk0AABR62kLndWgFDaCBuAYAAK30FugXAKCg4wXNYzSBBtBAWg0AAAJBrNUEAEChpy10XodW0AAaiGsAANBKb4F+AQAKOl7QPEYTaAANpNUAACAQxFpNAAAUetpC53VoBQ2ggbgGAACt9BboFwCgoOMFzWM0gQbQQFoNAAACQazVBABAoactdF6HVtAAGohrAADQSm+BfgEACjpe0DxGE2gADaTVAAAgEMRaTQAAFHraQud1aAUNoIG4BgAArfQW6BcAoKDjBc1jNIEG0EBaDQAAAkGs1QQAQKGnLXReh1bQABqIawAA0EpvgX4BAAo6XtA8RhNoAA2k1QAAIBDEWk0AABR62kLndWgFDaCBuAYAAK30FugXAKCg4wXNYzSBBtBAWg0AAAJBrNUEAEChpy10XodW0AAaiGsAANBKb4F+AQAKOl7QPEYTaAANpNUAACAQxFpNAAAUetpC53VoBQ2ggbgGAACt9BboFwCgoOMFzWM0gQbQQFoNAAACQazVBABAoactdF6HVtAAGohrAADQSm+BfgEACjpe0DxGE2gADaTVAAAgEMRaTQAAFHraQud1aAUNoIG4BgAArfQW6BcAoKDjBc1jNIEG0EBaDQAAAkGs1QQAQKGnLXReh1bQABqIawAA0EpvgX4BAAo6XtA8RhNoAA2k1QAAIBDEWk0AABR62kLndWgFDaCBuAYAAK30FugXAKCg4wXNYzSBBtBAWg0AAAJBrNUEAEChpy10XodW0AAaiGsAANBKb4F+AQAKOl7QPEYTaAANpNUAACAQxFpNAAAUetpC53VoBQ2ggbgGAACt9BboFwCgoOMFzWM0gQbQQFoNAAACQazVBABAoactdF6HVtAAGohrAADQSm+BfgEACjpe0DxGE2gADaTVAAAgEMRaTQAAFHraQud1aAUNoIG4BkIHgP8Hc9h9DZT4eGkAAAAASUVORK5CYII=;" vertex="1" parent="1">
          <mxGeometry x="1850" y="351.88" width="58.12" height="58.12" as="geometry" />
        </mxCell>
      </root>
    </mxGraphModel>
  </diagram>
</mxfile>
